  0
SECTION
  2
HEADER
  9
$ACADVER
  1
AC1009
  9
$DWGCODEPAGE
  3
mac-roman
  9
$INSBASE
 10
0.0
 20
0.0
 30
0.0
  9
$EXTMIN
 10
0.0
 20
0.0
 30
0.0
  9
$EXTMAX
 10
322.6399999999999
 20
406.96
 30
0.0
  9
$LIMMIN
 10
0.0
 20
0.0
  9
$LIMMAX
 10
12.0
 20
9.0
  9
$ORTHOMODE
 70
     0
  9
$REGENMODE
 70
     1
  9
$FILLMODE
 70
     1
  9
$QTEXTMODE
 70
     0
  9
$MIRRTEXT
 70
     1
  9
$DRAGMODE
 70
     2
  9
$LTSCALE
 40
1.0
  9
$OSMODE
 70
    37
  9
$ATTMODE
 70
     1
  9
$TEXTSIZE
 40
0.2
  9
$TRACEWID
 40
0.05
  9
$TEXTSTYLE
  7
STANDARD
  9
$CLAYER
  8
0
  9
$CELTYPE
  6
BYLAYER
  9
$CECOLOR
 62
   256
  9
$DIMSCALE
 40
1.0
  9
$DIMASZ
 40
0.18
  9
$DIMEXO
 40
0.0625
  9
$DIMDLI
 40
0.38
  9
$DIMRND
 40
0.0
  9
$DIMDLE
 40
0.0
  9
$DIMEXE
 40
0.18
  9
$DIMTP
 40
0.0
  9
$DIMTM
 40
0.0
  9
$DIMTXT
 40
0.18
  9
$DIMCEN
 40
0.09
  9
$DIMTSZ
 40
0.0
  9
$DIMTOL
 70
     0
  9
$DIMLIM
 70
     0
  9
$DIMTIH
 70
     1
  9
$DIMTOH
 70
     1
  9
$DIMSE1
 70
     0
  9
$DIMSE2
 70
     0
  9
$DIMTAD
 70
     0
  9
$DIMZIN
 70
     0
  9
$DIMBLK
  1

  9
$DIMASO
 70
     1
  9
$DIMSHO
 70
     1
  9
$DIMPOST
  1

  9
$DIMAPOST
  1

  9
$DIMALT
 70
     0
  9
$DIMALTD
 70
     2
  9
$DIMALTF
 40
25.4
  9
$DIMLFAC
 40
1.0
  9
$DIMTOFL
 70
     0
  9
$DIMTVP
 40
0.0
  9
$DIMTIX
 70
     0
  9
$DIMSOXD
 70
     0
  9
$DIMSAH
 70
     0
  9
$DIMBLK1
  1

  9
$DIMBLK2
  1

  9
$DIMSTYLE
  2
STANDARD
  9
$DIMCLRD
 70
     0
  9
$DIMCLRE
 70
     0
  9
$DIMCLRT
 70
     0
  9
$DIMTFAC
 40
1.0
  9
$DIMGAP
 40
0.09
  9
$LUNITS
 70
     2
  9
$LUPREC
 70
     2
  9
$SKETCHINC
 40
0.1
  9
$FILLETRAD
 40
0.5
  9
$AUNITS
 70
     0
  9
$AUPREC
 70
     0
  9
$MENU
  1
.
  9
$ELEVATION
 40
0.0
  9
$PELEVATION
 40
0.0
  9
$THICKNESS
 40
0.0
  9
$LIMCHECK
 70
     0
  9
$CHAMFERA
 40
0.0
  9
$CHAMFERB
 40
0.0
  9
$SKPOLY
 70
     0
  9
$TDCREATE
 40
2457452.715856481
  9
$TDUPDATE
 40
2457452.715856481
  9
$TDINDWG
 40
0.0000000116
  9
$TDUSRTIMER
 40
0.0000000116
  9
$USRTIMER
 70
     1
  9
$ANGBASE
 50
0.0
  9
$ANGDIR
 70
     0
  9
$PDMODE
 70
     0
  9
$PDSIZE
 40
0.0
  9
$PLINEWID
 40
0.0
  9
$COORDS
 70
     1
  9
$SPLFRAME
 70
     0
  9
$SPLINETYPE
 70
     6
  9
$SPLINESEGS
 70
     8
  9
$ATTDIA
 70
     0
  9
$ATTREQ
 70
     1
  9
$HANDLING
 70
     1
  9
$HANDSEED
  5
268
  9
$SURFTAB1
 70
     6
  9
$SURFTAB2
 70
     6
  9
$SURFTYPE
 70
     6
  9
$SURFU
 70
     6
  9
$SURFV
 70
     6
  9
$UCSNAME
  2

  9
$UCSORG
 10
0.0
 20
0.0
 30
0.0
  9
$UCSXDIR
 10
1.0
 20
0.0
 30
0.0
  9
$UCSYDIR
 10
0.0
 20
1.0
 30
0.0
  9
$PUCSNAME
  2

  9
$PUCSORG
 10
0.0
 20
0.0
 30
0.0
  9
$PUCSXDIR
 10
1.0
 20
0.0
 30
0.0
  9
$PUCSYDIR
 10
0.0
 20
1.0
 30
0.0
  9
$USERI1
 70
     0
  9
$USERI2
 70
     0
  9
$USERI3
 70
     0
  9
$USERI4
 70
     0
  9
$USERI5
 70
     0
  9
$USERR1
 40
0.0
  9
$USERR2
 40
0.0
  9
$USERR3
 40
0.0
  9
$USERR4
 40
0.0
  9
$USERR5
 40
0.0
  9
$WORLDVIEW
 70
     1
  9
$SHADEDGE
 70
     3
  9
$SHADEDIF
 70
    70
  9
$TILEMODE
 70
     1
  9
$MAXACTVP
 70
    64
  9
$PLIMCHECK
 70
     0
  9
$PEXTMIN
 10
1.000000000000000E+20
 20
1.000000000000000E+20
 30
1.000000000000000E+20
  9
$PEXTMAX
 10
-1.000000000000000E+20
 20
-1.000000000000000E+20
 30
-1.000000000000000E+20
  9
$PLIMMIN
 10
0.0
 20
0.0
  9
$PLIMMAX
 10
12.0
 20
9.0
  9
$UNITMODE
 70
     0
  9
$VISRETAIN
 70
     1
  9
$PLINEGEN
 70
     0
  9
$PSLTSCALE
 70
     1
  0
ENDSEC
  0
SECTION
  2
TABLES
  0
TABLE
  2
VPORT
 70
     1
  0
VPORT
  2
*ACTIVE
 70
     0
 10
0.0
 20
0.0
 11
1.0
 21
1.0
 12
161.32
 22
203.48
 13
0.0
 23
0.0
 14
0.5
 24
0.5
 15
0.5
 25
0.5
 16
0.0
 26
0.0
 36
1.0
 17
0.0
 27
0.0
 37
0.0
 40
415.0992000000001
 41
0.7928051896992331
 42
50.0
 43
0.0
 44
0.0
 50
0.0
 51
0.0
 71
     0
 72
   100
 73
     1
 74
     3
 75
     0
 76
     0
 77
     0
 78
     0
  0
ENDTAB
  0
TABLE
  2
LTYPE
 70
     1
  0
LTYPE
  2
CONTINUOUS
 70
     0
  3
Solid line
 72
    65
 73
     0
 40
0.0
  0
ENDTAB
  0
TABLE
  2
LAYER
 70
    15
  0
LAYER
  2
0
 70
     0
 62
     7
  6
CONTINUOUS
  0
LAYER
  2
FIXING_BORDER
 70
     0
 62
     6
  6
CONTINUOUS
  0
LAYER
  2
SCREWS-BORDER
 70
     0
 62
     3
  6
CONTINUOUS
  0
LAYER
  2
SCREWS-PCB
 70
     0
 62
     3
  6
CONTINUOUS
  0
LAYER
  2
FIXING
 70
     0
 62
     3
  6
CONTINUOUS
  0
LAYER
  2
LED_STRIP10
 70
     0
 62
     4
  6
CONTINUOUS
  0
LAYER
  2
LED_STRIP12
 70
     0
 62
     4
  6
CONTINUOUS
  0
LAYER
  2
BORDER
 70
     0
 62
     7
  6
CONTINUOUS
  0
LAYER
  2
SCREWS-PIR
 70
     0
 62
     3
  6
CONTINUOUS
  0
LAYER
  2
ENGRAVE-SCREWS
 70
     0
 62
     1
  6
CONTINUOUS
  0
LAYER
  2
STRIP_CUTS
 70
     0
 62
     3
  6
CONTINUOUS
  0
LAYER
  2
USB_OPENING
 70
     0
 62
     3
  6
CONTINUOUS
  0
LAYER
  2
GRID_PCB_EX
 70
     0
 62
     6
  6
CONTINUOUS
  0
LAYER
  2
GRID_LED
 70
     0
 62
     6
  6
CONTINUOUS
  0
LAYER
  2
GRID_PCB
 70
     0
 62
     6
  6
CONTINUOUS
  0
ENDTAB
  0
TABLE
  2
STYLE
 70
     1
  0
STYLE
  2
STANDARD
 70
     0
 40
0.0
 41
1.0
 50
0.0
 71
     0
 42
0.2
  3
txt
  4

  0
ENDTAB
  0
TABLE
  2
VIEW
 70
     0
  0
ENDTAB
  0
TABLE
  2
UCS
 70
     0
  0
ENDTAB
  0
TABLE
  2
APPID
 70
     1
  0
APPID
  2
ACAD
 70
     0
  0
ENDTAB
  0
TABLE
  2
DIMSTYLE
 70
     1
  0
DIMSTYLE
  2
STANDARD
 70
     0
  3

  4

  5

  6

  7

 40
1.0
 41
0.18
 42
0.0625
 43
0.38
 44
0.18
 45
0.0
 46
0.0
 47
0.0
 48
0.0
140
0.18
141
0.09
142
0.0
143
25.4
144
1.0
145
0.0
146
1.0
147
0.09
 71
     0
 72
     0
 73
     1
 74
     1
 75
     0
 76
     0
 77
     0
 78
     0
170
     0
171
     2
172
     0
173
     0
174
     0
175
     0
176
     0
177
     0
178
     0
  0
ENDTAB
  0
ENDSEC
  0
SECTION
  2
BLOCKS
  0
BLOCK
  8
0
  2
$MODEL_SPACE
 70
     0
 10
0.0
 20
0.0
 30
0.0
  3
$MODEL_SPACE
  1

  0
ENDBLK
  5
21
  8
0
  0
BLOCK
 67
     1
  8
0
  2
$PAPER_SPACE
 70
     0
 10
0.0
 20
0.0
 30
0.0
  3
$PAPER_SPACE
  1

  0
ENDBLK
  5
1D
 67
     1
  8
0
  0
ENDSEC
  0
SECTION
  2
ENTITIES
  0
LINE
  5
6F
  8
FIXING_BORDER
 10
7.0
 20
47.33
 30
0.0
 11
33.33
 21
47.33
 31
0.0
  0
LINE
  5
70
  8
FIXING_BORDER
 10
33.33
 20
87.66
 30
0.0
 11
7.0
 21
87.66
 31
0.0
  0
CIRCLE
  5
72
  8
SCREWS-BORDER
 10
29.83
 20
84.16
 30
0.0
 40
0.95
  0
CIRCLE
  5
73
  8
SCREWS-BORDER
 10
29.83
 20
50.83
 30
0.0
 40
0.95
  0
CIRCLE
  5
75
  8
SCREWS-PCB
 10
29.83
 20
57.49499999999999
 30
0.0
 40
1.0
  0
CIRCLE
  5
76
  8
SCREWS-PCB
 10
29.83
 20
77.49499999999999
 30
0.0
 40
1.0
  0
ARC
  5
78
  8
FIXING
 10
26.165
 20
67.49499999999999
 30
0.0
 40
1.5
 50
270.0
 51
90.0
  0
LINE
  5
79
  8
FIXING
 10
26.165
 20
68.99499999999999
 30
0.0
 11
22.76307621135386
 21
68.99499999999999
 31
0.0
  0
ARC
  5
7A
  8
FIXING
 10
20.165
 20
67.495
 30
0.0
 40
3.0
 50
30.00000000000249
 51
60.00000000000475
  0
LINE
  5
7B
  8
FIXING
 10
21.66499999999979
 20
70.09307621135343
 30
0.0
 11
21.665
 21
73.49499999999999
 31
0.0
  0
ARC
  5
7C
  8
FIXING
 10
20.165
 20
73.49499999999999
 30
0.0
 40
1.5
 50
0.0
 51
180.0
  0
LINE
  5
7D
  8
FIXING
 10
18.665
 20
73.49499999999999
 30
0.0
 11
18.66500000000021
 21
70.09307621135343
 31
0.0
  0
ARC
  5
7E
  8
FIXING
 10
20.165
 20
67.495
 30
0.0
 40
3.0
 50
119.9999999999955
 51
240.0000000000039
  0
LINE
  5
7F
  8
FIXING
 10
18.66500000000018
 20
64.89692378864657
 30
0.0
 11
18.665
 21
61.49499999999999
 31
0.0
  0
ARC
  5
80
  8
FIXING
 10
20.165
 20
61.49499999999999
 30
0.0
 40
1.5
 50
180.0
 51
0.0
  0
LINE
  5
81
  8
FIXING
 10
21.665
 20
61.49499999999999
 30
0.0
 11
21.66499999999981
 21
64.89692378864657
 31
0.0
  0
ARC
  5
82
  8
FIXING
 10
20.165
 20
67.495
 30
0.0
 40
3.0
 50
299.999999999996
 51
329.9999999999981
  0
LINE
  5
83
  8
FIXING
 10
22.76307621135327
 20
65.99499999999992
 30
0.0
 11
26.165
 21
65.99499999999999
 31
0.0
  0
LINE
  5
85
  8
LED_STRIP10
 10
297.276
 20
403.46
 30
0.0
 11
297.276
 21
103.49
 31
0.0
  0
LINE
  5
86
  8
LED_STRIP10
 10
307.6759999999999
 20
403.46
 30
0.0
 11
297.276
 21
403.46
 31
0.0
  0
LINE
  5
87
  8
LED_STRIP10
 10
307.6759999999999
 20
103.49
 30
0.0
 11
307.6759999999999
 21
403.46
 31
0.0
  0
LINE
  5
88
  8
LED_STRIP10
 10
297.276
 20
103.49
 30
0.0
 11
307.6759999999999
 21
103.49
 31
0.0
  0
LINE
  5
8A
  8
LED_STRIP12
 10
296.276
 20
403.46
 30
0.0
 11
296.276
 21
103.49
 31
0.0
  0
LINE
  5
8B
  8
LED_STRIP12
 10
308.6759999999999
 20
403.46
 30
0.0
 11
296.276
 21
403.46
 31
0.0
  0
LINE
  5
8C
  8
LED_STRIP12
 10
308.6759999999999
 20
103.49
 30
0.0
 11
308.6759999999999
 21
403.46
 31
0.0
  0
LINE
  5
8D
  8
LED_STRIP12
 10
296.276
 20
103.49
 30
0.0
 11
308.6759999999999
 21
103.49
 31
0.0
  0
LINE
  5
8F
  8
BORDER
 10
322.6399999999999
 20
406.96
 30
0.0
 11
282.3099999999999
 21
406.96
 31
0.0
  0
LINE
  5
90
  8
BORDER
 10
322.6399999999999
 20
0.0
 30
0.0
 11
322.6399999999999
 21
406.96
 31
0.0
  0
LINE
  5
91
  8
BORDER
 10
282.3099999999999
 20
0.0
 30
0.0
 11
322.6399999999999
 21
0.0
 31
0.0
  0
CIRCLE
  5
92
  8
SCREWS-BORDER
 10
319.1399999999999
 20
403.46
 30
0.0
 40
0.95
  0
CIRCLE
  5
93
  8
SCREWS-BORDER
 10
285.8099999999999
 20
403.46
 30
0.0
 40
0.95
  0
CIRCLE
  5
94
  8
SCREWS-BORDER
 10
319.1399999999999
 20
3.5
 30
0.0
 40
0.95
  0
CIRCLE
  5
95
  8
SCREWS-BORDER
 10
285.8099999999999
 20
3.5
 30
0.0
 40
0.95
  0
CIRCLE
  5
96
  8
SCREWS-BORDER
 10
319.1399999999999
 20
203.48
 30
0.0
 40
0.95
  0
CIRCLE
  5
97
  8
SCREWS-BORDER
 10
285.8099999999999
 20
203.48
 30
0.0
 40
0.95
  0
CIRCLE
  5
98
  8
SCREWS-BORDER
 10
319.1399999999999
 20
303.47
 30
0.0
 40
0.95
  0
CIRCLE
  5
99
  8
SCREWS-BORDER
 10
285.8099999999999
 20
303.47
 30
0.0
 40
0.95
  0
CIRCLE
  5
9A
  8
SCREWS-BORDER
 10
319.1399999999999
 20
103.49
 30
0.0
 40
0.95
  0
CIRCLE
  5
9B
  8
SCREWS-BORDER
 10
285.8099999999999
 20
103.49
 30
0.0
 40
0.95
  0
CIRCLE
  5
9C
  8
SCREWS-PCB
 10
292.475
 20
3.5
 30
0.0
 40
1.0
  0
CIRCLE
  5
9D
  8
SCREWS-PCB
 10
312.475
 20
3.5
 30
0.0
 40
1.0
  0
LINE
  5
9E
  8
LED_STRIP10
 10
289.3099999999999
 20
386.7950000000001
 30
0.0
 11
315.6399999999999
 21
386.7950000000001
 31
0.0
  0
LINE
  5
9F
  8
LED_STRIP10
 10
289.3099999999999
 20
353.465
 30
0.0
 11
315.6399999999999
 21
353.465
 31
0.0
  0
LINE
  5
A0
  8
LED_STRIP10
 10
289.3099999999999
 20
320.135
 30
0.0
 11
315.6399999999999
 21
320.135
 31
0.0
  0
LINE
  5
A1
  8
LED_STRIP10
 10
289.3099999999999
 20
286.8050000000001
 30
0.0
 11
315.6399999999999
 21
286.8050000000001
 31
0.0
  0
LINE
  5
A2
  8
LED_STRIP10
 10
289.3099999999999
 20
253.475
 30
0.0
 11
315.6399999999999
 21
253.475
 31
0.0
  0
LINE
  5
A3
  8
LED_STRIP10
 10
289.3099999999999
 20
220.145
 30
0.0
 11
315.6399999999999
 21
220.145
 31
0.0
  0
LINE
  5
A4
  8
LED_STRIP10
 10
289.3099999999999
 20
186.815
 30
0.0
 11
315.6399999999999
 21
186.815
 31
0.0
  0
LINE
  5
A5
  8
LED_STRIP10
 10
289.3099999999999
 20
153.485
 30
0.0
 11
315.6399999999999
 21
153.485
 31
0.0
  0
LINE
  5
A6
  8
LED_STRIP10
 10
289.3099999999999
 20
120.155
 30
0.0
 11
315.6399999999999
 21
120.155
 31
0.0
  0
CIRCLE
  5
A8
  8
SCREWS-PIR
 10
302.4759746309704
 20
68.99000000000001
 30
0.0
 40
1.0
  0
CIRCLE
  5
A9
  8
SCREWS-PIR
 10
302.4759746309704
 20
96.99000000000001
 30
0.0
 40
1.0
  0
CIRCLE
  5
AA
  8
SCREWS-PCB
 10
191.485
 20
3.5
 30
0.0
 40
1.0
  0
CIRCLE
  5
AB
  8
SCREWS-PCB
 10
171.485
 20
3.5
 30
0.0
 40
1.0
  0
CIRCLE
  5
AC
  8
SCREWS-BORDER
 10
164.82
 20
103.49
 30
0.0
 40
0.95
  0
CIRCLE
  5
AD
  8
SCREWS-BORDER
 10
198.15
 20
103.49
 30
0.0
 40
0.95
  0
CIRCLE
  5
AE
  8
SCREWS-BORDER
 10
164.82
 20
303.47
 30
0.0
 40
0.95
  0
CIRCLE
  5
AF
  8
SCREWS-BORDER
 10
198.15
 20
303.47
 30
0.0
 40
0.95
  0
CIRCLE
  5
B0
  8
SCREWS-BORDER
 10
164.82
 20
203.48
 30
0.0
 40
0.95
  0
CIRCLE
  5
B1
  8
SCREWS-BORDER
 10
198.15
 20
203.48
 30
0.0
 40
0.95
  0
CIRCLE
  5
B2
  8
SCREWS-BORDER
 10
164.82
 20
3.5
 30
0.0
 40
0.95
  0
CIRCLE
  5
B3
  8
SCREWS-BORDER
 10
198.15
 20
3.5
 30
0.0
 40
0.95
  0
CIRCLE
  5
B4
  8
SCREWS-BORDER
 10
164.82
 20
403.46
 30
0.0
 40
0.95
  0
CIRCLE
  5
B5
  8
SCREWS-BORDER
 10
198.15
 20
403.46
 30
0.0
 40
0.95
  0
CIRCLE
  5
B6
  8
SCREWS-PCB
 10
110.825
 20
3.5
 30
0.0
 40
1.0
  0
CIRCLE
  5
B7
  8
SCREWS-PCB
 10
90.82499999999999
 20
3.5
 30
0.0
 40
1.0
  0
CIRCLE
  5
B8
  8
SCREWS-BORDER
 10
84.16
 20
103.49
 30
0.0
 40
0.95
  0
CIRCLE
  5
B9
  8
SCREWS-BORDER
 10
117.49
 20
103.49
 30
0.0
 40
0.95
  0
CIRCLE
  5
BA
  8
SCREWS-BORDER
 10
84.16
 20
303.47
 30
0.0
 40
0.95
  0
CIRCLE
  5
BB
  8
SCREWS-BORDER
 10
117.49
 20
303.47
 30
0.0
 40
0.95
  0
CIRCLE
  5
BC
  8
SCREWS-BORDER
 10
84.16
 20
203.48
 30
0.0
 40
0.95
  0
CIRCLE
  5
BD
  8
SCREWS-BORDER
 10
117.49
 20
203.48
 30
0.0
 40
0.95
  0
CIRCLE
  5
BE
  8
SCREWS-BORDER
 10
84.16
 20
3.5
 30
0.0
 40
0.95
  0
CIRCLE
  5
BF
  8
SCREWS-BORDER
 10
117.49
 20
3.5
 30
0.0
 40
0.95
  0
CIRCLE
  5
C0
  8
SCREWS-BORDER
 10
84.16
 20
403.46
 30
0.0
 40
0.95
  0
CIRCLE
  5
C1
  8
SCREWS-BORDER
 10
117.49
 20
403.46
 30
0.0
 40
0.95
  0
CIRCLE
  5
C2
  8
SCREWS-BORDER
 10
36.83
 20
403.46
 30
0.0
 40
0.95
  0
CIRCLE
  5
C3
  8
SCREWS-BORDER
 10
3.5
 20
403.46
 30
0.0
 40
0.95
  0
CIRCLE
  5
C4
  8
SCREWS-BORDER
 10
36.83
 20
3.5
 30
0.0
 40
0.95
  0
CIRCLE
  5
C5
  8
SCREWS-BORDER
 10
3.5
 20
3.5
 30
0.0
 40
0.95
  0
CIRCLE
  5
C6
  8
SCREWS-BORDER
 10
36.83
 20
203.48
 30
0.0
 40
0.95
  0
CIRCLE
  5
C7
  8
SCREWS-BORDER
 10
3.5
 20
203.48
 30
0.0
 40
0.95
  0
CIRCLE
  5
C8
  8
SCREWS-BORDER
 10
36.83
 20
303.47
 30
0.0
 40
0.95
  0
CIRCLE
  5
C9
  8
SCREWS-BORDER
 10
3.5
 20
303.47
 30
0.0
 40
0.95
  0
CIRCLE
  5
CA
  8
SCREWS-BORDER
 10
36.83
 20
103.49
 30
0.0
 40
0.95
  0
CIRCLE
  5
CB
  8
SCREWS-BORDER
 10
3.5
 20
103.49
 30
0.0
 40
0.95
  0
CIRCLE
  5
CC
  8
SCREWS-PCB
 10
10.165
 20
3.5
 30
0.0
 40
1.0
  0
CIRCLE
  5
CD
  8
SCREWS-PCB
 10
30.165
 20
3.5
 30
0.0
 40
1.0
  0
CIRCLE
  5
CF
  8
ENGRAVE-SCREWS
 10
36.83
 20
3.5
 30
0.0
 40
2.1
  0
CIRCLE
  5
D0
  8
ENGRAVE-SCREWS
 10
3.5
 20
3.5
 30
0.0
 40
2.1
  0
CIRCLE
  5
D1
  8
ENGRAVE-SCREWS
 10
10.165
 20
3.5
 30
0.0
 40
2.1
  0
CIRCLE
  5
D2
  8
ENGRAVE-SCREWS
 10
30.165
 20
3.5
 30
0.0
 40
2.1
  0
CIRCLE
  5
D3
  8
ENGRAVE-SCREWS
 10
3.5
 20
103.49
 30
0.0
 40
2.1
  0
CIRCLE
  5
D4
  8
ENGRAVE-SCREWS
 10
36.83
 20
103.49
 30
0.0
 40
2.1
  0
CIRCLE
  5
D5
  8
ENGRAVE-SCREWS
 10
36.83
 20
203.48
 30
0.0
 40
2.1
  0
CIRCLE
  5
D6
  8
ENGRAVE-SCREWS
 10
3.5
 20
203.48
 30
0.0
 40
2.1
  0
CIRCLE
  5
D7
  8
ENGRAVE-SCREWS
 10
3.5
 20
303.47
 30
0.0
 40
2.1
  0
CIRCLE
  5
D8
  8
ENGRAVE-SCREWS
 10
36.83
 20
303.47
 30
0.0
 40
2.1
  0
CIRCLE
  5
D9
  8
ENGRAVE-SCREWS
 10
3.5
 20
403.46
 30
0.0
 40
2.1
  0
CIRCLE
  5
DA
  8
ENGRAVE-SCREWS
 10
36.83
 20
403.46
 30
0.0
 40
2.1
  0
CIRCLE
  5
DB
  8
SCREWS-PCB
 10
70.49499999999999
 20
3.5
 30
0.0
 40
1.0
  0
CIRCLE
  5
DC
  8
SCREWS-PCB
 10
50.49499999999999
 20
3.5
 30
0.0
 40
1.0
  0
CIRCLE
  5
DD
  8
SCREWS-BORDER
 10
43.83
 20
103.49
 30
0.0
 40
0.95
  0
CIRCLE
  5
DE
  8
SCREWS-BORDER
 10
77.16
 20
103.49
 30
0.0
 40
0.95
  0
CIRCLE
  5
DF
  8
SCREWS-BORDER
 10
43.83
 20
303.47
 30
0.0
 40
0.95
  0
CIRCLE
  5
E0
  8
SCREWS-BORDER
 10
77.16
 20
303.47
 30
0.0
 40
0.95
  0
CIRCLE
  5
E1
  8
SCREWS-BORDER
 10
43.83
 20
203.48
 30
0.0
 40
0.95
  0
CIRCLE
  5
E2
  8
SCREWS-BORDER
 10
77.16
 20
203.48
 30
0.0
 40
0.95
  0
CIRCLE
  5
E3
  8
SCREWS-BORDER
 10
43.83
 20
3.5
 30
0.0
 40
0.95
  0
CIRCLE
  5
E4
  8
SCREWS-BORDER
 10
77.16
 20
3.5
 30
0.0
 40
0.95
  0
CIRCLE
  5
E5
  8
SCREWS-BORDER
 10
43.83
 20
403.46
 30
0.0
 40
0.95
  0
CIRCLE
  5
E6
  8
SCREWS-BORDER
 10
77.16
 20
403.46
 30
0.0
 40
0.95
  0
CIRCLE
  5
E7
  8
SCREWS-BORDER
 10
157.82
 20
403.46
 30
0.0
 40
0.95
  0
CIRCLE
  5
E8
  8
SCREWS-BORDER
 10
124.49
 20
403.46
 30
0.0
 40
0.95
  0
CIRCLE
  5
E9
  8
SCREWS-BORDER
 10
157.82
 20
3.5
 30
0.0
 40
0.95
  0
CIRCLE
  5
EA
  8
SCREWS-BORDER
 10
124.49
 20
3.5
 30
0.0
 40
0.95
  0
CIRCLE
  5
EB
  8
SCREWS-BORDER
 10
157.82
 20
203.48
 30
0.0
 40
0.95
  0
CIRCLE
  5
EC
  8
SCREWS-BORDER
 10
124.49
 20
203.48
 30
0.0
 40
0.95
  0
CIRCLE
  5
ED
  8
SCREWS-BORDER
 10
157.82
 20
303.47
 30
0.0
 40
0.95
  0
CIRCLE
  5
EE
  8
SCREWS-BORDER
 10
124.49
 20
303.47
 30
0.0
 40
0.95
  0
CIRCLE
  5
EF
  8
SCREWS-BORDER
 10
157.82
 20
103.49
 30
0.0
 40
0.95
  0
CIRCLE
  5
F0
  8
SCREWS-BORDER
 10
124.49
 20
103.49
 30
0.0
 40
0.95
  0
CIRCLE
  5
F1
  8
SCREWS-PCB
 10
131.155
 20
3.5
 30
0.0
 40
1.0
  0
CIRCLE
  5
F2
  8
SCREWS-PCB
 10
151.155
 20
3.5
 30
0.0
 40
1.0
  0
CIRCLE
  5
F3
  8
SCREWS-BORDER
 10
205.15
 20
103.49
 30
0.0
 40
0.95
  0
CIRCLE
  5
F4
  8
SCREWS-BORDER
 10
238.48
 20
103.49
 30
0.0
 40
0.95
  0
CIRCLE
  5
F5
  8
SCREWS-BORDER
 10
205.15
 20
303.47
 30
0.0
 40
0.95
  0
CIRCLE
  5
F6
  8
SCREWS-BORDER
 10
238.48
 20
303.47
 30
0.0
 40
0.95
  0
CIRCLE
  5
F7
  8
SCREWS-BORDER
 10
205.15
 20
203.48
 30
0.0
 40
0.95
  0
CIRCLE
  5
F8
  8
SCREWS-BORDER
 10
238.48
 20
203.48
 30
0.0
 40
0.95
  0
CIRCLE
  5
F9
  8
SCREWS-BORDER
 10
205.15
 20
3.5
 30
0.0
 40
0.95
  0
CIRCLE
  5
FA
  8
SCREWS-BORDER
 10
238.48
 20
3.5
 30
0.0
 40
0.95
  0
CIRCLE
  5
FB
  8
SCREWS-BORDER
 10
205.15
 20
403.46
 30
0.0
 40
0.95
  0
CIRCLE
  5
FC
  8
SCREWS-BORDER
 10
238.48
 20
403.46
 30
0.0
 40
0.95
  0
LINE
  5
FE
  8
STRIP_CUTS
 10
255.9459999999999
 20
106.99
 30
0.0
 11
255.9459999999999
 21
99.99000000000001
 31
0.0
  0
LINE
  5
FF
  8
STRIP_CUTS
 10
268.346
 20
106.99
 30
0.0
 11
268.346
 21
99.99000000000001
 31
0.0
  0
LINE
  5
100
  8
STRIP_CUTS
 10
255.9459999999999
 20
133.32
 30
0.0
 11
255.9459999999999
 21
140.32
 31
0.0
  0
LINE
  5
101
  8
STRIP_CUTS
 10
268.346
 20
133.32
 30
0.0
 11
268.346
 21
140.3200000000001
 31
0.0
  0
LINE
  5
102
  8
STRIP_CUTS
 10
255.9459999999999
 20
166.65
 30
0.0
 11
255.9459999999999
 21
173.65
 31
0.0
  0
LINE
  5
103
  8
STRIP_CUTS
 10
268.346
 20
166.65
 30
0.0
 11
268.346
 21
173.65
 31
0.0
  0
LINE
  5
104
  8
STRIP_CUTS
 10
268.346
 20
199.98
 30
0.0
 11
268.346
 21
206.98
 31
0.0
  0
LINE
  5
105
  8
STRIP_CUTS
 10
255.9459999999999
 20
199.9800000000001
 30
0.0
 11
255.9459999999999
 21
206.98
 31
0.0
  0
LINE
  5
106
  8
STRIP_CUTS
 10
268.346
 20
233.31
 30
0.0
 11
268.346
 21
240.31
 31
0.0
  0
LINE
  5
107
  8
STRIP_CUTS
 10
255.9459999999999
 20
233.31
 30
0.0
 11
255.9459999999999
 21
240.3100000000001
 31
0.0
  0
LINE
  5
108
  8
STRIP_CUTS
 10
268.346
 20
266.64
 30
0.0
 11
268.346
 21
273.64
 31
0.0
  0
LINE
  5
109
  8
STRIP_CUTS
 10
255.9459999999999
 20
266.64
 30
0.0
 11
255.9459999999999
 21
273.64
 31
0.0
  0
LINE
  5
10A
  8
STRIP_CUTS
 10
268.346
 20
299.97
 30
0.0
 11
268.346
 21
306.97
 31
0.0
  0
LINE
  5
10B
  8
STRIP_CUTS
 10
255.9459999999999
 20
299.97
 30
0.0
 11
255.9459999999999
 21
306.97
 31
0.0
  0
LINE
  5
10C
  8
STRIP_CUTS
 10
268.346
 20
333.3
 30
0.0
 11
268.346
 21
340.3
 31
0.0
  0
LINE
  5
10D
  8
STRIP_CUTS
 10
255.9459999999999
 20
333.3
 30
0.0
 11
255.9459999999999
 21
340.3
 31
0.0
  0
LINE
  5
10E
  8
STRIP_CUTS
 10
268.346
 20
366.6300000000001
 30
0.0
 11
268.346
 21
373.6300000000001
 31
0.0
  0
LINE
  5
10F
  8
STRIP_CUTS
 10
255.9459999999999
 20
366.6300000000001
 30
0.0
 11
255.9459999999999
 21
373.6300000000001
 31
0.0
  0
CIRCLE
  5
110
  8
SCREWS-BORDER
 10
278.8099999999999
 20
403.46
 30
0.0
 40
0.95
  0
CIRCLE
  5
111
  8
SCREWS-BORDER
 10
245.48
 20
403.46
 30
0.0
 40
0.95
  0
CIRCLE
  5
112
  8
SCREWS-BORDER
 10
278.8099999999999
 20
3.5
 30
0.0
 40
0.95
  0
CIRCLE
  5
113
  8
SCREWS-BORDER
 10
245.48
 20
3.5
 30
0.0
 40
0.95
  0
CIRCLE
  5
114
  8
SCREWS-BORDER
 10
278.8099999999999
 20
203.48
 30
0.0
 40
0.95
  0
CIRCLE
  5
115
  8
SCREWS-BORDER
 10
245.48
 20
203.48
 30
0.0
 40
0.95
  0
CIRCLE
  5
116
  8
SCREWS-BORDER
 10
278.8099999999999
 20
303.47
 30
0.0
 40
0.95
  0
CIRCLE
  5
117
  8
SCREWS-BORDER
 10
245.48
 20
303.47
 30
0.0
 40
0.95
  0
CIRCLE
  5
118
  8
SCREWS-BORDER
 10
278.8099999999999
 20
103.49
 30
0.0
 40
0.95
  0
CIRCLE
  5
119
  8
SCREWS-BORDER
 10
245.48
 20
103.49
 30
0.0
 40
0.95
  0
LINE
  5
11B
  8
USB_OPENING
 10
258.145
 20
1.5
 30
0.0
 11
258.145
 21
0.0
 31
0.0
  0
LINE
  5
11C
  8
USB_OPENING
 10
266.145
 20
1.5
 30
0.0
 11
266.145
 21
0.0
 31
0.0
  0
LINE
  5
11D
  8
BORDER
 10
282.3099999999999
 20
406.96
 30
0.0
 11
282.3099999999999
 21
0.0
 31
0.0
  0
LINE
  5
11F
  8
GRID_PCB_EX
 10
248.98
 20
1.500000000000022
 30
0.0
 11
275.3099999999999
 21
1.500000000000022
 31
0.0
  0
LINE
  5
120
  8
GRID_PCB_EX
 10
275.3099999999999
 20
1.500000000000022
 30
0.0
 11
275.3099999999999
 21
99.99000000000001
 31
0.0
  0
LINE
  5
121
  8
GRID_PCB_EX
 10
275.3099999999999
 20
99.99000000000001
 30
0.0
 11
248.98
 21
99.99000000000001
 31
0.0
  0
LINE
  5
122
  8
GRID_PCB_EX
 10
248.98
 20
99.99000000000001
 30
0.0
 11
248.98
 21
1.500000000000022
 31
0.0
  0
LINE
  5
123
  8
STRIP_CUTS
 10
255.9459999999999
 20
399.96
 30
0.0
 11
255.9459999999999
 21
403.46
 31
0.0
  0
LINE
  5
124
  8
STRIP_CUTS
 10
255.9459999999999
 20
403.46
 30
0.0
 11
268.346
 21
403.46
 31
0.0
  0
LINE
  5
125
  8
STRIP_CUTS
 10
268.346
 20
403.46
 30
0.0
 11
268.346
 21
399.96
 31
0.0
  0
LINE
  5
126
  8
BORDER
 10
241.98
 20
0.0
 30
0.0
 11
282.3099999999999
 21
0.0
 31
0.0
  0
LINE
  5
127
  8
BORDER
 10
282.3099999999999
 20
406.96
 30
0.0
 11
241.98
 21
406.96
 31
0.0
  0
LINE
  5
128
  8
BORDER
 10
241.98
 20
406.96
 30
0.0
 11
241.98
 21
0.0
 31
0.0
  0
LINE
  5
12A
  8
GRID_LED
 10
248.98
 20
373.6300000000001
 30
0.0
 11
275.3099999999999
 21
373.6300000000001
 31
0.0
  0
LINE
  5
12B
  8
GRID_LED
 10
275.3099999999999
 20
373.6300000000001
 30
0.0
 11
275.3099999999999
 21
399.96
 31
0.0
  0
LINE
  5
12C
  8
GRID_LED
 10
275.3099999999999
 20
399.96
 30
0.0
 11
248.98
 21
399.96
 31
0.0
  0
LINE
  5
12D
  8
GRID_LED
 10
248.98
 20
399.96
 30
0.0
 11
248.98
 21
373.6300000000001
 31
0.0
  0
LINE
  5
12E
  8
GRID_LED
 10
248.98
 20
340.3
 30
0.0
 11
275.3099999999999
 21
340.3
 31
0.0
  0
LINE
  5
12F
  8
GRID_LED
 10
275.3099999999999
 20
340.3
 30
0.0
 11
275.3099999999999
 21
366.6300000000001
 31
0.0
  0
LINE
  5
130
  8
GRID_LED
 10
275.3099999999999
 20
366.6300000000001
 30
0.0
 11
248.98
 21
366.6300000000001
 31
0.0
  0
LINE
  5
131
  8
GRID_LED
 10
248.98
 20
366.6300000000001
 30
0.0
 11
248.98
 21
340.3
 31
0.0
  0
LINE
  5
132
  8
GRID_LED
 10
248.98
 20
306.97
 30
0.0
 11
275.3099999999999
 21
306.97
 31
0.0
  0
LINE
  5
133
  8
GRID_LED
 10
275.3099999999999
 20
306.97
 30
0.0
 11
275.3099999999999
 21
333.3
 31
0.0
  0
LINE
  5
134
  8
GRID_LED
 10
275.3099999999999
 20
333.3
 30
0.0
 11
248.98
 21
333.3
 31
0.0
  0
LINE
  5
135
  8
GRID_LED
 10
248.98
 20
333.3
 30
0.0
 11
248.98
 21
306.97
 31
0.0
  0
LINE
  5
136
  8
GRID_LED
 10
248.98
 20
273.64
 30
0.0
 11
275.3099999999999
 21
273.64
 31
0.0
  0
LINE
  5
137
  8
GRID_LED
 10
275.3099999999999
 20
273.64
 30
0.0
 11
275.3099999999999
 21
299.97
 31
0.0
  0
LINE
  5
138
  8
GRID_LED
 10
275.3099999999999
 20
299.97
 30
0.0
 11
248.98
 21
299.97
 31
0.0
  0
LINE
  5
139
  8
GRID_LED
 10
248.98
 20
299.97
 30
0.0
 11
248.98
 21
273.64
 31
0.0
  0
LINE
  5
13A
  8
GRID_LED
 10
248.98
 20
240.31
 30
0.0
 11
275.3099999999999
 21
240.31
 31
0.0
  0
LINE
  5
13B
  8
GRID_LED
 10
275.3099999999999
 20
240.31
 30
0.0
 11
275.3099999999999
 21
266.64
 31
0.0
  0
LINE
  5
13C
  8
GRID_LED
 10
275.3099999999999
 20
266.64
 30
0.0
 11
248.98
 21
266.64
 31
0.0
  0
LINE
  5
13D
  8
GRID_LED
 10
248.98
 20
266.64
 30
0.0
 11
248.98
 21
240.31
 31
0.0
  0
LINE
  5
13E
  8
GRID_LED
 10
248.98
 20
206.98
 30
0.0
 11
275.3099999999999
 21
206.98
 31
0.0
  0
LINE
  5
13F
  8
GRID_LED
 10
275.3099999999999
 20
206.98
 30
0.0
 11
275.3099999999999
 21
233.31
 31
0.0
  0
LINE
  5
140
  8
GRID_LED
 10
275.3099999999999
 20
233.31
 30
0.0
 11
248.98
 21
233.31
 31
0.0
  0
LINE
  5
141
  8
GRID_LED
 10
248.98
 20
233.31
 30
0.0
 11
248.98
 21
206.98
 31
0.0
  0
LINE
  5
142
  8
GRID_LED
 10
248.98
 20
173.65
 30
0.0
 11
275.3099999999999
 21
173.65
 31
0.0
  0
LINE
  5
143
  8
GRID_LED
 10
275.3099999999999
 20
173.65
 30
0.0
 11
275.3099999999999
 21
199.98
 31
0.0
  0
LINE
  5
144
  8
GRID_LED
 10
275.3099999999999
 20
199.98
 30
0.0
 11
248.98
 21
199.98
 31
0.0
  0
LINE
  5
145
  8
GRID_LED
 10
248.98
 20
199.98
 30
0.0
 11
248.98
 21
173.65
 31
0.0
  0
LINE
  5
146
  8
GRID_LED
 10
248.98
 20
140.32
 30
0.0
 11
275.3099999999999
 21
140.32
 31
0.0
  0
LINE
  5
147
  8
GRID_LED
 10
275.3099999999999
 20
140.32
 30
0.0
 11
275.3099999999999
 21
166.65
 31
0.0
  0
LINE
  5
148
  8
GRID_LED
 10
275.3099999999999
 20
166.65
 30
0.0
 11
248.98
 21
166.65
 31
0.0
  0
LINE
  5
149
  8
GRID_LED
 10
248.98
 20
166.65
 30
0.0
 11
248.98
 21
140.32
 31
0.0
  0
LINE
  5
14A
  8
GRID_LED
 10
248.98
 20
106.99
 30
0.0
 11
275.3099999999999
 21
106.99
 31
0.0
  0
LINE
  5
14B
  8
GRID_LED
 10
275.3099999999999
 20
106.99
 30
0.0
 11
275.3099999999999
 21
133.32
 31
0.0
  0
LINE
  5
14C
  8
GRID_LED
 10
275.3099999999999
 20
133.32
 30
0.0
 11
248.98
 21
133.32
 31
0.0
  0
LINE
  5
14D
  8
GRID_LED
 10
248.98
 20
133.32
 30
0.0
 11
248.98
 21
106.99
 31
0.0
  0
LINE
  5
14E
  8
GRID_LED
 10
208.65
 20
106.99
 30
0.0
 11
234.98
 21
106.99
 31
0.0
  0
LINE
  5
14F
  8
GRID_LED
 10
234.98
 20
106.99
 30
0.0
 11
234.98
 21
133.32
 31
0.0
  0
LINE
  5
150
  8
GRID_LED
 10
234.98
 20
133.32
 30
0.0
 11
208.65
 21
133.32
 31
0.0
  0
LINE
  5
151
  8
GRID_LED
 10
208.65
 20
133.32
 30
0.0
 11
208.65
 21
106.99
 31
0.0
  0
LINE
  5
152
  8
GRID_LED
 10
208.65
 20
140.32
 30
0.0
 11
234.98
 21
140.32
 31
0.0
  0
LINE
  5
153
  8
GRID_LED
 10
234.98
 20
140.32
 30
0.0
 11
234.98
 21
166.65
 31
0.0
  0
LINE
  5
154
  8
GRID_LED
 10
234.98
 20
166.65
 30
0.0
 11
208.65
 21
166.65
 31
0.0
  0
LINE
  5
155
  8
GRID_LED
 10
208.65
 20
166.65
 30
0.0
 11
208.65
 21
140.32
 31
0.0
  0
LINE
  5
156
  8
GRID_LED
 10
208.65
 20
173.65
 30
0.0
 11
234.98
 21
173.65
 31
0.0
  0
LINE
  5
157
  8
GRID_LED
 10
234.98
 20
173.65
 30
0.0
 11
234.98
 21
199.98
 31
0.0
  0
LINE
  5
158
  8
GRID_LED
 10
234.98
 20
199.98
 30
0.0
 11
208.65
 21
199.98
 31
0.0
  0
LINE
  5
159
  8
GRID_LED
 10
208.65
 20
199.98
 30
0.0
 11
208.65
 21
173.65
 31
0.0
  0
LINE
  5
15A
  8
GRID_LED
 10
208.65
 20
206.98
 30
0.0
 11
234.98
 21
206.98
 31
0.0
  0
LINE
  5
15B
  8
GRID_LED
 10
234.98
 20
206.98
 30
0.0
 11
234.98
 21
233.31
 31
0.0
  0
LINE
  5
15C
  8
GRID_LED
 10
234.98
 20
233.31
 30
0.0
 11
208.65
 21
233.31
 31
0.0
  0
LINE
  5
15D
  8
GRID_LED
 10
208.65
 20
233.31
 30
0.0
 11
208.65
 21
206.98
 31
0.0
  0
LINE
  5
15E
  8
GRID_LED
 10
208.65
 20
240.31
 30
0.0
 11
234.98
 21
240.31
 31
0.0
  0
LINE
  5
15F
  8
GRID_LED
 10
234.98
 20
240.31
 30
0.0
 11
234.98
 21
266.64
 31
0.0
  0
LINE
  5
160
  8
GRID_LED
 10
234.98
 20
266.64
 30
0.0
 11
208.65
 21
266.64
 31
0.0
  0
LINE
  5
161
  8
GRID_LED
 10
208.65
 20
266.64
 30
0.0
 11
208.65
 21
240.31
 31
0.0
  0
LINE
  5
162
  8
GRID_LED
 10
208.65
 20
273.64
 30
0.0
 11
234.98
 21
273.64
 31
0.0
  0
LINE
  5
163
  8
GRID_LED
 10
234.98
 20
273.64
 30
0.0
 11
234.98
 21
299.97
 31
0.0
  0
LINE
  5
164
  8
GRID_LED
 10
234.98
 20
299.97
 30
0.0
 11
208.65
 21
299.97
 31
0.0
  0
LINE
  5
165
  8
GRID_LED
 10
208.65
 20
299.97
 30
0.0
 11
208.65
 21
273.64
 31
0.0
  0
LINE
  5
166
  8
GRID_LED
 10
208.65
 20
306.97
 30
0.0
 11
234.98
 21
306.97
 31
0.0
  0
LINE
  5
167
  8
GRID_LED
 10
234.98
 20
306.97
 30
0.0
 11
234.98
 21
333.3
 31
0.0
  0
LINE
  5
168
  8
GRID_LED
 10
234.98
 20
333.3
 30
0.0
 11
208.65
 21
333.3
 31
0.0
  0
LINE
  5
169
  8
GRID_LED
 10
208.65
 20
333.3
 30
0.0
 11
208.65
 21
306.97
 31
0.0
  0
LINE
  5
16A
  8
GRID_LED
 10
208.65
 20
340.3
 30
0.0
 11
234.98
 21
340.3
 31
0.0
  0
LINE
  5
16B
  8
GRID_LED
 10
234.98
 20
340.3
 30
0.0
 11
234.98
 21
366.6300000000001
 31
0.0
  0
LINE
  5
16C
  8
GRID_LED
 10
234.98
 20
366.6300000000001
 30
0.0
 11
208.65
 21
366.6300000000001
 31
0.0
  0
LINE
  5
16D
  8
GRID_LED
 10
208.65
 20
366.6300000000001
 30
0.0
 11
208.65
 21
340.3
 31
0.0
  0
LINE
  5
16E
  8
GRID_LED
 10
208.65
 20
373.6300000000001
 30
0.0
 11
234.98
 21
373.6300000000001
 31
0.0
  0
LINE
  5
16F
  8
GRID_LED
 10
234.98
 20
373.6300000000001
 30
0.0
 11
234.98
 21
399.96
 31
0.0
  0
LINE
  5
170
  8
GRID_LED
 10
234.98
 20
399.96
 30
0.0
 11
208.65
 21
399.96
 31
0.0
  0
LINE
  5
171
  8
GRID_LED
 10
208.65
 20
399.96
 30
0.0
 11
208.65
 21
373.6300000000001
 31
0.0
  0
LINE
  5
172
  8
BORDER
 10
201.65
 20
0.0
 30
0.0
 11
241.98
 21
0.0
 31
0.0
  0
LINE
  5
173
  8
BORDER
 10
241.98
 20
406.96
 30
0.0
 11
201.65
 21
406.96
 31
0.0
  0
LINE
  5
174
  8
BORDER
 10
201.65
 20
406.96
 30
0.0
 11
201.65
 21
0.0
 31
0.0
  0
LINE
  5
175
  8
GRID_PCB_EX
 10
208.65
 20
1.500000000000022
 30
0.0
 11
234.98
 21
1.500000000000022
 31
0.0
  0
LINE
  5
176
  8
GRID_PCB_EX
 10
234.98
 20
1.500000000000022
 30
0.0
 11
234.98
 21
99.99000000000001
 31
0.0
  0
LINE
  5
177
  8
GRID_PCB_EX
 10
234.98
 20
99.99000000000001
 30
0.0
 11
208.65
 21
99.99000000000001
 31
0.0
  0
LINE
  5
178
  8
GRID_PCB_EX
 10
208.65
 20
99.99000000000001
 30
0.0
 11
208.65
 21
1.500000000000022
 31
0.0
  0
LINE
  5
179
  8
BORDER
 10
120.99
 20
0.0
 30
0.0
 11
161.32
 21
0.0
 31
0.0
  0
LINE
  5
17A
  8
BORDER
 10
161.32
 20
0.0
 30
0.0
 11
161.32
 21
406.96
 31
0.0
  0
LINE
  5
17B
  8
BORDER
 10
161.32
 20
406.96
 30
0.0
 11
120.99
 21
406.96
 31
0.0
  0
LINE
  5
17C
  8
BORDER
 10
120.99
 20
406.96
 30
0.0
 11
120.99
 21
0.0
 31
0.0
  0
LINE
  5
17D
  8
GRID_LED
 10
127.99
 20
373.6300000000001
 30
0.0
 11
154.32
 21
373.6300000000001
 31
0.0
  0
LINE
  5
17E
  8
GRID_LED
 10
154.32
 20
373.6300000000001
 30
0.0
 11
154.32
 21
399.96
 31
0.0
  0
LINE
  5
17F
  8
GRID_LED
 10
154.32
 20
399.96
 30
0.0
 11
127.99
 21
399.96
 31
0.0
  0
LINE
  5
180
  8
GRID_LED
 10
127.99
 20
399.96
 30
0.0
 11
127.99
 21
373.6300000000001
 31
0.0
  0
LINE
  5
181
  8
GRID_LED
 10
127.99
 20
340.3
 30
0.0
 11
154.32
 21
340.3
 31
0.0
  0
LINE
  5
182
  8
GRID_LED
 10
154.32
 20
340.3
 30
0.0
 11
154.32
 21
366.6300000000001
 31
0.0
  0
LINE
  5
183
  8
GRID_LED
 10
154.32
 20
366.6300000000001
 30
0.0
 11
127.99
 21
366.6300000000001
 31
0.0
  0
LINE
  5
184
  8
GRID_LED
 10
127.99
 20
366.6300000000001
 30
0.0
 11
127.99
 21
340.3
 31
0.0
  0
LINE
  5
185
  8
GRID_LED
 10
127.99
 20
306.97
 30
0.0
 11
154.32
 21
306.97
 31
0.0
  0
LINE
  5
186
  8
GRID_LED
 10
154.32
 20
306.97
 30
0.0
 11
154.32
 21
333.3
 31
0.0
  0
LINE
  5
187
  8
GRID_LED
 10
154.32
 20
333.3
 30
0.0
 11
127.99
 21
333.3
 31
0.0
  0
LINE
  5
188
  8
GRID_LED
 10
127.99
 20
333.3
 30
0.0
 11
127.99
 21
306.97
 31
0.0
  0
LINE
  5
189
  8
GRID_LED
 10
127.99
 20
273.64
 30
0.0
 11
154.32
 21
273.64
 31
0.0
  0
LINE
  5
18A
  8
GRID_LED
 10
154.32
 20
273.64
 30
0.0
 11
154.32
 21
299.97
 31
0.0
  0
LINE
  5
18B
  8
GRID_LED
 10
154.32
 20
299.97
 30
0.0
 11
127.99
 21
299.97
 31
0.0
  0
LINE
  5
18C
  8
GRID_LED
 10
127.99
 20
299.97
 30
0.0
 11
127.99
 21
273.64
 31
0.0
  0
LINE
  5
18D
  8
GRID_LED
 10
127.99
 20
240.31
 30
0.0
 11
154.32
 21
240.31
 31
0.0
  0
LINE
  5
18E
  8
GRID_LED
 10
154.32
 20
240.31
 30
0.0
 11
154.32
 21
266.64
 31
0.0
  0
LINE
  5
18F
  8
GRID_LED
 10
154.32
 20
266.64
 30
0.0
 11
127.99
 21
266.64
 31
0.0
  0
LINE
  5
190
  8
GRID_LED
 10
127.99
 20
266.64
 30
0.0
 11
127.99
 21
240.31
 31
0.0
  0
LINE
  5
191
  8
GRID_LED
 10
127.99
 20
206.98
 30
0.0
 11
154.32
 21
206.98
 31
0.0
  0
LINE
  5
192
  8
GRID_LED
 10
154.32
 20
206.98
 30
0.0
 11
154.32
 21
233.31
 31
0.0
  0
LINE
  5
193
  8
GRID_LED
 10
154.32
 20
233.31
 30
0.0
 11
127.99
 21
233.31
 31
0.0
  0
LINE
  5
194
  8
GRID_LED
 10
127.99
 20
233.31
 30
0.0
 11
127.99
 21
206.98
 31
0.0
  0
LINE
  5
195
  8
GRID_LED
 10
127.99
 20
173.65
 30
0.0
 11
154.32
 21
173.65
 31
0.0
  0
LINE
  5
196
  8
GRID_LED
 10
154.32
 20
173.65
 30
0.0
 11
154.32
 21
199.98
 31
0.0
  0
LINE
  5
197
  8
GRID_LED
 10
154.32
 20
199.98
 30
0.0
 11
127.99
 21
199.98
 31
0.0
  0
LINE
  5
198
  8
GRID_LED
 10
127.99
 20
199.98
 30
0.0
 11
127.99
 21
173.65
 31
0.0
  0
LINE
  5
199
  8
GRID_LED
 10
127.99
 20
140.32
 30
0.0
 11
154.32
 21
140.32
 31
0.0
  0
LINE
  5
19A
  8
GRID_LED
 10
154.32
 20
140.32
 30
0.0
 11
154.32
 21
166.65
 31
0.0
  0
LINE
  5
19B
  8
GRID_LED
 10
154.32
 20
166.65
 30
0.0
 11
127.99
 21
166.65
 31
0.0
  0
LINE
  5
19C
  8
GRID_LED
 10
127.99
 20
166.65
 30
0.0
 11
127.99
 21
140.32
 31
0.0
  0
LINE
  5
19E
  8
GRID_PCB
 10
127.99
 20
7.0
 30
0.0
 11
154.32
 21
7.0
 31
0.0
  0
LINE
  5
19F
  8
GRID_PCB
 10
154.32
 20
7.0
 30
0.0
 11
154.32
 21
99.99000000000001
 31
0.0
  0
LINE
  5
1A0
  8
GRID_PCB
 10
154.32
 20
99.99000000000001
 30
0.0
 11
127.99
 21
99.99000000000001
 31
0.0
  0
LINE
  5
1A1
  8
GRID_PCB
 10
127.99
 20
99.99000000000001
 30
0.0
 11
127.99
 21
7.0
 31
0.0
  0
LINE
  5
1A2
  8
GRID_LED
 10
127.99
 20
106.99
 30
0.0
 11
154.32
 21
106.99
 31
0.0
  0
LINE
  5
1A3
  8
GRID_LED
 10
154.32
 20
106.99
 30
0.0
 11
154.32
 21
133.32
 31
0.0
  0
LINE
  5
1A4
  8
GRID_LED
 10
154.32
 20
133.32
 30
0.0
 11
127.99
 21
133.32
 31
0.0
  0
LINE
  5
1A5
  8
GRID_LED
 10
127.99
 20
133.32
 30
0.0
 11
127.99
 21
106.99
 31
0.0
  0
LINE
  5
1A6
  8
GRID_LED
 10
47.33
 20
106.99
 30
0.0
 11
73.66
 21
106.99
 31
0.0
  0
LINE
  5
1A7
  8
GRID_LED
 10
73.66
 20
106.99
 30
0.0
 11
73.66
 21
133.32
 31
0.0
  0
LINE
  5
1A8
  8
GRID_LED
 10
73.66
 20
133.32
 30
0.0
 11
47.33
 21
133.32
 31
0.0
  0
LINE
  5
1A9
  8
GRID_LED
 10
47.33
 20
133.32
 30
0.0
 11
47.33
 21
106.99
 31
0.0
  0
LINE
  5
1AA
  8
GRID_PCB
 10
47.33
 20
7.0
 30
0.0
 11
73.66
 21
7.0
 31
0.0
  0
LINE
  5
1AB
  8
GRID_PCB
 10
73.66
 20
7.0
 30
0.0
 11
73.66
 21
99.99000000000001
 31
0.0
  0
LINE
  5
1AC
  8
GRID_PCB
 10
73.66
 20
99.99000000000001
 30
0.0
 11
47.33
 21
99.99000000000001
 31
0.0
  0
LINE
  5
1AD
  8
GRID_PCB
 10
47.33
 20
99.99000000000001
 30
0.0
 11
47.33
 21
7.0
 31
0.0
  0
LINE
  5
1AE
  8
GRID_LED
 10
47.33
 20
140.32
 30
0.0
 11
73.66
 21
140.32
 31
0.0
  0
LINE
  5
1AF
  8
GRID_LED
 10
73.66
 20
140.32
 30
0.0
 11
73.66
 21
166.65
 31
0.0
  0
LINE
  5
1B0
  8
GRID_LED
 10
73.66
 20
166.65
 30
0.0
 11
47.33
 21
166.65
 31
0.0
  0
LINE
  5
1B1
  8
GRID_LED
 10
47.33
 20
166.65
 30
0.0
 11
47.33
 21
140.32
 31
0.0
  0
LINE
  5
1B2
  8
GRID_LED
 10
47.33
 20
173.65
 30
0.0
 11
73.66
 21
173.65
 31
0.0
  0
LINE
  5
1B3
  8
GRID_LED
 10
73.66
 20
173.65
 30
0.0
 11
73.66
 21
199.98
 31
0.0
  0
LINE
  5
1B4
  8
GRID_LED
 10
73.66
 20
199.98
 30
0.0
 11
47.33
 21
199.98
 31
0.0
  0
LINE
  5
1B5
  8
GRID_LED
 10
47.33
 20
199.98
 30
0.0
 11
47.33
 21
173.65
 31
0.0
  0
LINE
  5
1B6
  8
GRID_LED
 10
47.33
 20
206.98
 30
0.0
 11
73.66
 21
206.98
 31
0.0
  0
LINE
  5
1B7
  8
GRID_LED
 10
73.66
 20
206.98
 30
0.0
 11
73.66
 21
233.31
 31
0.0
  0
LINE
  5
1B8
  8
GRID_LED
 10
73.66
 20
233.31
 30
0.0
 11
47.33
 21
233.31
 31
0.0
  0
LINE
  5
1B9
  8
GRID_LED
 10
47.33
 20
233.31
 30
0.0
 11
47.33
 21
206.98
 31
0.0
  0
LINE
  5
1BA
  8
GRID_LED
 10
47.33
 20
240.31
 30
0.0
 11
73.66
 21
240.31
 31
0.0
  0
LINE
  5
1BB
  8
GRID_LED
 10
73.66
 20
240.31
 30
0.0
 11
73.66
 21
266.64
 31
0.0
  0
LINE
  5
1BC
  8
GRID_LED
 10
73.66
 20
266.64
 30
0.0
 11
47.33
 21
266.64
 31
0.0
  0
LINE
  5
1BD
  8
GRID_LED
 10
47.33
 20
266.64
 30
0.0
 11
47.33
 21
240.31
 31
0.0
  0
LINE
  5
1BE
  8
GRID_LED
 10
47.33
 20
273.64
 30
0.0
 11
73.66
 21
273.64
 31
0.0
  0
LINE
  5
1BF
  8
GRID_LED
 10
73.66
 20
273.64
 30
0.0
 11
73.66
 21
299.97
 31
0.0
  0
LINE
  5
1C0
  8
GRID_LED
 10
73.66
 20
299.97
 30
0.0
 11
47.33
 21
299.97
 31
0.0
  0
LINE
  5
1C1
  8
GRID_LED
 10
47.33
 20
299.97
 30
0.0
 11
47.33
 21
273.64
 31
0.0
  0
LINE
  5
1C2
  8
GRID_LED
 10
47.33
 20
306.97
 30
0.0
 11
73.66
 21
306.97
 31
0.0
  0
LINE
  5
1C3
  8
GRID_LED
 10
73.66
 20
306.97
 30
0.0
 11
73.66
 21
333.3
 31
0.0
  0
LINE
  5
1C4
  8
GRID_LED
 10
73.66
 20
333.3
 30
0.0
 11
47.33
 21
333.3
 31
0.0
  0
LINE
  5
1C5
  8
GRID_LED
 10
47.33
 20
333.3
 30
0.0
 11
47.33
 21
306.97
 31
0.0
  0
LINE
  5
1C6
  8
GRID_LED
 10
47.33
 20
340.3
 30
0.0
 11
73.66
 21
340.3
 31
0.0
  0
LINE
  5
1C7
  8
GRID_LED
 10
73.66
 20
340.3
 30
0.0
 11
73.66
 21
366.6300000000001
 31
0.0
  0
LINE
  5
1C8
  8
GRID_LED
 10
73.66
 20
366.6300000000001
 30
0.0
 11
47.33
 21
366.6300000000001
 31
0.0
  0
LINE
  5
1C9
  8
GRID_LED
 10
47.33
 20
366.6300000000001
 30
0.0
 11
47.33
 21
340.3
 31
0.0
  0
LINE
  5
1CA
  8
GRID_LED
 10
47.33
 20
373.6300000000001
 30
0.0
 11
73.66
 21
373.6300000000001
 31
0.0
  0
LINE
  5
1CB
  8
GRID_LED
 10
73.66
 20
373.6300000000001
 30
0.0
 11
73.66
 21
399.96
 31
0.0
  0
LINE
  5
1CC
  8
GRID_LED
 10
73.66
 20
399.96
 30
0.0
 11
47.33
 21
399.96
 31
0.0
  0
LINE
  5
1CD
  8
GRID_LED
 10
47.33
 20
399.96
 30
0.0
 11
47.33
 21
373.6300000000001
 31
0.0
  0
LINE
  5
1CE
  8
BORDER
 10
40.33
 20
0.0
 30
0.0
 11
80.66
 21
0.0
 31
0.0
  0
LINE
  5
1CF
  8
BORDER
 10
80.66
 20
0.0
 30
0.0
 11
80.66
 21
406.96
 31
0.0
  0
LINE
  5
1D0
  8
BORDER
 10
80.66
 20
406.96
 30
0.0
 11
40.33
 21
406.96
 31
0.0
  0
LINE
  5
1D1
  8
BORDER
 10
40.33
 20
406.96
 30
0.0
 11
40.33
 21
0.0
 31
0.0
  0
LINE
  5
1D2
  8
BORDER
 10
0.0
 20
0.0
 30
0.0
 11
40.33
 21
0.0
 31
0.0
  0
LINE
  5
1D3
  8
BORDER
 10
40.33
 20
406.96
 30
0.0
 11
0.0
 21
406.96
 31
0.0
  0
LINE
  5
1D4
  8
BORDER
 10
0.0
 20
406.96
 30
0.0
 11
0.0
 21
0.0
 31
0.0
  0
LINE
  5
1D5
  8
GRID_LED
 10
7.0
 20
373.6300000000001
 30
0.0
 11
33.33
 21
373.6300000000001
 31
0.0
  0
LINE
  5
1D6
  8
GRID_LED
 10
33.33
 20
373.6300000000001
 30
0.0
 11
33.33
 21
399.96
 31
0.0
  0
LINE
  5
1D7
  8
GRID_LED
 10
33.33
 20
399.96
 30
0.0
 11
7.0
 21
399.96
 31
0.0
  0
LINE
  5
1D8
  8
GRID_LED
 10
7.0
 20
399.96
 30
0.0
 11
7.0
 21
373.6300000000001
 31
0.0
  0
LINE
  5
1D9
  8
GRID_LED
 10
7.0
 20
340.3
 30
0.0
 11
33.33
 21
340.3
 31
0.0
  0
LINE
  5
1DA
  8
GRID_LED
 10
33.33
 20
340.3
 30
0.0
 11
33.33
 21
366.6300000000001
 31
0.0
  0
LINE
  5
1DB
  8
GRID_LED
 10
33.33
 20
366.6300000000001
 30
0.0
 11
7.0
 21
366.6300000000001
 31
0.0
  0
LINE
  5
1DC
  8
GRID_LED
 10
7.0
 20
366.6300000000001
 30
0.0
 11
7.0
 21
340.3
 31
0.0
  0
LINE
  5
1DD
  8
GRID_LED
 10
7.0
 20
306.97
 30
0.0
 11
33.33
 21
306.97
 31
0.0
  0
LINE
  5
1DE
  8
GRID_LED
 10
33.33
 20
306.97
 30
0.0
 11
33.33
 21
333.3
 31
0.0
  0
LINE
  5
1DF
  8
GRID_LED
 10
33.33
 20
333.3
 30
0.0
 11
7.0
 21
333.3
 31
0.0
  0
LINE
  5
1E0
  8
GRID_LED
 10
7.0
 20
333.3
 30
0.0
 11
7.0
 21
306.97
 31
0.0
  0
LINE
  5
1E1
  8
GRID_LED
 10
7.0
 20
273.64
 30
0.0
 11
33.33
 21
273.64
 31
0.0
  0
LINE
  5
1E2
  8
GRID_LED
 10
33.33
 20
273.64
 30
0.0
 11
33.33
 21
299.97
 31
0.0
  0
LINE
  5
1E3
  8
GRID_LED
 10
33.33
 20
299.97
 30
0.0
 11
7.0
 21
299.97
 31
0.0
  0
LINE
  5
1E4
  8
GRID_LED
 10
7.0
 20
299.97
 30
0.0
 11
7.0
 21
273.64
 31
0.0
  0
LINE
  5
1E5
  8
GRID_LED
 10
7.0
 20
240.31
 30
0.0
 11
33.33
 21
240.31
 31
0.0
  0
LINE
  5
1E6
  8
GRID_LED
 10
33.33
 20
240.31
 30
0.0
 11
33.33
 21
266.64
 31
0.0
  0
LINE
  5
1E7
  8
GRID_LED
 10
33.33
 20
266.64
 30
0.0
 11
7.0
 21
266.64
 31
0.0
  0
LINE
  5
1E8
  8
GRID_LED
 10
7.0
 20
266.64
 30
0.0
 11
7.0
 21
240.31
 31
0.0
  0
LINE
  5
1E9
  8
GRID_LED
 10
7.0
 20
206.98
 30
0.0
 11
33.33
 21
206.98
 31
0.0
  0
LINE
  5
1EA
  8
GRID_LED
 10
33.33
 20
206.98
 30
0.0
 11
33.33
 21
233.31
 31
0.0
  0
LINE
  5
1EB
  8
GRID_LED
 10
33.33
 20
233.31
 30
0.0
 11
7.0
 21
233.31
 31
0.0
  0
LINE
  5
1EC
  8
GRID_LED
 10
7.0
 20
233.31
 30
0.0
 11
7.0
 21
206.98
 31
0.0
  0
LINE
  5
1ED
  8
GRID_LED
 10
7.0
 20
173.65
 30
0.0
 11
33.33
 21
173.65
 31
0.0
  0
LINE
  5
1EE
  8
GRID_LED
 10
33.33
 20
173.65
 30
0.0
 11
33.33
 21
199.98
 31
0.0
  0
LINE
  5
1EF
  8
GRID_LED
 10
33.33
 20
199.98
 30
0.0
 11
7.0
 21
199.98
 31
0.0
  0
LINE
  5
1F0
  8
GRID_LED
 10
7.0
 20
199.98
 30
0.0
 11
7.0
 21
173.65
 31
0.0
  0
LINE
  5
1F1
  8
GRID_LED
 10
7.0
 20
140.32
 30
0.0
 11
33.33
 21
140.32
 31
0.0
  0
LINE
  5
1F2
  8
GRID_LED
 10
33.33
 20
140.32
 30
0.0
 11
33.33
 21
166.65
 31
0.0
  0
LINE
  5
1F3
  8
GRID_LED
 10
33.33
 20
166.65
 30
0.0
 11
7.0
 21
166.65
 31
0.0
  0
LINE
  5
1F4
  8
GRID_LED
 10
7.0
 20
166.65
 30
0.0
 11
7.0
 21
140.32
 31
0.0
  0
LINE
  5
1F5
  8
GRID_PCB
 10
7.0
 20
7.0
 30
0.0
 11
33.33
 21
7.0
 31
0.0
  0
LINE
  5
1F6
  8
GRID_PCB
 10
33.33
 20
7.0
 30
0.0
 11
33.33
 21
99.99000000000001
 31
0.0
  0
LINE
  5
1F7
  8
GRID_PCB
 10
33.33
 20
99.99000000000001
 30
0.0
 11
7.0
 21
99.99000000000001
 31
0.0
  0
LINE
  5
1F8
  8
GRID_PCB
 10
7.0
 20
99.99000000000001
 30
0.0
 11
7.0
 21
7.0
 31
0.0
  0
LINE
  5
1F9
  8
GRID_LED
 10
7.0
 20
106.99
 30
0.0
 11
33.33
 21
106.99
 31
0.0
  0
LINE
  5
1FA
  8
GRID_LED
 10
33.33
 20
106.99
 30
0.0
 11
33.33
 21
133.32
 31
0.0
  0
LINE
  5
1FB
  8
GRID_LED
 10
33.33
 20
133.32
 30
0.0
 11
7.0
 21
133.32
 31
0.0
  0
LINE
  5
1FC
  8
GRID_LED
 10
7.0
 20
133.32
 30
0.0
 11
7.0
 21
106.99
 31
0.0
  0
LINE
  5
1FD
  8
GRID_LED
 10
87.66
 20
106.99
 30
0.0
 11
113.99
 21
106.99
 31
0.0
  0
LINE
  5
1FE
  8
GRID_LED
 10
113.99
 20
106.99
 30
0.0
 11
113.99
 21
133.32
 31
0.0
  0
LINE
  5
1FF
  8
GRID_LED
 10
113.99
 20
133.32
 30
0.0
 11
87.66
 21
133.32
 31
0.0
  0
LINE
  5
200
  8
GRID_LED
 10
87.66
 20
133.32
 30
0.0
 11
87.66
 21
106.99
 31
0.0
  0
LINE
  5
201
  8
GRID_PCB
 10
87.66
 20
7.0
 30
0.0
 11
113.99
 21
7.0
 31
0.0
  0
LINE
  5
202
  8
GRID_PCB
 10
113.99
 20
7.0
 30
0.0
 11
113.99
 21
99.99000000000001
 31
0.0
  0
LINE
  5
203
  8
GRID_PCB
 10
113.99
 20
99.99000000000001
 30
0.0
 11
87.66
 21
99.99000000000001
 31
0.0
  0
LINE
  5
204
  8
GRID_PCB
 10
87.66
 20
99.99000000000001
 30
0.0
 11
87.66
 21
7.0
 31
0.0
  0
LINE
  5
205
  8
GRID_LED
 10
87.66
 20
140.32
 30
0.0
 11
113.99
 21
140.32
 31
0.0
  0
LINE
  5
206
  8
GRID_LED
 10
113.99
 20
140.32
 30
0.0
 11
113.99
 21
166.65
 31
0.0
  0
LINE
  5
207
  8
GRID_LED
 10
113.99
 20
166.65
 30
0.0
 11
87.66
 21
166.65
 31
0.0
  0
LINE
  5
208
  8
GRID_LED
 10
87.66
 20
166.65
 30
0.0
 11
87.66
 21
140.32
 31
0.0
  0
LINE
  5
209
  8
GRID_LED
 10
87.66
 20
173.65
 30
0.0
 11
113.99
 21
173.65
 31
0.0
  0
LINE
  5
20A
  8
GRID_LED
 10
113.99
 20
173.65
 30
0.0
 11
113.99
 21
199.98
 31
0.0
  0
LINE
  5
20B
  8
GRID_LED
 10
113.99
 20
199.98
 30
0.0
 11
87.66
 21
199.98
 31
0.0
  0
LINE
  5
20C
  8
GRID_LED
 10
87.66
 20
199.98
 30
0.0
 11
87.66
 21
173.65
 31
0.0
  0
LINE
  5
20D
  8
GRID_LED
 10
87.66
 20
206.98
 30
0.0
 11
113.99
 21
206.98
 31
0.0
  0
LINE
  5
20E
  8
GRID_LED
 10
113.99
 20
206.98
 30
0.0
 11
113.99
 21
233.31
 31
0.0
  0
LINE
  5
20F
  8
GRID_LED
 10
113.99
 20
233.31
 30
0.0
 11
87.66
 21
233.31
 31
0.0
  0
LINE
  5
210
  8
GRID_LED
 10
87.66
 20
233.31
 30
0.0
 11
87.66
 21
206.98
 31
0.0
  0
LINE
  5
211
  8
GRID_LED
 10
87.66
 20
240.31
 30
0.0
 11
113.99
 21
240.31
 31
0.0
  0
LINE
  5
212
  8
GRID_LED
 10
113.99
 20
240.31
 30
0.0
 11
113.99
 21
266.64
 31
0.0
  0
LINE
  5
213
  8
GRID_LED
 10
113.99
 20
266.64
 30
0.0
 11
87.66
 21
266.64
 31
0.0
  0
LINE
  5
214
  8
GRID_LED
 10
87.66
 20
266.64
 30
0.0
 11
87.66
 21
240.31
 31
0.0
  0
LINE
  5
215
  8
GRID_LED
 10
87.66
 20
273.64
 30
0.0
 11
113.99
 21
273.64
 31
0.0
  0
LINE
  5
216
  8
GRID_LED
 10
113.99
 20
273.64
 30
0.0
 11
113.99
 21
299.97
 31
0.0
  0
LINE
  5
217
  8
GRID_LED
 10
113.99
 20
299.97
 30
0.0
 11
87.66
 21
299.97
 31
0.0
  0
LINE
  5
218
  8
GRID_LED
 10
87.66
 20
299.97
 30
0.0
 11
87.66
 21
273.64
 31
0.0
  0
LINE
  5
219
  8
GRID_LED
 10
87.66
 20
306.97
 30
0.0
 11
113.99
 21
306.97
 31
0.0
  0
LINE
  5
21A
  8
GRID_LED
 10
113.99
 20
306.97
 30
0.0
 11
113.99
 21
333.3
 31
0.0
  0
LINE
  5
21B
  8
GRID_LED
 10
113.99
 20
333.3
 30
0.0
 11
87.66
 21
333.3
 31
0.0
  0
LINE
  5
21C
  8
GRID_LED
 10
87.66
 20
333.3
 30
0.0
 11
87.66
 21
306.97
 31
0.0
  0
LINE
  5
21D
  8
GRID_LED
 10
87.66
 20
340.3
 30
0.0
 11
113.99
 21
340.3
 31
0.0
  0
LINE
  5
21E
  8
GRID_LED
 10
113.99
 20
340.3
 30
0.0
 11
113.99
 21
366.6300000000001
 31
0.0
  0
LINE
  5
21F
  8
GRID_LED
 10
113.99
 20
366.6300000000001
 30
0.0
 11
87.66
 21
366.6300000000001
 31
0.0
  0
LINE
  5
220
  8
GRID_LED
 10
87.66
 20
366.6300000000001
 30
0.0
 11
87.66
 21
340.3
 31
0.0
  0
LINE
  5
221
  8
GRID_LED
 10
87.66
 20
373.6300000000001
 30
0.0
 11
113.99
 21
373.6300000000001
 31
0.0
  0
LINE
  5
222
  8
GRID_LED
 10
113.99
 20
373.6300000000001
 30
0.0
 11
113.99
 21
399.96
 31
0.0
  0
LINE
  5
223
  8
GRID_LED
 10
113.99
 20
399.96
 30
0.0
 11
87.66
 21
399.96
 31
0.0
  0
LINE
  5
224
  8
GRID_LED
 10
87.66
 20
399.96
 30
0.0
 11
87.66
 21
373.6300000000001
 31
0.0
  0
LINE
  5
225
  8
BORDER
 10
80.66
 20
0.0
 30
0.0
 11
120.99
 21
0.0
 31
0.0
  0
LINE
  5
226
  8
BORDER
 10
120.99
 20
406.96
 30
0.0
 11
80.66
 21
406.96
 31
0.0
  0
LINE
  5
227
  8
GRID_LED
 10
168.32
 20
106.99
 30
0.0
 11
194.65
 21
106.99
 31
0.0
  0
LINE
  5
228
  8
GRID_LED
 10
194.65
 20
106.99
 30
0.0
 11
194.65
 21
133.32
 31
0.0
  0
LINE
  5
229
  8
GRID_LED
 10
194.65
 20
133.32
 30
0.0
 11
168.32
 21
133.32
 31
0.0
  0
LINE
  5
22A
  8
GRID_LED
 10
168.32
 20
133.32
 30
0.0
 11
168.32
 21
106.99
 31
0.0
  0
LINE
  5
22B
  8
GRID_PCB
 10
168.32
 20
7.0
 30
0.0
 11
194.65
 21
7.0
 31
0.0
  0
LINE
  5
22C
  8
GRID_PCB
 10
194.65
 20
7.0
 30
0.0
 11
194.65
 21
99.99000000000001
 31
0.0
  0
LINE
  5
22D
  8
GRID_PCB
 10
194.65
 20
99.99000000000001
 30
0.0
 11
168.32
 21
99.99000000000001
 31
0.0
  0
LINE
  5
22E
  8
GRID_PCB
 10
168.32
 20
99.99000000000001
 30
0.0
 11
168.32
 21
7.0
 31
0.0
  0
LINE
  5
22F
  8
GRID_LED
 10
168.32
 20
140.32
 30
0.0
 11
194.65
 21
140.32
 31
0.0
  0
LINE
  5
230
  8
GRID_LED
 10
194.65
 20
140.32
 30
0.0
 11
194.65
 21
166.65
 31
0.0
  0
LINE
  5
231
  8
GRID_LED
 10
194.65
 20
166.65
 30
0.0
 11
168.32
 21
166.65
 31
0.0
  0
LINE
  5
232
  8
GRID_LED
 10
168.32
 20
166.65
 30
0.0
 11
168.32
 21
140.32
 31
0.0
  0
LINE
  5
233
  8
GRID_LED
 10
168.32
 20
173.65
 30
0.0
 11
194.65
 21
173.65
 31
0.0
  0
LINE
  5
234
  8
GRID_LED
 10
194.65
 20
173.65
 30
0.0
 11
194.65
 21
199.98
 31
0.0
  0
LINE
  5
235
  8
GRID_LED
 10
194.65
 20
199.98
 30
0.0
 11
168.32
 21
199.98
 31
0.0
  0
LINE
  5
236
  8
GRID_LED
 10
168.32
 20
199.98
 30
0.0
 11
168.32
 21
173.65
 31
0.0
  0
LINE
  5
237
  8
GRID_LED
 10
168.32
 20
206.98
 30
0.0
 11
194.65
 21
206.98
 31
0.0
  0
LINE
  5
238
  8
GRID_LED
 10
194.65
 20
206.98
 30
0.0
 11
194.65
 21
233.31
 31
0.0
  0
LINE
  5
239
  8
GRID_LED
 10
194.65
 20
233.31
 30
0.0
 11
168.32
 21
233.31
 31
0.0
  0
LINE
  5
23A
  8
GRID_LED
 10
168.32
 20
233.31
 30
0.0
 11
168.32
 21
206.98
 31
0.0
  0
LINE
  5
23B
  8
GRID_LED
 10
168.32
 20
240.31
 30
0.0
 11
194.65
 21
240.31
 31
0.0
  0
LINE
  5
23C
  8
GRID_LED
 10
194.65
 20
240.31
 30
0.0
 11
194.65
 21
266.64
 31
0.0
  0
LINE
  5
23D
  8
GRID_LED
 10
194.65
 20
266.64
 30
0.0
 11
168.32
 21
266.64
 31
0.0
  0
LINE
  5
23E
  8
GRID_LED
 10
168.32
 20
266.64
 30
0.0
 11
168.32
 21
240.31
 31
0.0
  0
LINE
  5
23F
  8
GRID_LED
 10
168.32
 20
273.64
 30
0.0
 11
194.65
 21
273.64
 31
0.0
  0
LINE
  5
240
  8
GRID_LED
 10
194.65
 20
273.64
 30
0.0
 11
194.65
 21
299.97
 31
0.0
  0
LINE
  5
241
  8
GRID_LED
 10
194.65
 20
299.97
 30
0.0
 11
168.32
 21
299.97
 31
0.0
  0
LINE
  5
242
  8
GRID_LED
 10
168.32
 20
299.97
 30
0.0
 11
168.32
 21
273.64
 31
0.0
  0
LINE
  5
243
  8
GRID_LED
 10
168.32
 20
306.97
 30
0.0
 11
194.65
 21
306.97
 31
0.0
  0
LINE
  5
244
  8
GRID_LED
 10
194.65
 20
306.97
 30
0.0
 11
194.65
 21
333.3
 31
0.0
  0
LINE
  5
245
  8
GRID_LED
 10
194.65
 20
333.3
 30
0.0
 11
168.32
 21
333.3
 31
0.0
  0
LINE
  5
246
  8
GRID_LED
 10
168.32
 20
333.3
 30
0.0
 11
168.32
 21
306.97
 31
0.0
  0
LINE
  5
247
  8
GRID_LED
 10
168.32
 20
340.3
 30
0.0
 11
194.65
 21
340.3
 31
0.0
  0
LINE
  5
248
  8
GRID_LED
 10
194.65
 20
340.3
 30
0.0
 11
194.65
 21
366.6300000000001
 31
0.0
  0
LINE
  5
249
  8
GRID_LED
 10
194.65
 20
366.6300000000001
 30
0.0
 11
168.32
 21
366.6300000000001
 31
0.0
  0
LINE
  5
24A
  8
GRID_LED
 10
168.32
 20
366.6300000000001
 30
0.0
 11
168.32
 21
340.3
 31
0.0
  0
LINE
  5
24B
  8
GRID_LED
 10
168.32
 20
373.6300000000001
 30
0.0
 11
194.65
 21
373.6300000000001
 31
0.0
  0
LINE
  5
24C
  8
GRID_LED
 10
194.65
 20
373.6300000000001
 30
0.0
 11
194.65
 21
399.96
 31
0.0
  0
LINE
  5
24D
  8
GRID_LED
 10
194.65
 20
399.96
 30
0.0
 11
168.32
 21
399.96
 31
0.0
  0
LINE
  5
24E
  8
GRID_LED
 10
168.32
 20
399.96
 30
0.0
 11
168.32
 21
373.6300000000001
 31
0.0
  0
LINE
  5
24F
  8
BORDER
 10
161.32
 20
0.0
 30
0.0
 11
201.65
 21
0.0
 31
0.0
  0
LINE
  5
250
  8
BORDER
 10
201.65
 20
406.96
 30
0.0
 11
161.32
 21
406.96
 31
0.0
  0
CIRCLE
  5
251
  8
SCREWS-BORDER
 10
29.83
 20
43.83
 30
0.0
 40
0.95
  0
CIRCLE
  5
252
  8
SCREWS-BORDER
 10
29.83
 20
10.5
 30
0.0
 40
0.95
  0
CIRCLE
  5
253
  8
SCREWS-PCB
 10
29.83
 20
17.16499999999999
 30
0.0
 40
1.0
  0
CIRCLE
  5
254
  8
SCREWS-PCB
 10
29.83
 20
37.16499999999999
 30
0.0
 40
1.0
  0
ARC
  5
255
  8
FIXING
 10
26.165
 20
27.165
 30
0.0
 40
1.5
 50
270.0
 51
90.0
  0
LINE
  5
256
  8
FIXING
 10
26.165
 20
28.665
 30
0.0
 11
22.76307621135386
 21
28.665
 31
0.0
  0
ARC
  5
257
  8
FIXING
 10
20.165
 20
27.165
 30
0.0
 40
3.0
 50
30.00000000000249
 51
60.00000000000471
  0
LINE
  5
258
  8
FIXING
 10
21.66499999999979
 20
29.76307621135344
 30
0.0
 11
21.665
 21
33.16499999999999
 31
0.0
  0
ARC
  5
259
  8
FIXING
 10
20.165
 20
33.16499999999999
 30
0.0
 40
1.5
 50
0.0
 51
180.0
  0
LINE
  5
25A
  8
FIXING
 10
18.665
 20
33.16499999999999
 30
0.0
 11
18.66500000000021
 21
29.76307621135343
 31
0.0
  0
ARC
  5
25B
  8
FIXING
 10
20.165
 20
27.165
 30
0.0
 40
3.0
 50
119.9999999999955
 51
240.0000000000039
  0
LINE
  5
25C
  8
FIXING
 10
18.66500000000018
 20
24.56692378864658
 30
0.0
 11
18.665
 21
21.165
 31
0.0
  0
ARC
  5
25D
  8
FIXING
 10
20.165
 20
21.165
 30
0.0
 40
1.5
 50
180.0
 51
0.0
  0
LINE
  5
25E
  8
FIXING
 10
21.665
 20
21.165
 30
0.0
 11
21.66499999999981
 21
24.56692378864658
 31
0.0
  0
ARC
  5
25F
  8
FIXING
 10
20.165
 20
27.165
 30
0.0
 40
3.0
 50
299.9999999999959
 51
329.9999999999981
  0
LINE
  5
260
  8
FIXING
 10
22.76307621135327
 20
25.66499999999991
 30
0.0
 11
26.165
 21
25.665
 31
0.0
  0
ENDSEC
  0
EOF
