  0
SECTION
  2
HEADER
  9
$ACADVER
  1
AC1009
  9
$DWGCODEPAGE
  3
mac-roman
  9
$INSBASE
 10
0.0
 20
0.0
 30
0.0
  9
$EXTMIN
 10
-3.5
 20
-3.5
 30
0.0
  9
$EXTMAX
 10
36.83
 20
403.46
 30
0.0
  9
$LIMMIN
 10
0.0
 20
0.0
  9
$LIMMAX
 10
12.0
 20
9.0
  9
$ORTHOMODE
 70
     0
  9
$REGENMODE
 70
     1
  9
$FILLMODE
 70
     1
  9
$QTEXTMODE
 70
     0
  9
$MIRRTEXT
 70
     1
  9
$DRAGMODE
 70
     2
  9
$LTSCALE
 40
1.0
  9
$OSMODE
 70
    37
  9
$ATTMODE
 70
     1
  9
$TEXTSIZE
 40
0.2
  9
$TRACEWID
 40
0.05
  9
$TEXTSTYLE
  7
STANDARD
  9
$CLAYER
  8
0
  9
$CELTYPE
  6
BYLAYER
  9
$CECOLOR
 62
   256
  9
$DIMSCALE
 40
1.0
  9
$DIMASZ
 40
0.18
  9
$DIMEXO
 40
0.0625
  9
$DIMDLI
 40
0.38
  9
$DIMRND
 40
0.0
  9
$DIMDLE
 40
0.0
  9
$DIMEXE
 40
0.18
  9
$DIMTP
 40
0.0
  9
$DIMTM
 40
0.0
  9
$DIMTXT
 40
0.18
  9
$DIMCEN
 40
0.09
  9
$DIMTSZ
 40
0.0
  9
$DIMTOL
 70
     0
  9
$DIMLIM
 70
     0
  9
$DIMTIH
 70
     1
  9
$DIMTOH
 70
     1
  9
$DIMSE1
 70
     0
  9
$DIMSE2
 70
     0
  9
$DIMTAD
 70
     0
  9
$DIMZIN
 70
     0
  9
$DIMBLK
  1

  9
$DIMASO
 70
     1
  9
$DIMSHO
 70
     1
  9
$DIMPOST
  1

  9
$DIMAPOST
  1

  9
$DIMALT
 70
     0
  9
$DIMALTD
 70
     2
  9
$DIMALTF
 40
25.4
  9
$DIMLFAC
 40
1.0
  9
$DIMTOFL
 70
     0
  9
$DIMTVP
 40
0.0
  9
$DIMTIX
 70
     0
  9
$DIMSOXD
 70
     0
  9
$DIMSAH
 70
     0
  9
$DIMBLK1
  1

  9
$DIMBLK2
  1

  9
$DIMSTYLE
  2
STANDARD
  9
$DIMCLRD
 70
     0
  9
$DIMCLRE
 70
     0
  9
$DIMCLRT
 70
     0
  9
$DIMTFAC
 40
1.0
  9
$DIMGAP
 40
0.09
  9
$LUNITS
 70
     2
  9
$LUPREC
 70
     2
  9
$SKETCHINC
 40
0.1
  9
$FILLETRAD
 40
0.5
  9
$AUNITS
 70
     0
  9
$AUPREC
 70
     0
  9
$MENU
  1
.
  9
$ELEVATION
 40
0.0
  9
$PELEVATION
 40
0.0
  9
$THICKNESS
 40
0.0
  9
$LIMCHECK
 70
     0
  9
$CHAMFERA
 40
0.0
  9
$CHAMFERB
 40
0.0
  9
$SKPOLY
 70
     0
  9
$TDCREATE
 40
2457544.731585648
  9
$TDUPDATE
 40
2457544.731585648
  9
$TDINDWG
 40
0.0000000116
  9
$TDUSRTIMER
 40
0.0000000116
  9
$USRTIMER
 70
     1
  9
$ANGBASE
 50
0.0
  9
$ANGDIR
 70
     0
  9
$PDMODE
 70
     0
  9
$PDSIZE
 40
0.0
  9
$PLINEWID
 40
0.0
  9
$COORDS
 70
     1
  9
$SPLFRAME
 70
     0
  9
$SPLINETYPE
 70
     6
  9
$SPLINESEGS
 70
     8
  9
$ATTDIA
 70
     0
  9
$ATTREQ
 70
     1
  9
$HANDLING
 70
     1
  9
$HANDSEED
  5
275
  9
$SURFTAB1
 70
     6
  9
$SURFTAB2
 70
     6
  9
$SURFTYPE
 70
     6
  9
$SURFU
 70
     6
  9
$SURFV
 70
     6
  9
$UCSNAME
  2

  9
$UCSORG
 10
0.0
 20
0.0
 30
0.0
  9
$UCSXDIR
 10
1.0
 20
0.0
 30
0.0
  9
$UCSYDIR
 10
0.0
 20
1.0
 30
0.0
  9
$PUCSNAME
  2

  9
$PUCSORG
 10
0.0
 20
0.0
 30
0.0
  9
$PUCSXDIR
 10
1.0
 20
0.0
 30
0.0
  9
$PUCSYDIR
 10
0.0
 20
1.0
 30
0.0
  9
$USERI1
 70
     0
  9
$USERI2
 70
     0
  9
$USERI3
 70
     0
  9
$USERI4
 70
     0
  9
$USERI5
 70
     0
  9
$USERR1
 40
0.0
  9
$USERR2
 40
0.0
  9
$USERR3
 40
0.0
  9
$USERR4
 40
0.0
  9
$USERR5
 40
0.0
  9
$WORLDVIEW
 70
     1
  9
$SHADEDGE
 70
     3
  9
$SHADEDIF
 70
    70
  9
$TILEMODE
 70
     1
  9
$MAXACTVP
 70
    64
  9
$PLIMCHECK
 70
     0
  9
$PEXTMIN
 10
1.000000000000000E+20
 20
1.000000000000000E+20
 30
1.000000000000000E+20
  9
$PEXTMAX
 10
-1.000000000000000E+20
 20
-1.000000000000000E+20
 30
-1.000000000000000E+20
  9
$PLIMMIN
 10
0.0
 20
0.0
  9
$PLIMMAX
 10
12.0
 20
9.0
  9
$UNITMODE
 70
     0
  9
$VISRETAIN
 70
     1
  9
$PLINEGEN
 70
     0
  9
$PSLTSCALE
 70
     1
  0
ENDSEC
  0
SECTION
  2
TABLES
  0
TABLE
  2
VPORT
 70
     1
  0
VPORT
  2
*ACTIVE
 70
     0
 10
0.0
 20
0.0
 11
1.0
 21
1.0
 12
16.665
 22
199.98
 13
0.0
 23
0.0
 14
0.5
 24
0.5
 15
0.5
 25
0.5
 16
0.0
 26
0.0
 36
1.0
 17
0.0
 27
0.0
 37
0.0
 40
415.0992000000001
 41
0.0991006487124042
 42
50.0
 43
0.0
 44
0.0
 50
0.0
 51
0.0
 71
     0
 72
   100
 73
     1
 74
     3
 75
     0
 76
     0
 77
     0
 78
     0
  0
ENDTAB
  0
TABLE
  2
LTYPE
 70
     1
  0
LTYPE
  2
CONTINUOUS
 70
     0
  3
Solid line
 72
    65
 73
     0
 40
0.0
  0
ENDTAB
  0
TABLE
  2
LAYER
 70
     8
  0
LAYER
  2
0
 70
     0
 62
     7
  6
CONTINUOUS
  0
LAYER
  2
TEXT_LAYER$TXT_MKR1000
 70
     0
 62
     4
  6
CONTINUOUS
  0
LAYER
  2
TEXT_LAYER$TXT_02
 70
     0
 62
     4
  6
CONTINUOUS
  0
LAYER
  2
GRID_PCB_EX
 70
     0
 62
     6
  6
CONTINUOUS
  0
LAYER
  2
STRIP_CUTS
 70
     0
 62
     3
  6
CONTINUOUS
  0
LAYER
  2
SCREWS-BORDER
 70
     0
 62
     3
  6
CONTINUOUS
  0
LAYER
  2
BORDER
 70
     0
 62
     7
  6
CONTINUOUS
  0
LAYER
  2
GRID_LED
 70
     0
 62
     6
  6
CONTINUOUS
  0
ENDTAB
  0
TABLE
  2
STYLE
 70
     1
  0
STYLE
  2
STANDARD
 70
     0
 40
0.0
 41
1.0
 50
0.0
 71
     0
 42
0.2
  3
txt
  4

  0
ENDTAB
  0
TABLE
  2
VIEW
 70
     0
  0
ENDTAB
  0
TABLE
  2
UCS
 70
     0
  0
ENDTAB
  0
TABLE
  2
APPID
 70
     1
  0
APPID
  2
ACAD
 70
     0
  0
ENDTAB
  0
TABLE
  2
DIMSTYLE
 70
     1
  0
DIMSTYLE
  2
STANDARD
 70
     0
  3

  4

  5

  6

  7

 40
1.0
 41
0.18
 42
0.0625
 43
0.38
 44
0.18
 45
0.0
 46
0.0
 47
0.0
 48
0.0
140
0.18
141
0.09
142
0.0
143
25.4
144
1.0
145
0.0
146
1.0
147
0.09
 71
     0
 72
     0
 73
     1
 74
     1
 75
     0
 76
     0
 77
     0
 78
     0
170
     0
171
     2
172
     0
173
     0
174
     0
175
     0
176
     0
177
     0
178
     0
  0
ENDTAB
  0
ENDSEC
  0
SECTION
  2
BLOCKS
  0
BLOCK
  8
0
  2
$MODEL_SPACE
 70
     0
 10
0.0
 20
0.0
 30
0.0
  3
$MODEL_SPACE
  1

  0
ENDBLK
  5
21
  8
0
  0
BLOCK
 67
     1
  8
0
  2
$PAPER_SPACE
 70
     0
 10
0.0
 20
0.0
 30
0.0
  3
$PAPER_SPACE
  1

  0
ENDBLK
  5
1D
 67
     1
  8
0
  0
ENDSEC
  0
SECTION
  2
ENTITIES
  0
LINE
  5
6F
  8
TEXT_LAYER$TXT_MKR1000
 10
2.27633083730429
 20
9.142375765827097
 30
0.0
 11
2.27633083730429
 21
8.172328114363516
 31
0.0
  0
LINE
  5
70
  8
TEXT_LAYER$TXT_MKR1000
 10
2.27633083730429
 20
8.172328114363516
 30
0.0
 11
-1.951034717494894
 21
6.735976855003407
 31
0.0
  0
LINE
  5
71
  8
TEXT_LAYER$TXT_MKR1000
 10
-1.951034717494894
 20
6.735976855003407
 30
0.0
 11
2.27633083730429
 21
5.30983662355344
 31
0.0
  0
LINE
  5
72
  8
TEXT_LAYER$TXT_MKR1000
 10
2.27633083730429
 20
5.30983662355344
 30
0.0
 11
2.27633083730429
 21
4.350000000000002
 31
0.0
  0
LINE
  5
73
  8
TEXT_LAYER$TXT_MKR1000
 10
2.27633083730429
 20
4.350000000000002
 30
0.0
 11
-2.72366916269571
 21
4.350000000000002
 31
0.0
  0
LINE
  5
74
  8
TEXT_LAYER$TXT_MKR1000
 10
-2.72366916269571
 20
4.350000000000002
 30
0.0
 11
-2.72366916269571
 21
4.993294758339011
 31
0.0
  0
LINE
  5
75
  8
TEXT_LAYER$TXT_MKR1000
 10
-2.72366916269571
 20
4.993294758339011
 30
0.0
 11
0.227317903335603
 21
4.993294758339011
 31
0.0
  0
LINE
  5
76
  8
TEXT_LAYER$TXT_MKR1000
 10
0.227317903335603
 20
4.993294758339011
 30
0.0
 11
0.7344656228727047
 21
4.986487406398914
 31
0.0
  0
LINE
  5
77
  8
TEXT_LAYER$TXT_MKR1000
 10
0.7344656228727047
 20
4.986487406398914
 30
0.0
 11
1.493485364193329
 21
4.979680054458817
 31
0.0
  0
LINE
  5
78
  8
TEXT_LAYER$TXT_MKR1000
 10
1.493485364193329
 20
4.979680054458817
 30
0.0
 11
-2.72366916269571
 21
6.405820285908784
 31
0.0
  0
LINE
  5
79
  8
TEXT_LAYER$TXT_MKR1000
 10
-2.72366916269571
 20
6.405820285908784
 30
0.0
 11
-2.72366916269571
 21
7.076344452008171
 31
0.0
  0
LINE
  5
7A
  8
TEXT_LAYER$TXT_MKR1000
 10
-2.72366916269571
 20
7.076344452008171
 30
0.0
 11
1.493485364193329
 21
8.51269571136828
 31
0.0
  0
LINE
  5
7B
  8
TEXT_LAYER$TXT_MKR1000
 10
1.493485364193329
 20
8.51269571136828
 30
0.0
 11
1.340319945541186
 21
8.51269571136828
 31
0.0
  0
LINE
  5
7C
  8
TEXT_LAYER$TXT_MKR1000
 10
1.340319945541186
 20
8.51269571136828
 30
0.0
 11
0.7804152484683478
 21
8.504186521443163
 31
0.0
  0
LINE
  5
7D
  8
TEXT_LAYER$TXT_MKR1000
 10
0.7804152484683478
 20
8.504186521443163
 30
0.0
 11
0.227317903335603
 21
8.495677331518042
 31
0.0
  0
LINE
  5
7E
  8
TEXT_LAYER$TXT_MKR1000
 10
0.227317903335603
 20
8.495677331518042
 30
0.0
 11
-2.72366916269571
 21
8.495677331518042
 31
0.0
  0
LINE
  5
7F
  8
TEXT_LAYER$TXT_MKR1000
 10
-2.72366916269571
 20
8.495677331518042
 30
0.0
 11
-2.72366916269571
 21
9.142375765827097
 31
0.0
  0
LINE
  5
80
  8
TEXT_LAYER$TXT_MKR1000
 10
-2.72366916269571
 20
9.142375765827097
 30
0.0
 11
2.27633083730429
 21
9.142375765827097
 31
0.0
  0
LINE
  5
82
  8
TEXT_LAYER$TXT_02
 10
-1.310108885981936
 20
49.01715431552395
 30
0.0
 11
-1.396541184822861
 21
49.05534842941501
 31
0.0
  0
LINE
  5
83
  8
TEXT_LAYER$TXT_02
 10
-1.396541184822861
 20
49.05534842941501
 30
0.0
 11
-1.484195213281811
 21
49.0906486264933
 31
0.0
  0
LINE
  5
84
  8
TEXT_LAYER$TXT_02
 10
-1.484195213281811
 20
49.0906486264933
 30
0.0
 11
-1.572974109090415
 21
49.12301589820186
 31
0.0
  0
LINE
  5
85
  8
TEXT_LAYER$TXT_02
 10
-1.572974109090415
 20
49.12301589820186
 30
0.0
 11
-1.662779766943246
 21
49.15241447701903
 31
0.0
  0
LINE
  5
86
  8
TEXT_LAYER$TXT_02
 10
-1.662779766943246
 20
49.15241447701903
 30
0.0
 11
-1.753512946909338
 21
49.17881187598351
 31
0.0
  0
LINE
  5
87
  8
TEXT_LAYER$TXT_02
 10
-1.753512946909338
 20
49.17881187598351
 30
0.0
 11
-1.845073384097464
 21
49.2021789245941
 31
0.0
  0
LINE
  5
88
  8
TEXT_LAYER$TXT_02
 10
-1.845073384097464
 20
49.2021789245941
 30
0.0
 11
-1.937359899454056
 21
49.2224898010446
 31
0.0
  0
LINE
  5
89
  8
TEXT_LAYER$TXT_02
 10
-1.937359899454056
 20
49.2224898010446
 30
0.0
 11
-2.030270511571338
 21
49.23972206075831
 31
0.0
  0
LINE
  5
8A
  8
TEXT_LAYER$TXT_02
 10
-2.030270511571338
 20
49.23972206075831
 30
0.0
 11
-2.123702549382117
 21
49.25385666119041
 31
0.0
  0
LINE
  5
8B
  8
TEXT_LAYER$TXT_02
 10
-2.123702549382117
 20
49.25385666119041
 30
0.0
 11
-2.217552765616619
 21
49.26487798287098
 31
0.0
  0
LINE
  5
8C
  8
TEXT_LAYER$TXT_02
 10
-2.217552765616619
 20
49.26487798287098
 30
0.0
 11
-2.311717450896136
 21
49.27277384666534
 31
0.0
  0
LINE
  5
8D
  8
TEXT_LAYER$TXT_02
 10
-2.311717450896136
 20
49.27277384666534
 30
0.0
 11
-2.406092548337281
 21
49.2775355272326
 31
0.0
  0
LINE
  5
8E
  8
TEXT_LAYER$TXT_02
 10
-2.406092548337281
 20
49.2775355272326
 30
0.0
 11
-2.40609254833728
 21
45.93172204867576
 31
0.0
  0
LINE
  5
8F
  8
TEXT_LAYER$TXT_02
 10
-2.40609254833728
 20
45.93172204867576
 30
0.0
 11
-1.827467633429176
 21
45.93172204867576
 31
0.0
  0
LINE
  5
90
  8
TEXT_LAYER$TXT_02
 10
-1.827467633429176
 20
45.93172204867576
 30
0.0
 11
-1.827467633429176
 21
48.59339665725302
 31
0.0
  0
LINE
  5
91
  8
TEXT_LAYER$TXT_02
 10
-1.827467633429176
 20
48.59339665725302
 30
0.0
 11
-1.772142465373531
 21
48.57184284575456
 31
0.0
  0
LINE
  5
92
  8
TEXT_LAYER$TXT_02
 10
-1.772142465373531
 20
48.57184284575456
 30
0.0
 11
-1.717572051654598
 21
48.54844389370449
 31
0.0
  0
LINE
  5
93
  8
TEXT_LAYER$TXT_02
 10
-1.717572051654598
 20
48.54844389370449
 30
0.0
 11
-1.663817909006184
 21
48.52322617852982
 31
0.0
  0
LINE
  5
94
  8
TEXT_LAYER$TXT_02
 10
-1.663817909006184
 20
48.52322617852982
 30
0.0
 11
-1.610940633987095
 21
48.49621812793279
 31
0.0
  0
LINE
  5
95
  8
TEXT_LAYER$TXT_02
 10
-1.610940633987095
 20
48.49621812793279
 30
0.0
 11
-1.558999834671192
 21
48.46745018784453
 31
0.0
  0
LINE
  5
96
  8
TEXT_LAYER$TXT_02
 10
-1.558999834671192
 20
48.46745018784453
 30
0.0
 11
-1.508054063451743
 21
48.4369547881037
 31
0.0
  0
LINE
  5
97
  8
TEXT_LAYER$TXT_02
 10
-1.508054063451743
 20
48.4369547881037
 30
0.0
 11
-1.458160751035848
 21
48.40476630589862
 31
0.0
  0
LINE
  5
98
  8
TEXT_LAYER$TXT_02
 10
-1.458160751035848
 20
48.40476630589862
 30
0.0
 11
-1.409376141703319
 21
48.37092102701413
 31
0.0
  0
LINE
  5
99
  8
TEXT_LAYER$TXT_02
 10
-1.409376141703319
 20
48.37092102701413
 30
0.0
 11
-1.361755229902998
 21
48.33545710492699
 31
0.0
  0
LINE
  5
9A
  8
TEXT_LAYER$TXT_02
 10
-1.361755229902998
 20
48.33545710492699
 30
0.0
 11
-1.315351698258036
 21
48.2984145177958
 31
0.0
  0
LINE
  5
9B
  8
TEXT_LAYER$TXT_02
 10
-1.315351698258036
 20
48.2984145177958
 30
0.0
 11
-1.270217857049946
 21
48.25983502339398
 31
0.0
  0
LINE
  5
9C
  8
TEXT_LAYER$TXT_02
 10
-1.270217857049946
 20
48.25983502339398
 30
0.0
 11
-1.226404585249685
 21
48.21976211203665
 31
0.0
  0
LINE
  5
9D
  8
TEXT_LAYER$TXT_02
 10
-1.226404585249685
 20
48.21976211203665
 30
0.0
 11
-1.183961273162271
 21
48.17824095755429
 31
0.0
  0
LINE
  5
9E
  8
TEXT_LAYER$TXT_02
 10
-1.183961273162271
 20
48.17824095755429
 30
0.0
 11
-1.142935766749529
 21
48.13531836636883
 31
0.0
  0
LINE
  5
9F
  8
TEXT_LAYER$TXT_02
 10
-1.142935766749529
 20
48.13531836636883
 30
0.0
 11
-1.103374313693762
 21
48.09104272472906
 31
0.0
  0
LINE
  5
A0
  8
TEXT_LAYER$TXT_02
 10
-1.103374313693762
 20
48.09104272472906
 30
0.0
 11
-1.065321511263175
 21
48.04546394416534
 31
0.0
  0
LINE
  5
A1
  8
TEXT_LAYER$TXT_02
 10
-1.065321511263175
 20
48.04546394416534
 30
0.0
 11
-1.028820256037764
 21
47.99863340522475
 31
0.0
  0
LINE
  5
A2
  8
TEXT_LAYER$TXT_02
 10
-1.028820256037764
 20
47.99863340522475
 30
0.0
 11
-0.9939116955523942
 21
47.95060389955026
 31
0.0
  0
LINE
  5
A3
  8
TEXT_LAYER$TXT_02
 10
-0.9939116955523942
 20
47.95060389955026
 30
0.0
 11
-0.96063518191156
 21
47.9014295703692
 31
0.0
  0
LINE
  5
A4
  8
TEXT_LAYER$TXT_02
 10
-0.96063518191156
 20
47.9014295703692
 30
0.0
 11
-0.9290282274281034
 21
47.85116585145806
 31
0.0
  0
LINE
  5
A5
  8
TEXT_LAYER$TXT_02
 10
-0.9290282274281034
 20
47.85116585145806
 30
0.0
 11
-0.8991264623359364
 21
47.79986940465256
 31
0.0
  0
LINE
  5
A6
  8
TEXT_LAYER$TXT_02
 10
-0.8991264623359364
 20
47.79986940465256
 30
0.0
 11
-0.8709635946243878
 21
47.74759805597321
 31
0.0
  0
LINE
  5
A7
  8
TEXT_LAYER$TXT_02
 10
-0.8709635946243878
 20
47.74759805597321
 30
0.0
 11
-0.844571372039498
 21
47.69441073043858
 31
0.0
  0
LINE
  5
A8
  8
TEXT_LAYER$TXT_02
 10
-0.844571372039498
 20
47.69441073043858
 30
0.0
 11
-0.8199795462950752
 21
47.64036738563968
 31
0.0
  0
LINE
  5
A9
  8
TEXT_LAYER$TXT_02
 10
-0.8199795462950752
 20
47.64036738563968
 30
0.0
 11
-0.5613001725714528
 21
47.17406377774315
 31
0.0
  0
LINE
  5
AA
  8
TEXT_LAYER$TXT_02
 10
-0.5613001725714528
 20
47.17406377774315
 30
0.0
 11
-0.4769525314784475
 21
47.0259501335895
 31
0.0
  0
LINE
  5
AB
  8
TEXT_LAYER$TXT_02
 10
-0.4769525314784475
 20
47.0259501335895
 30
0.0
 11
-0.395796058378124
 21
46.88964334983726
 31
0.0
  0
LINE
  5
AC
  8
TEXT_LAYER$TXT_02
 10
-0.395796058378124
 20
46.88964334983726
 30
0.0
 11
-0.3178306846651389
 21
46.76514332637052
 31
0.0
  0
LINE
  5
AD
  8
TEXT_LAYER$TXT_02
 10
-0.3178306846651389
 20
46.76514332637052
 30
0.0
 11
-0.2430563417341483
 21
46.65244996307331
 31
0.0
  0
LINE
  5
AE
  8
TEXT_LAYER$TXT_02
 10
-0.2430563417341483
 20
46.65244996307331
 30
0.0
 11
-0.1714729609798086
 21
46.55156315982971
 31
0.0
  0
LINE
  5
AF
  8
TEXT_LAYER$TXT_02
 10
-0.1714729609798086
 20
46.55156315982971
 30
0.0
 11
-0.136877859979713
 21
46.50554718694178
 31
0.0
  0
LINE
  5
B0
  8
TEXT_LAYER$TXT_02
 10
-0.136877859979713
 20
46.50554718694178
 30
0.0
 11
-0.1030804737967762
 21
46.46248281652378
 31
0.0
  0
LINE
  5
B1
  8
TEXT_LAYER$TXT_02
 10
-0.1030804737967762
 20
46.46248281652378
 30
0.0
 11
-0.0700807938553304
 21
46.42237003606121
 31
0.0
  0
LINE
  5
B2
  8
TEXT_LAYER$TXT_02
 10
-0.0700807938553304
 20
46.42237003606121
 30
0.0
 11
-0.0378788115797074
 21
46.38520883303958
 31
0.0
  0
LINE
  5
B3
  8
TEXT_LAYER$TXT_02
 10
-0.0378788115797074
 20
46.38520883303958
 30
0.0
 11
-0.0064745183942395
 21
46.35099919494441
 31
0.0
  0
LINE
  5
B4
  8
TEXT_LAYER$TXT_02
 10
-0.0064745183942395
 20
46.35099919494441
 30
0.0
 11
0.0241320942767413
 21
46.31974110926119
 31
0.0
  0
LINE
  5
B5
  8
TEXT_LAYER$TXT_02
 10
0.0241320942767413
 20
46.31974110926119
 30
0.0
 11
0.0502514349071759
 21
46.29440288113442
 31
0.0
  0
LINE
  5
B6
  8
TEXT_LAYER$TXT_02
 10
0.0502514349071759
 20
46.29440288113442
 30
0.0
 11
0.0767031399464943
 21
46.26986905270134
 31
0.0
  0
LINE
  5
B7
  8
TEXT_LAYER$TXT_02
 10
0.0767031399464943
 20
46.26986905270134
 30
0.0
 11
0.1034872112269978
 21
46.24613962320782
 31
0.0
  0
LINE
  5
B8
  8
TEXT_LAYER$TXT_02
 10
0.1034872112269978
 20
46.24613962320782
 30
0.0
 11
0.1306036505809875
 21
46.22321459189978
 31
0.0
  0
LINE
  5
B9
  8
TEXT_LAYER$TXT_02
 10
0.1306036505809875
 20
46.22321459189978
 30
0.0
 11
0.1580524598407645
 21
46.20109395802309
 31
0.0
  0
LINE
  5
BA
  8
TEXT_LAYER$TXT_02
 10
0.1580524598407645
 20
46.20109395802309
 30
0.0
 11
0.18583364083863
 21
46.17977772082365
 31
0.0
  0
LINE
  5
BB
  8
TEXT_LAYER$TXT_02
 10
0.18583364083863
 20
46.17977772082365
 30
0.0
 11
0.2139471954068851
 21
46.15926587954733
 31
0.0
  0
LINE
  5
BC
  8
TEXT_LAYER$TXT_02
 10
0.2139471954068851
 20
46.15926587954733
 30
0.0
 11
0.242393125377831
 21
46.13955843344005
 31
0.0
  0
LINE
  5
BD
  8
TEXT_LAYER$TXT_02
 10
0.242393125377831
 20
46.13955843344005
 30
0.0
 11
0.2711714325837688
 21
46.12065538174767
 31
0.0
  0
LINE
  5
BE
  8
TEXT_LAYER$TXT_02
 10
0.2711714325837688
 20
46.12065538174767
 30
0.0
 11
0.3002821188569997
 21
46.10255672371611
 31
0.0
  0
LINE
  5
BF
  8
TEXT_LAYER$TXT_02
 10
0.3002821188569997
 20
46.10255672371611
 30
0.0
 11
0.3297251860298248
 21
46.08526245859123
 31
0.0
  0
LINE
  5
C0
  8
TEXT_LAYER$TXT_02
 10
0.3297251860298248
 20
46.08526245859123
 30
0.0
 11
0.3595006359345453
 21
46.06877258561893
 31
0.0
  0
LINE
  5
C1
  8
TEXT_LAYER$TXT_02
 10
0.3595006359345453
 20
46.06877258561893
 30
0.0
 11
0.3896084704034623
 21
46.05308710404511
 31
0.0
  0
LINE
  5
C2
  8
TEXT_LAYER$TXT_02
 10
0.3896084704034623
 20
46.05308710404511
 30
0.0
 11
0.420048691268877
 21
46.03820601311565
 31
0.0
  0
LINE
  5
C3
  8
TEXT_LAYER$TXT_02
 10
0.420048691268877
 20
46.03820601311565
 30
0.0
 11
0.4508213003630904
 21
46.02412931207645
 31
0.0
  0
LINE
  5
C4
  8
TEXT_LAYER$TXT_02
 10
0.4508213003630904
 20
46.02412931207645
 30
0.0
 11
0.4819262995184039
 21
46.01085700017337
 31
0.0
  0
LINE
  5
C5
  8
TEXT_LAYER$TXT_02
 10
0.4819262995184039
 20
46.01085700017337
 30
0.0
 11
0.5133636905671186
 21
45.99838907665233
 31
0.0
  0
LINE
  5
C6
  8
TEXT_LAYER$TXT_02
 10
0.5133636905671186
 20
45.99838907665233
 30
0.0
 11
0.5451334753415353
 21
45.98672554075922
 31
0.0
  0
LINE
  5
C7
  8
TEXT_LAYER$TXT_02
 10
0.5451334753415353
 20
45.98672554075922
 30
0.0
 11
0.5772356556739555
 21
45.97586639173991
 31
0.0
  0
LINE
  5
C8
  8
TEXT_LAYER$TXT_02
 10
0.5772356556739555
 20
45.97586639173991
 30
0.0
 11
0.6096702333966804
 21
45.96581162884031
 31
0.0
  0
LINE
  5
C9
  8
TEXT_LAYER$TXT_02
 10
0.6096702333966804
 20
45.96581162884031
 30
0.0
 11
0.6424372103420108
 21
45.95656125130628
 31
0.0
  0
LINE
  5
CA
  8
TEXT_LAYER$TXT_02
 10
0.6424372103420108
 20
45.95656125130628
 30
0.0
 11
0.6755365883422483
 21
45.94811525838374
 31
0.0
  0
LINE
  5
CB
  8
TEXT_LAYER$TXT_02
 10
0.6755365883422483
 20
45.94811525838374
 30
0.0
 11
0.7089683692296935
 21
45.94047364931858
 31
0.0
  0
LINE
  5
CC
  8
TEXT_LAYER$TXT_02
 10
0.7089683692296935
 20
45.94047364931858
 30
0.0
 11
0.742732554836648
 21
45.93363642335667
 31
0.0
  0
LINE
  5
CD
  8
TEXT_LAYER$TXT_02
 10
0.742732554836648
 20
45.93363642335667
 30
0.0
 11
0.7768291469954128
 21
45.9276035797439
 31
0.0
  0
LINE
  5
CE
  8
TEXT_LAYER$TXT_02
 10
0.7768291469954128
 20
45.9276035797439
 30
0.0
 11
0.811258147538289
 21
45.92237511772618
 31
0.0
  0
LINE
  5
CF
  8
TEXT_LAYER$TXT_02
 10
0.811258147538289
 20
45.92237511772618
 30
0.0
 11
0.8460195582975778
 21
45.91795103654938
 31
0.0
  0
LINE
  5
D0
  8
TEXT_LAYER$TXT_02
 10
0.8460195582975778
 20
45.91795103654938
 30
0.0
 11
0.8811133811055805
 21
45.91433133545939
 31
0.0
  0
LINE
  5
D1
  8
TEXT_LAYER$TXT_02
 10
0.8811133811055805
 20
45.91433133545939
 30
0.0
 11
0.9165396177945979
 21
45.91151601370212
 31
0.0
  0
LINE
  5
D2
  8
TEXT_LAYER$TXT_02
 10
0.9165396177945979
 20
45.91151601370212
 30
0.0
 11
0.9522982701969314
 21
45.90950507052344
 31
0.0
  0
LINE
  5
D3
  8
TEXT_LAYER$TXT_02
 10
0.9522982701969314
 20
45.90950507052344
 30
0.0
 11
0.988389340144882
 21
45.90829850516924
 31
0.0
  0
LINE
  5
D4
  8
TEXT_LAYER$TXT_02
 10
0.988389340144882
 20
45.90829850516924
 30
0.0
 11
1.024812829470751
 21
45.90789631688542
 31
0.0
  0
LINE
  5
D5
  8
TEXT_LAYER$TXT_02
 10
1.024812829470751
 20
45.90789631688542
 30
0.0
 11
1.05938821977167
 21
45.90827357614339
 31
0.0
  0
LINE
  5
D6
  8
TEXT_LAYER$TXT_02
 10
1.05938821977167
 20
45.90827357614339
 30
0.0
 11
1.093764147265063
 21
45.90940535438885
 31
0.0
  0
LINE
  5
D7
  8
TEXT_LAYER$TXT_02
 10
1.093764147265063
 20
45.90940535438885
 30
0.0
 11
1.127940613795693
 21
45.91129165232918
 31
0.0
  0
LINE
  5
D8
  8
TEXT_LAYER$TXT_02
 10
1.127940613795693
 20
45.91129165232918
 30
0.0
 11
1.161917621208327
 21
45.91393247067175
 31
0.0
  0
LINE
  5
D9
  8
TEXT_LAYER$TXT_02
 10
1.161917621208327
 20
45.91393247067175
 30
0.0
 11
1.195695171347732
 21
45.91732781012392
 31
0.0
  0
LINE
  5
DA
  8
TEXT_LAYER$TXT_02
 10
1.195695171347732
 20
45.91732781012392
 30
0.0
 11
1.229273266058672
 21
45.92147767139306
 31
0.0
  0
LINE
  5
DB
  8
TEXT_LAYER$TXT_02
 10
1.229273266058672
 20
45.92147767139306
 30
0.0
 11
1.262651907185913
 21
45.92638205518655
 31
0.0
  0
LINE
  5
DC
  8
TEXT_LAYER$TXT_02
 10
1.262651907185913
 20
45.92638205518655
 30
0.0
 11
1.295831096574222
 21
45.93204096221174
 31
0.0
  0
LINE
  5
DD
  8
TEXT_LAYER$TXT_02
 10
1.295831096574222
 20
45.93204096221174
 30
0.0
 11
1.328810836068364
 21
45.93845439317602
 31
0.0
  0
LINE
  5
DE
  8
TEXT_LAYER$TXT_02
 10
1.328810836068364
 20
45.93845439317602
 30
0.0
 11
1.361591127513105
 21
45.94562234878673
 31
0.0
  0
LINE
  5
DF
  8
TEXT_LAYER$TXT_02
 10
1.361591127513105
 20
45.94562234878673
 30
0.0
 11
1.39417197275321
 21
45.95354482975127
 31
0.0
  0
LINE
  5
E0
  8
TEXT_LAYER$TXT_02
 10
1.39417197275321
 20
45.95354482975127
 30
0.0
 11
1.426553373633446
 21
45.96222183677698
 31
0.0
  0
LINE
  5
E1
  8
TEXT_LAYER$TXT_02
 10
1.426553373633446
 20
45.96222183677698
 30
0.0
 11
1.458735331998578
 21
45.97165337057123
 31
0.0
  0
LINE
  5
E2
  8
TEXT_LAYER$TXT_02
 10
1.458735331998578
 20
45.97165337057123
 30
0.0
 11
1.490717849693372
 21
45.98183943184141
 31
0.0
  0
LINE
  5
E3
  8
TEXT_LAYER$TXT_02
 10
1.490717849693372
 20
45.98183943184141
 30
0.0
 11
1.522500928562594
 21
45.99278002129488
 31
0.0
  0
LINE
  5
E4
  8
TEXT_LAYER$TXT_02
 10
1.522500928562594
 20
45.99278002129488
 30
0.0
 11
1.554084570451009
 21
46.004475139639
 31
0.0
  0
LINE
  5
E5
  8
TEXT_LAYER$TXT_02
 10
1.554084570451009
 20
46.004475139639
 30
0.0
 11
1.585468777203384
 21
46.01692478758113
 31
0.0
  0
LINE
  5
E6
  8
TEXT_LAYER$TXT_02
 10
1.585468777203384
 20
46.01692478758113
 30
0.0
 11
1.616653550664483
 21
46.03012896582865
 31
0.0
  0
LINE
  5
E7
  8
TEXT_LAYER$TXT_02
 10
1.616653550664483
 20
46.03012896582865
 30
0.0
 11
1.647638892679074
 21
46.04408767508895
 31
0.0
  0
LINE
  5
E8
  8
TEXT_LAYER$TXT_02
 10
1.647638892679074
 20
46.04408767508895
 30
0.0
 11
1.678424805091921
 21
46.05880091606934
 31
0.0
  0
LINE
  5
E9
  8
TEXT_LAYER$TXT_02
 10
1.678424805091921
 20
46.05880091606934
 30
0.0
 11
1.709011289747791
 21
46.07426868947724
 31
0.0
  0
LINE
  5
EA
  8
TEXT_LAYER$TXT_02
 10
1.709011289747791
 20
46.07426868947724
 30
0.0
 11
1.739398348491449
 21
46.09049099601999
 31
0.0
  0
LINE
  5
EB
  8
TEXT_LAYER$TXT_02
 10
1.739398348491449
 20
46.09049099601999
 30
0.0
 11
1.769585983167662
 21
46.10746783640498
 31
0.0
  0
LINE
  5
EC
  8
TEXT_LAYER$TXT_02
 10
1.769585983167662
 20
46.10746783640498
 30
0.0
 11
1.799574195621193
 21
46.12519921133956
 31
0.0
  0
LINE
  5
ED
  8
TEXT_LAYER$TXT_02
 10
1.799574195621193
 20
46.12519921133956
 30
0.0
 11
1.829362987696811
 21
46.14368512153111
 31
0.0
  0
LINE
  5
EE
  8
TEXT_LAYER$TXT_02
 10
1.829362987696811
 20
46.14368512153111
 30
0.0
 11
1.85895236123928
 21
46.16292556768698
 31
0.0
  0
LINE
  5
EF
  8
TEXT_LAYER$TXT_02
 10
1.85895236123928
 20
46.16292556768698
 30
0.0
 11
1.888342318093366
 21
46.18292055051457
 31
0.0
  0
LINE
  5
F0
  8
TEXT_LAYER$TXT_02
 10
1.888342318093366
 20
46.18292055051457
 30
0.0
 11
1.917532860103835
 21
46.20367007072121
 31
0.0
  0
LINE
  5
F1
  8
TEXT_LAYER$TXT_02
 10
1.917532860103835
 20
46.20367007072121
 30
0.0
 11
1.946523989115453
 21
46.22517412901429
 31
0.0
  0
LINE
  5
F2
  8
TEXT_LAYER$TXT_02
 10
1.946523989115453
 20
46.22517412901429
 30
0.0
 11
1.975315706972986
 21
46.24743272610118
 31
0.0
  0
LINE
  5
F3
  8
TEXT_LAYER$TXT_02
 10
1.975315706972986
 20
46.24743272610118
 30
0.0
 11
2.003908015521199
 21
46.27044586268923
 31
0.0
  0
LINE
  5
F4
  8
TEXT_LAYER$TXT_02
 10
2.003908015521199
 20
46.27044586268923
 30
0.0
 11
2.032300916604858
 21
46.29421353948583
 31
0.0
  0
LINE
  5
F5
  8
TEXT_LAYER$TXT_02
 10
2.032300916604858
 20
46.29421353948583
 30
0.0
 11
2.060152026859902
 21
46.31879888833052
 31
0.0
  0
LINE
  5
F6
  8
TEXT_LAYER$TXT_02
 10
2.060152026859902
 20
46.31879888833052
 30
0.0
 11
2.087118962245027
 21
46.34426504208496
 31
0.0
  0
LINE
  5
F7
  8
TEXT_LAYER$TXT_02
 10
2.087118962245027
 20
46.34426504208496
 30
0.0
 11
2.113201723589131
 21
46.37061200298965
 31
0.0
  0
LINE
  5
F8
  8
TEXT_LAYER$TXT_02
 10
2.113201723589131
 20
46.37061200298965
 30
0.0
 11
2.138400311721113
 21
46.39783977328513
 31
0.0
  0
LINE
  5
F9
  8
TEXT_LAYER$TXT_02
 10
2.138400311721113
 20
46.39783977328513
 30
0.0
 11
2.16271472746987
 21
46.4259483552119
 31
0.0
  0
LINE
  5
FA
  8
TEXT_LAYER$TXT_02
 10
2.16271472746987
 20
46.4259483552119
 30
0.0
 11
2.1861449716643
 21
46.45493775101049
 31
0.0
  0
LINE
  5
FB
  8
TEXT_LAYER$TXT_02
 10
2.1861449716643
 20
46.45493775101049
 30
0.0
 11
2.208691045133302
 21
46.48480796292142
 31
0.0
  0
LINE
  5
FC
  8
TEXT_LAYER$TXT_02
 10
2.208691045133302
 20
46.48480796292142
 30
0.0
 11
2.230352948705774
 21
46.51555899318519
 31
0.0
  0
LINE
  5
FD
  8
TEXT_LAYER$TXT_02
 10
2.230352948705774
 20
46.51555899318519
 30
0.0
 11
2.251130683210614
 21
46.54719084404234
 31
0.0
  0
LINE
  5
FE
  8
TEXT_LAYER$TXT_02
 10
2.251130683210614
 20
46.54719084404234
 30
0.0
 11
2.27102424947672
 21
46.57970351773338
 31
0.0
  0
LINE
  5
FF
  8
TEXT_LAYER$TXT_02
 10
2.27102424947672
 20
46.57970351773338
 30
0.0
 11
2.29003364833299
 21
46.61309701649882
 31
0.0
  0
LINE
  5
100
  8
TEXT_LAYER$TXT_02
 10
2.29003364833299
 20
46.61309701649882
 30
0.0
 11
2.308158880608322
 21
46.64737134257918
 31
0.0
  0
LINE
  5
101
  8
TEXT_LAYER$TXT_02
 10
2.308158880608322
 20
46.64737134257918
 30
0.0
 11
2.325399947131615
 21
46.68252649821498
 31
0.0
  0
LINE
  5
102
  8
TEXT_LAYER$TXT_02
 10
2.325399947131615
 20
46.68252649821498
 30
0.0
 11
2.341756848731766
 21
46.71856248564676
 31
0.0
  0
LINE
  5
103
  8
TEXT_LAYER$TXT_02
 10
2.341756848731766
 20
46.71856248564676
 30
0.0
 11
2.357229586237675
 21
46.755479307115
 31
0.0
  0
LINE
  5
104
  8
TEXT_LAYER$TXT_02
 10
2.357229586237675
 20
46.755479307115
 30
0.0
 11
2.371818160478238
 21
46.79327696486023
 31
0.0
  0
LINE
  5
105
  8
TEXT_LAYER$TXT_02
 10
2.371818160478238
 20
46.79327696486023
 30
0.0
 11
2.385522572282354
 21
46.83195546112299
 31
0.0
  0
LINE
  5
106
  8
TEXT_LAYER$TXT_02
 10
2.385522572282354
 20
46.83195546112299
 30
0.0
 11
2.398342822478921
 21
46.87151479814376
 31
0.0
  0
LINE
  5
107
  8
TEXT_LAYER$TXT_02
 10
2.398342822478921
 20
46.87151479814376
 30
0.0
 11
2.410278911896837
 21
46.9119549781631
 31
0.0
  0
LINE
  5
108
  8
TEXT_LAYER$TXT_02
 10
2.410278911896837
 20
46.9119549781631
 30
0.0
 11
2.421330841365001
 21
46.95327600342149
 31
0.0
  0
LINE
  5
109
  8
TEXT_LAYER$TXT_02
 10
2.421330841365001
 20
46.95327600342149
 30
0.0
 11
2.431498611712311
 21
46.99547787615947
 31
0.0
  0
LINE
  5
10A
  8
TEXT_LAYER$TXT_02
 10
2.431498611712311
 20
46.99547787615947
 30
0.0
 11
2.440782223767664
 21
47.03856059861755
 31
0.0
  0
LINE
  5
10B
  8
TEXT_LAYER$TXT_02
 10
2.440782223767664
 20
47.03856059861755
 30
0.0
 11
2.449181678359959
 21
47.08252417303625
 31
0.0
  0
LINE
  5
10C
  8
TEXT_LAYER$TXT_02
 10
2.449181678359959
 20
47.08252417303625
 30
0.0
 11
2.456696976318094
 21
47.12736860165609
 31
0.0
  0
LINE
  5
10D
  8
TEXT_LAYER$TXT_02
 10
2.456696976318094
 20
47.12736860165609
 30
0.0
 11
2.463328118470967
 21
47.1730938867176
 31
0.0
  0
LINE
  5
10E
  8
TEXT_LAYER$TXT_02
 10
2.463328118470967
 20
47.1730938867176
 30
0.0
 11
2.469075105647477
 21
47.21970003046127
 31
0.0
  0
LINE
  5
10F
  8
TEXT_LAYER$TXT_02
 10
2.469075105647477
 20
47.21970003046127
 30
0.0
 11
2.473937938676521
 21
47.26718703512762
 31
0.0
  0
LINE
  5
110
  8
TEXT_LAYER$TXT_02
 10
2.473937938676521
 20
47.26718703512762
 30
0.0
 11
2.477916618386997
 21
47.3155549029572
 31
0.0
  0
LINE
  5
111
  8
TEXT_LAYER$TXT_02
 10
2.477916618386997
 20
47.3155549029572
 30
0.0
 11
2.481011145607805
 21
47.3648036361905
 31
0.0
  0
LINE
  5
112
  8
TEXT_LAYER$TXT_02
 10
2.481011145607805
 20
47.3648036361905
 30
0.0
 11
2.483221521167841
 21
47.41493323706806
 31
0.0
  0
LINE
  5
113
  8
TEXT_LAYER$TXT_02
 10
2.483221521167841
 20
47.41493323706806
 30
0.0
 11
2.484547745896004
 21
47.46594370783037
 31
0.0
  0
LINE
  5
114
  8
TEXT_LAYER$TXT_02
 10
2.484547745896004
 20
47.46594370783037
 30
0.0
 11
2.484989820621192
 21
47.51783505071796
 31
0.0
  0
LINE
  5
115
  8
TEXT_LAYER$TXT_02
 10
2.484989820621192
 20
47.51783505071796
 30
0.0
 11
2.484298455637439
 21
47.5802083693521
 31
0.0
  0
LINE
  5
116
  8
TEXT_LAYER$TXT_02
 10
2.484298455637439
 20
47.5802083693521
 30
0.0
 11
2.482224359821966
 21
47.64139168639866
 31
0.0
  0
LINE
  5
117
  8
TEXT_LAYER$TXT_02
 10
2.482224359821966
 20
47.64139168639866
 30
0.0
 11
2.478767531878451
 21
47.70138500443159
 31
0.0
  0
LINE
  5
118
  8
TEXT_LAYER$TXT_02
 10
2.478767531878451
 20
47.70138500443159
 30
0.0
 11
2.473927970510572
 21
47.76018832602482
 31
0.0
  0
LINE
  5
119
  8
TEXT_LAYER$TXT_02
 10
2.473927970510572
 20
47.76018832602482
 30
0.0
 11
2.467705674422008
 21
47.81780165375233
 31
0.0
  0
LINE
  5
11A
  8
TEXT_LAYER$TXT_02
 10
2.467705674422008
 20
47.81780165375233
 30
0.0
 11
2.460100642316435
 21
47.87422499018804
 31
0.0
  0
LINE
  5
11B
  8
TEXT_LAYER$TXT_02
 10
2.460100642316435
 20
47.87422499018804
 30
0.0
 11
2.451112872897533
 21
47.92945833790591
 31
0.0
  0
LINE
  5
11C
  8
TEXT_LAYER$TXT_02
 10
2.451112872897533
 20
47.92945833790591
 30
0.0
 11
2.44074236486898
 21
47.98350169947987
 31
0.0
  0
LINE
  5
11D
  8
TEXT_LAYER$TXT_02
 10
2.44074236486898
 20
47.98350169947987
 30
0.0
 11
2.428989116934453
 21
48.03635507748389
 31
0.0
  0
LINE
  5
11E
  8
TEXT_LAYER$TXT_02
 10
2.428989116934453
 20
48.03635507748389
 30
0.0
 11
2.415853127797631
 21
48.0880184744919
 31
0.0
  0
LINE
  5
11F
  8
TEXT_LAYER$TXT_02
 10
2.415853127797631
 20
48.0880184744919
 30
0.0
 11
2.40133439616219
 21
48.13849189307786
 31
0.0
  0
LINE
  5
120
  8
TEXT_LAYER$TXT_02
 10
2.40133439616219
 20
48.13849189307786
 30
0.0
 11
2.385432920731812
 21
48.1877753358157
 31
0.0
  0
LINE
  5
121
  8
TEXT_LAYER$TXT_02
 10
2.385432920731812
 20
48.1877753358157
 30
0.0
 11
2.368148700210172
 21
48.23586880527939
 31
0.0
  0
LINE
  5
122
  8
TEXT_LAYER$TXT_02
 10
2.368148700210172
 20
48.23586880527939
 30
0.0
 11
2.349481733300949
 21
48.28277230404285
 31
0.0
  0
LINE
  5
123
  8
TEXT_LAYER$TXT_02
 10
2.349481733300949
 20
48.28277230404285
 30
0.0
 11
2.339629719545893
 21
48.30577781521637
 31
0.0
  0
LINE
  5
124
  8
TEXT_LAYER$TXT_02
 10
2.339629719545893
 20
48.30577781521637
 30
0.0
 11
2.329432018707822
 21
48.32848583468005
 31
0.0
  0
LINE
  5
125
  8
TEXT_LAYER$TXT_02
 10
2.329432018707822
 20
48.32848583468005
 30
0.0
 11
2.318888630624693
 21
48.35089636275566
 31
0.0
  0
LINE
  5
126
  8
TEXT_LAYER$TXT_02
 10
2.318888630624693
 20
48.35089636275566
 30
0.0
 11
2.307999555134467
 21
48.37300939976493
 31
0.0
  0
LINE
  5
127
  8
TEXT_LAYER$TXT_02
 10
2.307999555134467
 20
48.37300939976493
 30
0.0
 11
2.296764792075105
 21
48.39482494602962
 31
0.0
  0
LINE
  5
128
  8
TEXT_LAYER$TXT_02
 10
2.296764792075105
 20
48.39482494602962
 30
0.0
 11
2.285184341284564
 21
48.41634300187143
 31
0.0
  0
LINE
  5
129
  8
TEXT_LAYER$TXT_02
 10
2.285184341284564
 20
48.41634300187143
 30
0.0
 11
2.273258202600807
 21
48.43756356761214
 31
0.0
  0
LINE
  5
12A
  8
TEXT_LAYER$TXT_02
 10
2.273258202600807
 20
48.43756356761214
 30
0.0
 11
2.260986375861791
 21
48.4584866435735
 31
0.0
  0
LINE
  5
12B
  8
TEXT_LAYER$TXT_02
 10
2.260986375861791
 20
48.4584866435735
 30
0.0
 11
2.248368860905476
 21
48.47911223007723
 31
0.0
  0
LINE
  5
12C
  8
TEXT_LAYER$TXT_02
 10
2.248368860905476
 20
48.47911223007723
 30
0.0
 11
2.235405657569824
 21
48.49944032744509
 31
0.0
  0
LINE
  5
12D
  8
TEXT_LAYER$TXT_02
 10
2.235405657569824
 20
48.49944032744509
 30
0.0
 11
2.222096765692794
 21
48.51947093599881
 31
0.0
  0
LINE
  5
12E
  8
TEXT_LAYER$TXT_02
 10
2.222096765692794
 20
48.51947093599881
 30
0.0
 11
2.208442185112344
 21
48.53920405606014
 31
0.0
  0
LINE
  5
12F
  8
TEXT_LAYER$TXT_02
 10
2.208442185112344
 20
48.53920405606014
 30
0.0
 11
2.194441915666435
 21
48.55863968795082
 31
0.0
  0
LINE
  5
130
  8
TEXT_LAYER$TXT_02
 10
2.194441915666435
 20
48.55863968795082
 30
0.0
 11
2.180095957193027
 21
48.57777783199261
 31
0.0
  0
LINE
  5
131
  8
TEXT_LAYER$TXT_02
 10
2.180095957193027
 20
48.57777783199261
 30
0.0
 11
2.165404309530079
 21
48.59661848850723
 31
0.0
  0
LINE
  5
132
  8
TEXT_LAYER$TXT_02
 10
2.165404309530079
 20
48.59661848850723
 30
0.0
 11
2.150366972515552
 21
48.61516165781643
 31
0.0
  0
LINE
  5
133
  8
TEXT_LAYER$TXT_02
 10
2.150366972515552
 20
48.61516165781643
 30
0.0
 11
2.134983945987405
 21
48.63340734024196
 31
0.0
  0
LINE
  5
134
  8
TEXT_LAYER$TXT_02
 10
2.134983945987405
 20
48.63340734024196
 30
0.0
 11
2.119255229783597
 21
48.65135553610556
 31
0.0
  0
LINE
  5
135
  8
TEXT_LAYER$TXT_02
 10
2.119255229783597
 20
48.65135553610556
 30
0.0
 11
2.103180823742089
 21
48.66900624572896
 31
0.0
  0
LINE
  5
136
  8
TEXT_LAYER$TXT_02
 10
2.103180823742089
 20
48.66900624572896
 30
0.0
 11
2.08676072770084
 21
48.68635946943392
 31
0.0
  0
LINE
  5
137
  8
TEXT_LAYER$TXT_02
 10
2.08676072770084
 20
48.68635946943392
 30
0.0
 11
2.06999494149781
 21
48.70341520754219
 31
0.0
  0
LINE
  5
138
  8
TEXT_LAYER$TXT_02
 10
2.06999494149781
 20
48.70341520754219
 30
0.0
 11
2.052883464970959
 21
48.72017346037551
 31
0.0
  0
LINE
  5
139
  8
TEXT_LAYER$TXT_02
 10
2.052883464970959
 20
48.72017346037551
 30
0.0
 11
2.035426297958246
 21
48.7366342282556
 31
0.0
  0
LINE
  5
13A
  8
TEXT_LAYER$TXT_02
 10
2.035426297958246
 20
48.7366342282556
 30
0.0
 11
2.017623440297632
 21
48.75279751150423
 31
0.0
  0
LINE
  5
13B
  8
TEXT_LAYER$TXT_02
 10
2.017623440297632
 20
48.75279751150423
 30
0.0
 11
1.999474891827076
 21
48.76866331044313
 31
0.0
  0
LINE
  5
13C
  8
TEXT_LAYER$TXT_02
 10
1.999474891827076
 20
48.76866331044313
 30
0.0
 11
1.980980652384538
 21
48.78423162539404
 31
0.0
  0
LINE
  5
13D
  8
TEXT_LAYER$TXT_02
 10
1.980980652384538
 20
48.78423162539404
 30
0.0
 11
1.962140721807977
 21
48.79950245667872
 31
0.0
  0
LINE
  5
13E
  8
TEXT_LAYER$TXT_02
 10
1.962140721807977
 20
48.79950245667872
 30
0.0
 11
1.942955099935353
 21
48.81447580461889
 31
0.0
  0
LINE
  5
13F
  8
TEXT_LAYER$TXT_02
 10
1.942955099935353
 20
48.81447580461889
 30
0.0
 11
1.923423786604627
 21
48.82915166953632
 31
0.0
  0
LINE
  5
140
  8
TEXT_LAYER$TXT_02
 10
1.923423786604627
 20
48.82915166953632
 30
0.0
 11
1.903546781653758
 21
48.84353005175274
 31
0.0
  0
LINE
  5
141
  8
TEXT_LAYER$TXT_02
 10
1.903546781653758
 20
48.84353005175274
 30
0.0
 11
1.883324084920705
 21
48.85761095158989
 31
0.0
  0
LINE
  5
142
  8
TEXT_LAYER$TXT_02
 10
1.883324084920705
 20
48.85761095158989
 30
0.0
 11
1.862755696243429
 21
48.87139436936951
 31
0.0
  0
LINE
  5
143
  8
TEXT_LAYER$TXT_02
 10
1.862755696243429
 20
48.87139436936951
 30
0.0
 11
1.841841615459888
 21
48.88488030541335
 31
0.0
  0
LINE
  5
144
  8
TEXT_LAYER$TXT_02
 10
1.841841615459888
 20
48.88488030541335
 30
0.0
 11
1.820581842408044
 21
48.89806876004316
 31
0.0
  0
LINE
  5
145
  8
TEXT_LAYER$TXT_02
 10
1.820581842408044
 20
48.89806876004316
 30
0.0
 11
1.777025218851283
 21
48.92355322634764
 31
0.0
  0
LINE
  5
146
  8
TEXT_LAYER$TXT_02
 10
1.777025218851283
 20
48.92355322634764
 30
0.0
 11
1.751693647545227
 21
48.93738404966349
 31
0.0
  0
LINE
  5
147
  8
TEXT_LAYER$TXT_02
 10
1.751693647545227
 20
48.93738404966349
 30
0.0
 11
1.725903403939127
 21
48.95079605274321
 31
0.0
  0
LINE
  5
148
  8
TEXT_LAYER$TXT_02
 10
1.725903403939127
 20
48.95079605274321
 30
0.0
 11
1.699654486132126
 21
48.96378923601684
 31
0.0
  0
LINE
  5
149
  8
TEXT_LAYER$TXT_02
 10
1.699654486132126
 20
48.96378923601684
 30
0.0
 11
1.672946892223369
 21
48.97636359991438
 31
0.0
  0
LINE
  5
14A
  8
TEXT_LAYER$TXT_02
 10
1.672946892223369
 20
48.97636359991438
 30
0.0
 11
1.645780620311997
 21
48.98851914486588
 31
0.0
  0
LINE
  5
14B
  8
TEXT_LAYER$TXT_02
 10
1.645780620311997
 20
48.98851914486588
 30
0.0
 11
1.618155668497155
 21
49.00025587130136
 31
0.0
  0
LINE
  5
14C
  8
TEXT_LAYER$TXT_02
 10
1.618155668497155
 20
49.00025587130136
 30
0.0
 11
1.590072034877985
 21
49.01157377965087
 31
0.0
  0
LINE
  5
14D
  8
TEXT_LAYER$TXT_02
 10
1.590072034877985
 20
49.01157377965087
 30
0.0
 11
1.561529717553632
 21
49.02247287034442
 31
0.0
  0
LINE
  5
14E
  8
TEXT_LAYER$TXT_02
 10
1.561529717553632
 20
49.02247287034442
 30
0.0
 11
1.532528714623238
 21
49.03295314381204
 31
0.0
  0
LINE
  5
14F
  8
TEXT_LAYER$TXT_02
 10
1.532528714623238
 20
49.03295314381204
 30
0.0
 11
1.503069024185947
 21
49.04301460048377
 31
0.0
  0
LINE
  5
150
  8
TEXT_LAYER$TXT_02
 10
1.503069024185947
 20
49.04301460048377
 30
0.0
 11
1.442773573187247
 21
49.06188106515966
 31
0.0
  0
LINE
  5
151
  8
TEXT_LAYER$TXT_02
 10
1.442773573187247
 20
49.06188106515966
 30
0.0
 11
1.380643349350679
 21
49.07907226781234
 31
0.0
  0
LINE
  5
152
  8
TEXT_LAYER$TXT_02
 10
1.380643349350679
 20
49.07907226781234
 30
0.0
 11
1.31667833746939
 21
49.09458821188203
 31
0.0
  0
LINE
  5
153
  8
TEXT_LAYER$TXT_02
 10
1.31667833746939
 20
49.09458821188203
 30
0.0
 11
1.250878522336527
 21
49.10842890080897
 31
0.0
  0
LINE
  5
154
  8
TEXT_LAYER$TXT_02
 10
1.250878522336527
 20
49.10842890080897
 30
0.0
 11
1.183243888745236
 21
49.12059433803343
 31
0.0
  0
LINE
  5
155
  8
TEXT_LAYER$TXT_02
 10
1.183243888745236
 20
49.12059433803343
 30
0.0
 11
1.113774421488666
 21
49.13108452699561
 31
0.0
  0
LINE
  5
156
  8
TEXT_LAYER$TXT_02
 10
1.113774421488666
 20
49.13108452699561
 30
0.0
 11
1.042470105359961
 21
49.13989947113576
 31
0.0
  0
LINE
  5
157
  8
TEXT_LAYER$TXT_02
 10
1.042470105359961
 20
49.13989947113576
 30
0.0
 11
0.9693309251522702
 21
49.14703917389414
 31
0.0
  0
LINE
  5
158
  8
TEXT_LAYER$TXT_02
 10
0.9693309251522702
 20
49.14703917389414
 30
0.0
 11
0.8943568656587395
 21
49.15250363871097
 31
0.0
  0
LINE
  5
159
  8
TEXT_LAYER$TXT_02
 10
0.8943568656587395
 20
49.15250363871097
 30
0.0
 11
0.8175479116725164
 21
49.15629286902648
 31
0.0
  0
LINE
  5
15A
  8
TEXT_LAYER$TXT_02
 10
0.8175479116725164
 20
49.15629286902648
 30
0.0
 11
0.7389040479867472
 21
49.15840686828093
 31
0.0
  0
LINE
  5
15B
  8
TEXT_LAYER$TXT_02
 10
0.7389040479867472
 20
49.15840686828093
 30
0.0
 11
0.7389040479867472
 21
48.53553416576221
 31
0.0
  0
LINE
  5
15C
  8
TEXT_LAYER$TXT_02
 10
0.7389040479867472
 20
48.53553416576221
 30
0.0
 11
0.7947192549727927
 21
48.5333802743202
 31
0.0
  0
LINE
  5
15D
  8
TEXT_LAYER$TXT_02
 10
0.7947192549727927
 20
48.5333802743202
 30
0.0
 11
0.8489920909794303
 21
48.53032229158654
 31
0.0
  0
LINE
  5
15E
  8
TEXT_LAYER$TXT_02
 10
0.8489920909794303
 20
48.53032229158654
 30
0.0
 11
0.9017225663772352
 21
48.52636021546718
 31
0.0
  0
LINE
  5
15F
  8
TEXT_LAYER$TXT_02
 10
0.9017225663772352
 20
48.52636021546718
 30
0.0
 11
0.9529106915367827
 21
48.52149404386807
 31
0.0
  0
LINE
  5
160
  8
TEXT_LAYER$TXT_02
 10
0.9529106915367827
 20
48.52149404386807
 30
0.0
 11
1.002556476828648
 21
48.51572377469513
 31
0.0
  0
LINE
  5
161
  8
TEXT_LAYER$TXT_02
 10
1.002556476828648
 20
48.51572377469513
 30
0.0
 11
1.050659932623406
 21
48.50904940585433
 31
0.0
  0
LINE
  5
162
  8
TEXT_LAYER$TXT_02
 10
1.050659932623406
 20
48.50904940585433
 30
0.0
 11
1.097221069291633
 21
48.50147093525158
 31
0.0
  0
LINE
  5
163
  8
TEXT_LAYER$TXT_02
 10
1.097221069291633
 20
48.50147093525158
 30
0.0
 11
1.142239897203903
 21
48.49298836079284
 31
0.0
  0
LINE
  5
164
  8
TEXT_LAYER$TXT_02
 10
1.142239897203903
 20
48.49298836079284
 30
0.0
 11
1.185716426730791
 21
48.48360168038406
 31
0.0
  0
LINE
  5
165
  8
TEXT_LAYER$TXT_02
 10
1.185716426730791
 20
48.48360168038406
 30
0.0
 11
1.227650668242874
 21
48.47331089193116
 31
0.0
  0
LINE
  5
166
  8
TEXT_LAYER$TXT_02
 10
1.227650668242874
 20
48.47331089193116
 30
0.0
 11
1.268042632110726
 21
48.46211599334009
 31
0.0
  0
LINE
  5
167
  8
TEXT_LAYER$TXT_02
 10
1.268042632110726
 20
48.46211599334009
 30
0.0
 11
1.306892328704922
 21
48.4500169825168
 31
0.0
  0
LINE
  5
168
  8
TEXT_LAYER$TXT_02
 10
1.306892328704922
 20
48.4500169825168
 30
0.0
 11
1.344199768396038
 21
48.43701385736723
 31
0.0
  0
LINE
  5
169
  8
TEXT_LAYER$TXT_02
 10
1.344199768396038
 20
48.43701385736723
 30
0.0
 11
1.362275145143746
 21
48.43017325126569
 31
0.0
  0
LINE
  5
16A
  8
TEXT_LAYER$TXT_02
 10
1.362275145143746
 20
48.43017325126569
 30
0.0
 11
1.379964961554649
 21
48.42310661579731
 31
0.0
  0
LINE
  5
16B
  8
TEXT_LAYER$TXT_02
 10
1.379964961554649
 20
48.42310661579731
 30
0.0
 11
1.39726921892507
 21
48.41581395070033
 31
0.0
  0
LINE
  5
16C
  8
TEXT_LAYER$TXT_02
 10
1.39726921892507
 20
48.41581395070033
 30
0.0
 11
1.41418791855133
 21
48.40829525571299
 31
0.0
  0
LINE
  5
16D
  8
TEXT_LAYER$TXT_02
 10
1.41418791855133
 20
48.40829525571299
 30
0.0
 11
1.430721061729752
 21
48.40055053057354
 31
0.0
  0
LINE
  5
16E
  8
TEXT_LAYER$TXT_02
 10
1.430721061729752
 20
48.40055053057354
 30
0.0
 11
1.446868649756656
 21
48.39257977502021
 31
0.0
  0
LINE
  5
16F
  8
TEXT_LAYER$TXT_02
 10
1.446868649756656
 20
48.39257977502021
 30
0.0
 11
1.476185607919862
 21
48.37709697312346
 31
0.0
  0
LINE
  5
170
  8
TEXT_LAYER$TXT_02
 10
1.476185607919862
 20
48.37709697312346
 30
0.0
 11
1.504571855693679
 21
48.36085634164185
 31
0.0
  0
LINE
  5
171
  8
TEXT_LAYER$TXT_02
 10
1.504571855693679
 20
48.36085634164185
 30
0.0
 11
1.518415963457231
 21
48.35245183930815
 31
0.0
  0
LINE
  5
172
  8
TEXT_LAYER$TXT_02
 10
1.518415963457231
 20
48.35245183930815
 30
0.0
 11
1.532027393950631
 21
48.34385787897992
 31
0.0
  0
LINE
  5
173
  8
TEXT_LAYER$TXT_02
 10
1.532027393950631
 20
48.34385787897992
 30
0.0
 11
1.545406147282947
 21
48.33507446045773
 31
0.0
  0
LINE
  5
174
  8
TEXT_LAYER$TXT_02
 10
1.545406147282947
 20
48.33507446045773
 30
0.0
 11
1.558552223563244
 21
48.32610158354217
 31
0.0
  0
LINE
  5
175
  8
TEXT_LAYER$TXT_02
 10
1.558552223563244
 20
48.32610158354217
 30
0.0
 11
1.571465622900587
 21
48.31693924803379
 31
0.0
  0
LINE
  5
176
  8
TEXT_LAYER$TXT_02
 10
1.571465622900587
 20
48.31693924803379
 30
0.0
 11
1.584146345404041
 21
48.30758745373315
 31
0.0
  0
LINE
  5
177
  8
TEXT_LAYER$TXT_02
 10
1.584146345404041
 20
48.30758745373315
 30
0.0
 11
1.596594391182673
 21
48.29804620044082
 31
0.0
  0
LINE
  5
178
  8
TEXT_LAYER$TXT_02
 10
1.596594391182673
 20
48.29804620044082
 30
0.0
 11
1.608809760345548
 21
48.28831548795738
 31
0.0
  0
LINE
  5
179
  8
TEXT_LAYER$TXT_02
 10
1.608809760345548
 20
48.28831548795738
 30
0.0
 11
1.620792453001731
 21
48.27839531608338
 31
0.0
  0
LINE
  5
17A
  8
TEXT_LAYER$TXT_02
 10
1.620792453001731
 20
48.27839531608338
 30
0.0
 11
1.632542469260287
 21
48.26828568461937
 31
0.0
  0
LINE
  5
17B
  8
TEXT_LAYER$TXT_02
 10
1.632542469260287
 20
48.26828568461937
 30
0.0
 11
1.644059809230283
 21
48.25798659336596
 31
0.0
  0
LINE
  5
17C
  8
TEXT_LAYER$TXT_02
 10
1.644059809230283
 20
48.25798659336596
 30
0.0
 11
1.655344473020784
 21
48.24749804212368
 31
0.0
  0
LINE
  5
17D
  8
TEXT_LAYER$TXT_02
 10
1.655344473020784
 20
48.24749804212368
 30
0.0
 11
1.666396460740856
 21
48.23682003069311
 31
0.0
  0
LINE
  5
17E
  8
TEXT_LAYER$TXT_02
 10
1.666396460740856
 20
48.23682003069311
 30
0.0
 11
1.677215772499563
 21
48.22595255887482
 31
0.0
  0
LINE
  5
17F
  8
TEXT_LAYER$TXT_02
 10
1.677215772499563
 20
48.22595255887482
 30
0.0
 11
1.687802408405972
 21
48.21489562646936
 31
0.0
  0
LINE
  5
180
  8
TEXT_LAYER$TXT_02
 10
1.687802408405972
 20
48.21489562646936
 30
0.0
 11
1.698156368569149
 21
48.20364923327731
 31
0.0
  0
LINE
  5
181
  8
TEXT_LAYER$TXT_02
 10
1.698156368569149
 20
48.20364923327731
 30
0.0
 11
1.708277653098158
 21
48.19221337909923
 31
0.0
  0
LINE
  5
182
  8
TEXT_LAYER$TXT_02
 10
1.708277653098158
 20
48.19221337909923
 30
0.0
 11
1.718166262102065
 21
48.18058806373569
 31
0.0
  0
LINE
  5
183
  8
TEXT_LAYER$TXT_02
 10
1.718166262102065
 20
48.18058806373569
 30
0.0
 11
1.727822195689936
 21
48.16877328698725
 31
0.0
  0
LINE
  5
184
  8
TEXT_LAYER$TXT_02
 10
1.727822195689936
 20
48.16877328698725
 30
0.0
 11
1.737245453970836
 21
48.15676904865448
 31
0.0
  0
LINE
  5
185
  8
TEXT_LAYER$TXT_02
 10
1.737245453970836
 20
48.15676904865448
 30
0.0
 11
1.746436037053831
 21
48.14457534853794
 31
0.0
  0
LINE
  5
186
  8
TEXT_LAYER$TXT_02
 10
1.746436037053831
 20
48.14457534853794
 30
0.0
 11
1.755393945047986
 21
48.13219218643822
 31
0.0
  0
LINE
  5
187
  8
TEXT_LAYER$TXT_02
 10
1.755393945047986
 20
48.13219218643822
 30
0.0
 11
1.764119178062368
 21
48.11961956215585
 31
0.0
  0
LINE
  5
188
  8
TEXT_LAYER$TXT_02
 10
1.764119178062368
 20
48.11961956215585
 30
0.0
 11
1.77261173620604
 21
48.10685747549141
 31
0.0
  0
LINE
  5
189
  8
TEXT_LAYER$TXT_02
 10
1.77261173620604
 20
48.10685747549141
 30
0.0
 11
1.78087161958807
 21
48.09390592624547
 31
0.0
  0
LINE
  5
18A
  8
TEXT_LAYER$TXT_02
 10
1.78087161958807
 20
48.09390592624547
 30
0.0
 11
1.788898828317523
 21
48.08076491421859
 31
0.0
  0
LINE
  5
18B
  8
TEXT_LAYER$TXT_02
 10
1.788898828317523
 20
48.08076491421859
 30
0.0
 11
1.796693362503463
 21
48.06743443921134
 31
0.0
  0
LINE
  5
18C
  8
TEXT_LAYER$TXT_02
 10
1.796693362503463
 20
48.06743443921134
 30
0.0
 11
1.804255222254957
 21
48.05391450102429
 31
0.0
  0
LINE
  5
18D
  8
TEXT_LAYER$TXT_02
 10
1.804255222254957
 20
48.05391450102429
 30
0.0
 11
1.811584407681071
 21
48.040205099458
 31
0.0
  0
LINE
  5
18E
  8
TEXT_LAYER$TXT_02
 10
1.811584407681071
 20
48.040205099458
 30
0.0
 11
1.818680918890869
 21
48.02630623431304
 31
0.0
  0
LINE
  5
18F
  8
TEXT_LAYER$TXT_02
 10
1.818680918890869
 20
48.02630623431304
 30
0.0
 11
1.825544755993418
 21
48.01221790538997
 31
0.0
  0
LINE
  5
190
  8
TEXT_LAYER$TXT_02
 10
1.825544755993418
 20
48.01221790538997
 30
0.0
 11
1.832175919097782
 21
47.99794011248936
 31
0.0
  0
LINE
  5
191
  8
TEXT_LAYER$TXT_02
 10
1.832175919097782
 20
47.99794011248936
 30
0.0
 11
1.838574408313028
 21
47.98347285541178
 31
0.0
  0
LINE
  5
192
  8
TEXT_LAYER$TXT_02
 10
1.838574408313028
 20
47.98347285541178
 30
0.0
 11
1.844740223748221
 21
47.96881613395779
 31
0.0
  0
LINE
  5
193
  8
TEXT_LAYER$TXT_02
 10
1.844740223748221
 20
47.96881613395779
 30
0.0
 11
1.850673365512426
 21
47.95396994792794
 31
0.0
  0
LINE
  5
194
  8
TEXT_LAYER$TXT_02
 10
1.850673365512426
 20
47.95396994792794
 30
0.0
 11
1.856373833714709
 21
47.93893429712283
 31
0.0
  0
LINE
  5
195
  8
TEXT_LAYER$TXT_02
 10
1.856373833714709
 20
47.93893429712283
 30
0.0
 11
1.867076749869771
 21
47.90829460038903
 31
0.0
  0
LINE
  5
196
  8
TEXT_LAYER$TXT_02
 10
1.867076749869771
 20
47.90829460038903
 30
0.0
 11
1.876848973085933
 21
47.87689704216091
 31
0.0
  0
LINE
  5
197
  8
TEXT_LAYER$TXT_02
 10
1.876848973085933
 20
47.87689704216091
 30
0.0
 11
1.885690504235717
 21
47.844741620843
 31
0.0
  0
LINE
  5
198
  8
TEXT_LAYER$TXT_02
 10
1.885690504235717
 20
47.844741620843
 30
0.0
 11
1.893601344191648
 21
47.81182833483982
 31
0.0
  0
LINE
  5
199
  8
TEXT_LAYER$TXT_02
 10
1.893601344191648
 20
47.81182833483982
 30
0.0
 11
1.900581493826252
 21
47.7781571825559
 31
0.0
  0
LINE
  5
19A
  8
TEXT_LAYER$TXT_02
 10
1.900581493826252
 20
47.7781571825559
 30
0.0
 11
1.906630954012051
 21
47.74372816239577
 31
0.0
  0
LINE
  5
19B
  8
TEXT_LAYER$TXT_02
 10
1.906630954012051
 20
47.74372816239577
 30
0.0
 11
1.911749725621571
 21
47.70854127276395
 31
0.0
  0
LINE
  5
19C
  8
TEXT_LAYER$TXT_02
 10
1.911749725621571
 20
47.70854127276395
 30
0.0
 11
1.915937809527335
 21
47.67259651206497
 31
0.0
  0
LINE
  5
19D
  8
TEXT_LAYER$TXT_02
 10
1.915937809527335
 20
47.67259651206497
 30
0.0
 11
1.919195206601869
 21
47.63589387870336
 31
0.0
  0
LINE
  5
19E
  8
TEXT_LAYER$TXT_02
 10
1.919195206601869
 20
47.63589387870336
 30
0.0
 11
1.921521917717697
 21
47.59843337108364
 31
0.0
  0
LINE
  5
19F
  8
TEXT_LAYER$TXT_02
 10
1.921521917717697
 20
47.59843337108364
 30
0.0
 11
1.922917943747342
 21
47.56021498761035
 31
0.0
  0
LINE
  5
1A0
  8
TEXT_LAYER$TXT_02
 10
1.922917943747342
 20
47.56021498761035
 30
0.0
 11
1.923383285563329
 21
47.52123872668801
 31
0.0
  0
LINE
  5
1A1
  8
TEXT_LAYER$TXT_02
 10
1.923383285563329
 20
47.52123872668801
 30
0.0
 11
1.923138981109936
 21
47.49481358092659
 31
0.0
  0
LINE
  5
1A2
  8
TEXT_LAYER$TXT_02
 10
1.923138981109936
 20
47.49481358092659
 30
0.0
 11
1.922406067444372
 21
47.46872084575551
 31
0.0
  0
LINE
  5
1A3
  8
TEXT_LAYER$TXT_02
 10
1.922406067444372
 20
47.46872084575551
 30
0.0
 11
1.921184544108563
 21
47.44296051992832
 31
0.0
  0
LINE
  5
1A4
  8
TEXT_LAYER$TXT_02
 10
1.921184544108563
 20
47.44296051992832
 30
0.0
 11
1.919474410644433
 21
47.41753260219856
 31
0.0
  0
LINE
  5
1A5
  8
TEXT_LAYER$TXT_02
 10
1.919474410644433
 20
47.41753260219856
 30
0.0
 11
1.917275666593906
 21
47.39243709131976
 31
0.0
  0
LINE
  5
1A6
  8
TEXT_LAYER$TXT_02
 10
1.917275666593906
 20
47.39243709131976
 30
0.0
 11
1.914588311498908
 21
47.36767398604546
 31
0.0
  0
LINE
  5
1A7
  8
TEXT_LAYER$TXT_02
 10
1.914588311498908
 20
47.36767398604546
 30
0.0
 11
1.911412344901364
 21
47.34324328512919
 31
0.0
  0
LINE
  5
1A8
  8
TEXT_LAYER$TXT_02
 10
1.911412344901364
 20
47.34324328512919
 30
0.0
 11
1.907747766343197
 21
47.3191449873245
 31
0.0
  0
LINE
  5
1A9
  8
TEXT_LAYER$TXT_02
 10
1.907747766343197
 20
47.3191449873245
 30
0.0
 11
1.903594575366333
 21
47.29537909138492
 31
0.0
  0
LINE
  5
1AA
  8
TEXT_LAYER$TXT_02
 10
1.903594575366333
 20
47.29537909138492
 30
0.0
 11
1.898952771512696
 21
47.27194559606397
 31
0.0
  0
LINE
  5
1AB
  8
TEXT_LAYER$TXT_02
 10
1.898952771512696
 20
47.27194559606397
 30
0.0
 11
1.893822354324212
 21
47.2488445001152
 31
0.0
  0
LINE
  5
1AC
  8
TEXT_LAYER$TXT_02
 10
1.893822354324212
 20
47.2488445001152
 30
0.0
 11
1.888203323342804
 21
47.22607580229216
 31
0.0
  0
LINE
  5
1AD
  8
TEXT_LAYER$TXT_02
 10
1.888203323342804
 20
47.22607580229216
 30
0.0
 11
1.882095678110398
 21
47.20363950134838
 31
0.0
  0
LINE
  5
1AE
  8
TEXT_LAYER$TXT_02
 10
1.882095678110398
 20
47.20363950134838
 30
0.0
 11
1.875499418168918
 21
47.18153559603738
 31
0.0
  0
LINE
  5
1AF
  8
TEXT_LAYER$TXT_02
 10
1.875499418168918
 20
47.18153559603738
 30
0.0
 11
1.868414543060289
 21
47.15976408511271
 31
0.0
  0
LINE
  5
1B0
  8
TEXT_LAYER$TXT_02
 10
1.868414543060289
 20
47.15976408511271
 30
0.0
 11
1.860841052326435
 21
47.1383249673279
 31
0.0
  0
LINE
  5
1B1
  8
TEXT_LAYER$TXT_02
 10
1.860841052326435
 20
47.1383249673279
 30
0.0
 11
1.852778945509282
 21
47.1172182414365
 31
0.0
  0
LINE
  5
1B2
  8
TEXT_LAYER$TXT_02
 10
1.852778945509282
 20
47.1172182414365
 30
0.0
 11
1.844228222150754
 21
47.09644390619204
 31
0.0
  0
LINE
  5
1B3
  8
TEXT_LAYER$TXT_02
 10
1.844228222150754
 20
47.09644390619204
 30
0.0
 11
1.835188881792775
 21
47.07600196034804
 31
0.0
  0
LINE
  5
1B4
  8
TEXT_LAYER$TXT_02
 10
1.835188881792775
 20
47.07600196034804
 30
0.0
 11
1.825660923977271
 21
47.05589240265806
 31
0.0
  0
LINE
  5
1B5
  8
TEXT_LAYER$TXT_02
 10
1.825660923977271
 20
47.05589240265806
 30
0.0
 11
1.815644348246166
 21
47.03611523187563
 31
0.0
  0
LINE
  5
1B6
  8
TEXT_LAYER$TXT_02
 10
1.815644348246166
 20
47.03611523187563
 30
0.0
 11
1.805139154141385
 21
47.01667044675428
 31
0.0
  0
LINE
  5
1B7
  8
TEXT_LAYER$TXT_02
 10
1.805139154141385
 20
47.01667044675428
 30
0.0
 11
1.794145341204853
 21
46.99755804604754
 31
0.0
  0
LINE
  5
1B8
  8
TEXT_LAYER$TXT_02
 10
1.794145341204853
 20
46.99755804604754
 30
0.0
 11
1.782662908978494
 21
46.97877802850898
 31
0.0
  0
LINE
  5
1B9
  8
TEXT_LAYER$TXT_02
 10
1.782662908978494
 20
46.97877802850898
 30
0.0
 11
1.770691857004234
 21
46.96033039289209
 31
0.0
  0
LINE
  5
1BA
  8
TEXT_LAYER$TXT_02
 10
1.770691857004234
 20
46.96033039289209
 30
0.0
 11
1.758232184823995
 21
46.94221513795045
 31
0.0
  0
LINE
  5
1BB
  8
TEXT_LAYER$TXT_02
 10
1.758232184823995
 20
46.94221513795045
 30
0.0
 11
1.745283891979704
 21
46.92443226243758
 31
0.0
  0
LINE
  5
1BC
  8
TEXT_LAYER$TXT_02
 10
1.745283891979704
 20
46.92443226243758
 30
0.0
 11
1.731846978013286
 21
46.906981765107
 31
0.0
  0
LINE
  5
1BD
  8
TEXT_LAYER$TXT_02
 10
1.731846978013286
 20
46.906981765107
 30
0.0
 11
1.717921442466664
 21
46.88986364471226
 31
0.0
  0
LINE
  5
1BE
  8
TEXT_LAYER$TXT_02
 10
1.717921442466664
 20
46.88986364471226
 30
0.0
 11
1.703507284881764
 21
46.87307790000691
 31
0.0
  0
LINE
  5
1BF
  8
TEXT_LAYER$TXT_02
 10
1.703507284881764
 20
46.87307790000691
 30
0.0
 11
1.68860450480051
 21
46.85662452974447
 31
0.0
  0
LINE
  5
1C0
  8
TEXT_LAYER$TXT_02
 10
1.68860450480051
 20
46.85662452974447
 30
0.0
 11
1.673213101764827
 21
46.84050353267848
 31
0.0
  0
LINE
  5
1C1
  8
TEXT_LAYER$TXT_02
 10
1.673213101764827
 20
46.84050353267848
 30
0.0
 11
1.65740621496487
 21
46.82479801937676
 31
0.0
  0
LINE
  5
1C2
  8
TEXT_LAYER$TXT_02
 10
1.65740621496487
 20
46.82479801937676
 30
0.0
 11
1.641256983071433
 21
46.8095911009265
 31
0.0
  0
LINE
  5
1C3
  8
TEXT_LAYER$TXT_02
 10
1.641256983071433
 20
46.8095911009265
 30
0.0
 11
1.624765404847402
 21
46.79488277686028
 31
0.0
  0
LINE
  5
1C4
  8
TEXT_LAYER$TXT_02
 10
1.624765404847402
 20
46.79488277686028
 30
0.0
 11
1.607931479055661
 21
46.78067304671066
 31
0.0
  0
LINE
  5
1C5
  8
TEXT_LAYER$TXT_02
 10
1.607931479055661
 20
46.78067304671066
 30
0.0
 11
1.590755204459096
 21
46.76696191001023
 31
0.0
  0
LINE
  5
1C6
  8
TEXT_LAYER$TXT_02
 10
1.590755204459096
 20
46.76696191001023
 30
0.0
 11
1.573236579820592
 21
46.75374936629157
 31
0.0
  0
LINE
  5
1C7
  8
TEXT_LAYER$TXT_02
 10
1.573236579820592
 20
46.75374936629157
 30
0.0
 11
1.555375603903033
 21
46.74103541508724
 31
0.0
  0
LINE
  5
1C8
  8
TEXT_LAYER$TXT_02
 10
1.555375603903033
 20
46.74103541508724
 30
0.0
 11
1.537172275469304
 21
46.72882005592984
 31
0.0
  0
LINE
  5
1C9
  8
TEXT_LAYER$TXT_02
 10
1.537172275469304
 20
46.72882005592984
 30
0.0
 11
1.518626593282292
 21
46.71710328835192
 31
0.0
  0
LINE
  5
1CA
  8
TEXT_LAYER$TXT_02
 10
1.518626593282292
 20
46.71710328835192
 30
0.0
 11
1.499738556104881
 21
46.70588511188608
 31
0.0
  0
LINE
  5
1CB
  8
TEXT_LAYER$TXT_02
 10
1.499738556104881
 20
46.70588511188608
 30
0.0
 11
1.480508162699957
 21
46.69516552606487
 31
0.0
  0
LINE
  5
1CC
  8
TEXT_LAYER$TXT_02
 10
1.480508162699957
 20
46.69516552606487
 30
0.0
 11
1.460935411830403
 21
46.68494453042088
 31
0.0
  0
LINE
  5
1CD
  8
TEXT_LAYER$TXT_02
 10
1.460935411830403
 20
46.68494453042088
 30
0.0
 11
1.441020302259106
 21
46.67522212448669
 31
0.0
  0
LINE
  5
1CE
  8
TEXT_LAYER$TXT_02
 10
1.441020302259106
 20
46.67522212448669
 30
0.0
 11
1.420762832748951
 21
46.66599830779488
 31
0.0
  0
LINE
  5
1CF
  8
TEXT_LAYER$TXT_02
 10
1.420762832748951
 20
46.66599830779488
 30
0.0
 11
1.400163002062822
 21
46.65727307987802
 31
0.0
  0
LINE
  5
1D0
  8
TEXT_LAYER$TXT_02
 10
1.400163002062822
 20
46.65727307987802
 30
0.0
 11
1.379220808963604
 21
46.64904644026868
 31
0.0
  0
LINE
  5
1D1
  8
TEXT_LAYER$TXT_02
 10
1.379220808963604
 20
46.64904644026868
 30
0.0
 11
1.357936252214184
 21
46.64131838849944
 31
0.0
  0
LINE
  5
1D2
  8
TEXT_LAYER$TXT_02
 10
1.357936252214184
 20
46.64131838849944
 30
0.0
 11
1.336309330577445
 21
46.63408892410288
 31
0.0
  0
LINE
  5
1D3
  8
TEXT_LAYER$TXT_02
 10
1.336309330577445
 20
46.63408892410288
 30
0.0
 11
1.314340042816274
 21
46.62735804661158
 31
0.0
  0
LINE
  5
1D4
  8
TEXT_LAYER$TXT_02
 10
1.314340042816274
 20
46.62735804661158
 30
0.0
 11
1.292028387693555
 21
46.6211257555581
 31
0.0
  0
LINE
  5
1D5
  8
TEXT_LAYER$TXT_02
 10
1.292028387693555
 20
46.6211257555581
 30
0.0
 11
1.269374363972173
 21
46.61539205047502
 31
0.0
  0
LINE
  5
1D6
  8
TEXT_LAYER$TXT_02
 10
1.269374363972173
 20
46.61539205047502
 30
0.0
 11
1.246377970415013
 21
46.61015693089495
 31
0.0
  0
LINE
  5
1D7
  8
TEXT_LAYER$TXT_02
 10
1.246377970415013
 20
46.61015693089495
 30
0.0
 11
1.223039205784961
 21
46.60542039635041
 31
0.0
  0
LINE
  5
1D8
  8
TEXT_LAYER$TXT_02
 10
1.223039205784961
 20
46.60542039635041
 30
0.0
 11
1.199358068844901
 21
46.60118244637403
 31
0.0
  0
LINE
  5
1D9
  8
TEXT_LAYER$TXT_02
 10
1.199358068844901
 20
46.60118244637403
 30
0.0
 11
1.175334558357719
 21
46.59744308049834
 31
0.0
  0
LINE
  5
1DA
  8
TEXT_LAYER$TXT_02
 10
1.175334558357719
 20
46.59744308049834
 30
0.0
 11
1.1509686730863
 21
46.59420229825595
 31
0.0
  0
LINE
  5
1DB
  8
TEXT_LAYER$TXT_02
 10
1.1509686730863
 20
46.59420229825595
 30
0.0
 11
1.126260411793529
 21
46.59146009917941
 31
0.0
  0
LINE
  5
1DC
  8
TEXT_LAYER$TXT_02
 10
1.126260411793529
 20
46.59146009917941
 30
0.0
 11
1.101209773242291
 21
46.58921648280133
 31
0.0
  0
LINE
  5
1DD
  8
TEXT_LAYER$TXT_02
 10
1.101209773242291
 20
46.58921648280133
 30
0.0
 11
1.075816756195471
 21
46.58747144865426
 31
0.0
  0
LINE
  5
1DE
  8
TEXT_LAYER$TXT_02
 10
1.075816756195471
 20
46.58747144865426
 30
0.0
 11
1.050081359415954
 21
46.58622499627078
 31
0.0
  0
LINE
  5
1DF
  8
TEXT_LAYER$TXT_02
 10
1.050081359415954
 20
46.58622499627078
 30
0.0
 11
1.024003581666626
 21
46.58547712518347
 31
0.0
  0
LINE
  5
1E0
  8
TEXT_LAYER$TXT_02
 10
1.024003581666626
 20
46.58547712518347
 30
0.0
 11
0.9975834217103707
 21
46.58522783492491
 31
0.0
  0
LINE
  5
1E1
  8
TEXT_LAYER$TXT_02
 10
0.9975834217103707
 20
46.58522783492491
 30
0.0
 11
0.9749010081804429
 21
46.58550039227427
 31
0.0
  0
LINE
  5
1E2
  8
TEXT_LAYER$TXT_02
 10
0.9749010081804429
 20
46.58550039227427
 30
0.0
 11
0.9523781605214505
 21
46.58631806466306
 31
0.0
  0
LINE
  5
1E3
  8
TEXT_LAYER$TXT_02
 10
0.9523781605214505
 20
46.58631806466306
 30
0.0
 11
0.9300148775492536
 21
46.58768085260233
 31
0.0
  0
LINE
  5
1E4
  8
TEXT_LAYER$TXT_02
 10
0.9300148775492536
 20
46.58768085260233
 30
0.0
 11
0.9078111580797118
 21
46.58958875660313
 31
0.0
  0
LINE
  5
1E5
  8
TEXT_LAYER$TXT_02
 10
0.9078111580797118
 20
46.58958875660313
 30
0.0
 11
0.8857670009286849
 21
46.59204177717651
 31
0.0
  0
LINE
  5
1E6
  8
TEXT_LAYER$TXT_02
 10
0.8857670009286849
 20
46.59204177717651
 30
0.0
 11
0.8638824049120328
 21
46.59503991483351
 31
0.0
  0
LINE
  5
1E7
  8
TEXT_LAYER$TXT_02
 10
0.8638824049120328
 20
46.59503991483351
 30
0.0
 11
0.8421573688456154
 21
46.5985831700852
 31
0.0
  0
LINE
  5
1E8
  8
TEXT_LAYER$TXT_02
 10
0.8421573688456154
 20
46.5985831700852
 30
0.0
 11
0.8205918915452922
 21
46.60267154344261
 31
0.0
  0
LINE
  5
1E9
  8
TEXT_LAYER$TXT_02
 10
0.8205918915452922
 20
46.60267154344261
 30
0.0
 11
0.7991859718269232
 21
46.6073050354168
 31
0.0
  0
LINE
  5
1EA
  8
TEXT_LAYER$TXT_02
 10
0.7991859718269232
 20
46.6073050354168
 30
0.0
 11
0.7779396085063682
 21
46.61248364651883
 31
0.0
  0
LINE
  5
1EB
  8
TEXT_LAYER$TXT_02
 10
0.7779396085063682
 20
46.61248364651883
 30
0.0
 11
0.756852800399487
 21
46.61820737725972
 31
0.0
  0
LINE
  5
1EC
  8
TEXT_LAYER$TXT_02
 10
0.756852800399487
 20
46.61820737725972
 30
0.0
 11
0.7359255463221391
 21
46.62447622815054
 31
0.0
  0
LINE
  5
1ED
  8
TEXT_LAYER$TXT_02
 10
0.7359255463221391
 20
46.62447622815054
 30
0.0
 11
0.7151578450901848
 21
46.63129019970233
 31
0.0
  0
LINE
  5
1EE
  8
TEXT_LAYER$TXT_02
 10
0.7151578450901848
 20
46.63129019970233
 30
0.0
 11
0.6945496955194834
 21
46.63864929242617
 31
0.0
  0
LINE
  5
1EF
  8
TEXT_LAYER$TXT_02
 10
0.6945496955194834
 20
46.63864929242617
 30
0.0
 11
0.6741010964258951
 21
46.64655350683307
 31
0.0
  0
LINE
  5
1F0
  8
TEXT_LAYER$TXT_02
 10
0.6741010964258951
 20
46.64655350683307
 30
0.0
 11
0.6538120466252795
 21
46.6550028434341
 31
0.0
  0
LINE
  5
1F1
  8
TEXT_LAYER$TXT_02
 10
0.6538120466252795
 20
46.6550028434341
 30
0.0
 11
0.6336825449334964
 21
46.66399730274032
 31
0.0
  0
LINE
  5
1F2
  8
TEXT_LAYER$TXT_02
 10
0.6336825449334964
 20
46.66399730274032
 30
0.0
 11
0.6137125901664058
 21
46.67353688526276
 31
0.0
  0
LINE
  5
1F3
  8
TEXT_LAYER$TXT_02
 10
0.6137125901664058
 20
46.67353688526276
 30
0.0
 11
0.5939021811398673
 21
46.68362159151247
 31
0.0
  0
LINE
  5
1F4
  8
TEXT_LAYER$TXT_02
 10
0.5939021811398673
 20
46.68362159151247
 30
0.0
 11
0.5742513166697406
 21
46.69425142200052
 31
0.0
  0
LINE
  5
1F5
  8
TEXT_LAYER$TXT_02
 10
0.5742513166697406
 20
46.69425142200052
 30
0.0
 11
0.5547599955718858
 21
46.70542637723794
 31
0.0
  0
LINE
  5
1F6
  8
TEXT_LAYER$TXT_02
 10
0.5547599955718858
 20
46.70542637723794
 30
0.0
 11
0.5354282166621623
 21
46.71714645773579
 31
0.0
  0
LINE
  5
1F7
  8
TEXT_LAYER$TXT_02
 10
0.5354282166621623
 20
46.71714645773579
 30
0.0
 11
0.5162559787564303
 21
46.72941166400511
 31
0.0
  0
LINE
  5
1F8
  8
TEXT_LAYER$TXT_02
 10
0.5162559787564303
 20
46.72941166400511
 30
0.0
 11
0.4972432806705495
 21
46.74222199655697
 31
0.0
  0
LINE
  5
1F9
  8
TEXT_LAYER$TXT_02
 10
0.4972432806705495
 20
46.74222199655697
 30
0.0
 11
0.4783901212203795
 21
46.7555774559024
 31
0.0
  0
LINE
  5
1FA
  8
TEXT_LAYER$TXT_02
 10
0.4783901212203795
 20
46.7555774559024
 30
0.0
 11
0.4596964992217804
 21
46.76947804255246
 31
0.0
  0
LINE
  5
1FB
  8
TEXT_LAYER$TXT_02
 10
0.4596964992217804
 20
46.76947804255246
 30
0.0
 11
0.4411624134906117
 21
46.7839237570182
 31
0.0
  0
LINE
  5
1FC
  8
TEXT_LAYER$TXT_02
 10
0.4411624134906117
 20
46.7839237570182
 30
0.0
 11
0.4227878628427333
 21
46.79891459981067
 31
0.0
  0
LINE
  5
1FD
  8
TEXT_LAYER$TXT_02
 10
0.4227878628427333
 20
46.79891459981067
 30
0.0
 11
0.404572846094005
 21
46.81445057144091
 31
0.0
  0
LINE
  5
1FE
  8
TEXT_LAYER$TXT_02
 10
0.404572846094005
 20
46.81445057144091
 30
0.0
 11
0.3865173620602868
 21
46.83053167241999
 31
0.0
  0
LINE
  5
1FF
  8
TEXT_LAYER$TXT_02
 10
0.3865173620602868
 20
46.83053167241999
 30
0.0
 11
0.3686214095574382
 21
46.84715790325894
 31
0.0
  0
LINE
  5
200
  8
TEXT_LAYER$TXT_02
 10
0.3686214095574382
 20
46.84715790325894
 30
0.0
 11
0.3508849874013191
 21
46.86432926446881
 31
0.0
  0
LINE
  5
201
  8
TEXT_LAYER$TXT_02
 10
0.3508849874013191
 20
46.86432926446881
 30
0.0
 11
0.3280430409507142
 21
46.88747700133175
 31
0.0
  0
LINE
  5
202
  8
TEXT_LAYER$TXT_02
 10
0.3280430409507142
 20
46.88747700133175
 30
0.0
 11
0.3046161294409707
 21
46.91267220908728
 31
0.0
  0
LINE
  5
203
  8
TEXT_LAYER$TXT_02
 10
0.3046161294409707
 20
46.91267220908728
 30
0.0
 11
0.2806042464901959
 21
46.9399148967598
 31
0.0
  0
LINE
  5
204
  8
TEXT_LAYER$TXT_02
 10
0.2806042464901959
 20
46.9399148967598
 30
0.0
 11
0.2560073857164975
 21
46.96920507337368
 31
0.0
  0
LINE
  5
205
  8
TEXT_LAYER$TXT_02
 10
0.2560073857164975
 20
46.96920507337368
 30
0.0
 11
0.230825540737983
 21
47.00054274795333
 31
0.0
  0
LINE
  5
206
  8
TEXT_LAYER$TXT_02
 10
0.230825540737983
 20
47.00054274795333
 30
0.0
 11
0.20505870517276
 21
47.03392792952316
 31
0.0
  0
LINE
  5
207
  8
TEXT_LAYER$TXT_02
 10
0.20505870517276
 20
47.03392792952316
 30
0.0
 11
0.1517700367546184
 21
47.10684084973089
 31
0.0
  0
LINE
  5
208
  8
TEXT_LAYER$TXT_02
 10
0.1517700367546184
 20
47.10684084973089
 30
0.0
 11
0.0961413294069333
 21
47.18794390619203
 31
0.0
  0
LINE
  5
209
  8
TEXT_LAYER$TXT_02
 10
0.0961413294069333
 20
47.18794390619203
 30
0.0
 11
0.0381725320745649
 21
47.27723717110172
 31
0.0
  0
LINE
  5
20A
  8
TEXT_LAYER$TXT_02
 10
0.0381725320745649
 20
47.27723717110172
 30
0.0
 11
-0.0221364062976262
 21
47.37472071665514
 31
0.0
  0
LINE
  5
20B
  8
TEXT_LAYER$TXT_02
 10
-0.0221364062976262
 20
47.37472071665514
 30
0.0
 11
-0.0847855367647798
 21
47.48039461504744
 31
0.0
  0
LINE
  5
20C
  8
TEXT_LAYER$TXT_02
 10
-0.0847855367647798
 20
47.48039461504744
 30
0.0
 11
-0.4625935694400698
 21
48.13390040129659
 31
0.0
  0
LINE
  5
20D
  8
TEXT_LAYER$TXT_02
 10
-0.4625935694400698
 20
48.13390040129659
 30
0.0
 11
-0.4968117559499716
 21
48.19844552275777
 31
0.0
  0
LINE
  5
20E
  8
TEXT_LAYER$TXT_02
 10
-0.4968117559499716
 20
48.19844552275777
 30
0.0
 11
-0.5332460882491276
 21
48.26176610726531
 31
0.0
  0
LINE
  5
20F
  8
TEXT_LAYER$TXT_02
 10
-0.5332460882491276
 20
48.26176610726531
 30
0.0
 11
-0.5718528011433439
 21
48.32378609365653
 31
0.0
  0
LINE
  5
210
  8
TEXT_LAYER$TXT_02
 10
-0.5718528011433439
 20
48.32378609365653
 30
0.0
 11
-0.6125855199585035
 21
48.38443098305694
 31
0.0
  0
LINE
  5
211
  8
TEXT_LAYER$TXT_02
 10
-0.6125855199585035
 20
48.38443098305694
 30
0.0
 11
-0.6553953162461756
 21
48.44362792836893
 31
0.0
  0
LINE
  5
212
  8
TEXT_LAYER$TXT_02
 10
-0.6553953162461756
 20
48.44362792836893
 30
0.0
 11
-0.7002307665568347
 21
48.50130582177623
 31
0.0
  0
LINE
  5
213
  8
TEXT_LAYER$TXT_02
 10
-0.7002307665568347
 20
48.50130582177623
 30
0.0
 11
-0.7470380142100966
 21
48.55739538015914
 31
0.0
  0
LINE
  5
214
  8
TEXT_LAYER$TXT_02
 10
-0.7470380142100966
 20
48.55739538015914
 30
0.0
 11
-0.7957608339877675
 21
48.61182922831794
 31
0.0
  0
LINE
  5
215
  8
TEXT_LAYER$TXT_02
 10
-0.7957608339877675
 20
48.61182922831794
 30
0.0
 11
-0.8463406996719991
 21
48.66454197990452
 31
0.0
  0
LINE
  5
216
  8
TEXT_LAYER$TXT_02
 10
-0.8463406996719991
 20
48.66454197990452
 30
0.0
 11
-0.8987168543474227
 21
48.7154703159649
 31
0.0
  0
LINE
  5
217
  8
TEXT_LAYER$TXT_02
 10
-0.8987168543474227
 20
48.7154703159649
 30
0.0
 11
-0.952826383382813
 21
48.76455306099849
 31
0.0
  0
LINE
  5
218
  8
TEXT_LAYER$TXT_02
 10
-0.952826383382813
 20
48.76455306099849
 30
0.0
 11
-1.008604290004617
 21
48.81173125644249
 31
0.0
  0
LINE
  5
219
  8
TEXT_LAYER$TXT_02
 10
-1.008604290004617
 20
48.81173125644249
 30
0.0
 11
-1.065983573371566
 21
48.85694823149344
 31
0.0
  0
LINE
  5
21A
  8
TEXT_LAYER$TXT_02
 10
-1.065983573371566
 20
48.85694823149344
 30
0.0
 11
-1.124895309056593
 21
48.90014967118057
 31
0.0
  0
LINE
  5
21B
  8
TEXT_LAYER$TXT_02
 10
-1.124895309056593
 20
48.90014967118057
 30
0.0
 11
-1.185268731839371
 21
48.94128368160936
 31
0.0
  0
LINE
  5
21C
  8
TEXT_LAYER$TXT_02
 10
-1.185268731839371
 20
48.94128368160936
 30
0.0
 11
-1.24703132071003
 21
48.98030085229685
 31
0.0
  0
LINE
  5
21D
  8
TEXT_LAYER$TXT_02
 10
-1.24703132071003
 20
48.98030085229685
 30
0.0
 11
-1.310108885981938
 21
49.01715431552395
 31
0.0
  0
LINE
  5
21F
  8
GRID_PCB_EX
 10
3.5
 20
-1.499999999999978
 30
0.0
 11
29.82999999999999
 21
-1.499999999999978
 31
0.0
  0
LINE
  5
220
  8
GRID_PCB_EX
 10
29.82999999999999
 20
-1.499999999999978
 30
0.0
 11
29.82999999999999
 21
96.49000000000001
 31
0.0
  0
LINE
  5
221
  8
GRID_PCB_EX
 10
29.82999999999999
 20
96.49000000000001
 30
0.0
 11
3.5
 21
96.49000000000001
 31
0.0
  0
LINE
  5
222
  8
GRID_PCB_EX
 10
3.5
 20
96.49000000000001
 30
0.0
 11
3.5
 21
-1.499999999999978
 31
0.0
  0
LINE
  5
224
  8
STRIP_CUTS
 10
10.466
 20
396.46
 30
0.0
 11
10.466
 21
399.96
 31
0.0
  0
LINE
  5
225
  8
STRIP_CUTS
 10
10.466
 20
399.96
 30
0.0
 11
22.866
 21
399.96
 31
0.0
  0
LINE
  5
226
  8
STRIP_CUTS
 10
22.866
 20
399.96
 30
0.0
 11
22.866
 21
396.46
 31
0.0
  0
CIRCLE
  5
228
  8
SCREWS-BORDER
 10
0.0
 20
99.99000000000001
 30
0.0
 40
0.95
  0
CIRCLE
  5
229
  8
SCREWS-BORDER
 10
33.33
 20
99.99000000000001
 30
0.0
 40
0.95
  0
CIRCLE
  5
22A
  8
SCREWS-BORDER
 10
0.0
 20
299.97
 30
0.0
 40
0.95
  0
CIRCLE
  5
22B
  8
SCREWS-BORDER
 10
33.33
 20
299.97
 30
0.0
 40
0.95
  0
CIRCLE
  5
22C
  8
SCREWS-BORDER
 10
0.0
 20
199.98
 30
0.0
 40
0.95
  0
CIRCLE
  5
22D
  8
SCREWS-BORDER
 10
33.33
 20
199.98
 30
0.0
 40
0.95
  0
CIRCLE
  5
22E
  8
SCREWS-BORDER
 10
0.0
 20
0.0
 30
0.0
 40
0.95
  0
CIRCLE
  5
22F
  8
SCREWS-BORDER
 10
33.33
 20
0.0
 30
0.0
 40
0.95
  0
CIRCLE
  5
230
  8
SCREWS-BORDER
 10
0.0
 20
399.96
 30
0.0
 40
0.95
  0
CIRCLE
  5
231
  8
SCREWS-BORDER
 10
33.33
 20
399.96
 30
0.0
 40
0.95
  0
LINE
  5
232
  8
STRIP_CUTS
 10
10.466
 20
363.1300000000001
 30
0.0
 11
10.466
 21
370.1300000000001
 31
0.0
  0
LINE
  5
233
  8
STRIP_CUTS
 10
22.866
 20
363.1300000000001
 30
0.0
 11
22.866
 21
370.1300000000001
 31
0.0
  0
LINE
  5
234
  8
STRIP_CUTS
 10
10.466
 20
329.8
 30
0.0
 11
10.466
 21
336.8
 31
0.0
  0
LINE
  5
235
  8
STRIP_CUTS
 10
22.866
 20
329.8
 30
0.0
 11
22.866
 21
336.8
 31
0.0
  0
LINE
  5
236
  8
STRIP_CUTS
 10
10.466
 20
296.47
 30
0.0
 11
10.466
 21
303.47
 31
0.0
  0
LINE
  5
237
  8
STRIP_CUTS
 10
22.866
 20
296.47
 30
0.0
 11
22.866
 21
303.47
 31
0.0
  0
LINE
  5
238
  8
STRIP_CUTS
 10
10.466
 20
263.14
 30
0.0
 11
10.466
 21
270.14
 31
0.0
  0
LINE
  5
239
  8
STRIP_CUTS
 10
22.866
 20
263.14
 30
0.0
 11
22.866
 21
270.14
 31
0.0
  0
LINE
  5
23A
  8
STRIP_CUTS
 10
10.466
 20
229.81
 30
0.0
 11
10.466
 21
236.8100000000001
 31
0.0
  0
LINE
  5
23B
  8
STRIP_CUTS
 10
22.866
 20
229.81
 30
0.0
 11
22.866
 21
236.81
 31
0.0
  0
LINE
  5
23C
  8
STRIP_CUTS
 10
10.466
 20
196.4800000000001
 30
0.0
 11
10.466
 21
203.48
 31
0.0
  0
LINE
  5
23D
  8
STRIP_CUTS
 10
22.866
 20
196.48
 30
0.0
 11
22.866
 21
203.48
 31
0.0
  0
LINE
  5
23E
  8
STRIP_CUTS
 10
22.866
 20
163.15
 30
0.0
 11
22.866
 21
170.15
 31
0.0
  0
LINE
  5
23F
  8
STRIP_CUTS
 10
10.466
 20
163.15
 30
0.0
 11
10.466
 21
170.15
 31
0.0
  0
LINE
  5
240
  8
STRIP_CUTS
 10
22.866
 20
129.82
 30
0.0
 11
22.866
 21
136.8200000000001
 31
0.0
  0
LINE
  5
241
  8
STRIP_CUTS
 10
10.466
 20
129.82
 30
0.0
 11
10.466
 21
136.82
 31
0.0
  0
LINE
  5
242
  8
STRIP_CUTS
 10
22.866
 20
103.49
 30
0.0
 11
22.866
 21
96.49000000000001
 31
0.0
  0
LINE
  5
243
  8
STRIP_CUTS
 10
10.466
 20
103.49
 30
0.0
 11
10.466
 21
96.49000000000001
 31
0.0
  0
LINE
  5
245
  8
BORDER
 10
-3.5
 20
-3.5
 30
0.0
 11
36.83
 21
-3.5
 31
0.0
  0
LINE
  5
246
  8
BORDER
 10
36.83
 20
-3.5
 30
0.0
 11
36.83
 21
403.46
 31
0.0
  0
LINE
  5
247
  8
BORDER
 10
36.83
 20
403.46
 30
0.0
 11
-3.5
 21
403.46
 31
0.0
  0
LINE
  5
248
  8
BORDER
 10
-3.5
 20
403.46
 30
0.0
 11
-3.5
 21
-3.5
 31
0.0
  0
LINE
  5
24A
  8
GRID_LED
 10
3.5
 20
370.1300000000001
 30
0.0
 11
29.83
 21
370.1300000000001
 31
0.0
  0
LINE
  5
24B
  8
GRID_LED
 10
29.83
 20
370.1300000000001
 30
0.0
 11
29.83
 21
396.46
 31
0.0
  0
LINE
  5
24C
  8
GRID_LED
 10
29.83
 20
396.46
 30
0.0
 11
3.5
 21
396.46
 31
0.0
  0
LINE
  5
24D
  8
GRID_LED
 10
3.5
 20
396.46
 30
0.0
 11
3.5
 21
370.1300000000001
 31
0.0
  0
LINE
  5
24E
  8
GRID_LED
 10
3.5
 20
336.8
 30
0.0
 11
29.83
 21
336.8
 31
0.0
  0
LINE
  5
24F
  8
GRID_LED
 10
29.83
 20
336.8
 30
0.0
 11
29.83
 21
363.1300000000001
 31
0.0
  0
LINE
  5
250
  8
GRID_LED
 10
29.83
 20
363.1300000000001
 30
0.0
 11
3.5
 21
363.1300000000001
 31
0.0
  0
LINE
  5
251
  8
GRID_LED
 10
3.5
 20
363.1300000000001
 30
0.0
 11
3.5
 21
336.8
 31
0.0
  0
LINE
  5
252
  8
GRID_LED
 10
3.5
 20
303.47
 30
0.0
 11
29.83
 21
303.47
 31
0.0
  0
LINE
  5
253
  8
GRID_LED
 10
29.83
 20
303.47
 30
0.0
 11
29.83
 21
329.8
 31
0.0
  0
LINE
  5
254
  8
GRID_LED
 10
29.83
 20
329.8
 30
0.0
 11
3.5
 21
329.8
 31
0.0
  0
LINE
  5
255
  8
GRID_LED
 10
3.5
 20
329.8
 30
0.0
 11
3.5
 21
303.47
 31
0.0
  0
LINE
  5
256
  8
GRID_LED
 10
3.5
 20
270.14
 30
0.0
 11
29.83
 21
270.14
 31
0.0
  0
LINE
  5
257
  8
GRID_LED
 10
29.83
 20
270.14
 30
0.0
 11
29.83
 21
296.47
 31
0.0
  0
LINE
  5
258
  8
GRID_LED
 10
29.83
 20
296.47
 30
0.0
 11
3.5
 21
296.47
 31
0.0
  0
LINE
  5
259
  8
GRID_LED
 10
3.5
 20
296.47
 30
0.0
 11
3.5
 21
270.14
 31
0.0
  0
LINE
  5
25A
  8
GRID_LED
 10
3.5
 20
236.81
 30
0.0
 11
29.83
 21
236.81
 31
0.0
  0
LINE
  5
25B
  8
GRID_LED
 10
29.83
 20
236.81
 30
0.0
 11
29.83
 21
263.14
 31
0.0
  0
LINE
  5
25C
  8
GRID_LED
 10
29.83
 20
263.14
 30
0.0
 11
3.5
 21
263.14
 31
0.0
  0
LINE
  5
25D
  8
GRID_LED
 10
3.5
 20
263.14
 30
0.0
 11
3.5
 21
236.81
 31
0.0
  0
LINE
  5
25E
  8
GRID_LED
 10
3.5
 20
203.48
 30
0.0
 11
29.83
 21
203.48
 31
0.0
  0
LINE
  5
25F
  8
GRID_LED
 10
29.83
 20
203.48
 30
0.0
 11
29.83
 21
229.81
 31
0.0
  0
LINE
  5
260
  8
GRID_LED
 10
29.83
 20
229.81
 30
0.0
 11
3.5
 21
229.81
 31
0.0
  0
LINE
  5
261
  8
GRID_LED
 10
3.5
 20
229.81
 30
0.0
 11
3.5
 21
203.48
 31
0.0
  0
LINE
  5
262
  8
GRID_LED
 10
3.5
 20
170.15
 30
0.0
 11
29.83
 21
170.15
 31
0.0
  0
LINE
  5
263
  8
GRID_LED
 10
29.83
 20
170.15
 30
0.0
 11
29.83
 21
196.48
 31
0.0
  0
LINE
  5
264
  8
GRID_LED
 10
29.83
 20
196.48
 30
0.0
 11
3.5
 21
196.48
 31
0.0
  0
LINE
  5
265
  8
GRID_LED
 10
3.5
 20
196.48
 30
0.0
 11
3.5
 21
170.15
 31
0.0
  0
LINE
  5
266
  8
GRID_LED
 10
3.5
 20
136.82
 30
0.0
 11
29.83
 21
136.82
 31
0.0
  0
LINE
  5
267
  8
GRID_LED
 10
29.83
 20
136.82
 30
0.0
 11
29.83
 21
163.15
 31
0.0
  0
LINE
  5
268
  8
GRID_LED
 10
29.83
 20
163.15
 30
0.0
 11
3.5
 21
163.15
 31
0.0
  0
LINE
  5
269
  8
GRID_LED
 10
3.5
 20
163.15
 30
0.0
 11
3.5
 21
136.82
 31
0.0
  0
LINE
  5
26A
  8
GRID_LED
 10
3.5
 20
103.49
 30
0.0
 11
29.83
 21
103.49
 31
0.0
  0
LINE
  5
26B
  8
GRID_LED
 10
29.83
 20
103.49
 30
0.0
 11
29.83
 21
129.82
 31
0.0
  0
LINE
  5
26C
  8
GRID_LED
 10
29.83
 20
129.82
 30
0.0
 11
3.5
 21
129.82
 31
0.0
  0
LINE
  5
26D
  8
GRID_LED
 10
3.5
 20
129.82
 30
0.0
 11
3.5
 21
103.49
 31
0.0
  0
ENDSEC
  0
EOF
