  0
SECTION
  2
HEADER
  9
$ACADVER
  1
AC1009
  9
$DWGCODEPAGE
  3
mac-roman
  9
$INSBASE
 10
0.0
 20
0.0
 30
0.0
  9
$EXTMIN
 10
-3.5
 20
-3.5
 30
0.0
  9
$EXTMAX
 10
36.83
 20
403.46
 30
0.0
  9
$LIMMIN
 10
0.0
 20
0.0
  9
$LIMMAX
 10
12.0
 20
9.0
  9
$ORTHOMODE
 70
     0
  9
$REGENMODE
 70
     1
  9
$FILLMODE
 70
     1
  9
$QTEXTMODE
 70
     0
  9
$MIRRTEXT
 70
     1
  9
$DRAGMODE
 70
     2
  9
$LTSCALE
 40
1.0
  9
$OSMODE
 70
    37
  9
$ATTMODE
 70
     1
  9
$TEXTSIZE
 40
0.2
  9
$TRACEWID
 40
0.05
  9
$TEXTSTYLE
  7
STANDARD
  9
$CLAYER
  8
0
  9
$CELTYPE
  6
BYLAYER
  9
$CECOLOR
 62
   256
  9
$DIMSCALE
 40
1.0
  9
$DIMASZ
 40
0.18
  9
$DIMEXO
 40
0.0625
  9
$DIMDLI
 40
0.38
  9
$DIMRND
 40
0.0
  9
$DIMDLE
 40
0.0
  9
$DIMEXE
 40
0.18
  9
$DIMTP
 40
0.0
  9
$DIMTM
 40
0.0
  9
$DIMTXT
 40
0.18
  9
$DIMCEN
 40
0.09
  9
$DIMTSZ
 40
0.0
  9
$DIMTOL
 70
     0
  9
$DIMLIM
 70
     0
  9
$DIMTIH
 70
     1
  9
$DIMTOH
 70
     1
  9
$DIMSE1
 70
     0
  9
$DIMSE2
 70
     0
  9
$DIMTAD
 70
     0
  9
$DIMZIN
 70
     0
  9
$DIMBLK
  1

  9
$DIMASO
 70
     1
  9
$DIMSHO
 70
     1
  9
$DIMPOST
  1

  9
$DIMAPOST
  1

  9
$DIMALT
 70
     0
  9
$DIMALTD
 70
     2
  9
$DIMALTF
 40
25.4
  9
$DIMLFAC
 40
1.0
  9
$DIMTOFL
 70
     0
  9
$DIMTVP
 40
0.0
  9
$DIMTIX
 70
     0
  9
$DIMSOXD
 70
     0
  9
$DIMSAH
 70
     0
  9
$DIMBLK1
  1

  9
$DIMBLK2
  1

  9
$DIMSTYLE
  2
STANDARD
  9
$DIMCLRD
 70
     0
  9
$DIMCLRE
 70
     0
  9
$DIMCLRT
 70
     0
  9
$DIMTFAC
 40
1.0
  9
$DIMGAP
 40
0.09
  9
$LUNITS
 70
     2
  9
$LUPREC
 70
     2
  9
$SKETCHINC
 40
0.1
  9
$FILLETRAD
 40
0.5
  9
$AUNITS
 70
     0
  9
$AUPREC
 70
     0
  9
$MENU
  1
.
  9
$ELEVATION
 40
0.0
  9
$PELEVATION
 40
0.0
  9
$THICKNESS
 40
0.0
  9
$LIMCHECK
 70
     0
  9
$CHAMFERA
 40
0.0
  9
$CHAMFERB
 40
0.0
  9
$SKPOLY
 70
     0
  9
$TDCREATE
 40
2457544.733506944
  9
$TDUPDATE
 40
2457544.733506944
  9
$TDINDWG
 40
0.0000000116
  9
$TDUSRTIMER
 40
0.0000000116
  9
$USRTIMER
 70
     1
  9
$ANGBASE
 50
0.0
  9
$ANGDIR
 70
     0
  9
$PDMODE
 70
     0
  9
$PDSIZE
 40
0.0
  9
$PLINEWID
 40
0.0
  9
$COORDS
 70
     1
  9
$SPLFRAME
 70
     0
  9
$SPLINETYPE
 70
     6
  9
$SPLINESEGS
 70
     8
  9
$ATTDIA
 70
     0
  9
$ATTREQ
 70
     1
  9
$HANDLING
 70
     1
  9
$HANDSEED
  5
3C3
  9
$SURFTAB1
 70
     6
  9
$SURFTAB2
 70
     6
  9
$SURFTYPE
 70
     6
  9
$SURFU
 70
     6
  9
$SURFV
 70
     6
  9
$UCSNAME
  2

  9
$UCSORG
 10
0.0
 20
0.0
 30
0.0
  9
$UCSXDIR
 10
1.0
 20
0.0
 30
0.0
  9
$UCSYDIR
 10
0.0
 20
1.0
 30
0.0
  9
$PUCSNAME
  2

  9
$PUCSORG
 10
0.0
 20
0.0
 30
0.0
  9
$PUCSXDIR
 10
1.0
 20
0.0
 30
0.0
  9
$PUCSYDIR
 10
0.0
 20
1.0
 30
0.0
  9
$USERI1
 70
     0
  9
$USERI2
 70
     0
  9
$USERI3
 70
     0
  9
$USERI4
 70
     0
  9
$USERI5
 70
     0
  9
$USERR1
 40
0.0
  9
$USERR2
 40
0.0
  9
$USERR3
 40
0.0
  9
$USERR4
 40
0.0
  9
$USERR5
 40
0.0
  9
$WORLDVIEW
 70
     1
  9
$SHADEDGE
 70
     3
  9
$SHADEDIF
 70
    70
  9
$TILEMODE
 70
     1
  9
$MAXACTVP
 70
    64
  9
$PLIMCHECK
 70
     0
  9
$PEXTMIN
 10
1.000000000000000E+20
 20
1.000000000000000E+20
 30
1.000000000000000E+20
  9
$PEXTMAX
 10
-1.000000000000000E+20
 20
-1.000000000000000E+20
 30
-1.000000000000000E+20
  9
$PLIMMIN
 10
0.0
 20
0.0
  9
$PLIMMAX
 10
12.0
 20
9.0
  9
$UNITMODE
 70
     0
  9
$VISRETAIN
 70
     1
  9
$PLINEGEN
 70
     0
  9
$PSLTSCALE
 70
     1
  0
ENDSEC
  0
SECTION
  2
TABLES
  0
TABLE
  2
VPORT
 70
     1
  0
VPORT
  2
*ACTIVE
 70
     0
 10
0.0
 20
0.0
 11
1.0
 21
1.0
 12
16.665
 22
199.98
 13
0.0
 23
0.0
 14
0.5
 24
0.5
 15
0.5
 25
0.5
 16
0.0
 26
0.0
 36
1.0
 17
0.0
 27
0.0
 37
0.0
 40
415.0992000000001
 41
0.0991006487124042
 42
50.0
 43
0.0
 44
0.0
 50
0.0
 51
0.0
 71
     0
 72
   100
 73
     1
 74
     3
 75
     0
 76
     0
 77
     0
 78
     0
  0
ENDTAB
  0
TABLE
  2
LTYPE
 70
     1
  0
LTYPE
  2
CONTINUOUS
 70
     0
  3
Solid line
 72
    65
 73
     0
 40
0.0
  0
ENDTAB
  0
TABLE
  2
LAYER
 70
     8
  0
LAYER
  2
0
 70
     0
 62
     7
  6
CONTINUOUS
  0
LAYER
  2
TEXT_LAYER$TXT_MKR1000
 70
     0
 62
     4
  6
CONTINUOUS
  0
LAYER
  2
TEXT_LAYER$TXT_03
 70
     0
 62
     4
  6
CONTINUOUS
  0
LAYER
  2
USB_OPENING
 70
     0
 62
     3
  6
CONTINUOUS
  0
LAYER
  2
GRID_PCB_EX
 70
     0
 62
     6
  6
CONTINUOUS
  0
LAYER
  2
SCREWS-BORDER
 70
     0
 62
     3
  6
CONTINUOUS
  0
LAYER
  2
BORDER
 70
     0
 62
     7
  6
CONTINUOUS
  0
LAYER
  2
GRID_LED
 70
     0
 62
     6
  6
CONTINUOUS
  0
ENDTAB
  0
TABLE
  2
STYLE
 70
     1
  0
STYLE
  2
STANDARD
 70
     0
 40
0.0
 41
1.0
 50
0.0
 71
     0
 42
0.2
  3
txt
  4

  0
ENDTAB
  0
TABLE
  2
VIEW
 70
     0
  0
ENDTAB
  0
TABLE
  2
UCS
 70
     0
  0
ENDTAB
  0
TABLE
  2
APPID
 70
     1
  0
APPID
  2
ACAD
 70
     0
  0
ENDTAB
  0
TABLE
  2
DIMSTYLE
 70
     1
  0
DIMSTYLE
  2
STANDARD
 70
     0
  3

  4

  5

  6

  7

 40
1.0
 41
0.18
 42
0.0625
 43
0.38
 44
0.18
 45
0.0
 46
0.0
 47
0.0
 48
0.0
140
0.18
141
0.09
142
0.0
143
25.4
144
1.0
145
0.0
146
1.0
147
0.09
 71
     0
 72
     0
 73
     1
 74
     1
 75
     0
 76
     0
 77
     0
 78
     0
170
     0
171
     2
172
     0
173
     0
174
     0
175
     0
176
     0
177
     0
178
     0
  0
ENDTAB
  0
ENDSEC
  0
SECTION
  2
BLOCKS
  0
BLOCK
  8
0
  2
$MODEL_SPACE
 70
     0
 10
0.0
 20
0.0
 30
0.0
  3
$MODEL_SPACE
  1

  0
ENDBLK
  5
21
  8
0
  0
BLOCK
 67
     1
  8
0
  2
$PAPER_SPACE
 70
     0
 10
0.0
 20
0.0
 30
0.0
  3
$PAPER_SPACE
  1

  0
ENDBLK
  5
1D
 67
     1
  8
0
  0
ENDSEC
  0
SECTION
  2
ENTITIES
  0
LINE
  5
6F
  8
TEXT_LAYER$TXT_MKR1000
 10
2.27633083730429
 20
9.142375765827097
 30
0.0
 11
2.27633083730429
 21
8.172328114363516
 31
0.0
  0
LINE
  5
70
  8
TEXT_LAYER$TXT_MKR1000
 10
2.27633083730429
 20
8.172328114363516
 30
0.0
 11
-1.951034717494894
 21
6.735976855003407
 31
0.0
  0
LINE
  5
71
  8
TEXT_LAYER$TXT_MKR1000
 10
-1.951034717494894
 20
6.735976855003407
 30
0.0
 11
2.27633083730429
 21
5.30983662355344
 31
0.0
  0
LINE
  5
72
  8
TEXT_LAYER$TXT_MKR1000
 10
2.27633083730429
 20
5.30983662355344
 30
0.0
 11
2.27633083730429
 21
4.350000000000002
 31
0.0
  0
LINE
  5
73
  8
TEXT_LAYER$TXT_MKR1000
 10
2.27633083730429
 20
4.350000000000002
 30
0.0
 11
-2.72366916269571
 21
4.350000000000002
 31
0.0
  0
LINE
  5
74
  8
TEXT_LAYER$TXT_MKR1000
 10
-2.72366916269571
 20
4.350000000000002
 30
0.0
 11
-2.72366916269571
 21
4.993294758339011
 31
0.0
  0
LINE
  5
75
  8
TEXT_LAYER$TXT_MKR1000
 10
-2.72366916269571
 20
4.993294758339011
 30
0.0
 11
0.227317903335603
 21
4.993294758339011
 31
0.0
  0
LINE
  5
76
  8
TEXT_LAYER$TXT_MKR1000
 10
0.227317903335603
 20
4.993294758339011
 30
0.0
 11
0.7344656228727047
 21
4.986487406398914
 31
0.0
  0
LINE
  5
77
  8
TEXT_LAYER$TXT_MKR1000
 10
0.7344656228727047
 20
4.986487406398914
 30
0.0
 11
1.493485364193329
 21
4.979680054458817
 31
0.0
  0
LINE
  5
78
  8
TEXT_LAYER$TXT_MKR1000
 10
1.493485364193329
 20
4.979680054458817
 30
0.0
 11
-2.72366916269571
 21
6.405820285908784
 31
0.0
  0
LINE
  5
79
  8
TEXT_LAYER$TXT_MKR1000
 10
-2.72366916269571
 20
6.405820285908784
 30
0.0
 11
-2.72366916269571
 21
7.076344452008171
 31
0.0
  0
LINE
  5
7A
  8
TEXT_LAYER$TXT_MKR1000
 10
-2.72366916269571
 20
7.076344452008171
 30
0.0
 11
1.493485364193329
 21
8.51269571136828
 31
0.0
  0
LINE
  5
7B
  8
TEXT_LAYER$TXT_MKR1000
 10
1.493485364193329
 20
8.51269571136828
 30
0.0
 11
1.340319945541186
 21
8.51269571136828
 31
0.0
  0
LINE
  5
7C
  8
TEXT_LAYER$TXT_MKR1000
 10
1.340319945541186
 20
8.51269571136828
 30
0.0
 11
0.7804152484683478
 21
8.504186521443163
 31
0.0
  0
LINE
  5
7D
  8
TEXT_LAYER$TXT_MKR1000
 10
0.7804152484683478
 20
8.504186521443163
 30
0.0
 11
0.227317903335603
 21
8.495677331518042
 31
0.0
  0
LINE
  5
7E
  8
TEXT_LAYER$TXT_MKR1000
 10
0.227317903335603
 20
8.495677331518042
 30
0.0
 11
-2.72366916269571
 21
8.495677331518042
 31
0.0
  0
LINE
  5
7F
  8
TEXT_LAYER$TXT_MKR1000
 10
-2.72366916269571
 20
8.495677331518042
 30
0.0
 11
-2.72366916269571
 21
9.142375765827097
 31
0.0
  0
LINE
  5
80
  8
TEXT_LAYER$TXT_MKR1000
 10
-2.72366916269571
 20
9.142375765827097
 30
0.0
 11
2.27633083730429
 21
9.142375765827097
 31
0.0
  0
LINE
  5
82
  8
TEXT_LAYER$TXT_03
 10
-1.992545917976492
 20
43.74349897889721
 30
0.0
 11
-1.94576915798025
 21
43.77993800265297
 31
0.0
  0
LINE
  5
83
  8
TEXT_LAYER$TXT_03
 10
-1.94576915798025
 20
43.77993800265297
 30
0.0
 11
-1.897792859195147
 21
43.81478255004424
 31
0.0
  0
LINE
  5
84
  8
TEXT_LAYER$TXT_03
 10
-1.897792859195147
 20
43.81478255004424
 30
0.0
 11
-1.848671348338549
 21
43.84799316429908
 31
0.0
  0
LINE
  5
85
  8
TEXT_LAYER$TXT_03
 10
-1.848671348338549
 20
43.84799316429908
 30
0.0
 11
-1.798460248926748
 21
43.87953223885553
 31
0.0
  0
LINE
  5
86
  8
TEXT_LAYER$TXT_03
 10
-1.798460248926748
 20
43.87953223885553
 30
0.0
 11
-1.74721641828879
 21
43.9093640599459
 31
0.0
  0
LINE
  5
87
  8
TEXT_LAYER$TXT_03
 10
-1.74721641828879
 20
43.9093640599459
 30
0.0
 11
-1.694997883183187
 21
43.93745484703783
 31
0.0
  0
LINE
  5
88
  8
TEXT_LAYER$TXT_03
 10
-1.694997883183187
 20
43.93745484703783
 30
0.0
 11
-1.641863774090403
 21
43.96377279108624
 31
0.0
  0
LINE
  5
89
  8
TEXT_LAYER$TXT_03
 10
-1.641863774090403
 20
43.96377279108624
 30
0.0
 11
-1.587874258255523
 21
43.98828809055279
 31
0.0
  0
LINE
  5
8A
  8
TEXT_LAYER$TXT_03
 10
-1.587874258255523
 20
43.98828809055279
 30
0.0
 11
-1.533090471556927
 21
44.01097298515209
 31
0.0
  0
LINE
  5
8B
  8
TEXT_LAYER$TXT_03
 10
-1.533090471556927
 20
44.01097298515209
 30
0.0
 11
-1.477574449278111
 21
44.03180178728658
 31
0.0
  0
LINE
  5
8C
  8
TEXT_LAYER$TXT_03
 10
-1.477574449278111
 20
44.03180178728658
 30
0.0
 11
-1.421389055861063
 21
44.05075091113415
 31
0.0
  0
LINE
  5
8D
  8
TEXT_LAYER$TXT_03
 10
-1.421389055861063
 20
44.05075091113415
 30
0.0
 11
-1.364597913720718
 21
44.06779889935606
 31
0.0
  0
LINE
  5
8E
  8
TEXT_LAYER$TXT_03
 10
-1.364597913720718
 20
44.06779889935606
 30
0.0
 11
-1.307265331201117
 21
44.08292644739441
 31
0.0
  0
LINE
  5
8F
  8
TEXT_LAYER$TXT_03
 10
-1.307265331201117
 20
44.08292644739441
 30
0.0
 11
-1.249456229754839
 21
44.09611642533196
 31
0.0
  0
LINE
  5
90
  8
TEXT_LAYER$TXT_03
 10
-1.249456229754839
 20
44.09611642533196
 30
0.0
 11
-1.191236070428173
 21
44.10735389728951
 31
0.0
  0
LINE
  5
91
  8
TEXT_LAYER$TXT_03
 10
-1.191236070428173
 20
44.10735389728951
 30
0.0
 11
-1.132670779735273
 21
44.11662613833876
 31
0.0
  0
LINE
  5
92
  8
TEXT_LAYER$TXT_03
 10
-1.132670779735273
 20
44.11662613833876
 30
0.0
 11
-1.073826675005227
 21
44.12392264891154
 31
0.0
  0
LINE
  5
93
  8
TEXT_LAYER$TXT_03
 10
-1.073826675005227
 20
44.12392264891154
 30
0.0
 11
-1.014770389286591
 21
44.12923516668921
 31
0.0
  0
LINE
  5
94
  8
TEXT_LAYER$TXT_03
 10
-1.014770389286591
 20
44.12923516668921
 30
0.0
 11
-0.9555687958944038
 21
44.13255767595862
 31
0.0
  0
LINE
  5
95
  8
TEXT_LAYER$TXT_03
 10
-0.9555687958944038
 20
44.13255767595862
 30
0.0
 11
-0.8962889326851345
 21
44.13388641442408
 31
0.0
  0
LINE
  5
96
  8
TEXT_LAYER$TXT_03
 10
-0.8962889326851345
 20
44.13388641442408
 30
0.0
 11
-0.8369979261453148
 21
44.13321987746766
 31
0.0
  0
LINE
  5
97
  8
TEXT_LAYER$TXT_03
 10
-0.8369979261453148
 20
44.13321987746766
 30
0.0
 11
-0.8369979261453149
 21
43.49332879509871
 31
0.0
  0
LINE
  5
98
  8
TEXT_LAYER$TXT_03
 10
-0.8369979261453149
 20
43.49332879509871
 30
0.0
 11
-0.9512342243551936
 21
43.48162863847642
 31
0.0
  0
LINE
  5
99
  8
TEXT_LAYER$TXT_03
 10
-0.9512342243551936
 20
43.48162863847642
 30
0.0
 11
-1.005320863713787
 21
43.47466174803357
 31
0.0
  0
LINE
  5
9A
  8
TEXT_LAYER$TXT_03
 10
-1.005320863713787
 20
43.47466174803357
 30
0.0
 11
-1.057386510003381
 21
43.46695031271273
 31
0.0
  0
LINE
  5
9B
  8
TEXT_LAYER$TXT_03
 10
-1.057386510003381
 20
43.46695031271273
 30
0.0
 11
-1.1074311732954
 21
43.45849432992123
 31
0.0
  0
LINE
  5
9C
  8
TEXT_LAYER$TXT_03
 10
-1.1074311732954
 20
43.45849432992123
 30
0.0
 11
-1.155454863661269
 21
43.44929379706646
 31
0.0
  0
LINE
  5
9D
  8
TEXT_LAYER$TXT_03
 10
-1.155454863661269
 20
43.44929379706646
 30
0.0
 11
-1.201457591172411
 21
43.43934871155575
 31
0.0
  0
LINE
  5
9E
  8
TEXT_LAYER$TXT_03
 10
-1.201457591172411
 20
43.43934871155575
 30
0.0
 11
-1.245439365900249
 21
43.42865907079646
 31
0.0
  0
LINE
  5
9F
  8
TEXT_LAYER$TXT_03
 10
-1.245439365900249
 20
43.42865907079646
 30
0.0
 11
-1.28740019791621
 21
43.41722487219594
 31
0.0
  0
LINE
  5
A0
  8
TEXT_LAYER$TXT_03
 10
-1.28740019791621
 20
43.41722487219594
 30
0.0
 11
-1.327340097291715
 21
43.40504611316158
 31
0.0
  0
LINE
  5
A1
  8
TEXT_LAYER$TXT_03
 10
-1.327340097291715
 20
43.40504611316158
 30
0.0
 11
-1.365259074098189
 21
43.39212279110071
 31
0.0
  0
LINE
  5
A2
  8
TEXT_LAYER$TXT_03
 10
-1.365259074098189
 20
43.39212279110071
 30
0.0
 11
-1.38346071968536
 21
43.38538191812513
 31
0.0
  0
LINE
  5
A3
  8
TEXT_LAYER$TXT_03
 10
-1.38346071968536
 20
43.38538191812513
 30
0.0
 11
-1.401157138407057
 21
43.37845490342069
 31
0.0
  0
LINE
  5
A4
  8
TEXT_LAYER$TXT_03
 10
-1.401157138407057
 20
43.37845490342069
 30
0.0
 11
-1.418348331522209
 21
43.37134174666329
 31
0.0
  0
LINE
  5
A5
  8
TEXT_LAYER$TXT_03
 10
-1.418348331522209
 20
43.37134174666329
 30
0.0
 11
-1.435034300289742
 21
43.36404244752887
 31
0.0
  0
LINE
  5
A6
  8
TEXT_LAYER$TXT_03
 10
-1.435034300289742
 20
43.36404244752887
 30
0.0
 11
-1.451215045968586
 21
43.35655700569333
 31
0.0
  0
LINE
  5
A7
  8
TEXT_LAYER$TXT_03
 10
-1.451215045968586
 20
43.35655700569333
 30
0.0
 11
-1.466890569817668
 21
43.34888542083262
 31
0.0
  0
LINE
  5
A8
  8
TEXT_LAYER$TXT_03
 10
-1.466890569817668
 20
43.34888542083262
 30
0.0
 11
-1.482060873095917
 21
43.34102769262262
 31
0.0
  0
LINE
  5
A9
  8
TEXT_LAYER$TXT_03
 10
-1.482060873095917
 20
43.34102769262262
 30
0.0
 11
-1.49672595706226
 21
43.33298382073928
 31
0.0
  0
LINE
  5
AA
  8
TEXT_LAYER$TXT_03
 10
-1.49672595706226
 20
43.33298382073928
 30
0.0
 11
-1.510885822975625
 21
43.3247538048585
 31
0.0
  0
LINE
  5
AB
  8
TEXT_LAYER$TXT_03
 10
-1.510885822975625
 20
43.3247538048585
 30
0.0
 11
-1.536465860856608
 21
43.30879816865485
 31
0.0
  0
LINE
  5
AC
  8
TEXT_LAYER$TXT_03
 10
-1.536465860856608
 20
43.30879816865485
 30
0.0
 11
-1.548203445469527
 21
43.30107089734372
 31
0.0
  0
LINE
  5
AD
  8
TEXT_LAYER$TXT_03
 10
-1.548203445469527
 20
43.30107089734372
 30
0.0
 11
-1.559753226021731
 21
43.29315583052573
 31
0.0
  0
LINE
  5
AE
  8
TEXT_LAYER$TXT_03
 10
-1.559753226021731
 20
43.29315583052573
 30
0.0
 11
-1.57111520260125
 21
43.28505296800378
 31
0.0
  0
LINE
  5
AF
  8
TEXT_LAYER$TXT_03
 10
-1.57111520260125
 20
43.28505296800378
 30
0.0
 11
-1.582289375296116
 21
43.27676230958077
 31
0.0
  0
LINE
  5
B0
  8
TEXT_LAYER$TXT_03
 10
-1.582289375296116
 20
43.27676230958077
 30
0.0
 11
-1.593275744194361
 21
43.26828385505961
 31
0.0
  0
LINE
  5
B1
  8
TEXT_LAYER$TXT_03
 10
-1.593275744194361
 20
43.26828385505961
 30
0.0
 11
-1.604074309384016
 21
43.2596176042432
 31
0.0
  0
LINE
  5
B2
  8
TEXT_LAYER$TXT_03
 10
-1.604074309384016
 20
43.2596176042432
 30
0.0
 11
-1.614685070953113
 21
43.25076355693445
 31
0.0
  0
LINE
  5
B3
  8
TEXT_LAYER$TXT_03
 10
-1.614685070953113
 20
43.25076355693445
 30
0.0
 11
-1.625108028989682
 21
43.24172171293625
 31
0.0
  0
LINE
  5
B4
  8
TEXT_LAYER$TXT_03
 10
-1.625108028989682
 20
43.24172171293625
 30
0.0
 11
-1.635343183581756
 21
43.23249207205151
 31
0.0
  0
LINE
  5
B5
  8
TEXT_LAYER$TXT_03
 10
-1.635343183581756
 20
43.23249207205151
 30
0.0
 11
-1.645390534817366
 21
43.22307463408313
 31
0.0
  0
LINE
  5
B6
  8
TEXT_LAYER$TXT_03
 10
-1.645390534817366
 20
43.22307463408313
 30
0.0
 11
-1.655250082784543
 21
43.21346939883404
 31
0.0
  0
LINE
  5
B7
  8
TEXT_LAYER$TXT_03
 10
-1.655250082784543
 20
43.21346939883404
 30
0.0
 11
-1.664921827571319
 21
43.20367636610709
 31
0.0
  0
LINE
  5
B8
  8
TEXT_LAYER$TXT_03
 10
-1.664921827571319
 20
43.20367636610709
 30
0.0
 11
-1.674405769265725
 21
43.19369553570522
 31
0.0
  0
LINE
  5
B9
  8
TEXT_LAYER$TXT_03
 10
-1.674405769265725
 20
43.19369553570522
 30
0.0
 11
-1.683701907955793
 21
43.18352690743133
 31
0.0
  0
LINE
  5
BA
  8
TEXT_LAYER$TXT_03
 10
-1.683701907955793
 20
43.18352690743133
 30
0.0
 11
-1.692810243729555
 21
43.17317048108832
 31
0.0
  0
LINE
  5
BB
  8
TEXT_LAYER$TXT_03
 10
-1.692810243729555
 20
43.17317048108832
 30
0.0
 11
-1.701730776675041
 21
43.16262625647909
 31
0.0
  0
LINE
  5
BC
  8
TEXT_LAYER$TXT_03
 10
-1.701730776675041
 20
43.16262625647909
 30
0.0
 11
-1.710463506880283
 21
43.15189423340654
 31
0.0
  0
LINE
  5
BD
  8
TEXT_LAYER$TXT_03
 10
-1.710463506880283
 20
43.15189423340654
 30
0.0
 11
-1.719008434433314
 21
43.14097441167358
 31
0.0
  0
LINE
  5
BE
  8
TEXT_LAYER$TXT_03
 10
-1.719008434433314
 20
43.14097441167358
 30
0.0
 11
-1.727365559422163
 21
43.1298667910831
 31
0.0
  0
LINE
  5
BF
  8
TEXT_LAYER$TXT_03
 10
-1.727365559422163
 20
43.1298667910831
 30
0.0
 11
-1.735534881934863
 21
43.11857137143802
 31
0.0
  0
LINE
  5
C0
  8
TEXT_LAYER$TXT_03
 10
-1.735534881934863
 20
43.11857137143802
 30
0.0
 11
-1.743516402059445
 21
43.10708815254123
 31
0.0
  0
LINE
  5
C1
  8
TEXT_LAYER$TXT_03
 10
-1.743516402059445
 20
43.10708815254123
 30
0.0
 11
-1.751310119883941
 21
43.09541713419564
 31
0.0
  0
LINE
  5
C2
  8
TEXT_LAYER$TXT_03
 10
-1.751310119883941
 20
43.09541713419564
 30
0.0
 11
-1.758916035496382
 21
43.08355831620415
 31
0.0
  0
LINE
  5
C3
  8
TEXT_LAYER$TXT_03
 10
-1.758916035496382
 20
43.08355831620415
 30
0.0
 11
-1.7663341489848
 21
43.07151169836968
 31
0.0
  0
LINE
  5
C4
  8
TEXT_LAYER$TXT_03
 10
-1.7663341489848
 20
43.07151169836968
 30
0.0
 11
-1.773564460437225
 21
43.0592772804951
 31
0.0
  0
LINE
  5
C5
  8
TEXT_LAYER$TXT_03
 10
-1.773564460437225
 20
43.0592772804951
 30
0.0
 11
-1.78060696994169
 21
43.04685506238333
 31
0.0
  0
LINE
  5
C6
  8
TEXT_LAYER$TXT_03
 10
-1.78060696994169
 20
43.04685506238333
 30
0.0
 11
-1.787461677586226
 21
43.03424504383729
 31
0.0
  0
LINE
  5
C7
  8
TEXT_LAYER$TXT_03
 10
-1.787461677586226
 20
43.03424504383729
 30
0.0
 11
-1.794128583458865
 21
43.02144722465985
 31
0.0
  0
LINE
  5
C8
  8
TEXT_LAYER$TXT_03
 10
-1.794128583458865
 20
43.02144722465985
 30
0.0
 11
-1.800607687647637
 21
43.00846160465393
 31
0.0
  0
LINE
  5
C9
  8
TEXT_LAYER$TXT_03
 10
-1.800607687647637
 20
43.00846160465393
 30
0.0
 11
-1.813002491325709
 21
42.98192696136827
 31
0.0
  0
LINE
  5
CA
  8
TEXT_LAYER$TXT_03
 10
-1.813002491325709
 20
42.98192696136827
 30
0.0
 11
-1.824646089324695
 21
42.95464111240353
 31
0.0
  0
LINE
  5
CB
  8
TEXT_LAYER$TXT_03
 10
-1.824646089324695
 20
42.95464111240353
 30
0.0
 11
-1.835538482348847
 21
42.92660405618292
 31
0.0
  0
LINE
  5
CC
  8
TEXT_LAYER$TXT_03
 10
-1.835538482348847
 20
42.92660405618292
 30
0.0
 11
-1.845679671102415
 21
42.89781579112967
 31
0.0
  0
LINE
  5
CD
  8
TEXT_LAYER$TXT_03
 10
-1.845679671102415
 20
42.89781579112967
 30
0.0
 11
-1.855069656289653
 21
42.86827631566701
 31
0.0
  0
LINE
  5
CE
  8
TEXT_LAYER$TXT_03
 10
-1.855069656289653
 20
42.86827631566701
 30
0.0
 11
-1.863708438614811
 21
42.83798562821816
 31
0.0
  0
LINE
  5
CF
  8
TEXT_LAYER$TXT_03
 10
-1.863708438614811
 20
42.83798562821816
 30
0.0
 11
-1.871596018782141
 21
42.80694372720634
 31
0.0
  0
LINE
  5
D0
  8
TEXT_LAYER$TXT_03
 10
-1.871596018782141
 20
42.80694372720634
 30
0.0
 11
-1.878732397495896
 21
42.77515061105477
 31
0.0
  0
LINE
  5
D1
  8
TEXT_LAYER$TXT_03
 10
-1.878732397495896
 20
42.77515061105477
 30
0.0
 11
-1.885117575460326
 21
42.74260627818668
 31
0.0
  0
LINE
  5
D2
  8
TEXT_LAYER$TXT_03
 10
-1.885117575460326
 20
42.74260627818668
 30
0.0
 11
-1.890751553379685
 21
42.7093107270253
 31
0.0
  0
LINE
  5
D3
  8
TEXT_LAYER$TXT_03
 10
-1.890751553379685
 20
42.7093107270253
 30
0.0
 11
-1.895634331958223
 21
42.67526395599386
 31
0.0
  0
LINE
  5
D4
  8
TEXT_LAYER$TXT_03
 10
-1.895634331958223
 20
42.67526395599386
 30
0.0
 11
-1.899765911900193
 21
42.64046596351555
 31
0.0
  0
LINE
  5
D5
  8
TEXT_LAYER$TXT_03
 10
-1.899765911900193
 20
42.64046596351555
 30
0.0
 11
-1.903146293909846
 21
42.60491674801363
 31
0.0
  0
LINE
  5
D6
  8
TEXT_LAYER$TXT_03
 10
-1.903146293909846
 20
42.60491674801363
 30
0.0
 11
-1.905775478691434
 21
42.5686163079113
 31
0.0
  0
LINE
  5
D7
  8
TEXT_LAYER$TXT_03
 10
-1.905775478691434
 20
42.5686163079113
 30
0.0
 11
-1.907653466949209
 21
42.5315646416318
 31
0.0
  0
LINE
  5
D8
  8
TEXT_LAYER$TXT_03
 10
-1.907653466949209
 20
42.5315646416318
 30
0.0
 11
-1.908780259387423
 21
42.49376174759835
 31
0.0
  0
LINE
  5
D9
  8
TEXT_LAYER$TXT_03
 10
-1.908780259387423
 20
42.49376174759835
 30
0.0
 11
-1.909155856710327
 21
42.45520762423417
 31
0.0
  0
LINE
  5
DA
  8
TEXT_LAYER$TXT_03
 10
-1.909155856710327
 20
42.45520762423417
 30
0.0
 11
-1.908145399879841
 21
42.39553667510715
 31
0.0
  0
LINE
  5
DB
  8
TEXT_LAYER$TXT_03
 10
-1.908145399879841
 20
42.39553667510715
 30
0.0
 11
-1.906882328131249
 21
42.36625964947538
 31
0.0
  0
LINE
  5
DC
  8
TEXT_LAYER$TXT_03
 10
-1.906882328131249
 20
42.36625964947538
 30
0.0
 11
-1.905114026862216
 21
42.33735492123681
 31
0.0
  0
LINE
  5
DD
  8
TEXT_LAYER$TXT_03
 10
-1.905114026862216
 20
42.33735492123681
 30
0.0
 11
-1.902840495599087
 21
42.30882248897046
 31
0.0
  0
LINE
  5
DE
  8
TEXT_LAYER$TXT_03
 10
-1.902840495599087
 20
42.30882248897046
 30
0.0
 11
-1.900061733868204
 21
42.28066235125537
 31
0.0
  0
LINE
  5
DF
  8
TEXT_LAYER$TXT_03
 10
-1.900061733868204
 20
42.28066235125537
 30
0.0
 11
-1.896777741195913
 21
42.25287450667058
 31
0.0
  0
LINE
  5
E0
  8
TEXT_LAYER$TXT_03
 10
-1.896777741195913
 20
42.25287450667058
 30
0.0
 11
-1.892988517108557
 21
42.2254589537951
 31
0.0
  0
LINE
  5
E1
  8
TEXT_LAYER$TXT_03
 10
-1.892988517108557
 20
42.2254589537951
 30
0.0
 11
-1.88869406113248
 21
42.19841569120798
 31
0.0
  0
LINE
  5
E2
  8
TEXT_LAYER$TXT_03
 10
-1.88869406113248
 20
42.19841569120798
 30
0.0
 11
-1.883894372794025
 21
42.17174471748825
 31
0.0
  0
LINE
  5
E3
  8
TEXT_LAYER$TXT_03
 10
-1.883894372794025
 20
42.17174471748825
 30
0.0
 11
-1.878589451619537
 21
42.14544603121493
 31
0.0
  0
LINE
  5
E4
  8
TEXT_LAYER$TXT_03
 10
-1.878589451619537
 20
42.14544603121493
 30
0.0
 11
-1.87277929713536
 21
42.11951963096706
 31
0.0
  0
LINE
  5
E5
  8
TEXT_LAYER$TXT_03
 10
-1.87277929713536
 20
42.11951963096706
 30
0.0
 11
-1.866463908867838
 21
42.09396551532368
 31
0.0
  0
LINE
  5
E6
  8
TEXT_LAYER$TXT_03
 10
-1.866463908867838
 20
42.09396551532368
 30
0.0
 11
-1.859643286343314
 21
42.06878368286382
 31
0.0
  0
LINE
  5
E7
  8
TEXT_LAYER$TXT_03
 10
-1.859643286343314
 20
42.06878368286382
 30
0.0
 11
-1.852317429088132
 21
42.0439741321665
 31
0.0
  0
LINE
  5
E8
  8
TEXT_LAYER$TXT_03
 10
-1.852317429088132
 20
42.0439741321665
 30
0.0
 11
-1.844486336628637
 21
42.01953686181076
 31
0.0
  0
LINE
  5
E9
  8
TEXT_LAYER$TXT_03
 10
-1.844486336628637
 20
42.01953686181076
 30
0.0
 11
-1.836150008491173
 21
41.99547187037562
 31
0.0
  0
LINE
  5
EA
  8
TEXT_LAYER$TXT_03
 10
-1.836150008491173
 20
41.99547187037562
 30
0.0
 11
-1.827308444202082
 21
41.97177915644014
 31
0.0
  0
LINE
  5
EB
  8
TEXT_LAYER$TXT_03
 10
-1.827308444202082
 20
41.97177915644014
 30
0.0
 11
-1.817961643287709
 21
41.94845871858331
 31
0.0
  0
LINE
  5
EC
  8
TEXT_LAYER$TXT_03
 10
-1.817961643287709
 20
41.94845871858331
 30
0.0
 11
-1.808109605274399
 21
41.92551055538419
 31
0.0
  0
LINE
  5
ED
  8
TEXT_LAYER$TXT_03
 10
-1.808109605274399
 20
41.92551055538419
 30
0.0
 11
-1.797752329688495
 21
41.90293466542181
 31
0.0
  0
LINE
  5
EE
  8
TEXT_LAYER$TXT_03
 10
-1.797752329688495
 20
41.90293466542181
 30
0.0
 11
-1.78688981605634
 21
41.8807310472752
 31
0.0
  0
LINE
  5
EF
  8
TEXT_LAYER$TXT_03
 10
-1.78688981605634
 20
41.8807310472752
 30
0.0
 11
-1.77552206390428
 21
41.85889969952338
 31
0.0
  0
LINE
  5
F0
  8
TEXT_LAYER$TXT_03
 10
-1.77552206390428
 20
41.85889969952338
 30
0.0
 11
-1.763649072758657
 21
41.8374406207454
 31
0.0
  0
LINE
  5
F1
  8
TEXT_LAYER$TXT_03
 10
-1.763649072758657
 20
41.8374406207454
 30
0.0
 11
-1.751270842145816
 21
41.81635380952029
 31
0.0
  0
LINE
  5
F2
  8
TEXT_LAYER$TXT_03
 10
-1.751270842145816
 20
41.81635380952029
 30
0.0
 11
-1.7383873715921
 21
41.79563926442707
 31
0.0
  0
LINE
  5
F3
  8
TEXT_LAYER$TXT_03
 10
-1.7383873715921
 20
41.79563926442707
 30
0.0
 11
-1.724998660623854
 21
41.77529698404477
 31
0.0
  0
LINE
  5
F4
  8
TEXT_LAYER$TXT_03
 10
-1.724998660623854
 20
41.77529698404477
 30
0.0
 11
-1.711104708767421
 21
41.75532696695243
 31
0.0
  0
LINE
  5
F5
  8
TEXT_LAYER$TXT_03
 10
-1.711104708767421
 20
41.75532696695243
 30
0.0
 11
-1.696705515549146
 21
41.73572921172908
 31
0.0
  0
LINE
  5
F6
  8
TEXT_LAYER$TXT_03
 10
-1.696705515549146
 20
41.73572921172908
 30
0.0
 11
-1.681801080495372
 21
41.71650371695376
 31
0.0
  0
LINE
  5
F7
  8
TEXT_LAYER$TXT_03
 10
-1.681801080495372
 20
41.71650371695376
 30
0.0
 11
-1.666391403132443
 21
41.69765048120549
 31
0.0
  0
LINE
  5
F8
  8
TEXT_LAYER$TXT_03
 10
-1.666391403132443
 20
41.69765048120549
 30
0.0
 11
-1.650476482986704
 21
41.67916950306331
 31
0.0
  0
LINE
  5
F9
  8
TEXT_LAYER$TXT_03
 10
-1.650476482986704
 20
41.67916950306331
 30
0.0
 11
-1.634162698427261
 21
41.66116051447734
 31
0.0
  0
LINE
  5
FA
  8
TEXT_LAYER$TXT_03
 10
-1.634162698427261
 20
41.66116051447734
 30
0.0
 11
-1.617556427324636
 21
41.64372324798771
 31
0.0
  0
LINE
  5
FB
  8
TEXT_LAYER$TXT_03
 10
-1.617556427324636
 20
41.64372324798771
 30
0.0
 11
-1.600657668457296
 21
41.62685770305843
 31
0.0
  0
LINE
  5
FC
  8
TEXT_LAYER$TXT_03
 10
-1.600657668457296
 20
41.62685770305843
 30
0.0
 11
-1.583466420603706
 21
41.61056387915355
 31
0.0
  0
LINE
  5
FD
  8
TEXT_LAYER$TXT_03
 10
-1.583466420603706
 20
41.61056387915355
 30
0.0
 11
-1.565982682542332
 21
41.59484177573705
 31
0.0
  0
LINE
  5
FE
  8
TEXT_LAYER$TXT_03
 10
-1.565982682542332
 20
41.59484177573705
 30
0.0
 11
-1.54820645305164
 21
41.57969139227298
 31
0.0
  0
LINE
  5
FF
  8
TEXT_LAYER$TXT_03
 10
-1.54820645305164
 20
41.57969139227298
 30
0.0
 11
-1.530137730910096
 21
41.56511272822536
 31
0.0
  0
LINE
  5
100
  8
TEXT_LAYER$TXT_03
 10
-1.530137730910096
 20
41.56511272822536
 30
0.0
 11
-1.511776514896166
 21
41.5511057830582
 31
0.0
  0
LINE
  5
101
  8
TEXT_LAYER$TXT_03
 10
-1.511776514896166
 20
41.5511057830582
 30
0.0
 11
-1.493122803788316
 21
41.53767055623553
 31
0.0
  0
LINE
  5
102
  8
TEXT_LAYER$TXT_03
 10
-1.493122803788316
 20
41.53767055623553
 30
0.0
 11
-1.474176596365012
 21
41.52480704722134
 31
0.0
  0
LINE
  5
103
  8
TEXT_LAYER$TXT_03
 10
-1.474176596365012
 20
41.52480704722134
 30
0.0
 11
-1.454937891404719
 21
41.5125152554797
 31
0.0
  0
LINE
  5
104
  8
TEXT_LAYER$TXT_03
 10
-1.454937891404719
 20
41.5125152554797
 30
0.0
 11
-1.435406687685904
 21
41.5007951804746
 31
0.0
  0
LINE
  5
105
  8
TEXT_LAYER$TXT_03
 10
-1.435406687685904
 20
41.5007951804746
 30
0.0
 11
-1.415582983987032
 21
41.48964682167006
 31
0.0
  0
LINE
  5
106
  8
TEXT_LAYER$TXT_03
 10
-1.415582983987032
 20
41.48964682167006
 30
0.0
 11
-1.395466779086569
 21
41.47907017853012
 31
0.0
  0
LINE
  5
107
  8
TEXT_LAYER$TXT_03
 10
-1.395466779086569
 20
41.47907017853012
 30
0.0
 11
-1.375058071762982
 21
41.46906525051877
 31
0.0
  0
LINE
  5
108
  8
TEXT_LAYER$TXT_03
 10
-1.375058071762982
 20
41.46906525051877
 30
0.0
 11
-1.354356860794736
 21
41.45963203710006
 31
0.0
  0
LINE
  5
109
  8
TEXT_LAYER$TXT_03
 10
-1.354356860794736
 20
41.45963203710006
 30
0.0
 11
-1.333363144960296
 21
41.45077053773801
 31
0.0
  0
LINE
  5
10A
  8
TEXT_LAYER$TXT_03
 10
-1.333363144960296
 20
41.45077053773801
 30
0.0
 11
-1.31207692303813
 21
41.44248075189662
 31
0.0
  0
LINE
  5
10B
  8
TEXT_LAYER$TXT_03
 10
-1.31207692303813
 20
41.44248075189662
 30
0.0
 11
-1.290498193806702
 21
41.43476267903992
 31
0.0
  0
LINE
  5
10C
  8
TEXT_LAYER$TXT_03
 10
-1.290498193806702
 20
41.43476267903992
 30
0.0
 11
-1.268626956044479
 21
41.42761631863193
 31
0.0
  0
LINE
  5
10D
  8
TEXT_LAYER$TXT_03
 10
-1.268626956044479
 20
41.42761631863193
 30
0.0
 11
-1.246463208529927
 21
41.42104167013669
 31
0.0
  0
LINE
  5
10E
  8
TEXT_LAYER$TXT_03
 10
-1.246463208529927
 20
41.42104167013669
 30
0.0
 11
-1.224006950041512
 21
41.41503873301818
 31
0.0
  0
LINE
  5
10F
  8
TEXT_LAYER$TXT_03
 10
-1.224006950041512
 20
41.41503873301818
 30
0.0
 11
-1.201258179357698
 21
41.40960750674046
 31
0.0
  0
LINE
  5
110
  8
TEXT_LAYER$TXT_03
 10
-1.201258179357698
 20
41.40960750674046
 30
0.0
 11
-1.178216895256953
 21
41.40474799076753
 31
0.0
  0
LINE
  5
111
  8
TEXT_LAYER$TXT_03
 10
-1.178216895256953
 20
41.40474799076753
 30
0.0
 11
-1.154883096517743
 21
41.40046018456341
 31
0.0
  0
LINE
  5
112
  8
TEXT_LAYER$TXT_03
 10
-1.154883096517743
 20
41.40046018456341
 30
0.0
 11
-1.131256781918532
 21
41.39674408759213
 31
0.0
  0
LINE
  5
113
  8
TEXT_LAYER$TXT_03
 10
-1.131256781918532
 20
41.39674408759213
 30
0.0
 11
-1.107337950237787
 21
41.39359969931771
 31
0.0
  0
LINE
  5
114
  8
TEXT_LAYER$TXT_03
 10
-1.107337950237787
 20
41.39359969931771
 30
0.0
 11
-1.083126600253975
 21
41.39102701920417
 31
0.0
  0
LINE
  5
115
  8
TEXT_LAYER$TXT_03
 10
-1.083126600253975
 20
41.39102701920417
 30
0.0
 11
-1.05862273074556
 21
41.38902604671553
 31
0.0
  0
LINE
  5
116
  8
TEXT_LAYER$TXT_03
 10
-1.05862273074556
 20
41.38902604671553
 30
0.0
 11
-1.033826340491009
 21
41.38759678131581
 31
0.0
  0
LINE
  5
117
  8
TEXT_LAYER$TXT_03
 10
-1.033826340491009
 20
41.38759678131581
 30
0.0
 11
-1.008737428268788
 21
41.38673922246902
 31
0.0
  0
LINE
  5
118
  8
TEXT_LAYER$TXT_03
 10
-1.008737428268788
 20
41.38673922246902
 30
0.0
 11
-0.9833559928573616
 21
41.38645336963921
 31
0.0
  0
LINE
  5
119
  8
TEXT_LAYER$TXT_03
 10
-0.9833559928573616
 20
41.38645336963921
 30
0.0
 11
-0.9521676716052359
 21
41.38675417988454
 31
0.0
  0
LINE
  5
11A
  8
TEXT_LAYER$TXT_03
 10
-0.9521676716052359
 20
41.38675417988454
 30
0.0
 11
-0.921571027274708
 21
41.38765661099656
 31
0.0
  0
LINE
  5
11B
  8
TEXT_LAYER$TXT_03
 10
-0.921571027274708
 20
41.38765661099656
 30
0.0
 11
-0.8915660585756883
 21
41.38916066353929
 31
0.0
  0
LINE
  5
11C
  8
TEXT_LAYER$TXT_03
 10
-0.8915660585756883
 20
41.38916066353929
 30
0.0
 11
-0.8621527642180872
 21
41.39126633807675
 31
0.0
  0
LINE
  5
11D
  8
TEXT_LAYER$TXT_03
 10
-0.8621527642180872
 20
41.39126633807675
 30
0.0
 11
-0.8333311429118151
 21
41.39397363517297
 31
0.0
  0
LINE
  5
11E
  8
TEXT_LAYER$TXT_03
 10
-0.8333311429118151
 20
41.39397363517297
 30
0.0
 11
-0.8051011933667827
 21
41.39728255539198
 31
0.0
  0
LINE
  5
11F
  8
TEXT_LAYER$TXT_03
 10
-0.8051011933667827
 20
41.39728255539198
 30
0.0
 11
-0.7774629142928999
 21
41.40119309929781
 31
0.0
  0
LINE
  5
120
  8
TEXT_LAYER$TXT_03
 10
-0.7774629142928999
 20
41.40119309929781
 30
0.0
 11
-0.7504163044000776
 21
41.40570526745447
 31
0.0
  0
LINE
  5
121
  8
TEXT_LAYER$TXT_03
 10
-0.7504163044000776
 20
41.40570526745447
 30
0.0
 11
-0.723961362398226
 21
41.41081906042598
 31
0.0
  0
LINE
  5
122
  8
TEXT_LAYER$TXT_03
 10
-0.723961362398226
 20
41.41081906042598
 30
0.0
 11
-0.6980980869972553
 21
41.41653447877637
 31
0.0
  0
LINE
  5
123
  8
TEXT_LAYER$TXT_03
 10
-0.6980980869972553
 20
41.41653447877637
 30
0.0
 11
-0.6728264769070764
 21
41.42285152306968
 31
0.0
  0
LINE
  5
124
  8
TEXT_LAYER$TXT_03
 10
-0.6728264769070764
 20
41.42285152306968
 30
0.0
 11
-0.6481465308375992
 21
41.42977019386991
 31
0.0
  0
LINE
  5
125
  8
TEXT_LAYER$TXT_03
 10
-0.6481465308375992
 20
41.42977019386991
 30
0.0
 11
-0.6240582474987344
 21
41.43729049174111
 31
0.0
  0
LINE
  5
126
  8
TEXT_LAYER$TXT_03
 10
-0.6240582474987344
 20
41.43729049174111
 30
0.0
 11
-0.6005616256003925
 21
41.44541241724728
 31
0.0
  0
LINE
  5
127
  8
TEXT_LAYER$TXT_03
 10
-0.6005616256003925
 20
41.44541241724728
 30
0.0
 11
-0.5776566638524837
 21
41.45413597095247
 31
0.0
  0
LINE
  5
128
  8
TEXT_LAYER$TXT_03
 10
-0.5776566638524837
 20
41.45413597095247
 30
0.0
 11
-0.5553433609649185
 21
41.46346115342069
 31
0.0
  0
LINE
  5
129
  8
TEXT_LAYER$TXT_03
 10
-0.5553433609649185
 20
41.46346115342069
 30
0.0
 11
-0.5336217156476073
 21
41.47338796521596
 31
0.0
  0
LINE
  5
12A
  8
TEXT_LAYER$TXT_03
 10
-0.5336217156476073
 20
41.47338796521596
 30
0.0
 11
-0.5124917266104605
 21
41.48391640690231
 31
0.0
  0
LINE
  5
12B
  8
TEXT_LAYER$TXT_03
 10
-0.5124917266104605
 20
41.48391640690231
 30
0.0
 11
-0.4919533925633887
 21
41.49504647904377
 31
0.0
  0
LINE
  5
12C
  8
TEXT_LAYER$TXT_03
 10
-0.4919533925633887
 20
41.49504647904377
 30
0.0
 11
-0.4819060957579777
 21
41.50083712671142
 31
0.0
  0
LINE
  5
12D
  8
TEXT_LAYER$TXT_03
 10
-0.4819060957579777
 20
41.50083712671142
 30
0.0
 11
-0.472006712216302
 21
41.50677818220436
 31
0.0
  0
LINE
  5
12E
  8
TEXT_LAYER$TXT_03
 10
-0.472006712216302
 20
41.50677818220436
 30
0.0
 11
-0.4622552417771001
 21
41.51286964559309
 31
0.0
  0
LINE
  5
12F
  8
TEXT_LAYER$TXT_03
 10
-0.4622552417771001
 20
41.51286964559309
 30
0.0
 11
-0.452651684279111
 21
41.5191115169481
 31
0.0
  0
LINE
  5
130
  8
TEXT_LAYER$TXT_03
 10
-0.452651684279111
 20
41.5191115169481
 30
0.0
 11
-0.4431960395610733
 21
41.52550379633991
 31
0.0
  0
LINE
  5
131
  8
TEXT_LAYER$TXT_03
 10
-0.4431960395610733
 20
41.52550379633991
 30
0.0
 11
-0.433888307461726
 21
41.53204648383903
 31
0.0
  0
LINE
  5
132
  8
TEXT_LAYER$TXT_03
 10
-0.433888307461726
 20
41.53204648383903
 30
0.0
 11
-0.4247284878198078
 21
41.53873957951593
 31
0.0
  0
LINE
  5
133
  8
TEXT_LAYER$TXT_03
 10
-0.4247284878198078
 20
41.53873957951593
 30
0.0
 11
-0.4157165804740575
 21
41.54558308344114
 31
0.0
  0
LINE
  5
134
  8
TEXT_LAYER$TXT_03
 10
-0.4157165804740575
 20
41.54558308344114
 30
0.0
 11
-0.4068525852632139
 21
41.55257699568516
 31
0.0
  0
LINE
  5
135
  8
TEXT_LAYER$TXT_03
 10
-0.4068525852632139
 20
41.55257699568516
 30
0.0
 11
-0.3981365020260159
 21
41.55972131631849
 31
0.0
  0
LINE
  5
136
  8
TEXT_LAYER$TXT_03
 10
-0.3981365020260159
 20
41.55972131631849
 30
0.0
 11
-0.3895683306012022
 21
41.56701604541164
 31
0.0
  0
LINE
  5
137
  8
TEXT_LAYER$TXT_03
 10
-0.3895683306012022
 20
41.56701604541164
 30
0.0
 11
-0.3811480708275117
 21
41.5744611830351
 31
0.0
  0
LINE
  5
138
  8
TEXT_LAYER$TXT_03
 10
-0.3811480708275117
 20
41.5744611830351
 30
0.0
 11
-0.372875722543683
 21
41.58205672925938
 31
0.0
  0
LINE
  5
139
  8
TEXT_LAYER$TXT_03
 10
-0.372875722543683
 20
41.58205672925938
 30
0.0
 11
-0.3647512855884551
 21
41.58980268415499
 31
0.0
  0
LINE
  5
13A
  8
TEXT_LAYER$TXT_03
 10
-0.3647512855884551
 20
41.58980268415499
 30
0.0
 11
-0.3567747598005667
 21
41.59769904779242
 31
0.0
  0
LINE
  5
13B
  8
TEXT_LAYER$TXT_03
 10
-0.3567747598005667
 20
41.59769904779242
 30
0.0
 11
-0.3489461450187566
 21
41.60574582024218
 31
0.0
  0
LINE
  5
13C
  8
TEXT_LAYER$TXT_03
 10
-0.3489461450187566
 20
41.60574582024218
 30
0.0
 11
-0.3412654410817637
 21
41.61394300157477
 31
0.0
  0
LINE
  5
13D
  8
TEXT_LAYER$TXT_03
 10
-0.3412654410817637
 20
41.61394300157477
 30
0.0
 11
-0.3337326478283268
 21
41.62229059186069
 31
0.0
  0
LINE
  5
13E
  8
TEXT_LAYER$TXT_03
 10
-0.3337326478283268
 20
41.62229059186069
 30
0.0
 11
-0.3263477650971846
 21
41.63078859117046
 31
0.0
  0
LINE
  5
13F
  8
TEXT_LAYER$TXT_03
 10
-0.3263477650971846
 20
41.63078859117046
 30
0.0
 11
-0.3191107927270759
 21
41.63943699957456
 31
0.0
  0
LINE
  5
140
  8
TEXT_LAYER$TXT_03
 10
-0.3191107927270759
 20
41.63943699957456
 30
0.0
 11
-0.3120217305567395
 21
41.6482358171435
 31
0.0
  0
LINE
  5
141
  8
TEXT_LAYER$TXT_03
 10
-0.3120217305567395
 20
41.6482358171435
 30
0.0
 11
-0.3050805784249143
 21
41.6571850439478
 31
0.0
  0
LINE
  5
142
  8
TEXT_LAYER$TXT_03
 10
-0.3050805784249143
 20
41.6571850439478
 30
0.0
 11
-0.2982873361703391
 21
41.66628468005794
 31
0.0
  0
LINE
  5
143
  8
TEXT_LAYER$TXT_03
 10
-0.2982873361703391
 20
41.66628468005794
 30
0.0
 11
-0.2916420036317526
 21
41.67553472554444
 31
0.0
  0
LINE
  5
144
  8
TEXT_LAYER$TXT_03
 10
-0.2916420036317526
 20
41.67553472554444
 30
0.0
 11
-0.2851445806478936
 21
41.6849351804778
 31
0.0
  0
LINE
  5
145
  8
TEXT_LAYER$TXT_03
 10
-0.2851445806478936
 20
41.6849351804778
 30
0.0
 11
-0.278795067057501
 21
41.69448604492852
 31
0.0
  0
LINE
  5
146
  8
TEXT_LAYER$TXT_03
 10
-0.278795067057501
 20
41.69448604492852
 30
0.0
 11
-0.2664400632601505
 21
41.71397250740098
 31
0.0
  0
LINE
  5
147
  8
TEXT_LAYER$TXT_03
 10
-0.2664400632601505
 20
41.71397250740098
 30
0.0
 11
-0.2544772874126136
 21
41.73392761893172
 31
0.0
  0
LINE
  5
148
  8
TEXT_LAYER$TXT_03
 10
-0.2544772874126136
 20
41.73392761893172
 30
0.0
 11
-0.2429067391471837
 21
41.75435138108816
 31
0.0
  0
LINE
  5
149
  8
TEXT_LAYER$TXT_03
 10
-0.2429067391471837
 20
41.75435138108816
 30
0.0
 11
-0.2317284180961541
 21
41.77524379543774
 31
0.0
  0
LINE
  5
14A
  8
TEXT_LAYER$TXT_03
 10
-0.2317284180961541
 20
41.77524379543774
 30
0.0
 11
-0.2209423238918182
 21
41.79660486354788
 31
0.0
  0
LINE
  5
14B
  8
TEXT_LAYER$TXT_03
 10
-0.2209423238918182
 20
41.79660486354788
 30
0.0
 11
-0.2105484561664692
 21
41.81843458698602
 31
0.0
  0
LINE
  5
14C
  8
TEXT_LAYER$TXT_03
 10
-0.2105484561664692
 20
41.81843458698602
 30
0.0
 11
-0.2005468145524005
 21
41.84073296731958
 31
0.0
  0
LINE
  5
14D
  8
TEXT_LAYER$TXT_03
 10
-0.2005468145524005
 20
41.84073296731958
 30
0.0
 11
-0.1909373986819053
 21
41.86350000611598
 31
0.0
  0
LINE
  5
14E
  8
TEXT_LAYER$TXT_03
 10
-0.1909373986819053
 20
41.86350000611598
 30
0.0
 11
-0.181720208187277
 21
41.88673570494265
 31
0.0
  0
LINE
  5
14F
  8
TEXT_LAYER$TXT_03
 10
-0.181720208187277
 20
41.88673570494265
 30
0.0
 11
-0.1728952427008088
 21
41.91044006536703
 31
0.0
  0
LINE
  5
150
  8
TEXT_LAYER$TXT_03
 10
-0.1728952427008088
 20
41.91044006536703
 30
0.0
 11
-0.1644625018547941
 21
41.93461308895654
 31
0.0
  0
LINE
  5
151
  8
TEXT_LAYER$TXT_03
 10
-0.1644625018547941
 20
41.93461308895654
 30
0.0
 11
-0.1564219852815262
 21
41.95925477727859
 31
0.0
  0
LINE
  5
152
  8
TEXT_LAYER$TXT_03
 10
-0.1564219852815262
 20
41.95925477727859
 30
0.0
 11
-0.1487736926132984
 21
41.98436513190065
 31
0.0
  0
LINE
  5
153
  8
TEXT_LAYER$TXT_03
 10
-0.1487736926132984
 20
41.98436513190065
 30
0.0
 11
-0.1415176234824039
 21
42.00994415439011
 31
0.0
  0
LINE
  5
154
  8
TEXT_LAYER$TXT_03
 10
-0.1415176234824039
 20
42.00994415439011
 30
0.0
 11
-0.1346537775211362
 21
42.03599184631441
 31
0.0
  0
LINE
  5
155
  8
TEXT_LAYER$TXT_03
 10
-0.1346537775211362
 20
42.03599184631441
 30
0.0
 11
-0.1281821543617885
 21
42.06250820924097
 31
0.0
  0
LINE
  5
156
  8
TEXT_LAYER$TXT_03
 10
-0.1281821543617885
 20
42.06250820924097
 30
0.0
 11
-0.1164155749780263
 21
42.11694695437063
 31
0.0
  0
LINE
  5
157
  8
TEXT_LAYER$TXT_03
 10
-0.1164155749780263
 20
42.11694695437063
 30
0.0
 11
-0.106217882389464
 21
42.17326040231849
 31
0.0
  0
LINE
  5
158
  8
TEXT_LAYER$TXT_03
 10
-0.106217882389464
 20
42.17326040231849
 30
0.0
 11
-0.0975890736544478
 21
42.23144856562396
 31
0.0
  0
LINE
  5
159
  8
TEXT_LAYER$TXT_03
 10
-0.0975890736544478
 20
42.23144856562396
 30
0.0
 11
-0.0905291458313243
 21
42.2915114568265
 31
0.0
  0
LINE
  5
15A
  8
TEXT_LAYER$TXT_03
 10
-0.0905291458313243
 20
42.2915114568265
 30
0.0
 11
-0.08503809597844
 21
42.3534490884655
 31
0.0
  0
LINE
  5
15B
  8
TEXT_LAYER$TXT_03
 10
-0.08503809597844
 20
42.3534490884655
 30
0.0
 11
-0.0811159211541413
 21
42.41726147308037
 31
0.0
  0
LINE
  5
15C
  8
TEXT_LAYER$TXT_03
 10
-0.0811159211541413
 20
42.41726147308037
 30
0.0
 11
-0.0787626184167746
 21
42.48294862321058
 31
0.0
  0
LINE
  5
15D
  8
TEXT_LAYER$TXT_03
 10
-0.0787626184167746
 20
42.48294862321058
 30
0.0
 11
-0.0779781848246865
 21
42.5505105513955
 31
0.0
  0
LINE
  5
15E
  8
TEXT_LAYER$TXT_03
 10
-0.0779781848246865
 20
42.5505105513955
 30
0.0
 11
-0.0796800228097108
 21
42.67474472430224
 31
0.0
  0
LINE
  5
15F
  8
TEXT_LAYER$TXT_03
 10
-0.0796800228097108
 20
42.67474472430224
 30
0.0
 11
-0.0847855367647834
 21
42.80238257317903
 31
0.0
  0
LINE
  5
160
  8
TEXT_LAYER$TXT_03
 10
-0.0847855367647834
 20
42.80238257317903
 30
0.0
 11
0.4563989424727954
 21
42.80238257317903
 31
0.0
  0
LINE
  5
161
  8
TEXT_LAYER$TXT_03
 10
0.4563989424727954
 20
42.80238257317903
 30
0.0
 11
0.4478897440384846
 21
42.71473787865894
 31
0.0
  0
LINE
  5
162
  8
TEXT_LAYER$TXT_03
 10
0.4478897440384846
 20
42.71473787865894
 30
0.0
 11
0.4427842385926017
 21
42.64240980258679
 31
0.0
  0
LINE
  5
163
  8
TEXT_LAYER$TXT_03
 10
0.4427842385926017
 20
42.64240980258679
 30
0.0
 11
0.4402314773604705
 21
42.57518721494213
 31
0.0
  0
LINE
  5
164
  8
TEXT_LAYER$TXT_03
 10
0.4402314773604705
 20
42.57518721494213
 30
0.0
 11
0.4393805626225533
 21
42.50285908781483
 31
0.0
  0
LINE
  5
165
  8
TEXT_LAYER$TXT_03
 10
0.4393805626225533
 20
42.50285908781483
 30
0.0
 11
0.4398060181301265
 21
42.46036613988908
 31
0.0
  0
LINE
  5
166
  8
TEXT_LAYER$TXT_03
 10
0.4398060181301265
 20
42.46036613988908
 30
0.0
 11
0.4410823857164948
 21
42.41883053855194
 31
0.0
  0
LINE
  5
167
  8
TEXT_LAYER$TXT_03
 10
0.4410823857164948
 20
42.41883053855194
 30
0.0
 11
0.4432096669771313
 21
42.3782522755269
 31
0.0
  0
LINE
  5
168
  8
TEXT_LAYER$TXT_03
 10
0.4432096669771313
 20
42.3782522755269
 30
0.0
 11
0.4461878635075091
 21
42.33863134253744
 31
0.0
  0
LINE
  5
169
  8
TEXT_LAYER$TXT_03
 10
0.4461878635075091
 20
42.33863134253744
 30
0.0
 11
0.4500169769031014
 21
42.29996773130704
 31
0.0
  0
LINE
  5
16A
  8
TEXT_LAYER$TXT_03
 10
0.4500169769031014
 20
42.29996773130704
 30
0.0
 11
0.4546970087593811
 21
42.26226143355918
 31
0.0
  0
LINE
  5
16B
  8
TEXT_LAYER$TXT_03
 10
0.4546970087593811
 20
42.26226143355918
 30
0.0
 11
0.4602279606718217
 21
42.22551244101735
 31
0.0
  0
LINE
  5
16C
  8
TEXT_LAYER$TXT_03
 10
0.4602279606718217
 20
42.22551244101735
 30
0.0
 11
0.466609834235896
 21
42.18972074540504
 31
0.0
  0
LINE
  5
16D
  8
TEXT_LAYER$TXT_03
 10
0.466609834235896
 20
42.18972074540504
 30
0.0
 11
0.4738426310470772
 21
42.15488633844571
 31
0.0
  0
LINE
  5
16E
  8
TEXT_LAYER$TXT_03
 10
0.4738426310470772
 20
42.15488633844571
 30
0.0
 11
0.4819263527008385
 21
42.12100921186287
 31
0.0
  0
LINE
  5
16F
  8
TEXT_LAYER$TXT_03
 10
0.4819263527008385
 20
42.12100921186287
 30
0.0
 11
0.4908610007926529
 21
42.08808935737999
 31
0.0
  0
LINE
  5
170
  8
TEXT_LAYER$TXT_03
 10
0.4908610007926529
 20
42.08808935737999
 30
0.0
 11
0.5006465769179936
 21
42.05612676672055
 31
0.0
  0
LINE
  5
171
  8
TEXT_LAYER$TXT_03
 10
0.5006465769179936
 20
42.05612676672055
 30
0.0
 11
0.5112830826723337
 21
42.02512143160804
 31
0.0
  0
LINE
  5
172
  8
TEXT_LAYER$TXT_03
 10
0.5112830826723337
 20
42.02512143160804
 30
0.0
 11
0.5169204346589639
 21
42.00997773229548
 31
0.0
  0
LINE
  5
173
  8
TEXT_LAYER$TXT_03
 10
0.5169204346589639
 20
42.00997773229548
 30
0.0
 11
0.5227705196511463
 21
41.99507334376595
 31
0.0
  0
LINE
  5
174
  8
TEXT_LAYER$TXT_03
 10
0.5227705196511463
 20
41.99507334376595
 30
0.0
 11
0.5288333378483152
 21
41.9804082649849
 31
0.0
  0
LINE
  5
175
  8
TEXT_LAYER$TXT_03
 10
0.5288333378483152
 20
41.9804082649849
 30
0.0
 11
0.5351088894499045
 21
41.96598249491775
 31
0.0
  0
LINE
  5
176
  8
TEXT_LAYER$TXT_03
 10
0.5351088894499045
 20
41.96598249491775
 30
0.0
 11
0.5415971746553487
 21
41.95179603252994
 31
0.0
  0
LINE
  5
177
  8
TEXT_LAYER$TXT_03
 10
0.5415971746553487
 20
41.95179603252994
 30
0.0
 11
0.5482981936640816
 21
41.93784887678692
 31
0.0
  0
LINE
  5
178
  8
TEXT_LAYER$TXT_03
 10
0.5482981936640816
 20
41.93784887678692
 30
0.0
 11
0.5605036142258076
 21
41.91397649656831
 31
0.0
  0
LINE
  5
179
  8
TEXT_LAYER$TXT_03
 10
0.5605036142258076
 20
41.91397649656831
 30
0.0
 11
0.5732940258229691
 21
41.89086198052392
 31
0.0
  0
LINE
  5
17A
  8
TEXT_LAYER$TXT_03
 10
0.5732940258229691
 20
41.89086198052392
 30
0.0
 11
0.5866694297020294
 21
41.86850532794326
 31
0.0
  0
LINE
  5
17B
  8
TEXT_LAYER$TXT_03
 10
0.5866694297020294
 20
41.86850532794326
 30
0.0
 11
0.5935765041367913
 21
41.8576112002298
 31
0.0
  0
LINE
  5
17C
  8
TEXT_LAYER$TXT_03
 10
0.5935765041367913
 20
41.8576112002298
 30
0.0
 11
0.6006298271094519
 21
41.84690653811585
 31
0.0
  0
LINE
  5
17D
  8
TEXT_LAYER$TXT_03
 10
0.6006298271094519
 20
41.84690653811585
 30
0.0
 11
0.6078293987758188
 21
41.83639134151258
 31
0.0
  0
LINE
  5
17E
  8
TEXT_LAYER$TXT_03
 10
0.6078293987758188
 20
41.83639134151258
 30
0.0
 11
0.6151752192917
 21
41.8260656103312
 31
0.0
  0
LINE
  5
17F
  8
TEXT_LAYER$TXT_03
 10
0.6151752192917
 20
41.8260656103312
 30
0.0
 11
0.6226672888129035
 21
41.81592934448288
 31
0.0
  0
LINE
  5
180
  8
TEXT_LAYER$TXT_03
 10
0.6226672888129035
 20
41.81592934448288
 30
0.0
 11
0.6303056074952371
 21
41.80598254387883
 31
0.0
  0
LINE
  5
181
  8
TEXT_LAYER$TXT_03
 10
0.6303056074952371
 20
41.80598254387883
 30
0.0
 11
0.6380901754945087
 21
41.79622520843022
 31
0.0
  0
LINE
  5
182
  8
TEXT_LAYER$TXT_03
 10
0.6380901754945087
 20
41.79622520843022
 30
0.0
 11
0.6460209929665264
 21
41.78665733804826
 31
0.0
  0
LINE
  5
183
  8
TEXT_LAYER$TXT_03
 10
0.6460209929665264
 20
41.78665733804826
 30
0.0
 11
0.654098060067098
 21
41.77727893264412
 31
0.0
  0
LINE
  5
184
  8
TEXT_LAYER$TXT_03
 10
0.654098060067098
 20
41.77727893264412
 30
0.0
 11
0.6623213769520315
 21
41.76808999212899
 31
0.0
  0
LINE
  5
185
  8
TEXT_LAYER$TXT_03
 10
0.6623213769520315
 20
41.76808999212899
 30
0.0
 11
0.6706909437771347
 21
41.75909051641408
 31
0.0
  0
LINE
  5
186
  8
TEXT_LAYER$TXT_03
 10
0.6706909437771347
 20
41.75909051641408
 30
0.0
 11
0.6792067606982156
 21
41.75028050541056
 31
0.0
  0
LINE
  5
187
  8
TEXT_LAYER$TXT_03
 10
0.6792067606982156
 20
41.75028050541056
 30
0.0
 11
0.6878688278710821
 21
41.74165995902963
 31
0.0
  0
LINE
  5
188
  8
TEXT_LAYER$TXT_03
 10
0.6878688278710821
 20
41.74165995902963
 30
0.0
 11
0.6966771454515421
 21
41.73322887718247
 31
0.0
  0
LINE
  5
189
  8
TEXT_LAYER$TXT_03
 10
0.6966771454515421
 20
41.73322887718247
 30
0.0
 11
0.7056317135954036
 21
41.72498725978028
 31
0.0
  0
LINE
  5
18A
  8
TEXT_LAYER$TXT_03
 10
0.7056317135954036
 20
41.72498725978028
 30
0.0
 11
0.7147325324584743
 21
41.71693510673424
 31
0.0
  0
LINE
  5
18B
  8
TEXT_LAYER$TXT_03
 10
0.7147325324584743
 20
41.71693510673424
 30
0.0
 11
0.7239796021965625
 21
41.70907241795555
 31
0.0
  0
LINE
  5
18C
  8
TEXT_LAYER$TXT_03
 10
0.7239796021965625
 20
41.70907241795555
 30
0.0
 11
0.7333729229654757
 21
41.70139919335539
 31
0.0
  0
LINE
  5
18D
  8
TEXT_LAYER$TXT_03
 10
0.7333729229654757
 20
41.70139919335539
 30
0.0
 11
0.7429124949210222
 21
41.69391543284495
 31
0.0
  0
LINE
  5
18E
  8
TEXT_LAYER$TXT_03
 10
0.7429124949210222
 20
41.69391543284495
 30
0.0
 11
0.7525983182190097
 21
41.68662113633542
 31
0.0
  0
LINE
  5
18F
  8
TEXT_LAYER$TXT_03
 10
0.7525983182190097
 20
41.68662113633542
 30
0.0
 11
0.7624303930152463
 21
41.679516303738
 31
0.0
  0
LINE
  5
190
  8
TEXT_LAYER$TXT_03
 10
0.7624303930152463
 20
41.679516303738
 30
0.0
 11
0.7724087194655396
 21
41.67260093496387
 31
0.0
  0
LINE
  5
191
  8
TEXT_LAYER$TXT_03
 10
0.7724087194655396
 20
41.67260093496387
 30
0.0
 11
0.7825332977256977
 21
41.66587502992421
 31
0.0
  0
LINE
  5
192
  8
TEXT_LAYER$TXT_03
 10
0.7825332977256977
 20
41.66587502992421
 30
0.0
 11
0.7928041279515285
 21
41.65933858853023
 31
0.0
  0
LINE
  5
193
  8
TEXT_LAYER$TXT_03
 10
0.7928041279515285
 20
41.65933858853023
 30
0.0
 11
0.8032212102988401
 21
41.6529916106931
 31
0.0
  0
LINE
  5
194
  8
TEXT_LAYER$TXT_03
 10
0.8032212102988401
 20
41.6529916106931
 30
0.0
 11
0.8137845449234402
 21
41.64683409632403
 31
0.0
  0
LINE
  5
195
  8
TEXT_LAYER$TXT_03
 10
0.8137845449234402
 20
41.64683409632403
 30
0.0
 11
0.8244941319811369
 21
41.64086604533419
 31
0.0
  0
LINE
  5
196
  8
TEXT_LAYER$TXT_03
 10
0.8244941319811369
 20
41.64086604533419
 30
0.0
 11
0.8353499716277379
 21
41.63508745763478
 31
0.0
  0
LINE
  5
197
  8
TEXT_LAYER$TXT_03
 10
0.8353499716277379
 20
41.63508745763478
 30
0.0
 11
0.8463520640190513
 21
41.62949833313699
 31
0.0
  0
LINE
  5
198
  8
TEXT_LAYER$TXT_03
 10
0.8463520640190513
 20
41.62949833313699
 30
0.0
 11
0.8575004093108849
 21
41.62409867175201
 31
0.0
  0
LINE
  5
199
  8
TEXT_LAYER$TXT_03
 10
0.8575004093108849
 20
41.62409867175201
 30
0.0
 11
0.8687950076590467
 21
41.61888847339102
 31
0.0
  0
LINE
  5
19A
  8
TEXT_LAYER$TXT_03
 10
0.8687950076590467
 20
41.61888847339102
 30
0.0
 11
0.8802358592193447
 21
41.61386773796522
 31
0.0
  0
LINE
  5
19B
  8
TEXT_LAYER$TXT_03
 10
0.8802358592193447
 20
41.61386773796522
 30
0.0
 11
0.8918229641475865
 21
41.6090364653858
 31
0.0
  0
LINE
  5
19C
  8
TEXT_LAYER$TXT_03
 10
0.8918229641475865
 20
41.6090364653858
 30
0.0
 11
0.9035563225995804
 21
41.60439465556394
 31
0.0
  0
LINE
  5
19D
  8
TEXT_LAYER$TXT_03
 10
0.9035563225995804
 20
41.60439465556394
 30
0.0
 11
0.915435934731134
 21
41.59994230841085
 31
0.0
  0
LINE
  5
19E
  8
TEXT_LAYER$TXT_03
 10
0.915435934731134
 20
41.59994230841085
 30
0.0
 11
0.9274618006980557
 21
41.59567942383768
 31
0.0
  0
LINE
  5
19F
  8
TEXT_LAYER$TXT_03
 10
0.9274618006980557
 20
41.59567942383768
 30
0.0
 11
0.939633920656153
 21
41.59160600175565
 31
0.0
  0
LINE
  5
1A0
  8
TEXT_LAYER$TXT_03
 10
0.939633920656153
 20
41.59160600175565
 30
0.0
 11
0.9519522947612338
 21
41.58772204207595
 31
0.0
  0
LINE
  5
1A1
  8
TEXT_LAYER$TXT_03
 10
0.9519522947612338
 20
41.58772204207595
 30
0.0
 11
0.9770278060355779
 21
41.58052250956826
 31
0.0
  0
LINE
  5
1A2
  8
TEXT_LAYER$TXT_03
 10
0.9770278060355779
 20
41.58052250956826
 30
0.0
 11
1.002688335767552
 21
41.57408082560415
 31
0.0
  0
LINE
  5
1A3
  8
TEXT_LAYER$TXT_03
 10
1.002688335767552
 20
41.57408082560415
 30
0.0
 11
1.028933885203618
 21
41.56839698947311
 31
0.0
  0
LINE
  5
1A4
  8
TEXT_LAYER$TXT_03
 10
1.028933885203618
 20
41.56839698947311
 30
0.0
 11
1.055764455590241
 21
41.56347100046468
 31
0.0
  0
LINE
  5
1A5
  8
TEXT_LAYER$TXT_03
 10
1.055764455590241
 20
41.56347100046468
 30
0.0
 11
1.083180048173884
 21
41.55930285786836
 31
0.0
  0
LINE
  5
1A6
  8
TEXT_LAYER$TXT_03
 10
1.083180048173884
 20
41.55930285786836
 30
0.0
 11
1.11118066420101
 21
41.55589256097366
 31
0.0
  0
LINE
  5
1A7
  8
TEXT_LAYER$TXT_03
 10
1.11118066420101
 20
41.55589256097366
 30
0.0
 11
1.139766304918082
 21
41.55324010907011
 31
0.0
  0
LINE
  5
1A8
  8
TEXT_LAYER$TXT_03
 10
1.139766304918082
 20
41.55324010907011
 30
0.0
 11
1.168936971571564
 21
41.55134550144722
 31
0.0
  0
LINE
  5
1A9
  8
TEXT_LAYER$TXT_03
 10
1.168936971571564
 20
41.55134550144722
 30
0.0
 11
1.198692665407919
 21
41.55020873739451
 31
0.0
  0
LINE
  5
1AA
  8
TEXT_LAYER$TXT_03
 10
1.198692665407919
 20
41.55020873739451
 30
0.0
 11
1.22903338767361
 21
41.54982981620149
 31
0.0
  0
LINE
  5
1AB
  8
TEXT_LAYER$TXT_03
 10
1.22903338767361
 20
41.54982981620149
 30
0.0
 11
1.251632704450683
 21
41.55008243033018
 31
0.0
  0
LINE
  5
1AC
  8
TEXT_LAYER$TXT_03
 10
1.251632704450683
 20
41.55008243033018
 30
0.0
 11
1.273906261747239
 21
41.55084027303198
 31
0.0
  0
LINE
  5
1AD
  8
TEXT_LAYER$TXT_03
 10
1.273906261747239
 20
41.55084027303198
 30
0.0
 11
1.29585406059161
 21
41.55210334478058
 31
0.0
  0
LINE
  5
1AE
  8
TEXT_LAYER$TXT_03
 10
1.29585406059161
 20
41.55210334478058
 30
0.0
 11
1.317476102012128
 21
41.55387164604961
 31
0.0
  0
LINE
  5
1AF
  8
TEXT_LAYER$TXT_03
 10
1.317476102012128
 20
41.55387164604961
 30
0.0
 11
1.338772387037125
 21
41.55614517731274
 31
0.0
  0
LINE
  5
1B0
  8
TEXT_LAYER$TXT_03
 10
1.338772387037125
 20
41.55614517731274
 30
0.0
 11
1.359742916694934
 21
41.55892393904362
 31
0.0
  0
LINE
  5
1B1
  8
TEXT_LAYER$TXT_03
 10
1.359742916694934
 20
41.55892393904362
 30
0.0
 11
1.380387692013888
 21
41.56220793171592
 31
0.0
  0
LINE
  5
1B2
  8
TEXT_LAYER$TXT_03
 10
1.380387692013888
 20
41.56220793171592
 30
0.0
 11
1.400706714022318
 21
41.56599715580327
 31
0.0
  0
LINE
  5
1B3
  8
TEXT_LAYER$TXT_03
 10
1.400706714022318
 20
41.56599715580327
 30
0.0
 11
1.420699983748556
 21
41.57029161177934
 31
0.0
  0
LINE
  5
1B4
  8
TEXT_LAYER$TXT_03
 10
1.420699983748556
 20
41.57029161177934
 30
0.0
 11
1.440367502220936
 21
41.57509130011779
 31
0.0
  0
LINE
  5
1B5
  8
TEXT_LAYER$TXT_03
 10
1.440367502220936
 20
41.57509130011779
 30
0.0
 11
1.459709270467788
 21
41.58039622129228
 31
0.0
  0
LINE
  5
1B6
  8
TEXT_LAYER$TXT_03
 10
1.459709270467788
 20
41.58039622129228
 30
0.0
 11
1.478725289517446
 21
41.58620637577646
 31
0.0
  0
LINE
  5
1B7
  8
TEXT_LAYER$TXT_03
 10
1.478725289517446
 20
41.58620637577646
 30
0.0
 11
1.497415560398242
 21
41.59252176404399
 31
0.0
  0
LINE
  5
1B8
  8
TEXT_LAYER$TXT_03
 10
1.497415560398242
 20
41.59252176404399
 30
0.0
 11
1.515780084138508
 21
41.59934238656851
 31
0.0
  0
LINE
  5
1B9
  8
TEXT_LAYER$TXT_03
 10
1.515780084138508
 20
41.59934238656851
 30
0.0
 11
1.533818861766576
 21
41.60666824382369
 31
0.0
  0
LINE
  5
1BA
  8
TEXT_LAYER$TXT_03
 10
1.533818861766576
 20
41.60666824382369
 30
0.0
 11
1.551531894310779
 21
41.61449933628319
 31
0.0
  0
LINE
  5
1BB
  8
TEXT_LAYER$TXT_03
 10
1.551531894310779
 20
41.61449933628319
 30
0.0
 11
1.568919182799449
 21
41.62283566442065
 31
0.0
  0
LINE
  5
1BC
  8
TEXT_LAYER$TXT_03
 10
1.568919182799449
 20
41.62283566442065
 30
0.0
 11
1.585980728260918
 21
41.63167722870974
 31
0.0
  0
LINE
  5
1BD
  8
TEXT_LAYER$TXT_03
 10
1.585980728260918
 20
41.63167722870974
 30
0.0
 11
1.602716531723519
 21
41.64102402962411
 31
0.0
  0
LINE
  5
1BE
  8
TEXT_LAYER$TXT_03
 10
1.602716531723519
 20
41.64102402962411
 30
0.0
 11
1.619126594215583
 21
41.65087606763742
 31
0.0
  0
LINE
  5
1BF
  8
TEXT_LAYER$TXT_03
 10
1.619126594215583
 20
41.65087606763742
 30
0.0
 11
1.635210916765443
 21
41.66123334322333
 31
0.0
  0
LINE
  5
1C0
  8
TEXT_LAYER$TXT_03
 10
1.635210916765443
 20
41.66123334322333
 30
0.0
 11
1.650969500401431
 21
41.67209585685548
 31
0.0
  0
LINE
  5
1C1
  8
TEXT_LAYER$TXT_03
 10
1.650969500401431
 20
41.67209585685548
 30
0.0
 11
1.66640234615188
 21
41.68346360900753
 31
0.0
  0
LINE
  5
1C2
  8
TEXT_LAYER$TXT_03
 10
1.66640234615188
 20
41.68346360900753
 30
0.0
 11
1.681509455045122
 21
41.69533660015315
 31
0.0
  0
LINE
  5
1C3
  8
TEXT_LAYER$TXT_03
 10
1.681509455045122
 20
41.69533660015315
 30
0.0
 11
1.696290828109489
 21
41.70771483076599
 31
0.0
  0
LINE
  5
1C4
  8
TEXT_LAYER$TXT_03
 10
1.696290828109489
 20
41.70771483076599
 30
0.0
 11
1.710746466373313
 21
41.72059830131972
 31
0.0
  0
LINE
  5
1C5
  8
TEXT_LAYER$TXT_03
 10
1.710746466373313
 20
41.72059830131972
 30
0.0
 11
1.724876370864928
 21
41.73398701228796
 31
0.0
  0
LINE
  5
1C6
  8
TEXT_LAYER$TXT_03
 10
1.724876370864928
 20
41.73398701228796
 30
0.0
 11
1.738680542612664
 21
41.74788096414439
 31
0.0
  0
LINE
  5
1C7
  8
TEXT_LAYER$TXT_03
 10
1.738680542612664
 20
41.74788096414439
 30
0.0
 11
1.752158982644854
 21
41.76228015736267
 31
0.0
  0
LINE
  5
1C8
  8
TEXT_LAYER$TXT_03
 10
1.752158982644854
 20
41.76228015736267
 30
0.0
 11
1.765311691989831
 21
41.77718459241645
 31
0.0
  0
LINE
  5
1C9
  8
TEXT_LAYER$TXT_03
 10
1.765311691989831
 20
41.77718459241645
 30
0.0
 11
1.778138671675926
 21
41.79259426977938
 31
0.0
  0
LINE
  5
1CA
  8
TEXT_LAYER$TXT_03
 10
1.778138671675926
 20
41.79259426977938
 30
0.0
 11
1.790639922731473
 21
41.80850918992511
 31
0.0
  0
LINE
  5
1CB
  8
TEXT_LAYER$TXT_03
 10
1.790639922731473
 20
41.80850918992511
 30
0.0
 11
1.8027855196848
 21
41.82475982095238
 31
0.0
  0
LINE
  5
1CC
  8
TEXT_LAYER$TXT_03
 10
1.8027855196848
 20
41.82475982095238
 30
0.0
 11
1.814545536619667
 21
41.84117663137955
 31
0.0
  0
LINE
  5
1CD
  8
TEXT_LAYER$TXT_03
 10
1.814545536619667
 20
41.84117663137955
 30
0.0
 11
1.825919973897547
 21
41.85775962230974
 31
0.0
  0
LINE
  5
1CE
  8
TEXT_LAYER$TXT_03
 10
1.825919973897547
 20
41.85775962230974
 30
0.0
 11
1.836908831879915
 21
41.87450879484608
 31
0.0
  0
LINE
  5
1CF
  8
TEXT_LAYER$TXT_03
 10
1.836908831879915
 20
41.87450879484608
 30
0.0
 11
1.847512110928245
 21
41.89142415009167
 31
0.0
  0
LINE
  5
1D0
  8
TEXT_LAYER$TXT_03
 10
1.847512110928245
 20
41.89142415009167
 30
0.0
 11
1.857729811404012
 21
41.90850568914965
 31
0.0
  0
LINE
  5
1D1
  8
TEXT_LAYER$TXT_03
 10
1.857729811404012
 20
41.90850568914965
 30
0.0
 11
1.86756193366869
 21
41.92575341312313
 31
0.0
  0
LINE
  5
1D2
  8
TEXT_LAYER$TXT_03
 10
1.86756193366869
 20
41.92575341312313
 30
0.0
 11
1.877008478083753
 21
41.94316732311521
 31
0.0
  0
LINE
  5
1D3
  8
TEXT_LAYER$TXT_03
 10
1.877008478083753
 20
41.94316732311521
 30
0.0
 11
1.886069445010676
 21
41.96074742022904
 31
0.0
  0
LINE
  5
1D4
  8
TEXT_LAYER$TXT_03
 10
1.886069445010676
 20
41.96074742022904
 30
0.0
 11
1.894744834810933
 21
41.97849370556773
 31
0.0
  0
LINE
  5
1D5
  8
TEXT_LAYER$TXT_03
 10
1.894744834810933
 20
41.97849370556773
 30
0.0
 11
1.903034647845998
 21
41.9964061802344
 31
0.0
  0
LINE
  5
1D6
  8
TEXT_LAYER$TXT_03
 10
1.903034647845998
 20
41.9964061802344
 30
0.0
 11
1.910938884477346
 21
42.01448484533217
 31
0.0
  0
LINE
  5
1D7
  8
TEXT_LAYER$TXT_03
 10
1.910938884477346
 20
42.01448484533217
 30
0.0
 11
1.918457545066451
 21
42.03272970196416
 31
0.0
  0
LINE
  5
1D8
  8
TEXT_LAYER$TXT_03
 10
1.918457545066451
 20
42.03272970196416
 30
0.0
 11
1.925590629974788
 21
42.05114075123349
 31
0.0
  0
LINE
  5
1D9
  8
TEXT_LAYER$TXT_03
 10
1.925590629974788
 20
42.05114075123349
 30
0.0
 11
1.932338139563831
 21
42.06971799424329
 31
0.0
  0
LINE
  5
1DA
  8
TEXT_LAYER$TXT_03
 10
1.932338139563831
 20
42.06971799424329
 30
0.0
 11
1.938700074195054
 21
42.08846143209666
 31
0.0
  0
LINE
  5
1DB
  8
TEXT_LAYER$TXT_03
 10
1.938700074195054
 20
42.08846143209666
 30
0.0
 11
1.944676434229932
 21
42.10737106589673
 31
0.0
  0
LINE
  5
1DC
  8
TEXT_LAYER$TXT_03
 10
1.944676434229932
 20
42.10737106589673
 30
0.0
 11
1.950267220029939
 21
42.12644689674663
 31
0.0
  0
LINE
  5
1DD
  8
TEXT_LAYER$TXT_03
 10
1.950267220029939
 20
42.12644689674663
 30
0.0
 11
1.955472431956549
 21
42.14568892574946
 31
0.0
  0
LINE
  5
1DE
  8
TEXT_LAYER$TXT_03
 10
1.955472431956549
 20
42.14568892574946
 30
0.0
 11
1.960292070371237
 21
42.16509715400836
 31
0.0
  0
LINE
  5
1DF
  8
TEXT_LAYER$TXT_03
 10
1.960292070371237
 20
42.16509715400836
 30
0.0
 11
1.964726135635478
 21
42.18467158262644
 31
0.0
  0
LINE
  5
1E0
  8
TEXT_LAYER$TXT_03
 10
1.964726135635478
 20
42.18467158262644
 30
0.0
 11
1.968774628110745
 21
42.20441221270681
 31
0.0
  0
LINE
  5
1E1
  8
TEXT_LAYER$TXT_03
 10
1.968774628110745
 20
42.20441221270681
 30
0.0
 11
1.972437548158513
 21
42.22431904535261
 31
0.0
  0
LINE
  5
1E2
  8
TEXT_LAYER$TXT_03
 10
1.972437548158513
 20
42.22431904535261
 30
0.0
 11
1.975714896140256
 21
42.24439208166694
 31
0.0
  0
LINE
  5
1E3
  8
TEXT_LAYER$TXT_03
 10
1.975714896140256
 20
42.24439208166694
 30
0.0
 11
1.978606672417449
 21
42.26463132275295
 31
0.0
  0
LINE
  5
1E4
  8
TEXT_LAYER$TXT_03
 10
1.978606672417449
 20
42.26463132275295
 30
0.0
 11
1.981112877351566
 21
42.28503676971373
 31
0.0
  0
LINE
  5
1E5
  8
TEXT_LAYER$TXT_03
 10
1.981112877351566
 20
42.28503676971373
 30
0.0
 11
1.983233511304081
 21
42.30560842365242
 31
0.0
  0
LINE
  5
1E6
  8
TEXT_LAYER$TXT_03
 10
1.983233511304081
 20
42.30560842365242
 30
0.0
 11
1.98496857463647
 21
42.32634628567212
 31
0.0
  0
LINE
  5
1E7
  8
TEXT_LAYER$TXT_03
 10
1.98496857463647
 20
42.32634628567212
 30
0.0
 11
1.986318067710205
 21
42.34725035687596
 31
0.0
  0
LINE
  5
1E8
  8
TEXT_LAYER$TXT_03
 10
1.986318067710205
 20
42.34725035687596
 30
0.0
 11
1.987281990886762
 21
42.36832063836707
 31
0.0
  0
LINE
  5
1E9
  8
TEXT_LAYER$TXT_03
 10
1.987281990886762
 20
42.36832063836707
 30
0.0
 11
1.987860344527615
 21
42.38955713124857
 31
0.0
  0
LINE
  5
1EA
  8
TEXT_LAYER$TXT_03
 10
1.987860344527615
 20
42.38955713124857
 30
0.0
 11
1.988053128994239
 21
42.41095983662355
 31
0.0
  0
LINE
  5
1EB
  8
TEXT_LAYER$TXT_03
 10
1.988053128994239
 20
42.41095983662355
 30
0.0
 11
1.987654264580535
 21
42.44888241558555
 31
0.0
  0
LINE
  5
1EC
  8
TEXT_LAYER$TXT_03
 10
1.987654264580535
 20
42.44888241558555
 30
0.0
 11
1.986457670840839
 21
42.4860670612665
 31
0.0
  0
LINE
  5
1ED
  8
TEXT_LAYER$TXT_03
 10
1.986457670840839
 20
42.4860670612665
 30
0.0
 11
1.984463347027273
 21
42.52251377521824
 31
0.0
  0
LINE
  5
1EE
  8
TEXT_LAYER$TXT_03
 10
1.984463347027273
 20
42.52251377521824
 30
0.0
 11
1.981671292391958
 21
42.55822255899262
 31
0.0
  0
LINE
  5
1EF
  8
TEXT_LAYER$TXT_03
 10
1.981671292391958
 20
42.55822255899262
 30
0.0
 11
1.978081506187017
 21
42.59319341414148
 31
0.0
  0
LINE
  5
1F0
  8
TEXT_LAYER$TXT_03
 10
1.978081506187017
 20
42.59319341414148
 30
0.0
 11
1.973693987664571
 21
42.62742634221668
 31
0.0
  0
LINE
  5
1F1
  8
TEXT_LAYER$TXT_03
 10
1.973693987664571
 20
42.62742634221668
 30
0.0
 11
1.968508736076743
 21
42.66092134477006
 31
0.0
  0
LINE
  5
1F2
  8
TEXT_LAYER$TXT_03
 10
1.968508736076743
 20
42.66092134477006
 30
0.0
 11
1.962525750675654
 21
42.69367842335347
 31
0.0
  0
LINE
  5
1F3
  8
TEXT_LAYER$TXT_03
 10
1.962525750675654
 20
42.69367842335347
 30
0.0
 11
1.955745030713427
 21
42.72569757951875
 31
0.0
  0
LINE
  5
1F4
  8
TEXT_LAYER$TXT_03
 10
1.955745030713427
 20
42.72569757951875
 30
0.0
 11
1.948166575442183
 21
42.75697881481776
 31
0.0
  0
LINE
  5
1F5
  8
TEXT_LAYER$TXT_03
 10
1.948166575442183
 20
42.75697881481776
 30
0.0
 11
1.939790384114045
 21
42.78752213080233
 31
0.0
  0
LINE
  5
1F6
  8
TEXT_LAYER$TXT_03
 10
1.939790384114045
 20
42.78752213080233
 30
0.0
 11
1.930616455981134
 21
42.81732752902431
 31
0.0
  0
LINE
  5
1F7
  8
TEXT_LAYER$TXT_03
 10
1.930616455981134
 20
42.81732752902431
 30
0.0
 11
1.920644790295573
 21
42.84639501103555
 31
0.0
  0
LINE
  5
1F8
  8
TEXT_LAYER$TXT_03
 10
1.920644790295573
 20
42.84639501103555
 30
0.0
 11
1.909875386309482
 21
42.87472457838791
 31
0.0
  0
LINE
  5
1F9
  8
TEXT_LAYER$TXT_03
 10
1.909875386309482
 20
42.87472457838791
 30
0.0
 11
1.898308243274986
 21
42.90231623263323
 31
0.0
  0
LINE
  5
1FA
  8
TEXT_LAYER$TXT_03
 10
1.898308243274986
 20
42.90231623263323
 30
0.0
 11
1.892225519380873
 21
42.9158353428257
 31
0.0
  0
LINE
  5
1FB
  8
TEXT_LAYER$TXT_03
 10
1.892225519380873
 20
42.9158353428257
 30
0.0
 11
1.885943360444204
 21
42.92916997532335
 31
0.0
  0
LINE
  5
1FC
  8
TEXT_LAYER$TXT_03
 10
1.885943360444204
 20
42.92916997532335
 30
0.0
 11
1.879461766371495
 21
42.94232013032016
 31
0.0
  0
LINE
  5
1FD
  8
TEXT_LAYER$TXT_03
 10
1.879461766371495
 20
42.94232013032016
 30
0.0
 11
1.87278073706926
 21
42.95528580801011
 31
0.0
  0
LINE
  5
1FE
  8
TEXT_LAYER$TXT_03
 10
1.87278073706926
 20
42.95528580801011
 30
0.0
 11
1.865900272444015
 21
42.96806700858719
 31
0.0
  0
LINE
  5
1FF
  8
TEXT_LAYER$TXT_03
 10
1.865900272444015
 20
42.96806700858719
 30
0.0
 11
1.858820372402275
 21
42.98066373224538
 31
0.0
  0
LINE
  5
200
  8
TEXT_LAYER$TXT_03
 10
1.858820372402275
 20
42.98066373224538
 30
0.0
 11
1.851541036850555
 21
42.99307597917864
 31
0.0
  0
LINE
  5
201
  8
TEXT_LAYER$TXT_03
 10
1.851541036850555
 20
42.99307597917864
 30
0.0
 11
1.844062265695371
 21
43.00530374958097
 31
0.0
  0
LINE
  5
202
  8
TEXT_LAYER$TXT_03
 10
1.844062265695371
 20
43.00530374958097
 30
0.0
 11
1.836384058843238
 21
43.01734704364637
 31
0.0
  0
LINE
  5
203
  8
TEXT_LAYER$TXT_03
 10
1.836384058843238
 20
43.01734704364637
 30
0.0
 11
1.828506416200671
 21
43.02920586156877
 31
0.0
  0
LINE
  5
204
  8
TEXT_LAYER$TXT_03
 10
1.828506416200671
 20
43.02920586156877
 30
0.0
 11
1.820429337674185
 21
43.0408802035422
 31
0.0
  0
LINE
  5
205
  8
TEXT_LAYER$TXT_03
 10
1.820429337674185
 20
43.0408802035422
 30
0.0
 11
1.812152823170296
 21
43.05237006976061
 31
0.0
  0
LINE
  5
206
  8
TEXT_LAYER$TXT_03
 10
1.812152823170296
 20
43.05237006976061
 30
0.0
 11
1.803676872595518
 21
43.06367546041799
 31
0.0
  0
LINE
  5
207
  8
TEXT_LAYER$TXT_03
 10
1.803676872595518
 20
43.06367546041799
 30
0.0
 11
1.795001485856368
 21
43.07479637570832
 31
0.0
  0
LINE
  5
208
  8
TEXT_LAYER$TXT_03
 10
1.795001485856368
 20
43.07479637570832
 30
0.0
 11
1.786126662859359
 21
43.08573281582558
 31
0.0
  0
LINE
  5
209
  8
TEXT_LAYER$TXT_03
 10
1.786126662859359
 20
43.08573281582558
 30
0.0
 11
1.777052403511009
 21
43.09648478096376
 31
0.0
  0
LINE
  5
20A
  8
TEXT_LAYER$TXT_03
 10
1.777052403511009
 20
43.09648478096376
 30
0.0
 11
1.767778707717831
 21
43.10705227131685
 31
0.0
  0
LINE
  5
20B
  8
TEXT_LAYER$TXT_03
 10
1.767778707717831
 20
43.10705227131685
 30
0.0
 11
1.758305575386341
 21
43.11743528707879
 31
0.0
  0
LINE
  5
20C
  8
TEXT_LAYER$TXT_03
 10
1.758305575386341
 20
43.11743528707879
 30
0.0
 11
1.748633006423055
 21
43.12763382844359
 31
0.0
  0
LINE
  5
20D
  8
TEXT_LAYER$TXT_03
 10
1.748633006423055
 20
43.12763382844359
 30
0.0
 11
1.738761000734487
 21
43.13764789560524
 31
0.0
  0
LINE
  5
20E
  8
TEXT_LAYER$TXT_03
 10
1.738761000734487
 20
43.13764789560524
 30
0.0
 11
1.728689558227153
 21
43.1474774887577
 31
0.0
  0
LINE
  5
20F
  8
TEXT_LAYER$TXT_03
 10
1.728689558227153
 20
43.1474774887577
 30
0.0
 11
1.718418678807567
 21
43.15712260809496
 31
0.0
  0
LINE
  5
210
  8
TEXT_LAYER$TXT_03
 10
1.718418678807567
 20
43.15712260809496
 30
0.0
 11
1.707948362382246
 21
43.166583253811
 31
0.0
  0
LINE
  5
211
  8
TEXT_LAYER$TXT_03
 10
1.707948362382246
 20
43.166583253811
 30
0.0
 11
1.697278608857705
 21
43.17585942609981
 31
0.0
  0
LINE
  5
212
  8
TEXT_LAYER$TXT_03
 10
1.697278608857705
 20
43.17585942609981
 30
0.0
 11
1.686409418140459
 21
43.18495112515534
 31
0.0
  0
LINE
  5
213
  8
TEXT_LAYER$TXT_03
 10
1.686409418140459
 20
43.18495112515534
 30
0.0
 11
1.675340790137022
 21
43.19385835117161
 31
0.0
  0
LINE
  5
214
  8
TEXT_LAYER$TXT_03
 10
1.675340790137022
 20
43.19385835117161
 30
0.0
 11
1.664072724753911
 21
43.20258110434256
 31
0.0
  0
LINE
  5
215
  8
TEXT_LAYER$TXT_03
 10
1.664072724753911
 20
43.20258110434256
 30
0.0
 11
1.65260522189764
 21
43.21111938486222
 31
0.0
  0
LINE
  5
216
  8
TEXT_LAYER$TXT_03
 10
1.65260522189764
 20
43.21111938486222
 30
0.0
 11
1.640938281474725
 21
43.21947319292453
 31
0.0
  0
LINE
  5
217
  8
TEXT_LAYER$TXT_03
 10
1.640938281474725
 20
43.21947319292453
 30
0.0
 11
1.629071903391681
 21
43.22764252872349
 31
0.0
  0
LINE
  5
218
  8
TEXT_LAYER$TXT_03
 10
1.629071903391681
 20
43.22764252872349
 30
0.0
 11
1.617006087555023
 21
43.23562739245308
 31
0.0
  0
LINE
  5
219
  8
TEXT_LAYER$TXT_03
 10
1.617006087555023
 20
43.23562739245308
 30
0.0
 11
1.604740833871267
 21
43.24342778430728
 31
0.0
  0
LINE
  5
21A
  8
TEXT_LAYER$TXT_03
 10
1.604740833871267
 20
43.24342778430728
 30
0.0
 11
1.592276142246928
 21
43.25104370448006
 31
0.0
  0
LINE
  5
21B
  8
TEXT_LAYER$TXT_03
 10
1.592276142246928
 20
43.25104370448006
 30
0.0
 11
1.57961201258852
 21
43.25847515316541
 31
0.0
  0
LINE
  5
21C
  8
TEXT_LAYER$TXT_03
 10
1.57961201258852
 20
43.25847515316541
 30
0.0
 11
1.565385648729077
 21
43.26644923258885
 31
0.0
  0
LINE
  5
21D
  8
TEXT_LAYER$TXT_03
 10
1.565385648729077
 20
43.26644923258885
 30
0.0
 11
1.550787023524158
 21
43.2742039293428
 31
0.0
  0
LINE
  5
21E
  8
TEXT_LAYER$TXT_03
 10
1.550787023524158
 20
43.2742039293428
 30
0.0
 11
1.535816135802088
 21
43.28173924369525
 31
0.0
  0
LINE
  5
21F
  8
TEXT_LAYER$TXT_03
 10
1.535816135802088
 20
43.28173924369525
 30
0.0
 11
1.520472984391191
 21
43.28905517591419
 31
0.0
  0
LINE
  5
220
  8
TEXT_LAYER$TXT_03
 10
1.520472984391191
 20
43.28905517591419
 30
0.0
 11
1.504757568119792
 21
43.29615172626762
 31
0.0
  0
LINE
  5
221
  8
TEXT_LAYER$TXT_03
 10
1.504757568119792
 20
43.29615172626762
 30
0.0
 11
1.488669885816214
 21
43.30302889502351
 31
0.0
  0
LINE
  5
222
  8
TEXT_LAYER$TXT_03
 10
1.488669885816214
 20
43.30302889502351
 30
0.0
 11
1.472209936308783
 21
43.30968668244986
 31
0.0
  0
LINE
  5
223
  8
TEXT_LAYER$TXT_03
 10
1.472209936308783
 20
43.30968668244986
 30
0.0
 11
1.455377718425823
 21
43.31612508881466
 31
0.0
  0
LINE
  5
224
  8
TEXT_LAYER$TXT_03
 10
1.455377718425823
 20
43.31612508881466
 30
0.0
 11
1.438173230995658
 21
43.32234411438589
 31
0.0
  0
LINE
  5
225
  8
TEXT_LAYER$TXT_03
 10
1.438173230995658
 20
43.32234411438589
 30
0.0
 11
1.420596472846613
 21
43.32834375943156
 31
0.0
  0
LINE
  5
226
  8
TEXT_LAYER$TXT_03
 10
1.420596472846613
 20
43.32834375943156
 30
0.0
 11
1.384326139705179
 21
43.33968490901813
 31
0.0
  0
LINE
  5
227
  8
TEXT_LAYER$TXT_03
 10
1.384326139705179
 20
43.33968490901813
 30
0.0
 11
1.346566709628117
 21
43.3501485397183
 31
0.0
  0
LINE
  5
228
  8
TEXT_LAYER$TXT_03
 10
1.346566709628117
 20
43.3501485397183
 30
0.0
 11
1.307318173242023
 21
43.35973465367597
 31
0.0
  0
LINE
  5
229
  8
TEXT_LAYER$TXT_03
 10
1.307318173242023
 20
43.35973465367597
 30
0.0
 11
1.266580521173492
 21
43.36844325303505
 31
0.0
  0
LINE
  5
22A
  8
TEXT_LAYER$TXT_03
 10
1.266580521173492
 20
43.36844325303505
 30
0.0
 11
1.224353744049119
 21
43.37627433993947
 31
0.0
  0
LINE
  5
22B
  8
TEXT_LAYER$TXT_03
 10
1.224353744049119
 20
43.37627433993947
 30
0.0
 11
1.180637832495501
 21
43.38322791653315
 31
0.0
  0
LINE
  5
22C
  8
TEXT_LAYER$TXT_03
 10
1.180637832495501
 20
43.38322791653315
 30
0.0
 11
1.135432777139231
 21
43.38930398496001
 31
0.0
  0
LINE
  5
22D
  8
TEXT_LAYER$TXT_03
 10
1.135432777139231
 20
43.38930398496001
 30
0.0
 11
1.088738568606907
 21
43.39450254736395
 31
0.0
  0
LINE
  5
22E
  8
TEXT_LAYER$TXT_03
 10
1.088738568606907
 20
43.39450254736395
 30
0.0
 11
1.040555197525123
 21
43.39882360588889
 31
0.0
  0
LINE
  5
22F
  8
TEXT_LAYER$TXT_03
 10
1.040555197525123
 20
43.39882360588889
 30
0.0
 11
0.990882654520475
 21
43.40226716267876
 31
0.0
  0
LINE
  5
230
  8
TEXT_LAYER$TXT_03
 10
0.990882654520475
 20
43.40226716267876
 30
0.0
 11
0.9397209302195582
 21
43.40483321987747
 31
0.0
  0
LINE
  5
231
  8
TEXT_LAYER$TXT_03
 10
0.9397209302195582
 20
43.40483321987747
 30
0.0
 11
0.9397209302195582
 21
44.01068754254594
 31
0.0
  0
LINE
  5
232
  8
TEXT_LAYER$TXT_03
 10
0.9397209302195582
 20
44.01068754254594
 30
0.0
 11
1.007156545566946
 21
44.0098366315308
 31
0.0
  0
LINE
  5
233
  8
TEXT_LAYER$TXT_03
 10
1.007156545566946
 20
44.0098366315308
 30
0.0
 11
1.073315681113023
 21
44.00728389635807
 31
0.0
  0
LINE
  5
234
  8
TEXT_LAYER$TXT_03
 10
1.073315681113023
 20
44.00728389635807
 30
0.0
 11
1.138198350419311
 21
44.00302933383679
 31
0.0
  0
LINE
  5
235
  8
TEXT_LAYER$TXT_03
 10
1.138198350419311
 20
44.00302933383679
 30
0.0
 11
1.201804567047332
 21
43.99707294077604
 31
0.0
  0
LINE
  5
236
  8
TEXT_LAYER$TXT_03
 10
1.201804567047332
 20
43.99707294077604
 30
0.0
 11
1.264134344558606
 21
43.98941471398485
 31
0.0
  0
LINE
  5
237
  8
TEXT_LAYER$TXT_03
 10
1.264134344558606
 20
43.98941471398485
 30
0.0
 11
1.325187696514657
 21
43.98005465027229
 31
0.0
  0
LINE
  5
238
  8
TEXT_LAYER$TXT_03
 10
1.325187696514657
 20
43.98005465027229
 30
0.0
 11
1.384964636477004
 21
43.9689927464474
 31
0.0
  0
LINE
  5
239
  8
TEXT_LAYER$TXT_03
 10
1.384964636477004
 20
43.9689927464474
 30
0.0
 11
1.443465178007169
 21
43.95622899931926
 31
0.0
  0
LINE
  5
23A
  8
TEXT_LAYER$TXT_03
 10
1.443465178007169
 20
43.95622899931926
 30
0.0
 11
1.500689334666674
 21
43.9417634056969
 31
0.0
  0
LINE
  5
23B
  8
TEXT_LAYER$TXT_03
 10
1.500689334666674
 20
43.9417634056969
 30
0.0
 11
1.556637120017041
 21
43.92559596238937
 31
0.0
  0
LINE
  5
23C
  8
TEXT_LAYER$TXT_03
 10
1.556637120017041
 20
43.92559596238937
 30
0.0
 11
1.584132377689272
 21
43.9168740461065
 31
0.0
  0
LINE
  5
23D
  8
TEXT_LAYER$TXT_03
 10
1.584132377689272
 20
43.9168740461065
 30
0.0
 11
1.611308547619789
 21
43.90772666620574
 31
0.0
  0
LINE
  5
23E
  8
TEXT_LAYER$TXT_03
 10
1.611308547619789
 20
43.90772666620574
 30
0.0
 11
1.638165631503783
 21
43.89815382228822
 31
0.0
  0
LINE
  5
23F
  8
TEXT_LAYER$TXT_03
 10
1.638165631503783
 20
43.89815382228822
 30
0.0
 11
1.664703631036442
 21
43.88815551395506
 31
0.0
  0
LINE
  5
240
  8
TEXT_LAYER$TXT_03
 10
1.664703631036442
 20
43.88815551395506
 30
0.0
 11
1.690922547912959
 21
43.87773174080741
 31
0.0
  0
LINE
  5
241
  8
TEXT_LAYER$TXT_03
 10
1.690922547912959
 20
43.87773174080741
 30
0.0
 11
1.716822383828521
 21
43.86688250244639
 31
0.0
  0
LINE
  5
242
  8
TEXT_LAYER$TXT_03
 10
1.716822383828521
 20
43.86688250244639
 30
0.0
 11
1.74240314047832
 21
43.85560779847313
 31
0.0
  0
LINE
  5
243
  8
TEXT_LAYER$TXT_03
 10
1.74240314047832
 20
43.85560779847313
 30
0.0
 11
1.767664819557547
 21
43.84390762848876
 31
0.0
  0
LINE
  5
244
  8
TEXT_LAYER$TXT_03
 10
1.767664819557547
 20
43.84390762848876
 30
0.0
 11
1.79260742276139
 21
43.83178199209443
 31
0.0
  0
LINE
  5
245
  8
TEXT_LAYER$TXT_03
 10
1.79260742276139
 20
43.83178199209443
 30
0.0
 11
1.81723095178504
 21
43.81923088889125
 31
0.0
  0
LINE
  5
246
  8
TEXT_LAYER$TXT_03
 10
1.81723095178504
 20
43.81923088889125
 30
0.0
 11
1.841535408323688
 21
43.80625431848036
 31
0.0
  0
LINE
  5
247
  8
TEXT_LAYER$TXT_03
 10
1.841535408323688
 20
43.80625431848036
 30
0.0
 11
1.865520794072524
 21
43.7928522804629
 31
0.0
  0
LINE
  5
248
  8
TEXT_LAYER$TXT_03
 10
1.865520794072524
 20
43.7928522804629
 30
0.0
 11
1.907402162877102
 21
43.76889681559874
 31
0.0
  0
LINE
  5
249
  8
TEXT_LAYER$TXT_03
 10
1.907402162877102
 20
43.76889681559874
 30
0.0
 11
1.947953945411125
 21
43.74383119798923
 31
0.0
  0
LINE
  5
24A
  8
TEXT_LAYER$TXT_03
 10
1.947953945411125
 20
43.74383119798923
 30
0.0
 11
1.967731242216199
 21
43.73088208115125
 31
0.0
  0
LINE
  5
24B
  8
TEXT_LAYER$TXT_03
 10
1.967731242216199
 20
43.73088208115125
 30
0.0
 11
1.987176142921057
 21
43.71765542522245
 31
0.0
  0
LINE
  5
24C
  8
TEXT_LAYER$TXT_03
 10
1.987176142921057
 20
43.71765542522245
 30
0.0
 11
2.006288647681508
 21
43.70415122990136
 31
0.0
  0
LINE
  5
24D
  8
TEXT_LAYER$TXT_03
 10
2.006288647681508
 20
43.70415122990136
 30
0.0
 11
2.025068756653361
 21
43.6903694948865
 31
0.0
  0
LINE
  5
24E
  8
TEXT_LAYER$TXT_03
 10
2.025068756653361
 20
43.6903694948865
 30
0.0
 11
2.043516469992421
 21
43.67631021987636
 31
0.0
  0
LINE
  5
24F
  8
TEXT_LAYER$TXT_03
 10
2.043516469992421
 20
43.67631021987636
 30
0.0
 11
2.061631787854498
 21
43.66197340456947
 31
0.0
  0
LINE
  5
250
  8
TEXT_LAYER$TXT_03
 10
2.061631787854498
 20
43.66197340456947
 30
0.0
 11
2.079414710395401
 21
43.64735904866432
 31
0.0
  0
LINE
  5
251
  8
TEXT_LAYER$TXT_03
 10
2.079414710395401
 20
43.64735904866432
 30
0.0
 11
2.096865237770936
 21
43.63246715185944
 31
0.0
  0
LINE
  5
252
  8
TEXT_LAYER$TXT_03
 10
2.096865237770936
 20
43.63246715185944
 30
0.0
 11
2.113983370136911
 21
43.61729771385335
 31
0.0
  0
LINE
  5
253
  8
TEXT_LAYER$TXT_03
 10
2.113983370136911
 20
43.61729771385335
 30
0.0
 11
2.130769107649135
 21
43.60185073434454
 31
0.0
  0
LINE
  5
254
  8
TEXT_LAYER$TXT_03
 10
2.130769107649135
 20
43.60185073434454
 30
0.0
 11
2.147222450463414
 21
43.58612621303152
 31
0.0
  0
LINE
  5
255
  8
TEXT_LAYER$TXT_03
 10
2.147222450463414
 20
43.58612621303152
 30
0.0
 11
2.163343398735559
 21
43.57012414961282
 31
0.0
  0
LINE
  5
256
  8
TEXT_LAYER$TXT_03
 10
2.163343398735559
 20
43.57012414961282
 30
0.0
 11
2.179131952621375
 21
43.55384454378695
 31
0.0
  0
LINE
  5
257
  8
TEXT_LAYER$TXT_03
 10
2.179131952621375
 20
43.55384454378695
 30
0.0
 11
2.194588112276671
 21
43.53728739525241
 31
0.0
  0
LINE
  5
258
  8
TEXT_LAYER$TXT_03
 10
2.194588112276671
 20
43.53728739525241
 30
0.0
 11
2.209711877857256
 21
43.52045270370771
 31
0.0
  0
LINE
  5
259
  8
TEXT_LAYER$TXT_03
 10
2.209711877857256
 20
43.52045270370771
 30
0.0
 11
2.224503249518936
 21
43.50334046885138
 31
0.0
  0
LINE
  5
25A
  8
TEXT_LAYER$TXT_03
 10
2.224503249518936
 20
43.50334046885138
 30
0.0
 11
2.238962227417519
 21
43.48595069038191
 31
0.0
  0
LINE
  5
25B
  8
TEXT_LAYER$TXT_03
 10
2.238962227417519
 20
43.48595069038191
 30
0.0
 11
2.253088811708816
 21
43.46828336799783
 31
0.0
  0
LINE
  5
25C
  8
TEXT_LAYER$TXT_03
 10
2.253088811708816
 20
43.46828336799783
 30
0.0
 11
2.266883002548632
 21
43.45033850139763
 31
0.0
  0
LINE
  5
25D
  8
TEXT_LAYER$TXT_03
 10
2.266883002548632
 20
43.45033850139763
 30
0.0
 11
2.280344800092774
 21
43.43211609027984
 31
0.0
  0
LINE
  5
25E
  8
TEXT_LAYER$TXT_03
 10
2.280344800092774
 20
43.43211609027984
 30
0.0
 11
2.293474204497053
 21
43.41361613434297
 31
0.0
  0
LINE
  5
25F
  8
TEXT_LAYER$TXT_03
 10
2.293474204497053
 20
43.41361613434297
 30
0.0
 11
2.306271215917275
 21
43.39483863328552
 31
0.0
  0
LINE
  5
260
  8
TEXT_LAYER$TXT_03
 10
2.306271215917275
 20
43.39483863328552
 30
0.0
 11
2.318735834509248
 21
43.37578358680602
 31
0.0
  0
LINE
  5
261
  8
TEXT_LAYER$TXT_03
 10
2.318735834509248
 20
43.37578358680602
 30
0.0
 11
2.330868060428781
 21
43.35645099460297
 31
0.0
  0
LINE
  5
262
  8
TEXT_LAYER$TXT_03
 10
2.330868060428781
 20
43.35645099460297
 30
0.0
 11
2.342667893831681
 21
43.33684085637489
 31
0.0
  0
LINE
  5
263
  8
TEXT_LAYER$TXT_03
 10
2.342667893831681
 20
43.33684085637489
 30
0.0
 11
2.354135334873756
 21
43.31695317182028
 31
0.0
  0
LINE
  5
264
  8
TEXT_LAYER$TXT_03
 10
2.354135334873756
 20
43.31695317182028
 30
0.0
 11
2.365270383710814
 21
43.29678794063766
 31
0.0
  0
LINE
  5
265
  8
TEXT_LAYER$TXT_03
 10
2.365270383710814
 20
43.29678794063766
 30
0.0
 11
2.376073040498663
 21
43.27634516252552
 31
0.0
  0
LINE
  5
266
  8
TEXT_LAYER$TXT_03
 10
2.376073040498663
 20
43.27634516252552
 30
0.0
 11
2.38654330539311
 21
43.2556248371824
 31
0.0
  0
LINE
  5
267
  8
TEXT_LAYER$TXT_03
 10
2.38654330539311
 20
43.2556248371824
 30
0.0
 11
2.396681178549965
 21
43.23462696430681
 31
0.0
  0
LINE
  5
268
  8
TEXT_LAYER$TXT_03
 10
2.396681178549965
 20
43.23462696430681
 30
0.0
 11
2.406486660125034
 21
43.21335154359724
 31
0.0
  0
LINE
  5
269
  8
TEXT_LAYER$TXT_03
 10
2.406486660125034
 20
43.21335154359724
 30
0.0
 11
2.415959750274126
 21
43.19179857475223
 31
0.0
  0
LINE
  5
26A
  8
TEXT_LAYER$TXT_03
 10
2.415959750274126
 20
43.19179857475223
 30
0.0
 11
2.43390875691761
 21
43.14785999144988
 31
0.0
  0
LINE
  5
26B
  8
TEXT_LAYER$TXT_03
 10
2.43390875691761
 20
43.14785999144988
 30
0.0
 11
2.450528199726879
 21
43.10281121198785
 31
0.0
  0
LINE
  5
26C
  8
TEXT_LAYER$TXT_03
 10
2.450528199726879
 20
43.10281121198785
 30
0.0
 11
2.465818079948397
 21
43.05665223395422
 31
0.0
  0
LINE
  5
26D
  8
TEXT_LAYER$TXT_03
 10
2.465818079948397
 20
43.05665223395422
 30
0.0
 11
2.479778398828627
 21
43.00938305493712
 31
0.0
  0
LINE
  5
26E
  8
TEXT_LAYER$TXT_03
 10
2.479778398828627
 20
43.00938305493712
 30
0.0
 11
2.492409157614034
 21
42.96100367252461
 31
0.0
  0
LINE
  5
26F
  8
TEXT_LAYER$TXT_03
 10
2.492409157614034
 20
42.96100367252461
 30
0.0
 11
2.503710357551079
 21
42.9115140843048
 31
0.0
  0
LINE
  5
270
  8
TEXT_LAYER$TXT_03
 10
2.503710357551079
 20
42.9115140843048
 30
0.0
 11
2.513681999886227
 21
42.86091428786577
 31
0.0
  0
LINE
  5
271
  8
TEXT_LAYER$TXT_03
 10
2.513681999886227
 20
42.86091428786577
 30
0.0
 11
2.522324085865941
 21
42.80920428079563
 31
0.0
  0
LINE
  5
272
  8
TEXT_LAYER$TXT_03
 10
2.522324085865941
 20
42.80920428079563
 30
0.0
 11
2.529636616736683
 21
42.75638406068245
 31
0.0
  0
LINE
  5
273
  8
TEXT_LAYER$TXT_03
 10
2.529636616736683
 20
42.75638406068245
 30
0.0
 11
2.535619593744919
 21
42.70245362511434
 31
0.0
  0
LINE
  5
274
  8
TEXT_LAYER$TXT_03
 10
2.535619593744919
 20
42.70245362511434
 30
0.0
 11
2.54027301813711
 21
42.6474129716794
 31
0.0
  0
LINE
  5
275
  8
TEXT_LAYER$TXT_03
 10
2.54027301813711
 20
42.6474129716794
 30
0.0
 11
2.54359689115972
 21
42.5912620979657
 31
0.0
  0
LINE
  5
276
  8
TEXT_LAYER$TXT_03
 10
2.54359689115972
 20
42.5912620979657
 30
0.0
 11
2.545591214059213
 21
42.53400100156136
 31
0.0
  0
LINE
  5
277
  8
TEXT_LAYER$TXT_03
 10
2.545591214059213
 20
42.53400100156136
 30
0.0
 11
2.546255988082053
 21
42.47562968005445
 31
0.0
  0
LINE
  5
278
  8
TEXT_LAYER$TXT_03
 10
2.546255988082053
 20
42.47562968005445
 30
0.0
 11
2.544959678332416
 21
42.38376992118528
 31
0.0
  0
LINE
  5
279
  8
TEXT_LAYER$TXT_03
 10
2.544959678332416
 20
42.38376992118528
 30
0.0
 11
2.5410707458427
 21
42.29454282442616
 31
0.0
  0
LINE
  5
27A
  8
TEXT_LAYER$TXT_03
 10
2.5410707458427
 20
42.29454282442616
 30
0.0
 11
2.534589185751698
 21
42.20794837287502
 31
0.0
  0
LINE
  5
27B
  8
TEXT_LAYER$TXT_03
 10
2.534589185751698
 20
42.20794837287502
 30
0.0
 11
2.525514993198203
 21
42.12398654962985
 31
0.0
  0
LINE
  5
27C
  8
TEXT_LAYER$TXT_03
 10
2.525514993198203
 20
42.12398654962985
 30
0.0
 11
2.520005658228894
 21
42.08299286834011
 31
0.0
  0
LINE
  5
27D
  8
TEXT_LAYER$TXT_03
 10
2.520005658228894
 20
42.08299286834011
 30
0.0
 11
2.513848163321009
 21
42.04265733778858
 31
0.0
  0
LINE
  5
27E
  8
TEXT_LAYER$TXT_03
 10
2.513848163321009
 20
42.04265733778858
 30
0.0
 11
2.507042507866896
 21
42.00297995586253
 31
0.0
  0
LINE
  5
27F
  8
TEXT_LAYER$TXT_03
 10
2.507042507866896
 20
42.00297995586253
 30
0.0
 11
2.499588691258906
 21
41.96396072044918
 31
0.0
  0
LINE
  5
280
  8
TEXT_LAYER$TXT_03
 10
2.499588691258906
 20
41.96396072044918
 30
0.0
 11
2.491486712889387
 21
41.92559962943579
 31
0.0
  0
LINE
  5
281
  8
TEXT_LAYER$TXT_03
 10
2.491486712889387
 20
41.92559962943579
 30
0.0
 11
2.482736572150689
 21
41.8878966807096
 31
0.0
  0
LINE
  5
282
  8
TEXT_LAYER$TXT_03
 10
2.482736572150689
 20
41.8878966807096
 30
0.0
 11
2.47333826843516
 21
41.85085187215786
 31
0.0
  0
LINE
  5
283
  8
TEXT_LAYER$TXT_03
 10
2.47333826843516
 20
41.85085187215786
 30
0.0
 11
2.463291801135151
 21
41.8144652016678
 31
0.0
  0
LINE
  5
284
  8
TEXT_LAYER$TXT_03
 10
2.463291801135151
 20
41.8144652016678
 30
0.0
 11
2.452597169643008
 21
41.77873666712668
 31
0.0
  0
LINE
  5
285
  8
TEXT_LAYER$TXT_03
 10
2.452597169643008
 20
41.77873666712668
 30
0.0
 11
2.441254373351083
 21
41.74366626642173
 31
0.0
  0
LINE
  5
286
  8
TEXT_LAYER$TXT_03
 10
2.441254373351083
 20
41.74366626642173
 30
0.0
 11
2.429263411651724
 21
41.70925399744022
 31
0.0
  0
LINE
  5
287
  8
TEXT_LAYER$TXT_03
 10
2.429263411651724
 20
41.70925399744022
 30
0.0
 11
2.41662428393728
 21
41.67549985806937
 31
0.0
  0
LINE
  5
288
  8
TEXT_LAYER$TXT_03
 10
2.41662428393728
 20
41.67549985806937
 30
0.0
 11
2.403336989600101
 21
41.64240384619643
 31
0.0
  0
LINE
  5
289
  8
TEXT_LAYER$TXT_03
 10
2.403336989600101
 20
41.64240384619643
 30
0.0
 11
2.389401528032534
 21
41.60996595970865
 31
0.0
  0
LINE
  5
28A
  8
TEXT_LAYER$TXT_03
 10
2.389401528032534
 20
41.60996595970865
 30
0.0
 11
2.37481789862693
 21
41.57818619649328
 31
0.0
  0
LINE
  5
28B
  8
TEXT_LAYER$TXT_03
 10
2.37481789862693
 20
41.57818619649328
 30
0.0
 11
2.359586100775638
 21
41.54706455443754
 31
0.0
  0
LINE
  5
28C
  8
TEXT_LAYER$TXT_03
 10
2.359586100775638
 20
41.54706455443754
 30
0.0
 11
2.343706133871007
 21
41.5166010314287
 31
0.0
  0
LINE
  5
28D
  8
TEXT_LAYER$TXT_03
 10
2.343706133871007
 20
41.5166010314287
 30
0.0
 11
2.327177997305385
 21
41.486795625354
 31
0.0
  0
LINE
  5
28E
  8
TEXT_LAYER$TXT_03
 10
2.327177997305385
 20
41.486795625354
 30
0.0
 11
2.310001690471122
 21
41.45764833410067
 31
0.0
  0
LINE
  5
28F
  8
TEXT_LAYER$TXT_03
 10
2.310001690471122
 20
41.45764833410067
 30
0.0
 11
2.292177212760567
 21
41.42915915555596
 31
0.0
  0
LINE
  5
290
  8
TEXT_LAYER$TXT_03
 10
2.292177212760567
 20
41.42915915555596
 30
0.0
 11
2.273704563566069
 21
41.40132808760713
 31
0.0
  0
LINE
  5
291
  8
TEXT_LAYER$TXT_03
 10
2.273704563566069
 20
41.40132808760713
 30
0.0
 11
2.254583742279977
 21
41.37415512814141
 31
0.0
  0
LINE
  5
292
  8
TEXT_LAYER$TXT_03
 10
2.254583742279977
 20
41.37415512814141
 30
0.0
 11
2.234814748294641
 21
41.34764027504605
 31
0.0
  0
LINE
  5
293
  8
TEXT_LAYER$TXT_03
 10
2.234814748294641
 20
41.34764027504605
 30
0.0
 11
2.214397581002409
 21
41.3217835262083
 31
0.0
  0
LINE
  5
294
  8
TEXT_LAYER$TXT_03
 10
2.214397581002409
 20
41.3217835262083
 30
0.0
 11
2.19336549773905
 21
41.29665470492556
 31
0.0
  0
LINE
  5
295
  8
TEXT_LAYER$TXT_03
 10
2.19336549773905
 20
41.29665470492556
 30
0.0
 11
2.171751755071682
 21
41.27232363540514
 31
0.0
  0
LINE
  5
296
  8
TEXT_LAYER$TXT_03
 10
2.171751755071682
 20
41.27232363540514
 30
0.0
 11
2.149556351239676
 21
41.24879031689918
 31
0.0
  0
LINE
  5
297
  8
TEXT_LAYER$TXT_03
 10
2.149556351239676
 20
41.24879031689918
 30
0.0
 11
2.1267792844824
 21
41.2260547486598
 31
0.0
  0
LINE
  5
298
  8
TEXT_LAYER$TXT_03
 10
2.1267792844824
 20
41.2260547486598
 30
0.0
 11
2.103420553039227
 21
41.20411692993912
 31
0.0
  0
LINE
  5
299
  8
TEXT_LAYER$TXT_03
 10
2.103420553039227
 20
41.20411692993912
 30
0.0
 11
2.079480155149527
 21
41.18297685998925
 31
0.0
  0
LINE
  5
29A
  8
TEXT_LAYER$TXT_03
 10
2.079480155149527
 20
41.18297685998925
 30
0.0
 11
2.054958089052669
 21
41.16263453806233
 31
0.0
  0
LINE
  5
29B
  8
TEXT_LAYER$TXT_03
 10
2.054958089052669
 20
41.16263453806233
 30
0.0
 11
2.029854352988026
 21
41.14308996341048
 31
0.0
  0
LINE
  5
29C
  8
TEXT_LAYER$TXT_03
 10
2.029854352988026
 20
41.14308996341048
 30
0.0
 11
2.004168945194966
 21
41.12434313528581
 31
0.0
  0
LINE
  5
29D
  8
TEXT_LAYER$TXT_03
 10
2.004168945194966
 20
41.12434313528581
 30
0.0
 11
1.977901863912861
 21
41.10639405294045
 31
0.0
  0
LINE
  5
29E
  8
TEXT_LAYER$TXT_03
 10
1.977901863912861
 20
41.10639405294045
 30
0.0
 11
1.951053107381081
 21
41.08924271562653
 31
0.0
  0
LINE
  5
29F
  8
TEXT_LAYER$TXT_03
 10
1.951053107381081
 20
41.08924271562653
 30
0.0
 11
1.923622673838997
 21
41.07288912259615
 31
0.0
  0
LINE
  5
2A0
  8
TEXT_LAYER$TXT_03
 10
1.923622673838997
 20
41.07288912259615
 30
0.0
 11
1.895610561525979
 21
41.05733327310146
 31
0.0
  0
LINE
  5
2A1
  8
TEXT_LAYER$TXT_03
 10
1.895610561525979
 20
41.05733327310146
 30
0.0
 11
1.867016768681397
 21
41.04257516639456
 31
0.0
  0
LINE
  5
2A2
  8
TEXT_LAYER$TXT_03
 10
1.867016768681397
 20
41.04257516639456
 30
0.0
 11
1.837841293544622
 21
41.02861480172757
 31
0.0
  0
LINE
  5
2A3
  8
TEXT_LAYER$TXT_03
 10
1.837841293544622
 20
41.02861480172757
 30
0.0
 11
1.808084134355025
 21
41.01545217835262
 31
0.0
  0
LINE
  5
2A4
  8
TEXT_LAYER$TXT_03
 10
1.808084134355025
 20
41.01545217835262
 30
0.0
 11
1.777745289351977
 21
41.00308729552184
 31
0.0
  0
LINE
  5
2A5
  8
TEXT_LAYER$TXT_03
 10
1.777745289351977
 20
41.00308729552184
 30
0.0
 11
1.746824756774846
 21
40.99152015248734
 31
0.0
  0
LINE
  5
2A6
  8
TEXT_LAYER$TXT_03
 10
1.746824756774846
 20
40.99152015248734
 30
0.0
 11
1.715322534863005
 21
40.98075074850125
 31
0.0
  0
LINE
  5
2A7
  8
TEXT_LAYER$TXT_03
 10
1.715322534863005
 20
40.98075074850125
 30
0.0
 11
1.683238621855823
 21
40.9707790828157
 31
0.0
  0
LINE
  5
2A8
  8
TEXT_LAYER$TXT_03
 10
1.683238621855823
 20
40.9707790828157
 30
0.0
 11
1.650573015992671
 21
40.96160515468278
 31
0.0
  0
LINE
  5
2A9
  8
TEXT_LAYER$TXT_03
 10
1.650573015992671
 20
40.96160515468278
 30
0.0
 11
1.617325715512919
 21
40.95322896335465
 31
0.0
  0
LINE
  5
2AA
  8
TEXT_LAYER$TXT_03
 10
1.617325715512919
 20
40.95322896335465
 30
0.0
 11
1.583496718655939
 21
40.9456505080834
 31
0.0
  0
LINE
  5
2AB
  8
TEXT_LAYER$TXT_03
 10
1.583496718655939
 20
40.9456505080834
 30
0.0
 11
1.5490860236611
 21
40.93886978812117
 31
0.0
  0
LINE
  5
2AC
  8
TEXT_LAYER$TXT_03
 10
1.5490860236611
 20
40.93886978812117
 30
0.0
 11
1.514093628767773
 21
40.93288680272008
 31
0.0
  0
LINE
  5
2AD
  8
TEXT_LAYER$TXT_03
 10
1.514093628767773
 20
40.93288680272008
 30
0.0
 11
1.478519532215329
 21
40.92770155113225
 31
0.0
  0
LINE
  5
2AE
  8
TEXT_LAYER$TXT_03
 10
1.478519532215329
 20
40.92770155113225
 30
0.0
 11
1.442363732243138
 21
40.92331403260981
 31
0.0
  0
LINE
  5
2AF
  8
TEXT_LAYER$TXT_03
 10
1.442363732243138
 20
40.92331403260981
 30
0.0
 11
1.40562622709057
 21
40.91972424640487
 31
0.0
  0
LINE
  5
2B0
  8
TEXT_LAYER$TXT_03
 10
1.40562622709057
 20
40.91972424640487
 30
0.0
 11
1.368307014996996
 21
40.91693219176955
 31
0.0
  0
LINE
  5
2B1
  8
TEXT_LAYER$TXT_03
 10
1.368307014996996
 20
40.91693219176955
 30
0.0
 11
1.330406094201786
 21
40.91493786795598
 31
0.0
  0
LINE
  5
2B2
  8
TEXT_LAYER$TXT_03
 10
1.330406094201786
 20
40.91493786795598
 30
0.0
 11
1.291923462944311
 21
40.91374127421629
 31
0.0
  0
LINE
  5
2B3
  8
TEXT_LAYER$TXT_03
 10
1.291923462944311
 20
40.91374127421629
 30
0.0
 11
1.252859119463942
 21
40.91334240980259
 31
0.0
  0
LINE
  5
2B4
  8
TEXT_LAYER$TXT_03
 10
1.252859119463942
 20
40.91334240980259
 30
0.0
 11
1.197363009842309
 21
40.91428638921002
 31
0.0
  0
LINE
  5
2B5
  8
TEXT_LAYER$TXT_03
 10
1.197363009842309
 20
40.91428638921002
 30
0.0
 11
1.170113571546485
 21
40.91546636413304
 31
0.0
  0
LINE
  5
2B6
  8
TEXT_LAYER$TXT_03
 10
1.170113571546485
 20
40.91546636413304
 30
0.0
 11
1.143196542482366
 21
40.91711832979227
 31
0.0
  0
LINE
  5
2B7
  8
TEXT_LAYER$TXT_03
 10
1.143196542482366
 20
40.91711832979227
 30
0.0
 11
1.116611921316238
 21
40.91924228663019
 31
0.0
  0
LINE
  5
2B8
  8
TEXT_LAYER$TXT_03
 10
1.116611921316238
 20
40.91924228663019
 30
0.0
 11
1.090359706714386
 21
40.92183823508931
 31
0.0
  0
LINE
  5
2B9
  8
TEXT_LAYER$TXT_03
 10
1.090359706714386
 20
40.92183823508931
 30
0.0
 11
1.064439897343092
 21
40.92490617561211
 31
0.0
  0
LINE
  5
2BA
  8
TEXT_LAYER$TXT_03
 10
1.064439897343092
 20
40.92490617561211
 30
0.0
 11
1.038852491868642
 21
40.92844610864108
 31
0.0
  0
LINE
  5
2BB
  8
TEXT_LAYER$TXT_03
 10
1.038852491868642
 20
40.92844610864108
 30
0.0
 11
1.013597488957319
 21
40.93245803461873
 31
0.0
  0
LINE
  5
2BC
  8
TEXT_LAYER$TXT_03
 10
1.013597488957319
 20
40.93245803461873
 30
0.0
 11
0.9886748872754081
 21
40.93694195398756
 31
0.0
  0
LINE
  5
2BD
  8
TEXT_LAYER$TXT_03
 10
0.9886748872754081
 20
40.93694195398756
 30
0.0
 11
0.9640846854891931
 21
40.94189786719004
 31
0.0
  0
LINE
  5
2BE
  8
TEXT_LAYER$TXT_03
 10
0.9640846854891931
 20
40.94189786719004
 30
0.0
 11
0.9398268822649581
 21
40.94732577466867
 31
0.0
  0
LINE
  5
2BF
  8
TEXT_LAYER$TXT_03
 10
0.9398268822649581
 20
40.94732577466867
 30
0.0
 11
0.9159014762689877
 21
40.95322567686596
 31
0.0
  0
LINE
  5
2C0
  8
TEXT_LAYER$TXT_03
 10
0.9159014762689877
 20
40.95322567686596
 30
0.0
 11
0.8923084661675655
 21
40.9595975742244
 31
0.0
  0
LINE
  5
2C1
  8
TEXT_LAYER$TXT_03
 10
0.8923084661675655
 20
40.9595975742244
 30
0.0
 11
0.8690478506269763
 21
40.96644146718648
 31
0.0
  0
LINE
  5
2C2
  8
TEXT_LAYER$TXT_03
 10
0.8690478506269763
 20
40.96644146718648
 30
0.0
 11
0.8461196283135037
 21
40.97375735619469
 31
0.0
  0
LINE
  5
2C3
  8
TEXT_LAYER$TXT_03
 10
0.8461196283135037
 20
40.97375735619469
 30
0.0
 11
0.8235237978934324
 21
40.98154524169153
 31
0.0
  0
LINE
  5
2C4
  8
TEXT_LAYER$TXT_03
 10
0.8235237978934324
 20
40.98154524169153
 30
0.0
 11
0.8012603580330464
 21
40.9898051241195
 31
0.0
  0
LINE
  5
2C5
  8
TEXT_LAYER$TXT_03
 10
0.8012603580330464
 20
40.9898051241195
 30
0.0
 11
0.7793293073986299
 21
40.99853700392109
 31
0.0
  0
LINE
  5
2C6
  8
TEXT_LAYER$TXT_03
 10
0.7793293073986299
 20
40.99853700392109
 30
0.0
 11
0.757730644656467
 21
41.00774088153878
 31
0.0
  0
LINE
  5
2C7
  8
TEXT_LAYER$TXT_03
 10
0.757730644656467
 20
41.00774088153878
 30
0.0
 11
0.7364643684728421
 21
41.01741675741508
 31
0.0
  0
LINE
  5
2C8
  8
TEXT_LAYER$TXT_03
 10
0.7364643684728421
 20
41.01741675741508
 30
0.0
 11
0.7155304775140393
 21
41.02756463199249
 31
0.0
  0
LINE
  5
2C9
  8
TEXT_LAYER$TXT_03
 10
0.7155304775140393
 20
41.02756463199249
 30
0.0
 11
0.6949289704463428
 21
41.03818450571349
 31
0.0
  0
LINE
  5
2CA
  8
TEXT_LAYER$TXT_03
 10
0.6949289704463428
 20
41.03818450571349
 30
0.0
 11
0.6746598459360368
 21
41.04927637902059
 31
0.0
  0
LINE
  5
2CB
  8
TEXT_LAYER$TXT_03
 10
0.6746598459360368
 20
41.04927637902059
 30
0.0
 11
0.6547231026494056
 21
41.06084025235627
 31
0.0
  0
LINE
  5
2CC
  8
TEXT_LAYER$TXT_03
 10
0.6547231026494056
 20
41.06084025235627
 30
0.0
 11
0.6351187392527331
 21
41.07287612616304
 31
0.0
  0
LINE
  5
2CD
  8
TEXT_LAYER$TXT_03
 10
0.6351187392527331
 20
41.07287612616304
 30
0.0
 11
0.6158467544123036
 21
41.08538400088338
 31
0.0
  0
LINE
  5
2CE
  8
TEXT_LAYER$TXT_03
 10
0.6158467544123036
 20
41.08538400088338
 30
0.0
 11
0.5969071467944015
 21
41.09836387695977
 31
0.0
  0
LINE
  5
2CF
  8
TEXT_LAYER$TXT_03
 10
0.5969071467944015
 20
41.09836387695977
 30
0.0
 11
0.578299915065311
 21
41.11181575483474
 31
0.0
  0
LINE
  5
2D0
  8
TEXT_LAYER$TXT_03
 10
0.578299915065311
 20
41.11181575483474
 30
0.0
 11
0.560025057891316
 21
41.12573963495076
 31
0.0
  0
LINE
  5
2D1
  8
TEXT_LAYER$TXT_03
 10
0.560025057891316
 20
41.12573963495076
 30
0.0
 11
0.5420825739387009
 21
41.14013551775034
 31
0.0
  0
LINE
  5
2D2
  8
TEXT_LAYER$TXT_03
 10
0.5420825739387009
 20
41.14013551775034
 30
0.0
 11
0.5244724618737497
 21
41.15500340367597
 31
0.0
  0
LINE
  5
2D3
  8
TEXT_LAYER$TXT_03
 10
0.5244724618737497
 20
41.15500340367597
 30
0.0
 11
0.5030664392286675
 21
41.17406938089327
 31
0.0
  0
LINE
  5
2D4
  8
TEXT_LAYER$TXT_03
 10
0.5030664392286675
 20
41.17406938089327
 30
0.0
 11
0.4822454542367507
 21
41.19382669346174
 31
0.0
  0
LINE
  5
2D5
  8
TEXT_LAYER$TXT_03
 10
0.4822454542367507
 20
41.19382669346174
 30
0.0
 11
0.4620095029093167
 21
41.21427534706526
 31
0.0
  0
LINE
  5
2D6
  8
TEXT_LAYER$TXT_03
 10
0.4620095029093167
 20
41.21427534706526
 30
0.0
 11
0.4423585812576826
 21
41.23541534738768
 31
0.0
  0
LINE
  5
2D7
  8
TEXT_LAYER$TXT_03
 10
0.4423585812576826
 20
41.23541534738768
 30
0.0
 11
0.4232926852931655
 21
41.25724670011288
 31
0.0
  0
LINE
  5
2D8
  8
TEXT_LAYER$TXT_03
 10
0.4232926852931655
 20
41.25724670011288
 30
0.0
 11
0.404811811027083
 21
41.27976941092474
 31
0.0
  0
LINE
  5
2D9
  8
TEXT_LAYER$TXT_03
 10
0.404811811027083
 20
41.27976941092474
 30
0.0
 11
0.386915954470752
 21
41.30298348550713
 31
0.0
  0
LINE
  5
2DA
  8
TEXT_LAYER$TXT_03
 10
0.386915954470752
 20
41.30298348550713
 30
0.0
 11
0.3696051116354897
 21
41.32688892954391
 31
0.0
  0
LINE
  5
2DB
  8
TEXT_LAYER$TXT_03
 10
0.3696051116354897
 20
41.32688892954391
 30
0.0
 11
0.3528792785326135
 21
41.35148574871896
 31
0.0
  0
LINE
  5
2DC
  8
TEXT_LAYER$TXT_03
 10
0.3528792785326135
 20
41.35148574871896
 30
0.0
 11
0.3367384511734404
 21
41.37677394871617
 31
0.0
  0
LINE
  5
2DD
  8
TEXT_LAYER$TXT_03
 10
0.3367384511734404
 20
41.37677394871617
 30
0.0
 11
0.3211826255692877
 21
41.4027535352194
 31
0.0
  0
LINE
  5
2DE
  8
TEXT_LAYER$TXT_03
 10
0.3211826255692877
 20
41.4027535352194
 30
0.0
 11
0.3062117977314726
 21
41.42942451391252
 31
0.0
  0
LINE
  5
2DF
  8
TEXT_LAYER$TXT_03
 10
0.3062117977314726
 20
41.42942451391252
 30
0.0
 11
0.2918259636713123
 21
41.45678689047941
 31
0.0
  0
LINE
  5
2E0
  8
TEXT_LAYER$TXT_03
 10
0.2918259636713123
 20
41.45678689047941
 30
0.0
 11
0.2780251194001241
 21
41.48484067060394
 31
0.0
  0
LINE
  5
2E1
  8
TEXT_LAYER$TXT_03
 10
0.2780251194001241
 20
41.48484067060394
 30
0.0
 11
0.2648092609292251
 21
41.51358585996997
 31
0.0
  0
LINE
  5
2E2
  8
TEXT_LAYER$TXT_03
 10
0.2648092609292251
 20
41.51358585996997
 30
0.0
 11
0.2521783842699326
 21
41.5430224642614
 31
0.0
  0
LINE
  5
2E3
  8
TEXT_LAYER$TXT_03
 10
0.2521783842699326
 20
41.5430224642614
 30
0.0
 11
0.2453926096001169
 21
41.51914842513456
 31
0.0
  0
LINE
  5
2E4
  8
TEXT_LAYER$TXT_03
 10
0.2453926096001169
 20
41.51914842513456
 30
0.0
 11
0.2382245954243178
 21
41.49560347048225
 31
0.0
  0
LINE
  5
2E5
  8
TEXT_LAYER$TXT_03
 10
0.2382245954243178
 20
41.49560347048225
 30
0.0
 11
0.2306743409977735
 21
41.47238759920446
 31
0.0
  0
LINE
  5
2E6
  8
TEXT_LAYER$TXT_03
 10
0.2306743409977735
 20
41.47238759920446
 30
0.0
 11
0.222741845575722
 21
41.44950081020119
 31
0.0
  0
LINE
  5
2E7
  8
TEXT_LAYER$TXT_03
 10
0.222741845575722
 20
41.44950081020119
 30
0.0
 11
0.2144271084134016
 21
41.42694310237243
 31
0.0
  0
LINE
  5
2E8
  8
TEXT_LAYER$TXT_03
 10
0.2144271084134016
 20
41.42694310237243
 30
0.0
 11
0.2057301287660504
 21
41.40471447461817
 31
0.0
  0
LINE
  5
2E9
  8
TEXT_LAYER$TXT_03
 10
0.2057301287660504
 20
41.40471447461817
 30
0.0
 11
0.1966509058889064
 21
41.38281492583844
 31
0.0
  0
LINE
  5
2EA
  8
TEXT_LAYER$TXT_03
 10
0.1966509058889064
 20
41.38281492583844
 30
0.0
 11
0.187189439037208
 21
41.3612444549332
 31
0.0
  0
LINE
  5
2EB
  8
TEXT_LAYER$TXT_03
 10
0.187189439037208
 20
41.3612444549332
 30
0.0
 11
0.1773457274661931
 21
41.34000306080246
 31
0.0
  0
LINE
  5
2EC
  8
TEXT_LAYER$TXT_03
 10
0.1773457274661931
 20
41.34000306080246
 30
0.0
 11
0.1671197704310999
 21
41.31909074234622
 31
0.0
  0
LINE
  5
2ED
  8
TEXT_LAYER$TXT_03
 10
0.1671197704310999
 20
41.31909074234622
 30
0.0
 11
0.1565115671871666
 21
41.29850749846447
 31
0.0
  0
LINE
  5
2EE
  8
TEXT_LAYER$TXT_03
 10
0.1565115671871666
 20
41.29850749846447
 30
0.0
 11
0.1455211169896313
 21
41.2782533280572
 31
0.0
  0
LINE
  5
2EF
  8
TEXT_LAYER$TXT_03
 10
0.1455211169896313
 20
41.2782533280572
 30
0.0
 11
0.1341484190937321
 21
41.25832823002441
 31
0.0
  0
LINE
  5
2F0
  8
TEXT_LAYER$TXT_03
 10
0.1341484190937321
 20
41.25832823002441
 30
0.0
 11
0.1223934727547072
 21
41.2387322032661
 31
0.0
  0
LINE
  5
2F1
  8
TEXT_LAYER$TXT_03
 10
0.1223934727547072
 20
41.2387322032661
 30
0.0
 11
0.1102562772277947
 21
41.21946524668227
 31
0.0
  0
LINE
  5
2F2
  8
TEXT_LAYER$TXT_03
 10
0.1102562772277947
 20
41.21946524668227
 30
0.0
 11
0.0977368317682328
 21
41.20052735917291
 31
0.0
  0
LINE
  5
2F3
  8
TEXT_LAYER$TXT_03
 10
0.0977368317682328
 20
41.20052735917291
 30
0.0
 11
0.0848351356312596
 21
41.18191853963802
 31
0.0
  0
LINE
  5
2F4
  8
TEXT_LAYER$TXT_03
 10
0.0848351356312596
 20
41.18191853963802
 30
0.0
 11
0.0715511880721131
 21
41.16363878697759
 31
0.0
  0
LINE
  5
2F5
  8
TEXT_LAYER$TXT_03
 10
0.0715511880721131
 20
41.16363878697759
 30
0.0
 11
0.0578849883460317
 21
41.14568810009162
 31
0.0
  0
LINE
  5
2F6
  8
TEXT_LAYER$TXT_03
 10
0.0578849883460317
 20
41.14568810009162
 30
0.0
 11
0.0438365357082534
 21
41.1280664778801
 31
0.0
  0
LINE
  5
2F7
  8
TEXT_LAYER$TXT_03
 10
0.0438365357082534
 20
41.1280664778801
 30
0.0
 11
0.0294058294140163
 21
41.11077391924304
 31
0.0
  0
LINE
  5
2F8
  8
TEXT_LAYER$TXT_03
 10
0.0294058294140163
 20
41.11077391924304
 30
0.0
 11
0.0145928687185586
 21
41.09381042308041
 31
0.0
  0
LINE
  5
2F9
  8
TEXT_LAYER$TXT_03
 10
0.0145928687185586
 20
41.09381042308041
 30
0.0
 11
-0.0006023471228816
 21
41.07717598829224
 31
0.0
  0
LINE
  5
2FA
  8
TEXT_LAYER$TXT_03
 10
-0.0006023471228816
 20
41.07717598829224
 30
0.0
 11
-0.0161798188550661
 21
41.0608706137785
 31
0.0
  0
LINE
  5
2FB
  8
TEXT_LAYER$TXT_03
 10
-0.0161798188550661
 20
41.0608706137785
 30
0.0
 11
-0.0321395472227569
 21
41.0448942984392
 31
0.0
  0
LINE
  5
2FC
  8
TEXT_LAYER$TXT_03
 10
-0.0321395472227569
 20
41.0448942984392
 30
0.0
 11
-0.0484815329707156
 21
41.02924704117434
 31
0.0
  0
LINE
  5
2FD
  8
TEXT_LAYER$TXT_03
 10
-0.0484815329707156
 20
41.02924704117434
 30
0.0
 11
-0.0652057768437043
 21
41.01392884088391
 31
0.0
  0
LINE
  5
2FE
  8
TEXT_LAYER$TXT_03
 10
-0.0652057768437043
 20
41.01392884088391
 30
0.0
 11
-0.0823122795864848
 21
40.99893969646789
 31
0.0
  0
LINE
  5
2FF
  8
TEXT_LAYER$TXT_03
 10
-0.0823122795864848
 20
40.99893969646789
 30
0.0
 11
-0.099801041943819
 21
40.98427960682629
 31
0.0
  0
LINE
  5
300
  8
TEXT_LAYER$TXT_03
 10
-0.099801041943819
 20
40.98427960682629
 30
0.0
 11
-0.1176720646604686
 21
40.96994857085912
 31
0.0
  0
LINE
  5
301
  8
TEXT_LAYER$TXT_03
 10
-0.1176720646604686
 20
40.96994857085912
 30
0.0
 11
-0.1359253484811957
 21
40.95594658746635
 31
0.0
  0
LINE
  5
302
  8
TEXT_LAYER$TXT_03
 10
-0.1359253484811957
 20
40.95594658746635
 30
0.0
 11
-0.1545608941507619
 21
40.94227365554799
 31
0.0
  0
LINE
  5
303
  8
TEXT_LAYER$TXT_03
 10
-0.1545608941507619
 20
40.94227365554799
 30
0.0
 11
-0.1735188552214045
 21
40.92897632095253
 31
0.0
  0
LINE
  5
304
  8
TEXT_LAYER$TXT_03
 10
-0.1735188552214045
 20
40.92897632095253
 30
0.0
 11
-0.1927393856483851
 21
40.91610112999798
 31
0.0
  0
LINE
  5
305
  8
TEXT_LAYER$TXT_03
 10
-0.1927393856483851
 20
40.91610112999798
 30
0.0
 11
-0.2122224867810003
 21
40.90364808228857
 31
0.0
  0
LINE
  5
306
  8
TEXT_LAYER$TXT_03
 10
-0.2122224867810003
 20
40.90364808228857
 30
0.0
 11
-0.2319681599685466
 21
40.89161717742857
 31
0.0
  0
LINE
  5
307
  8
TEXT_LAYER$TXT_03
 10
-0.2319681599685466
 20
40.89161717742857
 30
0.0
 11
-0.2519764065603207
 21
40.88000841502222
 31
0.0
  0
LINE
  5
308
  8
TEXT_LAYER$TXT_03
 10
-0.2519764065603207
 20
40.88000841502222
 30
0.0
 11
-0.2722472279056192
 21
40.86882179467374
 31
0.0
  0
LINE
  5
309
  8
TEXT_LAYER$TXT_03
 10
-0.2722472279056192
 20
40.86882179467374
 30
0.0
 11
-0.2927806253537386
 21
40.85805731598741
 31
0.0
  0
LINE
  5
30A
  8
TEXT_LAYER$TXT_03
 10
-0.2927806253537386
 20
40.85805731598741
 30
0.0
 11
-0.3135766002539756
 21
40.84771497856747
 31
0.0
  0
LINE
  5
30B
  8
TEXT_LAYER$TXT_03
 10
-0.3135766002539756
 20
40.84771497856747
 30
0.0
 11
-0.3346351539556268
 21
40.83779478201817
 31
0.0
  0
LINE
  5
30C
  8
TEXT_LAYER$TXT_03
 10
-0.3346351539556268
 20
40.83779478201817
 30
0.0
 11
-0.3559562878079886
 21
40.82829672594376
 31
0.0
  0
LINE
  5
30D
  8
TEXT_LAYER$TXT_03
 10
-0.3559562878079886
 20
40.82829672594376
 30
0.0
 11
-0.3775400031603578
 21
40.81922080994847
 31
0.0
  0
LINE
  5
30E
  8
TEXT_LAYER$TXT_03
 10
-0.3775400031603578
 20
40.81922080994847
 30
0.0
 11
-0.3993863013620309
 21
40.81056703363656
 31
0.0
  0
LINE
  5
30F
  8
TEXT_LAYER$TXT_03
 10
-0.3993863013620309
 20
40.81056703363656
 30
0.0
 11
-0.4214951837623045
 21
40.80233539661228
 31
0.0
  0
LINE
  5
310
  8
TEXT_LAYER$TXT_03
 10
-0.4214951837623045
 20
40.80233539661228
 30
0.0
 11
-0.4438666517104753
 21
40.79452589847988
 31
0.0
  0
LINE
  5
311
  8
TEXT_LAYER$TXT_03
 10
-0.4438666517104753
 20
40.79452589847988
 30
0.0
 11
-0.4665007065558399
 21
40.78713853884361
 31
0.0
  0
LINE
  5
312
  8
TEXT_LAYER$TXT_03
 10
-0.4665007065558399
 20
40.78713853884361
 30
0.0
 11
-0.4893973496476947
 21
40.78017331730769
 31
0.0
  0
LINE
  5
313
  8
TEXT_LAYER$TXT_03
 10
-0.4893973496476947
 20
40.78017331730769
 30
0.0
 11
-0.5125565823353364
 21
40.7736302334764
 31
0.0
  0
LINE
  5
314
  8
TEXT_LAYER$TXT_03
 10
-0.5125565823353364
 20
40.7736302334764
 30
0.0
 11
-0.5359784059680616
 21
40.76750928695398
 31
0.0
  0
LINE
  5
315
  8
TEXT_LAYER$TXT_03
 10
-0.5359784059680616
 20
40.76750928695398
 30
0.0
 11
-0.5596628218951668
 21
40.76181047734468
 31
0.0
  0
LINE
  5
316
  8
TEXT_LAYER$TXT_03
 10
-0.5596628218951668
 20
40.76181047734468
 30
0.0
 11
-0.5836098314659489
 21
40.75653380425274
 31
0.0
  0
LINE
  5
317
  8
TEXT_LAYER$TXT_03
 10
-0.5836098314659489
 20
40.75653380425274
 30
0.0
 11
-0.6078194360297042
 21
40.75167926728241
 31
0.0
  0
LINE
  5
318
  8
TEXT_LAYER$TXT_03
 10
-0.6078194360297042
 20
40.75167926728241
 30
0.0
 11
-0.6322916369357294
 21
40.74724686603794
 31
0.0
  0
LINE
  5
319
  8
TEXT_LAYER$TXT_03
 10
-0.6322916369357294
 20
40.74724686603794
 30
0.0
 11
-0.657026435533321
 21
40.74323660012357
 31
0.0
  0
LINE
  5
31A
  8
TEXT_LAYER$TXT_03
 10
-0.657026435533321
 20
40.74323660012357
 30
0.0
 11
-0.6820238331717757
 21
40.73964846914355
 31
0.0
  0
LINE
  5
31B
  8
TEXT_LAYER$TXT_03
 10
-0.6820238331717757
 20
40.73964846914355
 30
0.0
 11
-0.7072838312003902
 21
40.73648247270214
 31
0.0
  0
LINE
  5
31C
  8
TEXT_LAYER$TXT_03
 10
-0.7072838312003902
 20
40.73648247270214
 30
0.0
 11
-0.7328064309684608
 21
40.73373861040358
 31
0.0
  0
LINE
  5
31D
  8
TEXT_LAYER$TXT_03
 10
-0.7328064309684608
 20
40.73373861040358
 30
0.0
 11
-0.7846394411201572
 21
40.72951728665201
 31
0.0
  0
LINE
  5
31E
  8
TEXT_LAYER$TXT_03
 10
-0.7846394411201572
 20
40.72951728665201
 30
0.0
 11
-0.837522874421238
 21
40.72698449472281
 31
0.0
  0
LINE
  5
31F
  8
TEXT_LAYER$TXT_03
 10
-0.837522874421238
 20
40.72698449472281
 30
0.0
 11
-0.8914567416660755
 21
40.72614023144997
 31
0.0
  0
LINE
  5
320
  8
TEXT_LAYER$TXT_03
 10
-0.8914567416660755
 20
40.72614023144997
 30
0.0
 11
-0.9348139239354998
 21
40.72658895391538
 31
0.0
  0
LINE
  5
321
  8
TEXT_LAYER$TXT_03
 10
-0.9348139239354998
 20
40.72658895391538
 30
0.0
 11
-0.9776658393030468
 21
40.72793512187254
 31
0.0
  0
LINE
  5
322
  8
TEXT_LAYER$TXT_03
 10
-0.9776658393030468
 20
40.72793512187254
 30
0.0
 11
-1.020012489850311
 21
40.7301787361628
 31
0.0
  0
LINE
  5
323
  8
TEXT_LAYER$TXT_03
 10
-1.020012489850311
 20
40.7301787361628
 30
0.0
 11
-1.061853877658885
 21
40.73331979762753
 31
0.0
  0
LINE
  5
324
  8
TEXT_LAYER$TXT_03
 10
-1.061853877658885
 20
40.73331979762753
 30
0.0
 11
-1.103190004810364
 21
40.7373583071081
 31
0.0
  0
LINE
  5
325
  8
TEXT_LAYER$TXT_03
 10
-1.103190004810364
 20
40.7373583071081
 30
0.0
 11
-1.144020873386341
 21
40.74229426544585
 31
0.0
  0
LINE
  5
326
  8
TEXT_LAYER$TXT_03
 10
-1.144020873386341
 20
40.74229426544585
 30
0.0
 11
-1.18434648546841
 21
40.74812767348215
 31
0.0
  0
LINE
  5
327
  8
TEXT_LAYER$TXT_03
 10
-1.18434648546841
 20
40.74812767348215
 30
0.0
 11
-1.224166843138165
 21
40.75485853205838
 31
0.0
  0
LINE
  5
328
  8
TEXT_LAYER$TXT_03
 10
-1.224166843138165
 20
40.75485853205838
 30
0.0
 11
-1.2634819484772
 21
40.76248684201589
 31
0.0
  0
LINE
  5
329
  8
TEXT_LAYER$TXT_03
 10
-1.2634819484772
 20
40.76248684201589
 30
0.0
 11
-1.302291803567108
 21
40.77101260419604
 31
0.0
  0
LINE
  5
32A
  8
TEXT_LAYER$TXT_03
 10
-1.302291803567108
 20
40.77101260419604
 30
0.0
 11
-1.340596410489484
 21
40.78043581944019
 31
0.0
  0
LINE
  5
32B
  8
TEXT_LAYER$TXT_03
 10
-1.340596410489484
 20
40.78043581944019
 30
0.0
 11
-1.378395771325921
 21
40.79075648858971
 31
0.0
  0
LINE
  5
32C
  8
TEXT_LAYER$TXT_03
 10
-1.378395771325921
 20
40.79075648858971
 30
0.0
 11
-1.415689888158012
 21
40.80197461248596
 31
0.0
  0
LINE
  5
32D
  8
TEXT_LAYER$TXT_03
 10
-1.415689888158012
 20
40.80197461248596
 30
0.0
 11
-1.452478763067353
 21
40.81409019197032
 31
0.0
  0
LINE
  5
32E
  8
TEXT_LAYER$TXT_03
 10
-1.452478763067353
 20
40.81409019197032
 30
0.0
 11
-1.488762398135537
 21
40.82710322788414
 31
0.0
  0
LINE
  5
32F
  8
TEXT_LAYER$TXT_03
 10
-1.488762398135537
 20
40.82710322788414
 30
0.0
 11
-1.524540795444156
 21
40.84101372106876
 31
0.0
  0
LINE
  5
330
  8
TEXT_LAYER$TXT_03
 10
-1.524540795444156
 20
40.84101372106876
 30
0.0
 11
-1.559813957074806
 21
40.85582167236557
 31
0.0
  0
LINE
  5
331
  8
TEXT_LAYER$TXT_03
 10
-1.559813957074806
 20
40.85582167236557
 30
0.0
 11
-1.59458188510908
 21
40.87152708261593
 31
0.0
  0
LINE
  5
332
  8
TEXT_LAYER$TXT_03
 10
-1.59458188510908
 20
40.87152708261593
 30
0.0
 11
-1.628844581628573
 21
40.8881299526612
 31
0.0
  0
LINE
  5
333
  8
TEXT_LAYER$TXT_03
 10
-1.628844581628573
 20
40.8881299526612
 30
0.0
 11
-1.662602048714877
 21
40.90563028334274
 31
0.0
  0
LINE
  5
334
  8
TEXT_LAYER$TXT_03
 10
-1.662602048714877
 20
40.90563028334274
 30
0.0
 11
-1.695854288449586
 21
40.92402807550191
 31
0.0
  0
LINE
  5
335
  8
TEXT_LAYER$TXT_03
 10
-1.695854288449586
 20
40.92402807550191
 30
0.0
 11
-1.728601302914295
 21
40.94332332998008
 31
0.0
  0
LINE
  5
336
  8
TEXT_LAYER$TXT_03
 10
-1.728601302914295
 20
40.94332332998008
 30
0.0
 11
-1.760843094190597
 21
40.96351604761861
 31
0.0
  0
LINE
  5
337
  8
TEXT_LAYER$TXT_03
 10
-1.760843094190597
 20
40.96351604761861
 30
0.0
 11
-1.792579664360086
 21
40.98460622925886
 31
0.0
  0
LINE
  5
338
  8
TEXT_LAYER$TXT_03
 10
-1.792579664360086
 20
40.98460622925886
 30
0.0
 11
-1.823811015504357
 21
41.0065938757422
 31
0.0
  0
LINE
  5
339
  8
TEXT_LAYER$TXT_03
 10
-1.823811015504357
 20
41.0065938757422
 30
0.0
 11
-1.854537149705001
 21
41.02947898790998
 31
0.0
  0
LINE
  5
33A
  8
TEXT_LAYER$TXT_03
 10
-1.854537149705001
 20
41.02947898790998
 30
0.0
 11
-1.884758069043615
 21
41.05326156660357
 31
0.0
  0
LINE
  5
33B
  8
TEXT_LAYER$TXT_03
 10
-1.884758069043615
 20
41.05326156660357
 30
0.0
 11
-1.91447377560179
 21
41.07794161266434
 31
0.0
  0
LINE
  5
33C
  8
TEXT_LAYER$TXT_03
 10
-1.91447377560179
 20
41.07794161266434
 30
0.0
 11
-1.943684271461123
 21
41.10351912693365
 31
0.0
  0
LINE
  5
33D
  8
TEXT_LAYER$TXT_03
 10
-1.943684271461123
 20
41.10351912693365
 30
0.0
 11
-1.972389558703205
 21
41.12999411025285
 31
0.0
  0
LINE
  5
33E
  8
TEXT_LAYER$TXT_03
 10
-1.972389558703205
 20
41.12999411025285
 30
0.0
 11
-2.000589639409631
 21
41.15736656346331
 31
0.0
  0
LINE
  5
33F
  8
TEXT_LAYER$TXT_03
 10
-2.000589639409631
 20
41.15736656346331
 30
0.0
 11
-2.028284515661994
 21
41.1856364874064
 31
0.0
  0
LINE
  5
340
  8
TEXT_LAYER$TXT_03
 10
-2.028284515661994
 20
41.1856364874064
 30
0.0
 11
-2.055297998540946
 21
41.21473073113781
 31
0.0
  0
LINE
  5
341
  8
TEXT_LAYER$TXT_03
 10
-2.055297998540946
 20
41.21473073113781
 30
0.0
 11
-2.081453898275391
 21
41.24457614474365
 31
0.0
  0
LINE
  5
342
  8
TEXT_LAYER$TXT_03
 10
-2.081453898275391
 20
41.24457614474365
 30
0.0
 11
-2.106752215669297
 21
41.27517273061088
 31
0.0
  0
LINE
  5
343
  8
TEXT_LAYER$TXT_03
 10
-2.106752215669297
 20
41.27517273061088
 30
0.0
 11
-2.131192951526632
 21
41.30652049112651
 31
0.0
  0
LINE
  5
344
  8
TEXT_LAYER$TXT_03
 10
-2.131192951526632
 20
41.30652049112651
 30
0.0
 11
-2.154776106651366
 21
41.33861942867749
 31
0.0
  0
LINE
  5
345
  8
TEXT_LAYER$TXT_03
 10
-2.154776106651366
 20
41.33861942867749
 30
0.0
 11
-2.177501681847468
 21
41.3714695456508
 31
0.0
  0
LINE
  5
346
  8
TEXT_LAYER$TXT_03
 10
-2.177501681847468
 20
41.3714695456508
 30
0.0
 11
-2.199369677918906
 21
41.40507084443342
 31
0.0
  0
LINE
  5
347
  8
TEXT_LAYER$TXT_03
 10
-2.199369677918906
 20
41.40507084443342
 30
0.0
 11
-2.22038009566965
 21
41.43942332741235
 31
0.0
  0
LINE
  5
348
  8
TEXT_LAYER$TXT_03
 10
-2.22038009566965
 20
41.43942332741235
 30
0.0
 11
-2.240532935903667
 21
41.47452699697455
 31
0.0
  0
LINE
  5
349
  8
TEXT_LAYER$TXT_03
 10
-2.240532935903667
 20
41.47452699697455
 30
0.0
 11
-2.259828199424928
 21
41.51038185550697
 31
0.0
  0
LINE
  5
34A
  8
TEXT_LAYER$TXT_03
 10
-2.259828199424928
 20
41.51038185550697
 30
0.0
 11
-2.278265887037401
 21
41.54698790539662
 31
0.0
  0
LINE
  5
34B
  8
TEXT_LAYER$TXT_03
 10
-2.278265887037401
 20
41.54698790539662
 30
0.0
 11
-2.295845999545054
 21
41.58434514903048
 31
0.0
  0
LINE
  5
34C
  8
TEXT_LAYER$TXT_03
 10
-2.295845999545054
 20
41.58434514903048
 30
0.0
 11
-2.312568537751857
 21
41.62245358879551
 31
0.0
  0
LINE
  5
34D
  8
TEXT_LAYER$TXT_03
 10
-2.312568537751857
 20
41.62245358879551
 30
0.0
 11
-2.328433502461778
 21
41.66131322707869
 31
0.0
  0
LINE
  5
34E
  8
TEXT_LAYER$TXT_03
 10
-2.328433502461778
 20
41.66131322707869
 30
0.0
 11
-2.343440894478787
 21
41.70092406626701
 31
0.0
  0
LINE
  5
34F
  8
TEXT_LAYER$TXT_03
 10
-2.343440894478787
 20
41.70092406626701
 30
0.0
 11
-2.357590714606852
 21
41.74128610874745
 31
0.0
  0
LINE
  5
350
  8
TEXT_LAYER$TXT_03
 10
-2.357590714606852
 20
41.74128610874745
 30
0.0
 11
-2.370882963649943
 21
41.78239935690696
 31
0.0
  0
LINE
  5
351
  8
TEXT_LAYER$TXT_03
 10
-2.370882963649943
 20
41.78239935690696
 30
0.0
 11
-2.383317642412027
 21
41.82426381313253
 31
0.0
  0
LINE
  5
352
  8
TEXT_LAYER$TXT_03
 10
-2.383317642412027
 20
41.82426381313253
 30
0.0
 11
-2.394894751697074
 21
41.86687947981115
 31
0.0
  0
LINE
  5
353
  8
TEXT_LAYER$TXT_03
 10
-2.394894751697074
 20
41.86687947981115
 30
0.0
 11
-2.405614292309052
 21
41.91024635932979
 31
0.0
  0
LINE
  5
354
  8
TEXT_LAYER$TXT_03
 10
-2.405614292309052
 20
41.91024635932979
 30
0.0
 11
-2.415476265051931
 21
41.95436445407542
 31
0.0
  0
LINE
  5
355
  8
TEXT_LAYER$TXT_03
 10
-2.415476265051931
 20
41.95436445407542
 30
0.0
 11
-2.424480670729681
 21
41.99923376643503
 31
0.0
  0
LINE
  5
356
  8
TEXT_LAYER$TXT_03
 10
-2.424480670729681
 20
41.99923376643503
 30
0.0
 11
-2.432627510146268
 21
42.04485429879558
 31
0.0
  0
LINE
  5
357
  8
TEXT_LAYER$TXT_03
 10
-2.432627510146268
 20
42.04485429879558
 30
0.0
 11
-2.439916784105662
 21
42.09122605354408
 31
0.0
  0
LINE
  5
358
  8
TEXT_LAYER$TXT_03
 10
-2.439916784105662
 20
42.09122605354408
 30
0.0
 11
-2.446348493411833
 21
42.13834903306747
 31
0.0
  0
LINE
  5
359
  8
TEXT_LAYER$TXT_03
 10
-2.446348493411833
 20
42.13834903306747
 30
0.0
 11
-2.451922638868748
 21
42.18622323975274
 31
0.0
  0
LINE
  5
35A
  8
TEXT_LAYER$TXT_03
 10
-2.451922638868748
 20
42.18622323975274
 30
0.0
 11
-2.456639221280377
 21
42.23484867598687
 31
0.0
  0
LINE
  5
35B
  8
TEXT_LAYER$TXT_03
 10
-2.456639221280377
 20
42.23484867598687
 30
0.0
 11
-2.460498241450689
 21
42.28422534415684
 31
0.0
  0
LINE
  5
35C
  8
TEXT_LAYER$TXT_03
 10
-2.460498241450689
 20
42.28422534415684
 30
0.0
 11
-2.463499700183652
 21
42.33435324664963
 31
0.0
  0
LINE
  5
35D
  8
TEXT_LAYER$TXT_03
 10
-2.463499700183652
 20
42.33435324664963
 30
0.0
 11
-2.465643598283236
 21
42.38523238585221
 31
0.0
  0
LINE
  5
35E
  8
TEXT_LAYER$TXT_03
 10
-2.465643598283236
 20
42.38523238585221
 30
0.0
 11
-2.467358715798141
 21
42.48924438393465
 31
0.0
  0
LINE
  5
35F
  8
TEXT_LAYER$TXT_03
 10
-2.467358715798141
 20
42.48924438393465
 30
0.0
 11
-2.466895035917211
 21
42.54281430544454
 31
0.0
  0
LINE
  5
360
  8
TEXT_LAYER$TXT_03
 10
-2.466895035917211
 20
42.54281430544454
 30
0.0
 11
-2.465503995694814
 21
42.5954568191227
 31
0.0
  0
LINE
  5
361
  8
TEXT_LAYER$TXT_03
 10
-2.465503995694814
 20
42.5954568191227
 30
0.0
 11
-2.463185594261543
 21
42.64717192726576
 31
0.0
  0
LINE
  5
362
  8
TEXT_LAYER$TXT_03
 10
-2.463185594261543
 20
42.64717192726576
 30
0.0
 11
-2.45993983074799
 21
42.69795963217032
 31
0.0
  0
LINE
  5
363
  8
TEXT_LAYER$TXT_03
 10
-2.45993983074799
 20
42.69795963217032
 30
0.0
 11
-2.455766704284746
 21
42.74781993613298
 31
0.0
  0
LINE
  5
364
  8
TEXT_LAYER$TXT_03
 10
-2.455766704284746
 20
42.74781993613298
 30
0.0
 11
-2.450666214002402
 21
42.79675284145036
 31
0.0
  0
LINE
  5
365
  8
TEXT_LAYER$TXT_03
 10
-2.450666214002402
 20
42.79675284145036
 30
0.0
 11
-2.444638359031552
 21
42.84475835041906
 31
0.0
  0
LINE
  5
366
  8
TEXT_LAYER$TXT_03
 10
-2.444638359031552
 20
42.84475835041906
 30
0.0
 11
-2.437683138502787
 21
42.89183646533569
 31
0.0
  0
LINE
  5
367
  8
TEXT_LAYER$TXT_03
 10
-2.437683138502787
 20
42.89183646533569
 30
0.0
 11
-2.429800551546697
 21
42.93798718849686
 31
0.0
  0
LINE
  5
368
  8
TEXT_LAYER$TXT_03
 10
-2.429800551546697
 20
42.93798718849686
 30
0.0
 11
-2.420990597293876
 21
42.98321052219917
 31
0.0
  0
LINE
  5
369
  8
TEXT_LAYER$TXT_03
 10
-2.420990597293876
 20
42.98321052219917
 30
0.0
 11
-2.411253274874916
 21
43.02750646873925
 31
0.0
  0
LINE
  5
36A
  8
TEXT_LAYER$TXT_03
 10
-2.411253274874916
 20
43.02750646873925
 30
0.0
 11
-2.400588583420407
 21
43.0708750304137
 31
0.0
  0
LINE
  5
36B
  8
TEXT_LAYER$TXT_03
 10
-2.400588583420407
 20
43.0708750304137
 30
0.0
 11
-2.388996522060941
 21
43.11331620951913
 31
0.0
  0
LINE
  5
36C
  8
TEXT_LAYER$TXT_03
 10
-2.388996522060941
 20
43.11331620951913
 30
0.0
 11
-2.376477089927111
 21
43.15483000835213
 31
0.0
  0
LINE
  5
36D
  8
TEXT_LAYER$TXT_03
 10
-2.376477089927111
 20
43.15483000835213
 30
0.0
 11
-2.363030286149509
 21
43.19541642920932
 31
0.0
  0
LINE
  5
36E
  8
TEXT_LAYER$TXT_03
 10
-2.363030286149509
 20
43.19541642920932
 30
0.0
 11
-2.348656109858725
 21
43.23507547438733
 31
0.0
  0
LINE
  5
36F
  8
TEXT_LAYER$TXT_03
 10
-2.348656109858725
 20
43.23507547438733
 30
0.0
 11
-2.333354560185352
 21
43.27380714618274
 31
0.0
  0
LINE
  5
370
  8
TEXT_LAYER$TXT_03
 10
-2.333354560185352
 20
43.27380714618274
 30
0.0
 11
-2.317125636259982
 21
43.31161144689217
 31
0.0
  0
LINE
  5
371
  8
TEXT_LAYER$TXT_03
 10
-2.317125636259982
 20
43.31161144689217
 30
0.0
 11
-2.299969337213207
 21
43.34848837881223
 31
0.0
  0
LINE
  5
372
  8
TEXT_LAYER$TXT_03
 10
-2.299969337213207
 20
43.34848837881223
 30
0.0
 11
-2.281885662175617
 21
43.38443794423954
 31
0.0
  0
LINE
  5
373
  8
TEXT_LAYER$TXT_03
 10
-2.281885662175617
 20
43.38443794423954
 30
0.0
 11
-2.262874610277807
 21
43.41946014547068
 31
0.0
  0
LINE
  5
374
  8
TEXT_LAYER$TXT_03
 10
-2.262874610277807
 20
43.41946014547068
 30
0.0
 11
-2.242936180650365
 21
43.45355498480228
 31
0.0
  0
LINE
  5
375
  8
TEXT_LAYER$TXT_03
 10
-2.242936180650365
 20
43.45355498480228
 30
0.0
 11
-2.222070372423885
 21
43.48672246453094
 31
0.0
  0
LINE
  5
376
  8
TEXT_LAYER$TXT_03
 10
-2.222070372423885
 20
43.48672246453094
 30
0.0
 11
-2.20027718472896
 21
43.51896258695328
 31
0.0
  0
LINE
  5
377
  8
TEXT_LAYER$TXT_03
 10
-2.20027718472896
 20
43.51896258695328
 30
0.0
 11
-2.177556616696179
 21
43.55027535436589
 31
0.0
  0
LINE
  5
378
  8
TEXT_LAYER$TXT_03
 10
-2.177556616696179
 20
43.55027535436589
 30
0.0
 11
-2.153908667456135
 21
43.5806607690654
 31
0.0
  0
LINE
  5
379
  8
TEXT_LAYER$TXT_03
 10
-2.153908667456135
 20
43.5806607690654
 30
0.0
 11
-2.12933333613942
 21
43.6101188333484
 31
0.0
  0
LINE
  5
37A
  8
TEXT_LAYER$TXT_03
 10
-2.12933333613942
 20
43.6101188333484
 30
0.0
 11
-2.103830621876626
 21
43.63864954951151
 31
0.0
  0
LINE
  5
37B
  8
TEXT_LAYER$TXT_03
 10
-2.103830621876626
 20
43.63864954951151
 30
0.0
 11
-2.077400523798344
 21
43.66625291985134
 31
0.0
  0
LINE
  5
37C
  8
TEXT_LAYER$TXT_03
 10
-2.077400523798344
 20
43.66625291985134
 30
0.0
 11
-2.050043041035167
 21
43.69292894666449
 31
0.0
  0
LINE
  5
37D
  8
TEXT_LAYER$TXT_03
 10
-2.050043041035167
 20
43.69292894666449
 30
0.0
 11
-2.021758172717686
 21
43.71867763224758
 31
0.0
  0
LINE
  5
37E
  8
TEXT_LAYER$TXT_03
 10
-2.021758172717686
 20
43.71867763224758
 30
0.0
 11
-1.992545917976492
 21
43.74349897889721
 31
0.0
  0
LINE
  5
380
  8
USB_OPENING
 10
20.665
 20
-3.499999999999996
 30
0.0
 11
20.665
 21
-1.499999999999978
 31
0.0
  0
LINE
  5
381
  8
USB_OPENING
 10
12.665
 20
-3.5
 30
0.0
 11
12.665
 21
-1.499999999999978
 31
0.0
  0
LINE
  5
383
  8
GRID_PCB_EX
 10
3.5
 20
-1.499999999999978
 30
0.0
 11
29.82999999999999
 21
-1.499999999999978
 31
0.0
  0
LINE
  5
384
  8
GRID_PCB_EX
 10
29.82999999999999
 20
-1.499999999999978
 30
0.0
 11
29.82999999999999
 21
96.49000000000001
 31
0.0
  0
LINE
  5
385
  8
GRID_PCB_EX
 10
29.82999999999999
 20
96.49000000000001
 30
0.0
 11
3.5
 21
96.49000000000001
 31
0.0
  0
LINE
  5
386
  8
GRID_PCB_EX
 10
3.5
 20
96.49000000000001
 30
0.0
 11
3.5
 21
-1.499999999999978
 31
0.0
  0
CIRCLE
  5
388
  8
SCREWS-BORDER
 10
0.0
 20
99.99000000000001
 30
0.0
 40
0.95
  0
CIRCLE
  5
389
  8
SCREWS-BORDER
 10
33.33
 20
99.99000000000001
 30
0.0
 40
0.95
  0
CIRCLE
  5
38A
  8
SCREWS-BORDER
 10
0.0
 20
299.97
 30
0.0
 40
0.95
  0
CIRCLE
  5
38B
  8
SCREWS-BORDER
 10
33.33
 20
299.97
 30
0.0
 40
0.95
  0
CIRCLE
  5
38C
  8
SCREWS-BORDER
 10
0.0
 20
199.98
 30
0.0
 40
0.95
  0
CIRCLE
  5
38D
  8
SCREWS-BORDER
 10
33.33
 20
199.98
 30
0.0
 40
0.95
  0
CIRCLE
  5
38E
  8
SCREWS-BORDER
 10
0.0
 20
0.0
 30
0.0
 40
0.95
  0
CIRCLE
  5
38F
  8
SCREWS-BORDER
 10
33.33
 20
0.0
 30
0.0
 40
0.95
  0
CIRCLE
  5
390
  8
SCREWS-BORDER
 10
0.0
 20
399.96
 30
0.0
 40
0.95
  0
CIRCLE
  5
391
  8
SCREWS-BORDER
 10
33.33
 20
399.96
 30
0.0
 40
0.95
  0
LINE
  5
393
  8
BORDER
 10
-3.5
 20
-3.5
 30
0.0
 11
36.83
 21
-3.5
 31
0.0
  0
LINE
  5
394
  8
BORDER
 10
36.83
 20
-3.5
 30
0.0
 11
36.83
 21
403.46
 31
0.0
  0
LINE
  5
395
  8
BORDER
 10
36.83
 20
403.46
 30
0.0
 11
-3.5
 21
403.46
 31
0.0
  0
LINE
  5
396
  8
BORDER
 10
-3.5
 20
403.46
 30
0.0
 11
-3.5
 21
-3.5
 31
0.0
  0
LINE
  5
398
  8
GRID_LED
 10
3.5
 20
370.1300000000001
 30
0.0
 11
29.83
 21
370.1300000000001
 31
0.0
  0
LINE
  5
399
  8
GRID_LED
 10
29.83
 20
370.1300000000001
 30
0.0
 11
29.83
 21
396.46
 31
0.0
  0
LINE
  5
39A
  8
GRID_LED
 10
29.83
 20
396.46
 30
0.0
 11
3.5
 21
396.46
 31
0.0
  0
LINE
  5
39B
  8
GRID_LED
 10
3.5
 20
396.46
 30
0.0
 11
3.5
 21
370.1300000000001
 31
0.0
  0
LINE
  5
39C
  8
GRID_LED
 10
3.5
 20
336.8
 30
0.0
 11
29.83
 21
336.8
 31
0.0
  0
LINE
  5
39D
  8
GRID_LED
 10
29.83
 20
336.8
 30
0.0
 11
29.83
 21
363.1300000000001
 31
0.0
  0
LINE
  5
39E
  8
GRID_LED
 10
29.83
 20
363.1300000000001
 30
0.0
 11
3.5
 21
363.1300000000001
 31
0.0
  0
LINE
  5
39F
  8
GRID_LED
 10
3.5
 20
363.1300000000001
 30
0.0
 11
3.5
 21
336.8
 31
0.0
  0
LINE
  5
3A0
  8
GRID_LED
 10
3.5
 20
303.47
 30
0.0
 11
29.83
 21
303.47
 31
0.0
  0
LINE
  5
3A1
  8
GRID_LED
 10
29.83
 20
303.47
 30
0.0
 11
29.83
 21
329.8
 31
0.0
  0
LINE
  5
3A2
  8
GRID_LED
 10
29.83
 20
329.8
 30
0.0
 11
3.5
 21
329.8
 31
0.0
  0
LINE
  5
3A3
  8
GRID_LED
 10
3.5
 20
329.8
 30
0.0
 11
3.5
 21
303.47
 31
0.0
  0
LINE
  5
3A4
  8
GRID_LED
 10
3.5
 20
270.14
 30
0.0
 11
29.83
 21
270.14
 31
0.0
  0
LINE
  5
3A5
  8
GRID_LED
 10
29.83
 20
270.14
 30
0.0
 11
29.83
 21
296.47
 31
0.0
  0
LINE
  5
3A6
  8
GRID_LED
 10
29.83
 20
296.47
 30
0.0
 11
3.5
 21
296.47
 31
0.0
  0
LINE
  5
3A7
  8
GRID_LED
 10
3.5
 20
296.47
 30
0.0
 11
3.5
 21
270.14
 31
0.0
  0
LINE
  5
3A8
  8
GRID_LED
 10
3.5
 20
236.81
 30
0.0
 11
29.83
 21
236.81
 31
0.0
  0
LINE
  5
3A9
  8
GRID_LED
 10
29.83
 20
236.81
 30
0.0
 11
29.83
 21
263.14
 31
0.0
  0
LINE
  5
3AA
  8
GRID_LED
 10
29.83
 20
263.14
 30
0.0
 11
3.5
 21
263.14
 31
0.0
  0
LINE
  5
3AB
  8
GRID_LED
 10
3.5
 20
263.14
 30
0.0
 11
3.5
 21
236.81
 31
0.0
  0
LINE
  5
3AC
  8
GRID_LED
 10
3.5
 20
203.48
 30
0.0
 11
29.83
 21
203.48
 31
0.0
  0
LINE
  5
3AD
  8
GRID_LED
 10
29.83
 20
203.48
 30
0.0
 11
29.83
 21
229.81
 31
0.0
  0
LINE
  5
3AE
  8
GRID_LED
 10
29.83
 20
229.81
 30
0.0
 11
3.5
 21
229.81
 31
0.0
  0
LINE
  5
3AF
  8
GRID_LED
 10
3.5
 20
229.81
 30
0.0
 11
3.5
 21
203.48
 31
0.0
  0
LINE
  5
3B0
  8
GRID_LED
 10
3.5
 20
170.15
 30
0.0
 11
29.83
 21
170.15
 31
0.0
  0
LINE
  5
3B1
  8
GRID_LED
 10
29.83
 20
170.15
 30
0.0
 11
29.83
 21
196.48
 31
0.0
  0
LINE
  5
3B2
  8
GRID_LED
 10
29.83
 20
196.48
 30
0.0
 11
3.5
 21
196.48
 31
0.0
  0
LINE
  5
3B3
  8
GRID_LED
 10
3.5
 20
196.48
 30
0.0
 11
3.5
 21
170.15
 31
0.0
  0
LINE
  5
3B4
  8
GRID_LED
 10
3.5
 20
136.82
 30
0.0
 11
29.83
 21
136.82
 31
0.0
  0
LINE
  5
3B5
  8
GRID_LED
 10
29.83
 20
136.82
 30
0.0
 11
29.83
 21
163.15
 31
0.0
  0
LINE
  5
3B6
  8
GRID_LED
 10
29.83
 20
163.15
 30
0.0
 11
3.5
 21
163.15
 31
0.0
  0
LINE
  5
3B7
  8
GRID_LED
 10
3.5
 20
163.15
 30
0.0
 11
3.5
 21
136.82
 31
0.0
  0
LINE
  5
3B8
  8
GRID_LED
 10
3.5
 20
103.49
 30
0.0
 11
29.83
 21
103.49
 31
0.0
  0
LINE
  5
3B9
  8
GRID_LED
 10
29.83
 20
103.49
 30
0.0
 11
29.83
 21
129.82
 31
0.0
  0
LINE
  5
3BA
  8
GRID_LED
 10
29.83
 20
129.82
 30
0.0
 11
3.5
 21
129.82
 31
0.0
  0
LINE
  5
3BB
  8
GRID_LED
 10
3.5
 20
129.82
 30
0.0
 11
3.5
 21
103.49
 31
0.0
  0
ENDSEC
  0
EOF
