  0
SECTION
  2
HEADER
  9
$ACADVER
  1
AC1009
  9
$DWGCODEPAGE
  3
mac-roman
  9
$INSBASE
 10
0.0
 20
0.0
 30
0.0
  9
$EXTMIN
 10
-3.5
 20
-3.5
 30
0.0
  9
$EXTMAX
 10
36.83
 20
403.46
 30
0.0
  9
$LIMMIN
 10
0.0
 20
0.0
  9
$LIMMAX
 10
12.0
 20
9.0
  9
$ORTHOMODE
 70
     0
  9
$REGENMODE
 70
     1
  9
$FILLMODE
 70
     1
  9
$QTEXTMODE
 70
     0
  9
$MIRRTEXT
 70
     1
  9
$DRAGMODE
 70
     2
  9
$LTSCALE
 40
1.0
  9
$OSMODE
 70
    37
  9
$ATTMODE
 70
     1
  9
$TEXTSIZE
 40
0.2
  9
$TRACEWID
 40
0.05
  9
$TEXTSTYLE
  7
STANDARD
  9
$CLAYER
  8
0
  9
$CELTYPE
  6
BYLAYER
  9
$CECOLOR
 62
   256
  9
$DIMSCALE
 40
1.0
  9
$DIMASZ
 40
0.18
  9
$DIMEXO
 40
0.0625
  9
$DIMDLI
 40
0.38
  9
$DIMRND
 40
0.0
  9
$DIMDLE
 40
0.0
  9
$DIMEXE
 40
0.18
  9
$DIMTP
 40
0.0
  9
$DIMTM
 40
0.0
  9
$DIMTXT
 40
0.18
  9
$DIMCEN
 40
0.09
  9
$DIMTSZ
 40
0.0
  9
$DIMTOL
 70
     0
  9
$DIMLIM
 70
     0
  9
$DIMTIH
 70
     1
  9
$DIMTOH
 70
     1
  9
$DIMSE1
 70
     0
  9
$DIMSE2
 70
     0
  9
$DIMTAD
 70
     0
  9
$DIMZIN
 70
     0
  9
$DIMBLK
  1

  9
$DIMASO
 70
     1
  9
$DIMSHO
 70
     1
  9
$DIMPOST
  1

  9
$DIMAPOST
  1

  9
$DIMALT
 70
     0
  9
$DIMALTD
 70
     2
  9
$DIMALTF
 40
25.4
  9
$DIMLFAC
 40
1.0
  9
$DIMTOFL
 70
     0
  9
$DIMTVP
 40
0.0
  9
$DIMTIX
 70
     0
  9
$DIMSOXD
 70
     0
  9
$DIMSAH
 70
     0
  9
$DIMBLK1
  1

  9
$DIMBLK2
  1

  9
$DIMSTYLE
  2
STANDARD
  9
$DIMCLRD
 70
     0
  9
$DIMCLRE
 70
     0
  9
$DIMCLRT
 70
     0
  9
$DIMTFAC
 40
1.0
  9
$DIMGAP
 40
0.09
  9
$LUNITS
 70
     2
  9
$LUPREC
 70
     2
  9
$SKETCHINC
 40
0.1
  9
$FILLETRAD
 40
0.5
  9
$AUNITS
 70
     0
  9
$AUPREC
 70
     0
  9
$MENU
  1
.
  9
$ELEVATION
 40
0.0
  9
$PELEVATION
 40
0.0
  9
$THICKNESS
 40
0.0
  9
$LIMCHECK
 70
     0
  9
$CHAMFERA
 40
0.0
  9
$CHAMFERB
 40
0.0
  9
$SKPOLY
 70
     0
  9
$TDCREATE
 40
2457544.735428241
  9
$TDUPDATE
 40
2457544.735428241
  9
$TDINDWG
 40
0.0000000116
  9
$TDUSRTIMER
 40
0.0000000116
  9
$USRTIMER
 70
     1
  9
$ANGBASE
 50
0.0
  9
$ANGDIR
 70
     0
  9
$PDMODE
 70
     0
  9
$PDSIZE
 40
0.0
  9
$PLINEWID
 40
0.0
  9
$COORDS
 70
     1
  9
$SPLFRAME
 70
     0
  9
$SPLINETYPE
 70
     6
  9
$SPLINESEGS
 70
     8
  9
$ATTDIA
 70
     0
  9
$ATTREQ
 70
     1
  9
$HANDLING
 70
     1
  9
$HANDSEED
  5
468
  9
$SURFTAB1
 70
     6
  9
$SURFTAB2
 70
     6
  9
$SURFTYPE
 70
     6
  9
$SURFU
 70
     6
  9
$SURFV
 70
     6
  9
$UCSNAME
  2

  9
$UCSORG
 10
0.0
 20
0.0
 30
0.0
  9
$UCSXDIR
 10
1.0
 20
0.0
 30
0.0
  9
$UCSYDIR
 10
0.0
 20
1.0
 30
0.0
  9
$PUCSNAME
  2

  9
$PUCSORG
 10
0.0
 20
0.0
 30
0.0
  9
$PUCSXDIR
 10
1.0
 20
0.0
 30
0.0
  9
$PUCSYDIR
 10
0.0
 20
1.0
 30
0.0
  9
$USERI1
 70
     0
  9
$USERI2
 70
     0
  9
$USERI3
 70
     0
  9
$USERI4
 70
     0
  9
$USERI5
 70
     0
  9
$USERR1
 40
0.0
  9
$USERR2
 40
0.0
  9
$USERR3
 40
0.0
  9
$USERR4
 40
0.0
  9
$USERR5
 40
0.0
  9
$WORLDVIEW
 70
     1
  9
$SHADEDGE
 70
     3
  9
$SHADEDIF
 70
    70
  9
$TILEMODE
 70
     1
  9
$MAXACTVP
 70
    64
  9
$PLIMCHECK
 70
     0
  9
$PEXTMIN
 10
1.000000000000000E+20
 20
1.000000000000000E+20
 30
1.000000000000000E+20
  9
$PEXTMAX
 10
-1.000000000000000E+20
 20
-1.000000000000000E+20
 30
-1.000000000000000E+20
  9
$PLIMMIN
 10
0.0
 20
0.0
  9
$PLIMMAX
 10
12.0
 20
9.0
  9
$UNITMODE
 70
     0
  9
$VISRETAIN
 70
     1
  9
$PLINEGEN
 70
     0
  9
$PSLTSCALE
 70
     1
  0
ENDSEC
  0
SECTION
  2
TABLES
  0
TABLE
  2
VPORT
 70
     1
  0
VPORT
  2
*ACTIVE
 70
     0
 10
0.0
 20
0.0
 11
1.0
 21
1.0
 12
16.665
 22
199.98
 13
0.0
 23
0.0
 14
0.5
 24
0.5
 15
0.5
 25
0.5
 16
0.0
 26
0.0
 36
1.0
 17
0.0
 27
0.0
 37
0.0
 40
415.0992000000001
 41
0.0991006487124042
 42
50.0
 43
0.0
 44
0.0
 50
0.0
 51
0.0
 71
     0
 72
   100
 73
     1
 74
     3
 75
     0
 76
     0
 77
     0
 78
     0
  0
ENDTAB
  0
TABLE
  2
LTYPE
 70
     1
  0
LTYPE
  2
CONTINUOUS
 70
     0
  3
Solid line
 72
    65
 73
     0
 40
0.0
  0
ENDTAB
  0
TABLE
  2
LAYER
 70
     7
  0
LAYER
  2
0
 70
     0
 62
     7
  6
CONTINUOUS
  0
LAYER
  2
TEXT_LAYER$TXT_08
 70
     0
 62
     4
  6
CONTINUOUS
  0
LAYER
  2
ENGRAVE-SCREWS
 70
     0
 62
     1
  6
CONTINUOUS
  0
LAYER
  2
SCREWS-BORDER
 70
     0
 62
     3
  6
CONTINUOUS
  0
LAYER
  2
BORDER
 70
     0
 62
     7
  6
CONTINUOUS
  0
LAYER
  2
GRID_LED
 70
     0
 62
     6
  6
CONTINUOUS
  0
LAYER
  2
GRID_PCB
 70
     0
 62
     6
  6
CONTINUOUS
  0
ENDTAB
  0
TABLE
  2
STYLE
 70
     1
  0
STYLE
  2
STANDARD
 70
     0
 40
0.0
 41
1.0
 50
0.0
 71
     0
 42
0.2
  3
txt
  4

  0
ENDTAB
  0
TABLE
  2
VIEW
 70
     0
  0
ENDTAB
  0
TABLE
  2
UCS
 70
     0
  0
ENDTAB
  0
TABLE
  2
APPID
 70
     1
  0
APPID
  2
ACAD
 70
     0
  0
ENDTAB
  0
TABLE
  2
DIMSTYLE
 70
     1
  0
DIMSTYLE
  2
STANDARD
 70
     0
  3

  4

  5

  6

  7

 40
1.0
 41
0.18
 42
0.0625
 43
0.38
 44
0.18
 45
0.0
 46
0.0
 47
0.0
 48
0.0
140
0.18
141
0.09
142
0.0
143
25.4
144
1.0
145
0.0
146
1.0
147
0.09
 71
     0
 72
     0
 73
     1
 74
     1
 75
     0
 76
     0
 77
     0
 78
     0
170
     0
171
     2
172
     0
173
     0
174
     0
175
     0
176
     0
177
     0
178
     0
  0
ENDTAB
  0
ENDSEC
  0
SECTION
  2
BLOCKS
  0
BLOCK
  8
0
  2
$MODEL_SPACE
 70
     0
 10
0.0
 20
0.0
 30
0.0
  3
$MODEL_SPACE
  1

  0
ENDBLK
  5
21
  8
0
  0
BLOCK
 67
     1
  8
0
  2
$PAPER_SPACE
 70
     0
 10
0.0
 20
0.0
 30
0.0
  3
$PAPER_SPACE
  1

  0
ENDBLK
  5
1D
 67
     1
  8
0
  0
ENDSEC
  0
SECTION
  2
ENTITIES
  0
LINE
  5
6F
  8
TEXT_LAYER$TXT_08
 10
0.7235875061215349
 20
17.97274318551025
 30
0.0
 11
0.7378188572995634
 21
17.95871292696071
 31
0.0
  0
LINE
  5
70
  8
TEXT_LAYER$TXT_08
 10
0.7378188572995634
 20
17.95871292696071
 30
0.0
 11
0.7522197135258931
 21
17.94512807981182
 31
0.0
  0
LINE
  5
71
  8
TEXT_LAYER$TXT_08
 10
0.7522197135258931
 20
17.94512807981182
 30
0.0
 11
0.7667900757883463
 21
17.93198864364599
 31
0.0
  0
LINE
  5
72
  8
TEXT_LAYER$TXT_08
 10
0.7667900757883463
 20
17.93198864364599
 30
0.0
 11
0.7815299450747454
 21
17.91929461804567
 31
0.0
  0
LINE
  5
73
  8
TEXT_LAYER$TXT_08
 10
0.7815299450747454
 20
17.91929461804567
 30
0.0
 11
0.7964393223729123
 21
17.90704600259329
 31
0.0
  0
LINE
  5
74
  8
TEXT_LAYER$TXT_08
 10
0.7964393223729123
 20
17.90704600259329
 30
0.0
 11
0.8115182086706691
 21
17.89524279687128
 31
0.0
  0
LINE
  5
75
  8
TEXT_LAYER$TXT_08
 10
0.8115182086706691
 20
17.89524279687128
 30
0.0
 11
0.8267666049558386
 21
17.88388500046208
 31
0.0
  0
LINE
  5
76
  8
TEXT_LAYER$TXT_08
 10
0.8267666049558386
 20
17.88388500046208
 30
0.0
 11
0.8421845122162427
 21
17.87297261294813
 31
0.0
  0
LINE
  5
77
  8
TEXT_LAYER$TXT_08
 10
0.8421845122162427
 20
17.87297261294813
 30
0.0
 11
0.8577719314397035
 21
17.86250563391186
 31
0.0
  0
LINE
  5
78
  8
TEXT_LAYER$TXT_08
 10
0.8577719314397035
 20
17.86250563391186
 30
0.0
 11
0.8735288636140434
 21
17.8524840629357
 31
0.0
  0
LINE
  5
79
  8
TEXT_LAYER$TXT_08
 10
0.8735288636140434
 20
17.8524840629357
 30
0.0
 11
0.8894553097270844
 21
17.84290789960209
 31
0.0
  0
LINE
  5
7A
  8
TEXT_LAYER$TXT_08
 10
0.8894553097270844
 20
17.84290789960209
 30
0.0
 11
0.905551270766649
 21
17.83377714349346
 31
0.0
  0
LINE
  5
7B
  8
TEXT_LAYER$TXT_08
 10
0.905551270766649
 20
17.83377714349346
 30
0.0
 11
0.9218167477205592
 21
17.82509179419225
 31
0.0
  0
LINE
  5
7C
  8
TEXT_LAYER$TXT_08
 10
0.9218167477205592
 20
17.82509179419225
 30
0.0
 11
0.9382517415766374
 21
17.8168518512809
 31
0.0
  0
LINE
  5
7D
  8
TEXT_LAYER$TXT_08
 10
0.9382517415766374
 20
17.8168518512809
 30
0.0
 11
0.9548562533227056
 21
17.80905731434184
 31
0.0
  0
LINE
  5
7E
  8
TEXT_LAYER$TXT_08
 10
0.9548562533227056
 20
17.80905731434184
 30
0.0
 11
0.9716302839465862
 21
17.80170818295749
 31
0.0
  0
LINE
  5
7F
  8
TEXT_LAYER$TXT_08
 10
0.9716302839465862
 20
17.80170818295749
 30
0.0
 11
0.9885738344361015
 21
17.7948044567103
 31
0.0
  0
LINE
  5
80
  8
TEXT_LAYER$TXT_08
 10
0.9885738344361015
 20
17.7948044567103
 30
0.0
 11
1.005686905779073
 21
17.78834613518271
 31
0.0
  0
LINE
  5
81
  8
TEXT_LAYER$TXT_08
 10
1.005686905779073
 20
17.78834613518271
 30
0.0
 11
1.022969498963325
 21
17.78233321795714
 31
0.0
  0
LINE
  5
82
  8
TEXT_LAYER$TXT_08
 10
1.022969498963325
 20
17.78233321795714
 30
0.0
 11
1.040421614976677
 21
17.77676570461604
 31
0.0
  0
LINE
  5
83
  8
TEXT_LAYER$TXT_08
 10
1.040421614976677
 20
17.77676570461604
 30
0.0
 11
1.058043254806952
 21
17.77164359474183
 31
0.0
  0
LINE
  5
84
  8
TEXT_LAYER$TXT_08
 10
1.058043254806952
 20
17.77164359474183
 30
0.0
 11
1.075834419441974
 21
17.76696688791695
 31
0.0
  0
LINE
  5
85
  8
TEXT_LAYER$TXT_08
 10
1.075834419441974
 20
17.76696688791695
 30
0.0
 11
1.093795109869563
 21
17.76273558372384
 31
0.0
  0
LINE
  5
86
  8
TEXT_LAYER$TXT_08
 10
1.093795109869563
 20
17.76273558372384
 30
0.0
 11
1.111925327077543
 21
17.75894968174493
 31
0.0
  0
LINE
  5
87
  8
TEXT_LAYER$TXT_08
 10
1.111925327077543
 20
17.75894968174493
 30
0.0
 11
1.130225072053735
 21
17.75560918156266
 31
0.0
  0
LINE
  5
88
  8
TEXT_LAYER$TXT_08
 10
1.130225072053735
 20
17.75560918156266
 30
0.0
 11
1.148694345785961
 21
17.75271408275945
 31
0.0
  0
LINE
  5
89
  8
TEXT_LAYER$TXT_08
 10
1.148694345785961
 20
17.75271408275945
 30
0.0
 11
1.167333149262044
 21
17.75026438491775
 31
0.0
  0
LINE
  5
8A
  8
TEXT_LAYER$TXT_08
 10
1.167333149262044
 20
17.75026438491775
 30
0.0
 11
1.186141483469806
 21
17.74826008761999
 31
0.0
  0
LINE
  5
8B
  8
TEXT_LAYER$TXT_08
 10
1.186141483469806
 20
17.74826008761999
 30
0.0
 11
1.20511934939707
 21
17.74670119044861
 31
0.0
  0
LINE
  5
8C
  8
TEXT_LAYER$TXT_08
 10
1.20511934939707
 20
17.74670119044861
 30
0.0
 11
1.224266748031657
 21
17.74558769298604
 31
0.0
  0
LINE
  5
8D
  8
TEXT_LAYER$TXT_08
 10
1.224266748031657
 20
17.74558769298604
 30
0.0
 11
1.243583680361389
 21
17.7449195948147
 31
0.0
  0
LINE
  5
8E
  8
TEXT_LAYER$TXT_08
 10
1.243583680361389
 20
17.7449195948147
 30
0.0
 11
1.26307014737409
 21
17.74469689551706
 31
0.0
  0
LINE
  5
8F
  8
TEXT_LAYER$TXT_08
 10
1.26307014737409
 20
17.74469689551706
 30
0.0
 11
1.280045394193572
 21
17.74490962320436
 31
0.0
  0
LINE
  5
90
  8
TEXT_LAYER$TXT_08
 10
1.280045394193572
 20
17.74490962320436
 30
0.0
 11
1.296934205378512
 21
17.7455478065322
 31
0.0
  0
LINE
  5
91
  8
TEXT_LAYER$TXT_08
 10
1.296934205378512
 20
17.7455478065322
 30
0.0
 11
1.313736581845059
 21
17.74661144589943
 31
0.0
  0
LINE
  5
92
  8
TEXT_LAYER$TXT_08
 10
1.313736581845059
 20
17.74661144589943
 30
0.0
 11
1.330452524509364
 21
17.74810054170494
 31
0.0
  0
LINE
  5
93
  8
TEXT_LAYER$TXT_08
 10
1.330452524509364
 20
17.74810054170494
 30
0.0
 11
1.347082034287578
 21
17.75001509434757
 31
0.0
  0
LINE
  5
94
  8
TEXT_LAYER$TXT_08
 10
1.347082034287578
 20
17.75001509434757
 30
0.0
 11
1.363625112095852
 21
17.75235510422621
 31
0.0
  0
LINE
  5
95
  8
TEXT_LAYER$TXT_08
 10
1.363625112095852
 20
17.75235510422621
 30
0.0
 11
1.380081758850336
 21
17.75512057173972
 31
0.0
  0
LINE
  5
96
  8
TEXT_LAYER$TXT_08
 10
1.380081758850336
 20
17.75512057173972
 30
0.0
 11
1.396451975467179
 21
17.75831149728697
 31
0.0
  0
LINE
  5
97
  8
TEXT_LAYER$TXT_08
 10
1.396451975467179
 20
17.75831149728697
 30
0.0
 11
1.412735762862535
 21
17.76192788126682
 31
0.0
  0
LINE
  5
98
  8
TEXT_LAYER$TXT_08
 10
1.412735762862535
 20
17.76192788126682
 30
0.0
 11
1.428933121952552
 21
17.76596972407815
 31
0.0
  0
LINE
  5
99
  8
TEXT_LAYER$TXT_08
 10
1.428933121952552
 20
17.76596972407815
 30
0.0
 11
1.445044053653381
 21
17.77043702611983
 31
0.0
  0
LINE
  5
9A
  8
TEXT_LAYER$TXT_08
 10
1.445044053653381
 20
17.77043702611983
 30
0.0
 11
1.461068558881172
 21
17.77532978779071
 31
0.0
  0
LINE
  5
9B
  8
TEXT_LAYER$TXT_08
 10
1.461068558881172
 20
17.77532978779071
 30
0.0
 11
1.477006638552078
 21
17.78064800948968
 31
0.0
  0
LINE
  5
9C
  8
TEXT_LAYER$TXT_08
 10
1.477006638552078
 20
17.78064800948968
 30
0.0
 11
1.492858293582247
 21
17.78639169161559
 31
0.0
  0
LINE
  5
9D
  8
TEXT_LAYER$TXT_08
 10
1.492858293582247
 20
17.78639169161559
 30
0.0
 11
1.508623524887831
 21
17.79256083456733
 31
0.0
  0
LINE
  5
9E
  8
TEXT_LAYER$TXT_08
 10
1.508623524887831
 20
17.79256083456733
 30
0.0
 11
1.52430233338498
 21
17.79915543874374
 31
0.0
  0
LINE
  5
9F
  8
TEXT_LAYER$TXT_08
 10
1.52430233338498
 20
17.79915543874374
 30
0.0
 11
1.539894719989845
 21
17.80617550454371
 31
0.0
  0
LINE
  5
A0
  8
TEXT_LAYER$TXT_08
 10
1.539894719989845
 20
17.80617550454371
 30
0.0
 11
1.555400685618576
 21
17.8136210323661
 31
0.0
  0
LINE
  5
A1
  8
TEXT_LAYER$TXT_08
 10
1.555400685618576
 20
17.8136210323661
 30
0.0
 11
1.570820231187324
 21
17.82149202260979
 31
0.0
  0
LINE
  5
A2
  8
TEXT_LAYER$TXT_08
 10
1.570820231187324
 20
17.82149202260979
 30
0.0
 11
1.586153357612239
 21
17.82978847567362
 31
0.0
  0
LINE
  5
A3
  8
TEXT_LAYER$TXT_08
 10
1.586153357612239
 20
17.82978847567362
 30
0.0
 11
1.601400065809473
 21
17.83851039195649
 31
0.0
  0
LINE
  5
A4
  8
TEXT_LAYER$TXT_08
 10
1.601400065809473
 20
17.83851039195649
 30
0.0
 11
1.616560356695175
 21
17.84765777185725
 31
0.0
  0
LINE
  5
A5
  8
TEXT_LAYER$TXT_08
 10
1.616560356695175
 20
17.84765777185725
 30
0.0
 11
1.631634231185496
 21
17.85723061577478
 31
0.0
  0
LINE
  5
A6
  8
TEXT_LAYER$TXT_08
 10
1.631634231185496
 20
17.85723061577478
 30
0.0
 11
1.646621690196587
 21
17.86722892410793
 31
0.0
  0
LINE
  5
A7
  8
TEXT_LAYER$TXT_08
 10
1.646621690196587
 20
17.86722892410793
 30
0.0
 11
1.661522734644598
 21
17.87765269725559
 31
0.0
  0
LINE
  5
A8
  8
TEXT_LAYER$TXT_08
 10
1.661522734644598
 20
17.87765269725559
 30
0.0
 11
1.676337365445681
 21
17.88850193561661
 31
0.0
  0
LINE
  5
A9
  8
TEXT_LAYER$TXT_08
 10
1.676337365445681
 20
17.88850193561661
 30
0.0
 11
1.691065583515984
 21
17.89977663958987
 31
0.0
  0
LINE
  5
AA
  8
TEXT_LAYER$TXT_08
 10
1.691065583515984
 20
17.89977663958987
 30
0.0
 11
1.70570738977166
 21
17.91147680957424
 31
0.0
  0
LINE
  5
AB
  8
TEXT_LAYER$TXT_08
 10
1.70570738977166
 20
17.91147680957424
 30
0.0
 11
1.720262785128858
 21
17.92360244596857
 31
0.0
  0
LINE
  5
AC
  8
TEXT_LAYER$TXT_08
 10
1.720262785128858
 20
17.92360244596857
 30
0.0
 11
1.73473177050373
 21
17.93615354917175
 31
0.0
  0
LINE
  5
AD
  8
TEXT_LAYER$TXT_08
 10
1.73473177050373
 20
17.93615354917175
 30
0.0
 11
1.749114346812425
 21
17.94913011958264
 31
0.0
  0
LINE
  5
AE
  8
TEXT_LAYER$TXT_08
 10
1.749114346812425
 20
17.94913011958264
 30
0.0
 11
1.763410514971094
 21
17.9625321576001
 31
0.0
  0
LINE
  5
AF
  8
TEXT_LAYER$TXT_08
 10
1.763410514971094
 20
17.9625321576001
 30
0.0
 11
1.777440773520628
 21
17.97636962260253
 31
0.0
  0
LINE
  5
B0
  8
TEXT_LAYER$TXT_08
 10
1.777440773520628
 20
17.97636962260253
 30
0.0
 11
1.791025620669526
 21
17.99065247451258
 31
0.0
  0
LINE
  5
B1
  8
TEXT_LAYER$TXT_08
 10
1.791025620669526
 20
17.99065247451258
 30
0.0
 11
1.804165056835353
 21
18.00538071454557
 31
0.0
  0
LINE
  5
B2
  8
TEXT_LAYER$TXT_08
 10
1.804165056835353
 20
18.00538071454557
 30
0.0
 11
1.816859082435674
 21
18.0205543439168
 31
0.0
  0
LINE
  5
B3
  8
TEXT_LAYER$TXT_08
 10
1.816859082435674
 20
18.0205543439168
 30
0.0
 11
1.829107697888055
 21
18.03617336384155
 31
0.0
  0
LINE
  5
B4
  8
TEXT_LAYER$TXT_08
 10
1.829107697888055
 20
18.03617336384155
 30
0.0
 11
1.840910903610062
 21
18.05223777553515
 31
0.0
  0
LINE
  5
B5
  8
TEXT_LAYER$TXT_08
 10
1.840910903610062
 20
18.05223777553515
 30
0.0
 11
1.852268700019259
 21
18.06874758021289
 31
0.0
  0
LINE
  5
B6
  8
TEXT_LAYER$TXT_08
 10
1.852268700019259
 20
18.06874758021289
 30
0.0
 11
1.86318108753321
 21
18.08570277909006
 31
0.0
  0
LINE
  5
B7
  8
TEXT_LAYER$TXT_08
 10
1.86318108753321
 20
18.08570277909006
 30
0.0
 11
1.873648066569483
 21
18.10310337338198
 31
0.0
  0
LINE
  5
B8
  8
TEXT_LAYER$TXT_08
 10
1.873648066569483
 20
18.10310337338198
 30
0.0
 11
1.883669637545642
 21
18.12094936430395
 31
0.0
  0
LINE
  5
B9
  8
TEXT_LAYER$TXT_08
 10
1.883669637545642
 20
18.12094936430395
 30
0.0
 11
1.893245800879251
 21
18.13924075307126
 31
0.0
  0
LINE
  5
BA
  8
TEXT_LAYER$TXT_08
 10
1.893245800879251
 20
18.13924075307126
 30
0.0
 11
1.902376556987877
 21
18.15797754089922
 31
0.0
  0
LINE
  5
BB
  8
TEXT_LAYER$TXT_08
 10
1.902376556987877
 20
18.15797754089922
 30
0.0
 11
1.911061906289085
 21
18.17715972900313
 31
0.0
  0
LINE
  5
BC
  8
TEXT_LAYER$TXT_08
 10
1.911061906289085
 20
18.17715972900313
 30
0.0
 11
1.91930184920044
 21
18.1967873185983
 31
0.0
  0
LINE
  5
BD
  8
TEXT_LAYER$TXT_08
 10
1.91930184920044
 20
18.1967873185983
 30
0.0
 11
1.927096386139506
 21
18.21686031090001
 31
0.0
  0
LINE
  5
BE
  8
TEXT_LAYER$TXT_08
 10
1.927096386139506
 20
18.21686031090001
 30
0.0
 11
1.93444551752385
 21
18.23737870712359
 31
0.0
  0
LINE
  5
BF
  8
TEXT_LAYER$TXT_08
 10
1.93444551752385
 20
18.23737870712359
 30
0.0
 11
1.941349243771036
 21
18.25834250848432
 31
0.0
  0
LINE
  5
C0
  8
TEXT_LAYER$TXT_08
 10
1.941349243771036
 20
18.25834250848432
 30
0.0
 11
1.94780756529863
 21
18.27975171619751
 31
0.0
  0
LINE
  5
C1
  8
TEXT_LAYER$TXT_08
 10
1.94780756529863
 20
18.27975171619751
 30
0.0
 11
1.953820482524197
 21
18.30160633147846
 31
0.0
  0
LINE
  5
C2
  8
TEXT_LAYER$TXT_08
 10
1.953820482524197
 20
18.30160633147846
 30
0.0
 11
1.959387995865302
 21
18.32390635554247
 31
0.0
  0
LINE
  5
C3
  8
TEXT_LAYER$TXT_08
 10
1.959387995865302
 20
18.32390635554247
 30
0.0
 11
1.964510105739511
 21
18.34665178960485
 31
0.0
  0
LINE
  5
C4
  8
TEXT_LAYER$TXT_08
 10
1.964510105739511
 20
18.34665178960485
 30
0.0
 11
1.969186812564388
 21
18.3698426348809
 31
0.0
  0
LINE
  5
C5
  8
TEXT_LAYER$TXT_08
 10
1.969186812564388
 20
18.3698426348809
 30
0.0
 11
1.973418116757499
 21
18.39347889258591
 31
0.0
  0
LINE
  5
C6
  8
TEXT_LAYER$TXT_08
 10
1.973418116757499
 20
18.39347889258591
 30
0.0
 11
1.977204018736409
 21
18.41756056393519
 31
0.0
  0
LINE
  5
C7
  8
TEXT_LAYER$TXT_08
 10
1.977204018736409
 20
18.41756056393519
 30
0.0
 11
1.980544518918684
 21
18.44208765014405
 31
0.0
  0
LINE
  5
C8
  8
TEXT_LAYER$TXT_08
 10
1.980544518918684
 20
18.44208765014405
 30
0.0
 11
1.983439617721888
 21
18.46706015242778
 31
0.0
  0
LINE
  5
C9
  8
TEXT_LAYER$TXT_08
 10
1.983439617721888
 20
18.46706015242778
 30
0.0
 11
1.985889315563587
 21
18.49247807200168
 31
0.0
  0
LINE
  5
CA
  8
TEXT_LAYER$TXT_08
 10
1.985889315563587
 20
18.49247807200168
 30
0.0
 11
1.987893612861346
 21
18.51834141008106
 31
0.0
  0
LINE
  5
CB
  8
TEXT_LAYER$TXT_08
 10
1.987893612861346
 20
18.51834141008106
 30
0.0
 11
1.98945251003273
 21
18.54465016788123
 31
0.0
  0
LINE
  5
CC
  8
TEXT_LAYER$TXT_08
 10
1.98945251003273
 20
18.54465016788123
 30
0.0
 11
1.990566007495304
 21
18.57140434661747
 31
0.0
  0
LINE
  5
CD
  8
TEXT_LAYER$TXT_08
 10
1.990566007495304
 20
18.57140434661747
 30
0.0
 11
1.991456804964286
 21
18.6262489717594
 31
0.0
  0
LINE
  5
CE
  8
TEXT_LAYER$TXT_08
 10
1.991456804964286
 20
18.6262489717594
 30
0.0
 11
1.990566007495304
 21
18.68060165823696
 31
0.0
  0
LINE
  5
CF
  8
TEXT_LAYER$TXT_08
 10
1.990566007495304
 20
18.68060165823696
 30
0.0
 11
1.98945251003273
 21
18.70706000979498
 31
0.0
  0
LINE
  5
D0
  8
TEXT_LAYER$TXT_08
 10
1.98945251003273
 20
18.70706000979498
 30
0.0
 11
1.987893612861346
 21
18.73303970179471
 31
0.0
  0
LINE
  5
D1
  8
TEXT_LAYER$TXT_08
 10
1.987893612861346
 20
18.73303970179471
 30
0.0
 11
1.985889315563587
 21
18.75854073540784
 31
0.0
  0
LINE
  5
D2
  8
TEXT_LAYER$TXT_08
 10
1.985889315563587
 20
18.75854073540784
 30
0.0
 11
1.983439617721888
 21
18.78356311180604
 31
0.0
  0
LINE
  5
D3
  8
TEXT_LAYER$TXT_08
 10
1.983439617721888
 20
18.78356311180604
 30
0.0
 11
1.980544518918684
 21
18.80810683216098
 31
0.0
  0
LINE
  5
D4
  8
TEXT_LAYER$TXT_08
 10
1.980544518918684
 20
18.80810683216098
 30
0.0
 11
1.977204018736409
 21
18.83217189764435
 31
0.0
  0
LINE
  5
D5
  8
TEXT_LAYER$TXT_08
 10
1.977204018736409
 20
18.83217189764435
 30
0.0
 11
1.973418116757499
 21
18.85575830942782
 31
0.0
  0
LINE
  5
D6
  8
TEXT_LAYER$TXT_08
 10
1.973418116757499
 20
18.85575830942782
 30
0.0
 11
1.969186812564388
 21
18.87886606868306
 31
0.0
  0
LINE
  5
D7
  8
TEXT_LAYER$TXT_08
 10
1.969186812564388
 20
18.87886606868306
 30
0.0
 11
1.964510105739511
 21
18.90149517658175
 31
0.0
  0
LINE
  5
D8
  8
TEXT_LAYER$TXT_08
 10
1.964510105739511
 20
18.90149517658175
 30
0.0
 11
1.959387995865302
 21
18.92364563429556
 31
0.0
  0
LINE
  5
D9
  8
TEXT_LAYER$TXT_08
 10
1.959387995865302
 20
18.92364563429556
 30
0.0
 11
1.953820482524197
 21
18.94531744299617
 31
0.0
  0
LINE
  5
DA
  8
TEXT_LAYER$TXT_08
 10
1.953820482524197
 20
18.94531744299617
 30
0.0
 11
1.94780756529863
 21
18.96651060385526
 31
0.0
  0
LINE
  5
DB
  8
TEXT_LAYER$TXT_08
 10
1.94780756529863
 20
18.96651060385526
 30
0.0
 11
1.941349243771036
 21
18.9872251180445
 31
0.0
  0
LINE
  5
DC
  8
TEXT_LAYER$TXT_08
 10
1.941349243771036
 20
18.9872251180445
 30
0.0
 11
1.93444551752385
 21
19.00746098673557
 31
0.0
  0
LINE
  5
DD
  8
TEXT_LAYER$TXT_08
 10
1.93444551752385
 20
19.00746098673557
 30
0.0
 11
1.927096386139506
 21
19.02721821110014
 31
0.0
  0
LINE
  5
DE
  8
TEXT_LAYER$TXT_08
 10
1.927096386139506
 20
19.02721821110014
 30
0.0
 11
1.91930184920044
 21
19.04649679230989
 31
0.0
  0
LINE
  5
DF
  8
TEXT_LAYER$TXT_08
 10
1.91930184920044
 20
19.04649679230989
 30
0.0
 11
1.911061906289085
 21
19.06529673153649
 31
0.0
  0
LINE
  5
E0
  8
TEXT_LAYER$TXT_08
 10
1.911061906289085
 20
19.06529673153649
 30
0.0
 11
1.902376556987877
 21
19.08361802995162
 31
0.0
  0
LINE
  5
E1
  8
TEXT_LAYER$TXT_08
 10
1.902376556987877
 20
19.08361802995162
 30
0.0
 11
1.893245800879251
 21
19.10146068872696
 31
0.0
  0
LINE
  5
E2
  8
TEXT_LAYER$TXT_08
 10
1.893245800879251
 20
19.10146068872696
 30
0.0
 11
1.883669637545642
 21
19.11882470903417
 31
0.0
  0
LINE
  5
E3
  8
TEXT_LAYER$TXT_08
 10
1.883669637545642
 20
19.11882470903417
 30
0.0
 11
1.873648066569483
 21
19.13571009204494
 31
0.0
  0
LINE
  5
E4
  8
TEXT_LAYER$TXT_08
 10
1.873648066569483
 20
19.13571009204494
 30
0.0
 11
1.86318108753321
 21
19.15211683893094
 31
0.0
  0
LINE
  5
E5
  8
TEXT_LAYER$TXT_08
 10
1.86318108753321
 20
19.15211683893094
 30
0.0
 11
1.852268700019259
 21
19.16804495086386
 31
0.0
  0
LINE
  5
E6
  8
TEXT_LAYER$TXT_08
 10
1.852268700019259
 20
19.16804495086386
 30
0.0
 11
1.840910903610062
 21
19.18349442901535
 31
0.0
  0
LINE
  5
E7
  8
TEXT_LAYER$TXT_08
 10
1.840910903610062
 20
19.18349442901535
 30
0.0
 11
1.829107697888055
 21
19.19846527455709
 31
0.0
  0
LINE
  5
E8
  8
TEXT_LAYER$TXT_08
 10
1.829107697888055
 20
19.19846527455709
 30
0.0
 11
1.816859082435674
 21
19.21295748866078
 31
0.0
  0
LINE
  5
E9
  8
TEXT_LAYER$TXT_08
 10
1.816859082435674
 20
19.21295748866078
 30
0.0
 11
1.804165056835353
 21
19.22697107249807
 31
0.0
  0
LINE
  5
EA
  8
TEXT_LAYER$TXT_08
 10
1.804165056835353
 20
19.22697107249807
 30
0.0
 11
1.791025620669526
 21
19.24050602724065
 31
0.0
  0
LINE
  5
EB
  8
TEXT_LAYER$TXT_08
 10
1.791025620669526
 20
19.24050602724065
 30
0.0
 11
1.777440773520628
 21
19.25356235406018
 31
0.0
  0
LINE
  5
EC
  8
TEXT_LAYER$TXT_08
 10
1.777440773520628
 20
19.25356235406018
 30
0.0
 11
1.763410514971094
 21
19.26614005412836
 31
0.0
  0
LINE
  5
ED
  8
TEXT_LAYER$TXT_08
 10
1.763410514971094
 20
19.26614005412836
 30
0.0
 11
1.749081108111283
 21
19.27828565108168
 31
0.0
  0
LINE
  5
EE
  8
TEXT_LAYER$TXT_08
 10
1.749081108111283
 20
19.27828565108168
 30
0.0
 11
1.734598815657613
 21
19.29004566801655
 31
0.0
  0
LINE
  5
EF
  8
TEXT_LAYER$TXT_08
 10
1.734598815657613
 20
19.29004566801655
 30
0.0
 11
1.719963636631611
 21
19.30142010529443
 31
0.0
  0
LINE
  5
F0
  8
TEXT_LAYER$TXT_08
 10
1.719963636631611
 20
19.30142010529443
 30
0.0
 11
1.705175570054803
 21
19.3124089632768
 31
0.0
  0
LINE
  5
F1
  8
TEXT_LAYER$TXT_08
 10
1.705175570054803
 20
19.3124089632768
 30
0.0
 11
1.690234614948716
 21
19.32301224232513
 31
0.0
  0
LINE
  5
F2
  8
TEXT_LAYER$TXT_08
 10
1.690234614948716
 20
19.32301224232513
 30
0.0
 11
1.675140770334875
 21
19.3332299428009
 31
0.0
  0
LINE
  5
F3
  8
TEXT_LAYER$TXT_08
 10
1.675140770334875
 20
19.3332299428009
 30
0.0
 11
1.659894035234807
 21
19.34306206506557
 31
0.0
  0
LINE
  5
F4
  8
TEXT_LAYER$TXT_08
 10
1.659894035234807
 20
19.34306206506557
 30
0.0
 11
1.644494408670038
 21
19.35250860948064
 31
0.0
  0
LINE
  5
F5
  8
TEXT_LAYER$TXT_08
 10
1.644494408670038
 20
19.35250860948064
 30
0.0
 11
1.628941889662095
 21
19.36156957640756
 31
0.0
  0
LINE
  5
F6
  8
TEXT_LAYER$TXT_08
 10
1.628941889662095
 20
19.36156957640756
 30
0.0
 11
1.613236477232503
 21
19.37024496620781
 31
0.0
  0
LINE
  5
F7
  8
TEXT_LAYER$TXT_08
 10
1.613236477232503
 20
19.37024496620781
 30
0.0
 11
1.59737817040279
 21
19.37853477924288
 31
0.0
  0
LINE
  5
F8
  8
TEXT_LAYER$TXT_08
 10
1.59737817040279
 20
19.37853477924288
 30
0.0
 11
1.581366968194481
 21
19.38643901587423
 31
0.0
  0
LINE
  5
F9
  8
TEXT_LAYER$TXT_08
 10
1.581366968194481
 20
19.38643901587423
 30
0.0
 11
1.565202869629102
 21
19.39395767646333
 31
0.0
  0
LINE
  5
FA
  8
TEXT_LAYER$TXT_08
 10
1.565202869629102
 20
19.39395767646333
 30
0.0
 11
1.548885873728179
 21
19.40109076137167
 31
0.0
  0
LINE
  5
FB
  8
TEXT_LAYER$TXT_08
 10
1.548885873728179
 20
19.40109076137167
 30
0.0
 11
1.53241597951324
 21
19.40783827096071
 31
0.0
  0
LINE
  5
FC
  8
TEXT_LAYER$TXT_08
 10
1.53241597951324
 20
19.40783827096071
 30
0.0
 11
1.51579318600581
 21
19.41420020559194
 31
0.0
  0
LINE
  5
FD
  8
TEXT_LAYER$TXT_08
 10
1.51579318600581
 20
19.41420020559194
 30
0.0
 11
1.499017492227416
 21
19.42017656562681
 31
0.0
  0
LINE
  5
FE
  8
TEXT_LAYER$TXT_08
 10
1.499017492227416
 20
19.42017656562681
 30
0.0
 11
1.482088897199583
 21
19.42576735142682
 31
0.0
  0
LINE
  5
FF
  8
TEXT_LAYER$TXT_08
 10
1.482088897199583
 20
19.42576735142682
 30
0.0
 11
1.465007399943839
 21
19.43097256335343
 31
0.0
  0
LINE
  5
100
  8
TEXT_LAYER$TXT_08
 10
1.465007399943839
 20
19.43097256335343
 30
0.0
 11
1.447772999481708
 21
19.43579220176812
 31
0.0
  0
LINE
  5
101
  8
TEXT_LAYER$TXT_08
 10
1.447772999481708
 20
19.43579220176812
 30
0.0
 11
1.430385694834718
 21
19.44022626703236
 31
0.0
  0
LINE
  5
102
  8
TEXT_LAYER$TXT_08
 10
1.430385694834718
 20
19.44022626703236
 30
0.0
 11
1.412845485024395
 21
19.44427475950763
 31
0.0
  0
LINE
  5
103
  8
TEXT_LAYER$TXT_08
 10
1.412845485024395
 20
19.44427475950763
 30
0.0
 11
1.395152369072265
 21
19.44793767955539
 31
0.0
  0
LINE
  5
104
  8
TEXT_LAYER$TXT_08
 10
1.395152369072265
 20
19.44793767955539
 30
0.0
 11
1.377306345999854
 21
19.45121502753714
 31
0.0
  0
LINE
  5
105
  8
TEXT_LAYER$TXT_08
 10
1.377306345999854
 20
19.45121502753714
 30
0.0
 11
1.359307414828689
 21
19.45410680381433
 31
0.0
  0
LINE
  5
106
  8
TEXT_LAYER$TXT_08
 10
1.359307414828689
 20
19.45410680381433
 30
0.0
 11
1.341155574580295
 21
19.45661300874845
 31
0.0
  0
LINE
  5
107
  8
TEXT_LAYER$TXT_08
 10
1.341155574580295
 20
19.45661300874845
 30
0.0
 11
1.3228508242762
 21
19.45873364270096
 31
0.0
  0
LINE
  5
108
  8
TEXT_LAYER$TXT_08
 10
1.3228508242762
 20
19.45873364270096
 30
0.0
 11
1.304393162937929
 21
19.46046870603335
 31
0.0
  0
LINE
  5
109
  8
TEXT_LAYER$TXT_08
 10
1.304393162937929
 20
19.46046870603335
 30
0.0
 11
1.285782589587008
 21
19.46181819910709
 31
0.0
  0
LINE
  5
10A
  8
TEXT_LAYER$TXT_08
 10
1.285782589587008
 20
19.46181819910709
 30
0.0
 11
1.267019103244964
 21
19.46278212228364
 31
0.0
  0
LINE
  5
10B
  8
TEXT_LAYER$TXT_08
 10
1.267019103244964
 20
19.46278212228364
 30
0.0
 11
1.248102702933324
 21
19.4633604759245
 31
0.0
  0
LINE
  5
10C
  8
TEXT_LAYER$TXT_08
 10
1.248102702933324
 20
19.4633604759245
 30
0.0
 11
1.229033387673612
 21
19.46355326039112
 31
0.0
  0
LINE
  5
10D
  8
TEXT_LAYER$TXT_08
 10
1.229033387673612
 20
19.46355326039112
 30
0.0
 11
1.207693835830791
 21
19.46330397013255
 31
0.0
  0
LINE
  5
10E
  8
TEXT_LAYER$TXT_08
 10
1.207693835830791
 20
19.46330397013255
 30
0.0
 11
1.186646803624754
 21
19.46255609904524
 31
0.0
  0
LINE
  5
10F
  8
TEXT_LAYER$TXT_08
 10
1.186646803624754
 20
19.46255609904524
 30
0.0
 11
1.165892290070794
 21
19.46130964666177
 31
0.0
  0
LINE
  5
110
  8
TEXT_LAYER$TXT_08
 10
1.165892290070794
 20
19.46130964666177
 30
0.0
 11
1.145430294184206
 21
19.4595646125147
 31
0.0
  0
LINE
  5
111
  8
TEXT_LAYER$TXT_08
 10
1.145430294184206
 20
19.4595646125147
 30
0.0
 11
1.125260814980284
 21
19.45732099613661
 31
0.0
  0
LINE
  5
112
  8
TEXT_LAYER$TXT_08
 10
1.125260814980284
 20
19.45732099613661
 30
0.0
 11
1.105383851474322
 21
19.45457879706008
 31
0.0
  0
LINE
  5
113
  8
TEXT_LAYER$TXT_08
 10
1.105383851474322
 20
19.45457879706008
 30
0.0
 11
1.085799402681613
 21
19.45133801481768
 31
0.0
  0
LINE
  5
114
  8
TEXT_LAYER$TXT_08
 10
1.085799402681613
 20
19.45133801481768
 30
0.0
 11
1.066507467617452
 21
19.44759864894201
 31
0.0
  0
LINE
  5
115
  8
TEXT_LAYER$TXT_08
 10
1.066507467617452
 20
19.44759864894201
 30
0.0
 11
1.047508045297132
 21
19.44336069896561
 31
0.0
  0
LINE
  5
116
  8
TEXT_LAYER$TXT_08
 10
1.047508045297132
 20
19.44336069896561
 30
0.0
 11
1.028801134735947
 21
19.43862416442109
 31
0.0
  0
LINE
  5
117
  8
TEXT_LAYER$TXT_08
 10
1.028801134735947
 20
19.43862416442109
 30
0.0
 11
1.010386734949192
 21
19.433389044841
 31
0.0
  0
LINE
  5
118
  8
TEXT_LAYER$TXT_08
 10
1.010386734949192
 20
19.433389044841
 30
0.0
 11
0.99226484495216
 21
19.42765533975793
 31
0.0
  0
LINE
  5
119
  8
TEXT_LAYER$TXT_08
 10
0.99226484495216
 20
19.42765533975793
 30
0.0
 11
0.9744354637601454
 21
19.42142304870445
 31
0.0
  0
LINE
  5
11A
  8
TEXT_LAYER$TXT_08
 10
0.9744354637601454
 20
19.42142304870445
 30
0.0
 11
0.9568985903884419
 21
19.41469217121315
 31
0.0
  0
LINE
  5
11B
  8
TEXT_LAYER$TXT_08
 10
0.9568985903884419
 20
19.41469217121315
 30
0.0
 11
0.9396542238523435
 21
19.40746270681659
 31
0.0
  0
LINE
  5
11C
  8
TEXT_LAYER$TXT_08
 10
0.9396542238523435
 20
19.40746270681659
 30
0.0
 11
0.9227023631671443
 21
19.39973465504735
 31
0.0
  0
LINE
  5
11D
  8
TEXT_LAYER$TXT_08
 10
0.9227023631671443
 20
19.39973465504735
 30
0.0
 11
0.906043007348138
 21
19.39150801543801
 31
0.0
  0
LINE
  5
11E
  8
TEXT_LAYER$TXT_08
 10
0.906043007348138
 20
19.39150801543801
 30
0.0
 11
0.8896761554106185
 21
19.38278278752114
 31
0.0
  0
LINE
  5
11F
  8
TEXT_LAYER$TXT_08
 10
0.8896761554106185
 20
19.38278278752114
 30
0.0
 11
0.8736018063698799
 21
19.37355897082933
 31
0.0
  0
LINE
  5
120
  8
TEXT_LAYER$TXT_08
 10
0.8736018063698799
 20
19.37355897082933
 30
0.0
 11
0.8578199592412163
 21
19.36383656489514
 31
0.0
  0
LINE
  5
121
  8
TEXT_LAYER$TXT_08
 10
0.8578199592412163
 20
19.36383656489514
 30
0.0
 11
0.8423306130399213
 21
19.35361556925115
 31
0.0
  0
LINE
  5
122
  8
TEXT_LAYER$TXT_08
 10
0.8423306130399213
 20
19.35361556925115
 30
0.0
 11
0.827133766781289
 21
19.34289598342995
 31
0.0
  0
LINE
  5
123
  8
TEXT_LAYER$TXT_08
 10
0.827133766781289
 20
19.34289598342995
 30
0.0
 11
0.8122294194806134
 21
19.3316778069641
 31
0.0
  0
LINE
  5
124
  8
TEXT_LAYER$TXT_08
 10
0.8122294194806134
 20
19.3316778069641
 30
0.0
 11
0.7976175701531885
 21
19.31996103938619
 31
0.0
  0
LINE
  5
125
  8
TEXT_LAYER$TXT_08
 10
0.7976175701531885
 20
19.31996103938619
 30
0.0
 11
0.783298217814308
 21
19.30774568022877
 31
0.0
  0
LINE
  5
126
  8
TEXT_LAYER$TXT_08
 10
0.783298217814308
 20
19.30774568022877
 30
0.0
 11
0.7692713614792659
 21
19.29503172902445
 31
0.0
  0
LINE
  5
127
  8
TEXT_LAYER$TXT_08
 10
0.7692713614792659
 20
19.29503172902445
 30
0.0
 11
0.7555370001633561
 21
19.28181918530579
 31
0.0
  0
LINE
  5
128
  8
TEXT_LAYER$TXT_08
 10
0.7555370001633561
 20
19.28181918530579
 30
0.0
 11
0.7420951328818729
 21
19.26810804860536
 31
0.0
  0
LINE
  5
129
  8
TEXT_LAYER$TXT_08
 10
0.7420951328818729
 20
19.26810804860536
 30
0.0
 11
0.7289457586501098
 21
19.25389831845575
 31
0.0
  0
LINE
  5
12A
  8
TEXT_LAYER$TXT_08
 10
0.7289457586501098
 20
19.25389831845575
 30
0.0
 11
0.7160888764833611
 21
19.23918999438952
 31
0.0
  0
LINE
  5
12B
  8
TEXT_LAYER$TXT_08
 10
0.7160888764833611
 20
19.23918999438952
 30
0.0
 11
0.7035244853969205
 21
19.22398307593926
 31
0.0
  0
LINE
  5
12C
  8
TEXT_LAYER$TXT_08
 10
0.7035244853969205
 20
19.22398307593926
 30
0.0
 11
0.691252584406082
 21
19.20827756263754
 31
0.0
  0
LINE
  5
12D
  8
TEXT_LAYER$TXT_08
 10
0.691252584406082
 20
19.20827756263754
 30
0.0
 11
0.6793163942967773
 21
19.19223301458418
 31
0.0
  0
LINE
  5
12E
  8
TEXT_LAYER$TXT_08
 10
0.6793163942967773
 20
19.19223301458418
 30
0.0
 11
0.6677591362745806
 21
19.17600899145518
 31
0.0
  0
LINE
  5
12F
  8
TEXT_LAYER$TXT_08
 10
0.6677591362745806
 20
19.17600899145518
 30
0.0
 11
0.6565808099842502
 21
19.15960549214742
 31
0.0
  0
LINE
  5
130
  8
TEXT_LAYER$TXT_08
 10
0.6565808099842502
 20
19.15960549214742
 30
0.0
 11
0.6457814150705437
 21
19.14302251555779
 31
0.0
  0
LINE
  5
131
  8
TEXT_LAYER$TXT_08
 10
0.6457814150705437
 20
19.14302251555779
 30
0.0
 11
0.6353609511782192
 21
19.12626006058317
 31
0.0
  0
LINE
  5
132
  8
TEXT_LAYER$TXT_08
 10
0.6353609511782192
 20
19.12626006058317
 30
0.0
 11
0.6253194179520347
 21
19.10931812612042
 31
0.0
  0
LINE
  5
133
  8
TEXT_LAYER$TXT_08
 10
0.6253194179520347
 20
19.10931812612042
 30
0.0
 11
0.6156568150367481
 21
19.09219671106644
 31
0.0
  0
LINE
  5
134
  8
TEXT_LAYER$TXT_08
 10
0.6156568150367481
 20
19.09219671106644
 30
0.0
 11
0.6063731420771171
 21
19.07489581431811
 31
0.0
  0
LINE
  5
135
  8
TEXT_LAYER$TXT_08
 10
0.6063731420771171
 20
19.07489581431811
 30
0.0
 11
0.5974683987179
 21
19.0574154347723
 31
0.0
  0
LINE
  5
136
  8
TEXT_LAYER$TXT_08
 10
0.5974683987179
 20
19.0574154347723
 30
0.0
 11
0.5889425846038545
 21
19.03975557132589
 31
0.0
  0
LINE
  5
137
  8
TEXT_LAYER$TXT_08
 10
0.5889425846038545
 20
19.03975557132589
 30
0.0
 11
0.5807956993797387
 21
19.02191622287577
 31
0.0
  0
LINE
  5
138
  8
TEXT_LAYER$TXT_08
 10
0.5807956993797387
 20
19.02191622287577
 30
0.0
 11
0.5730277426903104
 21
19.00389738831881
 31
0.0
  0
LINE
  5
139
  8
TEXT_LAYER$TXT_08
 10
0.5730277426903104
 20
19.00389738831881
 30
0.0
 11
0.5656387141803276
 21
18.98569906655189
 31
0.0
  0
LINE
  5
13A
  8
TEXT_LAYER$TXT_08
 10
0.5656387141803276
 20
18.98569906655189
 30
0.0
 11
0.5586286134945483
 21
18.96732125647191
 31
0.0
  0
LINE
  5
13B
  8
TEXT_LAYER$TXT_08
 10
0.5586286134945483
 20
18.96732125647191
 30
0.0
 11
0.5519974402777305
 21
18.94876395697572
 31
0.0
  0
LINE
  5
13C
  8
TEXT_LAYER$TXT_08
 10
0.5519974402777305
 20
18.94876395697572
 30
0.0
 11
0.5457451941746319
 21
18.93002716696022
 31
0.0
  0
LINE
  5
13D
  8
TEXT_LAYER$TXT_08
 10
0.5457451941746319
 20
18.93002716696022
 30
0.0
 11
0.5398718748300104
 21
18.91111088532227
 31
0.0
  0
LINE
  5
13E
  8
TEXT_LAYER$TXT_08
 10
0.5398718748300104
 20
18.91111088532227
 30
0.0
 11
0.5343774818886244
 21
18.89201511095877
 31
0.0
  0
LINE
  5
13F
  8
TEXT_LAYER$TXT_08
 10
0.5343774818886244
 20
18.89201511095877
 30
0.0
 11
0.5292620149952316
 21
18.8727398427666
 31
0.0
  0
LINE
  5
140
  8
TEXT_LAYER$TXT_08
 10
0.5292620149952316
 20
18.8727398427666
 30
0.0
 11
0.5245254737945897
 21
18.85328507964263
 31
0.0
  0
LINE
  5
141
  8
TEXT_LAYER$TXT_08
 10
0.5245254737945897
 20
18.85328507964263
 30
0.0
 11
0.5201678579314569
 21
18.83365082048374
 31
0.0
  0
LINE
  5
142
  8
TEXT_LAYER$TXT_08
 10
0.5201678579314569
 20
18.83365082048374
 30
0.0
 11
0.5161891670505911
 21
18.81383706418681
 31
0.0
  0
LINE
  5
143
  8
TEXT_LAYER$TXT_08
 10
0.5161891670505911
 20
18.81383706418681
 30
0.0
 11
0.5125894007967502
 21
18.79384380964873
 31
0.0
  0
LINE
  5
144
  8
TEXT_LAYER$TXT_08
 10
0.5125894007967502
 20
18.79384380964873
 30
0.0
 11
0.5093685588146922
 21
18.77367105576637
 31
0.0
  0
LINE
  5
145
  8
TEXT_LAYER$TXT_08
 10
0.5093685588146922
 20
18.77367105576637
 30
0.0
 11
0.5065266407491751
 21
18.75331880143662
 31
0.0
  0
LINE
  5
146
  8
TEXT_LAYER$TXT_08
 10
0.5065266407491751
 20
18.75331880143662
 30
0.0
 11
0.5040636462449566
 21
18.73278704555634
 31
0.0
  0
LINE
  5
147
  8
TEXT_LAYER$TXT_08
 10
0.5040636462449566
 20
18.73278704555634
 30
0.0
 11
0.5019795749467948
 21
18.71207578702244
 31
0.0
  0
LINE
  5
148
  8
TEXT_LAYER$TXT_08
 10
0.5019795749467948
 20
18.71207578702244
 30
0.0
 11
0.5002744264994476
 21
18.69118502473177
 31
0.0
  0
LINE
  5
149
  8
TEXT_LAYER$TXT_08
 10
0.5002744264994476
 20
18.69118502473177
 30
0.0
 11
0.4989482005476731
 21
18.67011475758122
 31
0.0
  0
LINE
  5
14A
  8
TEXT_LAYER$TXT_08
 10
0.4989482005476731
 20
18.67011475758122
 30
0.0
 11
0.498000896736229
 21
18.64886498446767
 31
0.0
  0
LINE
  5
14B
  8
TEXT_LAYER$TXT_08
 10
0.498000896736229
 20
18.64886498446767
 30
0.0
 11
0.4974325147098735
 21
18.62743570428801
 31
0.0
  0
LINE
  5
14C
  8
TEXT_LAYER$TXT_08
 10
0.4974325147098735
 20
18.62743570428801
 30
0.0
 11
0.4972430541133643
 21
18.60582691593911
 31
0.0
  0
LINE
  5
14D
  8
TEXT_LAYER$TXT_08
 10
0.4972430541133643
 20
18.60582691593911
 30
0.0
 11
0.4974640914759584
 21
18.58068480220274
 31
0.0
  0
LINE
  5
14E
  8
TEXT_LAYER$TXT_08
 10
0.4974640914759584
 20
18.58068480220274
 30
0.0
 11
0.4981272038400398
 21
18.55588839342366
 31
0.0
  0
LINE
  5
14F
  8
TEXT_LAYER$TXT_08
 10
0.4981272038400398
 20
18.55588839342366
 30
0.0
 11
0.4992323916200578
 21
18.53143768844268
 31
0.0
  0
LINE
  5
150
  8
TEXT_LAYER$TXT_08
 10
0.4992323916200578
 20
18.53143768844268
 30
0.0
 11
0.5007796552304614
 21
18.50733268610058
 31
0.0
  0
LINE
  5
151
  8
TEXT_LAYER$TXT_08
 10
0.5007796552304614
 20
18.50733268610058
 30
0.0
 11
0.5027689950856997
 21
18.48357338523814
 31
0.0
  0
LINE
  5
152
  8
TEXT_LAYER$TXT_08
 10
0.5027689950856997
 20
18.48357338523814
 30
0.0
 11
0.5052004116002216
 21
18.46015978469616
 31
0.0
  0
LINE
  5
153
  8
TEXT_LAYER$TXT_08
 10
0.5052004116002216
 20
18.46015978469616
 30
0.0
 11
0.5080739051884764
 21
18.43709188331542
 31
0.0
  0
LINE
  5
154
  8
TEXT_LAYER$TXT_08
 10
0.5080739051884764
 20
18.43709188331542
 30
0.0
 11
0.511389476264913
 21
18.41436967993673
 31
0.0
  0
LINE
  5
155
  8
TEXT_LAYER$TXT_08
 10
0.511389476264913
 20
18.41436967993673
 30
0.0
 11
0.5151471252439805
 21
18.39199317340086
 31
0.0
  0
LINE
  5
156
  8
TEXT_LAYER$TXT_08
 10
0.5151471252439805
 20
18.39199317340086
 30
0.0
 11
0.5193468525401281
 21
18.3699623625486
 31
0.0
  0
LINE
  5
157
  8
TEXT_LAYER$TXT_08
 10
0.5193468525401281
 20
18.3699623625486
 30
0.0
 11
0.5239886585678049
 21
18.34827724622074
 31
0.0
  0
LINE
  5
158
  8
TEXT_LAYER$TXT_08
 10
0.5239886585678049
 20
18.34827724622074
 30
0.0
 11
0.5290725437414596
 21
18.32693782325808
 31
0.0
  0
LINE
  5
159
  8
TEXT_LAYER$TXT_08
 10
0.5290725437414596
 20
18.32693782325808
 30
0.0
 11
0.5345985084755417
 21
18.3059440925014
 31
0.0
  0
LINE
  5
15A
  8
TEXT_LAYER$TXT_08
 10
0.5345985084755417
 20
18.3059440925014
 30
0.0
 11
0.5405665531845
 21
18.28529605279148
 31
0.0
  0
LINE
  5
15B
  8
TEXT_LAYER$TXT_08
 10
0.5405665531845
 20
18.28529605279148
 30
0.0
 11
0.5469766782827837
 21
18.26499370296913
 31
0.0
  0
LINE
  5
15C
  8
TEXT_LAYER$TXT_08
 10
0.5469766782827837
 20
18.26499370296913
 30
0.0
 11
0.5538288841848418
 21
18.24503704187512
 31
0.0
  0
LINE
  5
15D
  8
TEXT_LAYER$TXT_08
 10
0.5538288841848418
 20
18.24503704187512
 30
0.0
 11
0.5611231713051233
 21
18.22542606835025
 31
0.0
  0
LINE
  5
15E
  8
TEXT_LAYER$TXT_08
 10
0.5611231713051233
 20
18.22542606835025
 30
0.0
 11
0.5688595400580776
 21
18.20616078123531
 31
0.0
  0
LINE
  5
15F
  8
TEXT_LAYER$TXT_08
 10
0.5688595400580776
 20
18.20616078123531
 30
0.0
 11
0.5770379908581533
 21
18.18724117937108
 31
0.0
  0
LINE
  5
160
  8
TEXT_LAYER$TXT_08
 10
0.5770379908581533
 20
18.18724117937108
 30
0.0
 11
0.5856585241197998
 21
18.16866726159836
 31
0.0
  0
LINE
  5
161
  8
TEXT_LAYER$TXT_08
 10
0.5856585241197998
 20
18.16866726159836
 30
0.0
 11
0.5947211402574661
 21
18.15043902675793
 31
0.0
  0
LINE
  5
162
  8
TEXT_LAYER$TXT_08
 10
0.5947211402574661
 20
18.15043902675793
 30
0.0
 11
0.6042258396856013
 21
18.13255647369058
 31
0.0
  0
LINE
  5
163
  8
TEXT_LAYER$TXT_08
 10
0.6042258396856013
 20
18.13255647369058
 30
0.0
 11
0.6141726228186544
 21
18.11501960123711
 31
0.0
  0
LINE
  5
164
  8
TEXT_LAYER$TXT_08
 10
0.6141726228186544
 20
18.11501960123711
 30
0.0
 11
0.6245614900710744
 21
18.09782840823829
 31
0.0
  0
LINE
  5
165
  8
TEXT_LAYER$TXT_08
 10
0.6245614900710744
 20
18.09782840823829
 30
0.0
 11
0.6353924418573107
 21
18.08098289353493
 31
0.0
  0
LINE
  5
166
  8
TEXT_LAYER$TXT_08
 10
0.6353924418573107
 20
18.08098289353493
 30
0.0
 11
0.6466654785918118
 21
18.0644830559678
 31
0.0
  0
LINE
  5
167
  8
TEXT_LAYER$TXT_08
 10
0.6466654785918118
 20
18.0644830559678
 30
0.0
 11
0.6583806006890272
 21
18.0483288943777
 31
0.0
  0
LINE
  5
168
  8
TEXT_LAYER$TXT_08
 10
0.6583806006890272
 20
18.0483288943777
 30
0.0
 11
0.670537808563406
 21
18.03252040760542
 31
0.0
  0
LINE
  5
169
  8
TEXT_LAYER$TXT_08
 10
0.670537808563406
 20
18.03252040760542
 30
0.0
 11
0.6831371026293971
 21
18.01705759449175
 31
0.0
  0
LINE
  5
16A
  8
TEXT_LAYER$TXT_08
 10
0.6831371026293971
 20
18.01705759449175
 30
0.0
 11
0.6961784833014495
 21
18.00194045387747
 31
0.0
  0
LINE
  5
16B
  8
TEXT_LAYER$TXT_08
 10
0.6961784833014495
 20
18.00194045387747
 30
0.0
 11
0.7096619509940123
 21
17.98716898460337
 31
0.0
  0
LINE
  5
16C
  8
TEXT_LAYER$TXT_08
 10
0.7096619509940123
 20
17.98716898460337
 30
0.0
 11
0.7235875061215349
 21
17.97274318551025
 31
0.0
  0
LINE
  5
16D
  8
TEXT_LAYER$TXT_08
 10
-1.686215080672203
 20
17.8621237164837
 30
0.0
 11
-1.671634720105356
 21
17.84484765185181
 31
0.0
  0
LINE
  5
16E
  8
TEXT_LAYER$TXT_08
 10
-1.671634720105356
 20
17.84484765185181
 30
0.0
 11
-1.656612297157462
 21
17.82812004155653
 31
0.0
  0
LINE
  5
16F
  8
TEXT_LAYER$TXT_08
 10
-1.656612297157462
 20
17.82812004155653
 30
0.0
 11
-1.641147810572711
 21
17.81194088508368
 31
0.0
  0
LINE
  5
170
  8
TEXT_LAYER$TXT_08
 10
-1.641147810572711
 20
17.81194088508368
 30
0.0
 11
-1.62524125909529
 21
17.7963101819191
 31
0.0
  0
LINE
  5
171
  8
TEXT_LAYER$TXT_08
 10
-1.62524125909529
 20
17.7963101819191
 30
0.0
 11
-1.608892641469389
 21
17.78122793154864
 31
0.0
  0
LINE
  5
172
  8
TEXT_LAYER$TXT_08
 10
-1.608892641469389
 20
17.78122793154864
 30
0.0
 11
-1.592101956439193
 21
17.7666941334581
 31
0.0
  0
LINE
  5
173
  8
TEXT_LAYER$TXT_08
 10
-1.592101956439193
 20
17.7666941334581
 30
0.0
 11
-1.574869202748893
 21
17.75270878713335
 31
0.0
  0
LINE
  5
174
  8
TEXT_LAYER$TXT_08
 10
-1.574869202748893
 20
17.75270878713335
 30
0.0
 11
-1.557194379142676
 21
17.7392718920602
 31
0.0
  0
LINE
  5
175
  8
TEXT_LAYER$TXT_08
 10
-1.557194379142676
 20
17.7392718920602
 30
0.0
 11
-1.53907748436473
 21
17.72638344772449
 31
0.0
  0
LINE
  5
176
  8
TEXT_LAYER$TXT_08
 10
-1.53907748436473
 20
17.72638344772449
 30
0.0
 11
-1.520518517159243
 21
17.71404345361205
 31
0.0
  0
LINE
  5
177
  8
TEXT_LAYER$TXT_08
 10
-1.520518517159243
 20
17.71404345361205
 30
0.0
 11
-1.501517476270405
 21
17.70225190920873
 31
0.0
  0
LINE
  5
178
  8
TEXT_LAYER$TXT_08
 10
-1.501517476270405
 20
17.70225190920873
 30
0.0
 11
-1.482074360442401
 21
17.69100881400035
 31
0.0
  0
LINE
  5
179
  8
TEXT_LAYER$TXT_08
 10
-1.482074360442401
 20
17.69100881400035
 30
0.0
 11
-1.462189168419422
 21
17.68031416747274
 31
0.0
  0
LINE
  5
17A
  8
TEXT_LAYER$TXT_08
 10
-1.462189168419422
 20
17.68031416747274
 30
0.0
 11
-1.441861898945655
 21
17.67016796911174
 31
0.0
  0
LINE
  5
17B
  8
TEXT_LAYER$TXT_08
 10
-1.441861898945655
 20
17.67016796911174
 30
0.0
 11
-1.421092550765288
 21
17.66057021840319
 31
0.0
  0
LINE
  5
17C
  8
TEXT_LAYER$TXT_08
 10
-1.421092550765288
 20
17.66057021840319
 30
0.0
 11
-1.399881122622509
 21
17.65152091483292
 31
0.0
  0
LINE
  5
17D
  8
TEXT_LAYER$TXT_08
 10
-1.399881122622509
 20
17.65152091483292
 30
0.0
 11
-1.378227613261507
 21
17.64302005788675
 31
0.0
  0
LINE
  5
17E
  8
TEXT_LAYER$TXT_08
 10
-1.378227613261507
 20
17.64302005788675
 30
0.0
 11
-1.35613202142647
 21
17.63506764705054
 31
0.0
  0
LINE
  5
17F
  8
TEXT_LAYER$TXT_08
 10
-1.35613202142647
 20
17.63506764705054
 30
0.0
 11
-1.333594345861585
 21
17.6276636818101
 31
0.0
  0
LINE
  5
180
  8
TEXT_LAYER$TXT_08
 10
-1.333594345861585
 20
17.6276636818101
 30
0.0
 11
-1.310614585311041
 21
17.62080816165128
 31
0.0
  0
LINE
  5
181
  8
TEXT_LAYER$TXT_08
 10
-1.310614585311041
 20
17.62080816165128
 30
0.0
 11
-1.287192738519027
 21
17.6145010860599
 31
0.0
  0
LINE
  5
182
  8
TEXT_LAYER$TXT_08
 10
-1.287192738519027
 20
17.6145010860599
 30
0.0
 11
-1.263328804229729
 21
17.60874245452181
 31
0.0
  0
LINE
  5
183
  8
TEXT_LAYER$TXT_08
 10
-1.263328804229729
 20
17.60874245452181
 30
0.0
 11
-1.239022781187338
 21
17.60353226652283
 31
0.0
  0
LINE
  5
184
  8
TEXT_LAYER$TXT_08
 10
-1.239022781187338
 20
17.60353226652283
 30
0.0
 11
-1.214274668136039
 21
17.5988705215488
 31
0.0
  0
LINE
  5
185
  8
TEXT_LAYER$TXT_08
 10
-1.214274668136039
 20
17.5988705215488
 30
0.0
 11
-1.189084463820023
 21
17.59475721908555
 31
0.0
  0
LINE
  5
186
  8
TEXT_LAYER$TXT_08
 10
-1.189084463820023
 20
17.59475721908555
 30
0.0
 11
-1.163452166983476
 21
17.59119235861892
 31
0.0
  0
LINE
  5
187
  8
TEXT_LAYER$TXT_08
 10
-1.163452166983476
 20
17.59119235861892
 30
0.0
 11
-1.137377776370588
 21
17.58817593963473
 31
0.0
  0
LINE
  5
188
  8
TEXT_LAYER$TXT_08
 10
-1.137377776370588
 20
17.58817593963473
 30
0.0
 11
-1.110861290725546
 21
17.58570796161884
 31
0.0
  0
LINE
  5
189
  8
TEXT_LAYER$TXT_08
 10
-1.110861290725546
 20
17.58570796161884
 30
0.0
 11
-1.083902708792538
 21
17.58378842405706
 31
0.0
  0
LINE
  5
18A
  8
TEXT_LAYER$TXT_08
 10
-1.083902708792538
 20
17.58378842405706
 30
0.0
 11
-1.056502029315752
 21
17.58241732643523
 31
0.0
  0
LINE
  5
18B
  8
TEXT_LAYER$TXT_08
 10
-1.056502029315752
 20
17.58241732643523
 30
0.0
 11
-1.028659251039378
 21
17.58159466823919
 31
0.0
  0
LINE
  5
18C
  8
TEXT_LAYER$TXT_08
 10
-1.028659251039378
 20
17.58159466823919
 30
0.0
 11
-1.000374372707602
 21
17.58132044895477
 31
0.0
  0
LINE
  5
18D
  8
TEXT_LAYER$TXT_08
 10
-1.000374372707602
 20
17.58132044895477
 30
0.0
 11
-0.971027502740198
 21
17.58160297791448
 31
0.0
  0
LINE
  5
18E
  8
TEXT_LAYER$TXT_08
 10
-0.971027502740198
 20
17.58160297791448
 30
0.0
 11
-0.9421260576352342
 21
17.58245056514676
 31
0.0
  0
LINE
  5
18F
  8
TEXT_LAYER$TXT_08
 10
-0.9421260576352342
 20
17.58245056514676
 30
0.0
 11
-0.9136700360776919
 21
17.58386321118137
 31
0.0
  0
LINE
  5
190
  8
TEXT_LAYER$TXT_08
 10
-0.9136700360776919
 20
17.58386321118137
 30
0.0
 11
-0.8856594367525522
 21
17.58584091654805
 31
0.0
  0
LINE
  5
191
  8
TEXT_LAYER$TXT_08
 10
-0.8856594367525522
 20
17.58584091654805
 30
0.0
 11
-0.8580942583447961
 21
17.58838368177655
 31
0.0
  0
LINE
  5
192
  8
TEXT_LAYER$TXT_08
 10
-0.8580942583447961
 20
17.58838368177655
 30
0.0
 11
-0.830974499539405
 21
17.59149150739661
 31
0.0
  0
LINE
  5
193
  8
TEXT_LAYER$TXT_08
 10
-0.830974499539405
 20
17.59149150739661
 30
0.0
 11
-0.8043001590213599
 21
17.59516439393799
 31
0.0
  0
LINE
  5
194
  8
TEXT_LAYER$TXT_08
 10
-0.8043001590213599
 20
17.59516439393799
 30
0.0
 11
-0.778071235475642
 21
17.59940234193043
 31
0.0
  0
LINE
  5
195
  8
TEXT_LAYER$TXT_08
 10
-0.778071235475642
 20
17.59940234193043
 30
0.0
 11
-0.7522877275872324
 21
17.60420535190368
 31
0.0
  0
LINE
  5
196
  8
TEXT_LAYER$TXT_08
 10
-0.7522877275872324
 20
17.60420535190368
 30
0.0
 11
-0.7269496340411123
 21
17.60957342438747
 31
0.0
  0
LINE
  5
197
  8
TEXT_LAYER$TXT_08
 10
-0.7269496340411123
 20
17.60957342438747
 30
0.0
 11
-0.7020569535222628
 21
17.61550655991157
 31
0.0
  0
LINE
  5
198
  8
TEXT_LAYER$TXT_08
 10
-0.7020569535222628
 20
17.61550655991157
 30
0.0
 11
-0.677609684715665
 21
17.62200475900572
 31
0.0
  0
LINE
  5
199
  8
TEXT_LAYER$TXT_08
 10
-0.677609684715665
 20
17.62200475900572
 30
0.0
 11
-0.6536078263063001
 21
17.62906802219966
 31
0.0
  0
LINE
  5
19A
  8
TEXT_LAYER$TXT_08
 10
-0.6536078263063001
 20
17.62906802219966
 30
0.0
 11
-0.6300513769791494
 21
17.63669635002314
 31
0.0
  0
LINE
  5
19B
  8
TEXT_LAYER$TXT_08
 10
-0.6300513769791494
 20
17.63669635002314
 30
0.0
 11
-0.6069403354191938
 21
17.6448897430059
 31
0.0
  0
LINE
  5
19C
  8
TEXT_LAYER$TXT_08
 10
-0.6069403354191938
 20
17.6448897430059
 30
0.0
 11
-0.5842747003114146
 21
17.65364820167771
 31
0.0
  0
LINE
  5
19D
  8
TEXT_LAYER$TXT_08
 10
-0.5842747003114146
 20
17.65364820167771
 30
0.0
 11
-0.5620544703407929
 21
17.6629717265683
 31
0.0
  0
LINE
  5
19E
  8
TEXT_LAYER$TXT_08
 10
-0.5620544703407929
 20
17.6629717265683
 30
0.0
 11
-0.5402796441923099
 21
17.67286031820741
 31
0.0
  0
LINE
  5
19F
  8
TEXT_LAYER$TXT_08
 10
-0.5402796441923099
 20
17.67286031820741
 30
0.0
 11
-0.5189502205509465
 21
17.6833139771248
 31
0.0
  0
LINE
  5
1A0
  8
TEXT_LAYER$TXT_08
 10
-0.5189502205509465
 20
17.6833139771248
 30
0.0
 11
-0.4980661981016842
 21
17.69433270385021
 31
0.0
  0
LINE
  5
1A1
  8
TEXT_LAYER$TXT_08
 10
-0.4980661981016842
 20
17.69433270385021
 30
0.0
 11
-0.4776275755295039
 21
17.7059164989134
 31
0.0
  0
LINE
  5
1A2
  8
TEXT_LAYER$TXT_08
 10
-0.4776275755295039
 20
17.7059164989134
 30
0.0
 11
-0.4576343515193869
 21
17.7180653628441
 31
0.0
  0
LINE
  5
1A3
  8
TEXT_LAYER$TXT_08
 10
-0.4576343515193869
 20
17.7180653628441
 30
0.0
 11
-0.4380865247563143
 21
17.73077929617206
 31
0.0
  0
LINE
  5
1A4
  8
TEXT_LAYER$TXT_08
 10
-0.4380865247563143
 20
17.73077929617206
 30
0.0
 11
-0.4189840939252672
 21
17.74405829942703
 31
0.0
  0
LINE
  5
1A5
  8
TEXT_LAYER$TXT_08
 10
-0.4189840939252672
 20
17.74405829942703
 30
0.0
 11
-0.4003270577112268
 21
17.75790237313876
 31
0.0
  0
LINE
  5
1A6
  8
TEXT_LAYER$TXT_08
 10
-0.4003270577112268
 20
17.75790237313876
 30
0.0
 11
-0.3821154147991742
 21
17.772311517837
 31
0.0
  0
LINE
  5
1A7
  8
TEXT_LAYER$TXT_08
 10
-0.3821154147991742
 20
17.772311517837
 30
0.0
 11
-0.3643491638740907
 21
17.78728573405148
 31
0.0
  0
LINE
  5
1A8
  8
TEXT_LAYER$TXT_08
 10
-0.3643491638740907
 20
17.78728573405148
 30
0.0
 11
-0.3470283036209572
 21
17.80282502231196
 31
0.0
  0
LINE
  5
1A9
  8
TEXT_LAYER$TXT_08
 10
-0.3470283036209572
 20
17.80282502231196
 30
0.0
 11
-0.3301528327247549
 21
17.81892938314819
 31
0.0
  0
LINE
  5
1AA
  8
TEXT_LAYER$TXT_08
 10
-0.3301528327247549
 20
17.81892938314819
 30
0.0
 11
-0.3137227498704652
 21
17.83559881708991
 31
0.0
  0
LINE
  5
1AB
  8
TEXT_LAYER$TXT_08
 10
-0.3137227498704652
 20
17.83559881708991
 30
0.0
 11
-0.2977380537430689
 21
17.85283332466688
 31
0.0
  0
LINE
  5
1AC
  8
TEXT_LAYER$TXT_08
 10
-0.2977380537430689
 20
17.85283332466688
 30
0.0
 11
-0.2821987430275474
 21
17.87063290640882
 31
0.0
  0
LINE
  5
1AD
  8
TEXT_LAYER$TXT_08
 10
-0.2821987430275474
 20
17.87063290640882
 30
0.0
 11
-0.2671214502578989
 21
17.88887456287595
 31
0.0
  0
LINE
  5
1AE
  8
TEXT_LAYER$TXT_08
 10
-0.2671214502578989
 20
17.88887456287595
 30
0.0
 11
-0.2525228085456502
 21
17.90743529518107
 31
0.0
  0
LINE
  5
1AF
  8
TEXT_LAYER$TXT_08
 10
-0.2525228085456502
 20
17.90743529518107
 30
0.0
 11
-0.2384028174420745
 21
17.92631510468283
 31
0.0
  0
LINE
  5
1B0
  8
TEXT_LAYER$TXT_08
 10
-0.2384028174420745
 20
17.92631510468283
 30
0.0
 11
-0.224761476498445
 21
17.94551399273987
 31
0.0
  0
LINE
  5
1B1
  8
TEXT_LAYER$TXT_08
 10
-0.224761476498445
 20
17.94551399273987
 30
0.0
 11
-0.211598785266035
 21
17.96503196071083
 31
0.0
  0
LINE
  5
1B2
  8
TEXT_LAYER$TXT_08
 10
-0.211598785266035
 20
17.96503196071083
 30
0.0
 11
-0.1989147432961175
 21
17.98486900995436
 31
0.0
  0
LINE
  5
1B3
  8
TEXT_LAYER$TXT_08
 10
-0.1989147432961175
 20
17.98486900995436
 30
0.0
 11
-0.1867093501399658
 21
18.0050251418291
 31
0.0
  0
LINE
  5
1B4
  8
TEXT_LAYER$TXT_08
 10
-0.1867093501399658
 20
18.0050251418291
 30
0.0
 11
-0.1749826053488531
 21
18.0255003576937
 31
0.0
  0
LINE
  5
1B5
  8
TEXT_LAYER$TXT_08
 10
-0.1749826053488531
 20
18.0255003576937
 30
0.0
 11
-0.1637345084740526
 21
18.04629465890681
 31
0.0
  0
LINE
  5
1B6
  8
TEXT_LAYER$TXT_08
 10
-0.1637345084740526
 20
18.04629465890681
 30
0.0
 11
-0.1529650590668373
 21
18.06740804682707
 31
0.0
  0
LINE
  5
1B7
  8
TEXT_LAYER$TXT_08
 10
-0.1529650590668373
 20
18.06740804682707
 30
0.0
 11
-0.1426742566784806
 21
18.08884052281312
 31
0.0
  0
LINE
  5
1B8
  8
TEXT_LAYER$TXT_08
 10
-0.1426742566784806
 20
18.08884052281312
 30
0.0
 11
-0.1328621008602556
 21
18.11059208822362
 31
0.0
  0
LINE
  5
1B9
  8
TEXT_LAYER$TXT_08
 10
-0.1328621008602556
 20
18.11059208822362
 30
0.0
 11
-0.1235285911634354
 21
18.13266274441719
 31
0.0
  0
LINE
  5
1BA
  8
TEXT_LAYER$TXT_08
 10
-0.1235285911634354
 20
18.13266274441719
 30
0.0
 11
-0.1146737271392934
 21
18.1550524927525
 31
0.0
  0
LINE
  5
1BB
  8
TEXT_LAYER$TXT_08
 10
-0.1146737271392934
 20
18.1550524927525
 30
0.0
 11
-0.1062975083391025
 21
18.17776133458818
 31
0.0
  0
LINE
  5
1BC
  8
TEXT_LAYER$TXT_08
 10
-0.1062975083391025
 20
18.17776133458818
 30
0.0
 11
-0.0983999343141362
 21
18.20078927128288
 31
0.0
  0
LINE
  5
1BD
  8
TEXT_LAYER$TXT_08
 10
-0.0983999343141362
 20
18.20078927128288
 30
0.0
 11
-0.0909810046156674
 21
18.22413630419525
 31
0.0
  0
LINE
  5
1BE
  8
TEXT_LAYER$TXT_08
 10
-0.0909810046156674
 20
18.22413630419525
 30
0.0
 11
-0.0840407187949695
 21
18.24780243468393
 31
0.0
  0
LINE
  5
1BF
  8
TEXT_LAYER$TXT_08
 10
-0.0840407187949695
 20
18.24780243468393
 30
0.0
 11
-0.0775790764033156
 21
18.27178766410756
 31
0.0
  0
LINE
  5
1C0
  8
TEXT_LAYER$TXT_08
 10
-0.0775790764033156
 20
18.27178766410756
 30
0.0
 11
-0.0715960769919789
 21
18.29609199382479
 31
0.0
  0
LINE
  5
1C1
  8
TEXT_LAYER$TXT_08
 10
-0.0715960769919789
 20
18.29609199382479
 30
0.0
 11
-0.0660917201122325
 21
18.32071542519427
 31
0.0
  0
LINE
  5
1C2
  8
TEXT_LAYER$TXT_08
 10
-0.0660917201122325
 20
18.32071542519427
 30
0.0
 11
-0.0610660053153497
 21
18.34565795957464
 31
0.0
  0
LINE
  5
1C3
  8
TEXT_LAYER$TXT_08
 10
-0.0610660053153497
 20
18.34565795957464
 30
0.0
 11
-0.0565189321526036
 21
18.37091959832454
 31
0.0
  0
LINE
  5
1C4
  8
TEXT_LAYER$TXT_08
 10
-0.0565189321526036
 20
18.37091959832454
 30
0.0
 11
-0.0524505001752674
 21
18.39650034280263
 31
0.0
  0
LINE
  5
1C5
  8
TEXT_LAYER$TXT_08
 10
-0.0524505001752674
 20
18.39650034280263
 30
0.0
 11
-0.0488607089346144
 21
18.42240019436753
 31
0.0
  0
LINE
  5
1C6
  8
TEXT_LAYER$TXT_08
 10
-0.0488607089346144
 20
18.42240019436753
 30
0.0
 11
-0.0457495579819176
 21
18.44861915437792
 31
0.0
  0
LINE
  5
1C7
  8
TEXT_LAYER$TXT_08
 10
-0.0457495579819176
 20
18.44861915437792
 30
0.0
 11
-0.0431170468684503
 21
18.47515722419242
 31
0.0
  0
LINE
  5
1C8
  8
TEXT_LAYER$TXT_08
 10
-0.0431170468684503
 20
18.47515722419242
 30
0.0
 11
-0.0409631751454857
 21
18.50201440516967
 31
0.0
  0
LINE
  5
1C9
  8
TEXT_LAYER$TXT_08
 10
-0.0409631751454857
 20
18.50201440516967
 30
0.0
 11
-0.039287942364297
 21
18.52919069866833
 31
0.0
  0
LINE
  5
1CA
  8
TEXT_LAYER$TXT_08
 10
-0.039287942364297
 20
18.52919069866833
 30
0.0
 11
-0.0380913480761573
 21
18.55668610604705
 31
0.0
  0
LINE
  5
1CB
  8
TEXT_LAYER$TXT_08
 10
-0.0380913480761573
 20
18.55668610604705
 30
0.0
 11
-0.0371340731841177
 21
18.61263426787921
 31
0.0
  0
LINE
  5
1CC
  8
TEXT_LAYER$TXT_08
 10
-0.0371340731841177
 20
18.61263426787921
 30
0.0
 11
-0.037378377637511
 21
18.63991864617247
 31
0.0
  0
LINE
  5
1CD
  8
TEXT_LAYER$TXT_08
 10
-0.037378377637511
 20
18.63991864617247
 30
0.0
 11
-0.0381112913030748
 21
18.66688723248846
 31
0.0
  0
LINE
  5
1CE
  8
TEXT_LAYER$TXT_08
 10
-0.0381112913030748
 20
18.66688723248846
 30
0.0
 11
-0.0393328146388841
 21
18.69354002813908
 31
0.0
  0
LINE
  5
1CF
  8
TEXT_LAYER$TXT_08
 10
-0.0393328146388841
 20
18.69354002813908
 30
0.0
 11
-0.0410429481030143
 21
18.71987703443623
 31
0.0
  0
LINE
  5
1D0
  8
TEXT_LAYER$TXT_08
 10
-0.0410429481030143
 20
18.71987703443623
 30
0.0
 11
-0.0432416921535407
 21
18.74589825269182
 31
0.0
  0
LINE
  5
1D1
  8
TEXT_LAYER$TXT_08
 10
-0.0432416921535407
 20
18.74589825269182
 30
0.0
 11
-0.0459290472485385
 21
18.77160368421775
 31
0.0
  0
LINE
  5
1D2
  8
TEXT_LAYER$TXT_08
 10
-0.0459290472485385
 20
18.77160368421775
 30
0.0
 11
-0.0491050138460832
 21
18.79699333032592
 31
0.0
  0
LINE
  5
1D3
  8
TEXT_LAYER$TXT_08
 10
-0.0491050138460832
 20
18.79699333032592
 30
0.0
 11
-0.0527695924042498
 21
18.82206719232824
 31
0.0
  0
LINE
  5
1D4
  8
TEXT_LAYER$TXT_08
 10
-0.0527695924042498
 20
18.82206719232824
 30
0.0
 11
-0.0569227833811139
 21
18.8468252715366
 31
0.0
  0
LINE
  5
1D5
  8
TEXT_LAYER$TXT_08
 10
-0.0569227833811139
 20
18.8468252715366
 30
0.0
 11
-0.0615645872347505
 21
18.87126756926292
 31
0.0
  0
LINE
  5
1D6
  8
TEXT_LAYER$TXT_08
 10
-0.0615645872347505
 20
18.87126756926292
 30
0.0
 11
-0.0666950044232351
 21
18.89539408681908
 31
0.0
  0
LINE
  5
1D7
  8
TEXT_LAYER$TXT_08
 10
-0.0666950044232351
 20
18.89539408681908
 30
0.0
 11
-0.0723140354046429
 21
18.91920482551701
 31
0.0
  0
LINE
  5
1D8
  8
TEXT_LAYER$TXT_08
 10
-0.0723140354046429
 20
18.91920482551701
 30
0.0
 11
-0.0784216806370492
 21
18.94269978666858
 31
0.0
  0
LINE
  5
1D9
  8
TEXT_LAYER$TXT_08
 10
-0.0784216806370492
 20
18.94269978666858
 30
0.0
 11
-0.0850179405785293
 21
18.96587897158572
 31
0.0
  0
LINE
  5
1DA
  8
TEXT_LAYER$TXT_08
 10
-0.0850179405785293
 20
18.96587897158572
 30
0.0
 11
-0.0921028156871584
 21
18.98874238158033
 31
0.0
  0
LINE
  5
1DB
  8
TEXT_LAYER$TXT_08
 10
-0.0921028156871584
 20
18.98874238158033
 30
0.0
 11
-0.099676306421012
 21
19.0112900179643
 31
0.0
  0
LINE
  5
1DC
  8
TEXT_LAYER$TXT_08
 10
-0.099676306421012
 20
19.0112900179643
 30
0.0
 11
-0.1077384132381652
 21
19.03352188204954
 31
0.0
  0
LINE
  5
1DD
  8
TEXT_LAYER$TXT_08
 10
-0.1077384132381652
 20
19.03352188204954
 30
0.0
 11
-0.1162891365966934
 21
19.05543797514795
 31
0.0
  0
LINE
  5
1DE
  8
TEXT_LAYER$TXT_08
 10
-0.1162891365966934
 20
19.05543797514795
 30
0.0
 11
-0.1253284769546718
 21
19.07703829857144
 31
0.0
  0
LINE
  5
1DF
  8
TEXT_LAYER$TXT_08
 10
-0.1253284769546718
 20
19.07703829857144
 30
0.0
 11
-0.1348564347701757
 21
19.0983228536319
 31
0.0
  0
LINE
  5
1E0
  8
TEXT_LAYER$TXT_08
 10
-0.1348564347701757
 20
19.0983228536319
 30
0.0
 11
-0.1448730105012805
 21
19.11929164164124
 31
0.0
  0
LINE
  5
1E1
  8
TEXT_LAYER$TXT_08
 10
-0.1448730105012805
 20
19.11929164164124
 30
0.0
 11
-0.1553782046060614
 21
19.13994466391136
 31
0.0
  0
LINE
  5
1E2
  8
TEXT_LAYER$TXT_08
 10
-0.1553782046060614
 20
19.13994466391136
 30
0.0
 11
-0.1663720175425936
 21
19.16028192175418
 31
0.0
  0
LINE
  5
1E3
  8
TEXT_LAYER$TXT_08
 10
-0.1663720175425936
 20
19.16028192175418
 30
0.0
 11
-0.1778544497689526
 21
19.18030341648157
 31
0.0
  0
LINE
  5
1E4
  8
TEXT_LAYER$TXT_08
 10
-0.1778544497689526
 20
19.18030341648157
 30
0.0
 11
-0.1898255017432136
 21
19.20000914940546
 31
0.0
  0
LINE
  5
1E5
  8
TEXT_LAYER$TXT_08
 10
-0.1898255017432136
 20
19.20000914940546
 30
0.0
 11
-0.2022851739234518
 21
19.21939912183774
 31
0.0
  0
LINE
  5
1E6
  8
TEXT_LAYER$TXT_08
 10
-0.2022851739234518
 20
19.21939912183774
 30
0.0
 11
-0.2152334667677426
 21
19.23847333509032
 31
0.0
  0
LINE
  5
1E7
  8
TEXT_LAYER$TXT_08
 10
-0.2152334667677426
 20
19.23847333509032
 30
0.0
 11
-0.2286703807341612
 21
19.2572317904751
 31
0.0
  0
LINE
  5
1E8
  8
TEXT_LAYER$TXT_08
 10
-0.2286703807341612
 20
19.2572317904751
 30
0.0
 11
-0.242595916280783
 21
19.27567448930397
 31
0.0
  0
LINE
  5
1E9
  8
TEXT_LAYER$TXT_08
 10
-0.242595916280783
 20
19.27567448930397
 30
0.0
 11
-0.2570100738656832
 21
19.29380143288886
 31
0.0
  0
LINE
  5
1EA
  8
TEXT_LAYER$TXT_08
 10
-0.2570100738656832
 20
19.29380143288886
 30
0.0
 11
-0.2719128539469371
 21
19.31161262254164
 31
0.0
  0
LINE
  5
1EB
  8
TEXT_LAYER$TXT_08
 10
-0.2719128539469371
 20
19.31161262254164
 30
0.0
 11
-0.2873042569826201
 21
19.32910805957424
 31
0.0
  0
LINE
  5
1EC
  8
TEXT_LAYER$TXT_08
 10
-0.2873042569826201
 20
19.32910805957424
 30
0.0
 11
-0.3031277631331479
 21
19.3461747173621
 31
0.0
  0
LINE
  5
1ED
  8
TEXT_LAYER$TXT_08
 10
-0.3031277631331479
 20
19.3461747173621
 30
0.0
 11
-0.3193268530990718
 21
19.36269956874472
 31
0.0
  0
LINE
  5
1EE
  8
TEXT_LAYER$TXT_08
 10
-0.3193268530990718
 20
19.36269956874472
 30
0.0
 11
-0.3359015281486684
 21
19.37868261423002
 31
0.0
  0
LINE
  5
1EF
  8
TEXT_LAYER$TXT_08
 10
-0.3359015281486684
 20
19.37868261423002
 30
0.0
 11
-0.352851789550214
 21
19.39412385432593
 31
0.0
  0
LINE
  5
1F0
  8
TEXT_LAYER$TXT_08
 10
-0.352851789550214
 20
19.39412385432593
 30
0.0
 11
-0.3701776385719853
 21
19.40902328954039
 31
0.0
  0
LINE
  5
1F1
  8
TEXT_LAYER$TXT_08
 10
-0.3701776385719853
 20
19.40902328954039
 30
0.0
 11
-0.3878790764822586
 21
19.42338092038134
 31
0.0
  0
LINE
  5
1F2
  8
TEXT_LAYER$TXT_08
 10
-0.3878790764822586
 20
19.42338092038134
 30
0.0
 11
-0.4059561045493103
 21
19.43719674735671
 31
0.0
  0
LINE
  5
1F3
  8
TEXT_LAYER$TXT_08
 10
-0.4059561045493103
 20
19.43719674735671
 30
0.0
 11
-0.4244087240414171
 21
19.45047077097443
 31
0.0
  0
LINE
  5
1F4
  8
TEXT_LAYER$TXT_08
 10
-0.4244087240414171
 20
19.45047077097443
 30
0.0
 11
-0.4432369362268554
 21
19.46320299174243
 31
0.0
  0
LINE
  5
1F5
  8
TEXT_LAYER$TXT_08
 10
-0.4432369362268554
 20
19.46320299174243
 30
0.0
 11
-0.4624407423739015
 21
19.47539341016865
 31
0.0
  0
LINE
  5
1F6
  8
TEXT_LAYER$TXT_08
 10
-0.4624407423739015
 20
19.47539341016865
 30
0.0
 11
-0.4820201437508322
 21
19.48704202676103
 31
0.0
  0
LINE
  5
1F7
  8
TEXT_LAYER$TXT_08
 10
-0.4820201437508322
 20
19.48704202676103
 30
0.0
 11
-0.5019751416259237
 21
19.49814884202749
 31
0.0
  0
LINE
  5
1F8
  8
TEXT_LAYER$TXT_08
 10
-0.5019751416259237
 20
19.49814884202749
 30
0.0
 11
-0.5223057372674527
 21
19.50871385647598
 31
0.0
  0
LINE
  5
1F9
  8
TEXT_LAYER$TXT_08
 10
-0.5223057372674527
 20
19.50871385647598
 30
0.0
 11
-0.5430119319436953
 21
19.51873707061442
 31
0.0
  0
LINE
  5
1FA
  8
TEXT_LAYER$TXT_08
 10
-0.5430119319436953
 20
19.51873707061442
 30
0.0
 11
-0.5640937269229285
 21
19.52821848495074
 31
0.0
  0
LINE
  5
1FB
  8
TEXT_LAYER$TXT_08
 10
-0.5640937269229285
 20
19.52821848495074
 30
0.0
 11
-0.5855511234734283
 21
19.53715809999289
 31
0.0
  0
LINE
  5
1FC
  8
TEXT_LAYER$TXT_08
 10
-0.5855511234734283
 20
19.53715809999289
 30
0.0
 11
-0.6073841228634714
 21
19.54555591624879
 31
0.0
  0
LINE
  5
1FD
  8
TEXT_LAYER$TXT_08
 10
-0.6073841228634714
 20
19.54555591624879
 30
0.0
 11
-0.6295927263613343
 21
19.55341193422639
 31
0.0
  0
LINE
  5
1FE
  8
TEXT_LAYER$TXT_08
 10
-0.6295927263613343
 20
19.55341193422639
 30
0.0
 11
-0.6521769352352933
 21
19.56072615443361
 31
0.0
  0
LINE
  5
1FF
  8
TEXT_LAYER$TXT_08
 10
-0.6521769352352933
 20
19.56072615443361
 30
0.0
 11
-0.6751367507536252
 21
19.56749857737839
 31
0.0
  0
LINE
  5
200
  8
TEXT_LAYER$TXT_08
 10
-0.6751367507536252
 20
19.56749857737839
 30
0.0
 11
-0.6984721741846062
 21
19.57372920356865
 31
0.0
  0
LINE
  5
201
  8
TEXT_LAYER$TXT_08
 10
-0.6984721741846062
 20
19.57372920356865
 30
0.0
 11
-0.7221832067965129
 21
19.57941803351235
 31
0.0
  0
LINE
  5
202
  8
TEXT_LAYER$TXT_08
 10
-0.7221832067965129
 20
19.57941803351235
 30
0.0
 11
-0.7462698498576217
 21
19.58456506771741
 31
0.0
  0
LINE
  5
203
  8
TEXT_LAYER$TXT_08
 10
-0.7462698498576217
 20
19.58456506771741
 30
0.0
 11
-0.7707321046362091
 21
19.58917030669175
 31
0.0
  0
LINE
  5
204
  8
TEXT_LAYER$TXT_08
 10
-0.7707321046362091
 20
19.58917030669175
 30
0.0
 11
-0.7955699724005516
 21
19.59323375094332
 31
0.0
  0
LINE
  5
205
  8
TEXT_LAYER$TXT_08
 10
-0.7955699724005516
 20
19.59323375094332
 30
0.0
 11
-0.8207834544189255
 21
19.59675540098005
 31
0.0
  0
LINE
  5
206
  8
TEXT_LAYER$TXT_08
 10
-0.8207834544189255
 20
19.59675540098005
 30
0.0
 11
-0.8463725519596076
 21
19.59973525730988
 31
0.0
  0
LINE
  5
207
  8
TEXT_LAYER$TXT_08
 10
-0.8463725519596076
 20
19.59973525730988
 30
0.0
 11
-0.8723372662908742
 21
19.60217332044074
 31
0.0
  0
LINE
  5
208
  8
TEXT_LAYER$TXT_08
 10
-0.8723372662908742
 20
19.60217332044074
 30
0.0
 11
-0.8986775986810017
 21
19.60406959088056
 31
0.0
  0
LINE
  5
209
  8
TEXT_LAYER$TXT_08
 10
-0.8986775986810017
 20
19.60406959088056
 30
0.0
 11
-0.9253935503982667
 21
19.60542406913727
 31
0.0
  0
LINE
  5
20A
  8
TEXT_LAYER$TXT_08
 10
-0.9253935503982667
 20
19.60542406913727
 30
0.0
 11
-0.9524851227109457
 21
19.60623675571881
 31
0.0
  0
LINE
  5
20B
  8
TEXT_LAYER$TXT_08
 10
-0.9524851227109457
 20
19.60623675571881
 30
0.0
 11
-0.979952316887315
 21
19.60650765113312
 31
0.0
  0
LINE
  5
20C
  8
TEXT_LAYER$TXT_08
 10
-0.979952316887315
 20
19.60650765113312
 30
0.0
 11
-1.003676778832186
 21
19.60626002280961
 31
0.0
  0
LINE
  5
20D
  8
TEXT_LAYER$TXT_08
 10
-1.003676778832186
 20
19.60626002280961
 30
0.0
 11
-1.027198463632782
 21
19.60551713752955
 31
0.0
  0
LINE
  5
20E
  8
TEXT_LAYER$TXT_08
 10
-1.027198463632782
 20
19.60551713752955
 30
0.0
 11
-1.050517372495058
 21
19.60427899482863
 31
0.0
  0
LINE
  5
20F
  8
TEXT_LAYER$TXT_08
 10
-1.050517372495058
 20
19.60427899482863
 30
0.0
 11
-1.073633506624966
 21
19.60254559424254
 31
0.0
  0
LINE
  5
210
  8
TEXT_LAYER$TXT_08
 10
-1.073633506624966
 20
19.60254559424254
 30
0.0
 11
-1.09654686722846
 21
19.60031693530697
 31
0.0
  0
LINE
  5
211
  8
TEXT_LAYER$TXT_08
 10
-1.09654686722846
 20
19.60031693530697
 30
0.0
 11
-1.119257455511492
 21
19.59759301755762
 31
0.0
  0
LINE
  5
212
  8
TEXT_LAYER$TXT_08
 10
-1.119257455511492
 20
19.59759301755762
 30
0.0
 11
-1.141765272680016
 21
19.59437384053018
 31
0.0
  0
LINE
  5
213
  8
TEXT_LAYER$TXT_08
 10
-1.141765272680016
 20
19.59437384053018
 30
0.0
 11
-1.164070319939987
 21
19.59065940376033
 31
0.0
  0
LINE
  5
214
  8
TEXT_LAYER$TXT_08
 10
-1.164070319939987
 20
19.59065940376033
 30
0.0
 11
-1.186172598497356
 21
19.58644970678379
 31
0.0
  0
LINE
  5
215
  8
TEXT_LAYER$TXT_08
 10
-1.186172598497356
 20
19.58644970678379
 30
0.0
 11
-1.208072109558077
 21
19.58174474913622
 31
0.0
  0
LINE
  5
216
  8
TEXT_LAYER$TXT_08
 10
-1.208072109558077
 20
19.58174474913622
 30
0.0
 11
-1.229768854328104
 21
19.57654453035334
 31
0.0
  0
LINE
  5
217
  8
TEXT_LAYER$TXT_08
 10
-1.229768854328104
 20
19.57654453035334
 30
0.0
 11
-1.251262834013389
 21
19.57084904997082
 31
0.0
  0
LINE
  5
218
  8
TEXT_LAYER$TXT_08
 10
-1.251262834013389
 20
19.57084904997082
 30
0.0
 11
-1.272554049819887
 21
19.56465830752437
 31
0.0
  0
LINE
  5
219
  8
TEXT_LAYER$TXT_08
 10
-1.272554049819887
 20
19.56465830752437
 30
0.0
 11
-1.29364250295355
 21
19.55797230254967
 31
0.0
  0
LINE
  5
21A
  8
TEXT_LAYER$TXT_08
 10
-1.29364250295355
 20
19.55797230254967
 30
0.0
 11
-1.314528194620332
 21
19.55079103458242
 31
0.0
  0
LINE
  5
21B
  8
TEXT_LAYER$TXT_08
 10
-1.314528194620332
 20
19.55079103458242
 30
0.0
 11
-1.335211126026185
 21
19.54311450315831
 31
0.0
  0
LINE
  5
21C
  8
TEXT_LAYER$TXT_08
 10
-1.335211126026185
 20
19.54311450315831
 30
0.0
 11
-1.355691298377064
 21
19.53494270781303
 31
0.0
  0
LINE
  5
21D
  8
TEXT_LAYER$TXT_08
 10
-1.355691298377064
 20
19.53494270781303
 30
0.0
 11
-1.375968712878922
 21
19.52627564808228
 31
0.0
  0
LINE
  5
21E
  8
TEXT_LAYER$TXT_08
 10
-1.375968712878922
 20
19.52627564808228
 30
0.0
 11
-1.396043370737712
 21
19.51711332350174
 31
0.0
  0
LINE
  5
21F
  8
TEXT_LAYER$TXT_08
 10
-1.396043370737712
 20
19.51711332350174
 30
0.0
 11
-1.415915273159386
 21
19.50745573360712
 31
0.0
  0
LINE
  5
220
  8
TEXT_LAYER$TXT_08
 10
-1.415915273159386
 20
19.50745573360712
 30
0.0
 11
-1.435584421349899
 21
19.4973028779341
 31
0.0
  0
LINE
  5
221
  8
TEXT_LAYER$TXT_08
 10
-1.435584421349899
 20
19.4973028779341
 30
0.0
 11
-1.455050816515205
 21
19.48665475601836
 31
0.0
  0
LINE
  5
222
  8
TEXT_LAYER$TXT_08
 10
-1.455050816515205
 20
19.48665475601836
 30
0.0
 11
-1.474314459861255
 21
19.47551136739562
 31
0.0
  0
LINE
  5
223
  8
TEXT_LAYER$TXT_08
 10
-1.474314459861255
 20
19.47551136739562
 30
0.0
 11
-1.493375352594004
 21
19.46387271160155
 31
0.0
  0
LINE
  5
224
  8
TEXT_LAYER$TXT_08
 10
-1.493375352594004
 20
19.46387271160155
 30
0.0
 11
-1.512233495919404
 21
19.45173878817186
 31
0.0
  0
LINE
  5
225
  8
TEXT_LAYER$TXT_08
 10
-1.512233495919404
 20
19.45173878817186
 30
0.0
 11
-1.53088889104341
 21
19.43910959664223
 31
0.0
  0
LINE
  5
226
  8
TEXT_LAYER$TXT_08
 10
-1.53088889104341
 20
19.43910959664223
 30
0.0
 11
-1.549341539171974
 21
19.42598513654836
 31
0.0
  0
LINE
  5
227
  8
TEXT_LAYER$TXT_08
 10
-1.549341539171974
 20
19.42598513654836
 30
0.0
 11
-1.56759144151105
 21
19.41236540742593
 31
0.0
  0
LINE
  5
228
  8
TEXT_LAYER$TXT_08
 10
-1.56759144151105
 20
19.41236540742593
 30
0.0
 11
-1.58563859926659
 21
19.39825040881065
 31
0.0
  0
LINE
  5
229
  8
TEXT_LAYER$TXT_08
 10
-1.58563859926659
 20
19.39825040881065
 30
0.0
 11
-1.60348301364455
 21
19.3836401402382
 31
0.0
  0
LINE
  5
22A
  8
TEXT_LAYER$TXT_08
 10
-1.60348301364455
 20
19.3836401402382
 30
0.0
 11
-1.621124685850881
 21
19.36853460124427
 31
0.0
  0
LINE
  5
22B
  8
TEXT_LAYER$TXT_08
 10
-1.621124685850881
 20
19.36853460124427
 30
0.0
 11
-1.638563617091536
 21
19.35293379136457
 31
0.0
  0
LINE
  5
22C
  8
TEXT_LAYER$TXT_08
 10
-1.638563617091536
 20
19.35293379136457
 30
0.0
 11
-1.655630274879402
 21
19.33681445774705
 31
0.0
  0
LINE
  5
22D
  8
TEXT_LAYER$TXT_08
 10
-1.655630274879402
 20
19.33681445774705
 30
0.0
 11
-1.672155126262016
 21
19.32015334689152
 31
0.0
  0
LINE
  5
22E
  8
TEXT_LAYER$TXT_08
 10
-1.672155126262016
 20
19.32015334689152
 30
0.0
 11
-1.688138171747314
 21
19.30295045736143
 31
0.0
  0
LINE
  5
22F
  8
TEXT_LAYER$TXT_08
 10
-1.688138171747314
 20
19.30295045736143
 30
0.0
 11
-1.703579411843227
 21
19.28520578772024
 31
0.0
  0
LINE
  5
230
  8
TEXT_LAYER$TXT_08
 10
-1.703579411843227
 20
19.28520578772024
 30
0.0
 11
-1.718478847057691
 21
19.26691933653139
 31
0.0
  0
LINE
  5
231
  8
TEXT_LAYER$TXT_08
 10
-1.718478847057691
 20
19.26691933653139
 30
0.0
 11
-1.732836477898639
 21
19.24809110235834
 31
0.0
  0
LINE
  5
232
  8
TEXT_LAYER$TXT_08
 10
-1.732836477898639
 20
19.24809110235834
 30
0.0
 11
-1.746652304874005
 21
19.22872108376453
 31
0.0
  0
LINE
  5
233
  8
TEXT_LAYER$TXT_08
 10
-1.746652304874005
 20
19.22872108376453
 30
0.0
 11
-1.759926328491723
 21
19.20880927931343
 31
0.0
  0
LINE
  5
234
  8
TEXT_LAYER$TXT_08
 10
-1.759926328491723
 20
19.20880927931343
 30
0.0
 11
-1.772658549259726
 21
19.18835568756847
 31
0.0
  0
LINE
  5
235
  8
TEXT_LAYER$TXT_08
 10
-1.772658549259726
 20
19.18835568756847
 30
0.0
 11
-1.784848967685949
 21
19.16736030709311
 31
0.0
  0
LINE
  5
236
  8
TEXT_LAYER$TXT_08
 10
-1.784848967685949
 20
19.16736030709311
 30
0.0
 11
-1.796497584278325
 21
19.1458231364508
 31
0.0
  0
LINE
  5
237
  8
TEXT_LAYER$TXT_08
 10
-1.796497584278325
 20
19.1458231364508
 30
0.0
 11
-1.807604399544788
 21
19.12374417420499
 31
0.0
  0
LINE
  5
238
  8
TEXT_LAYER$TXT_08
 10
-1.807604399544788
 20
19.12374417420499
 30
0.0
 11
-1.818169413993272
 21
19.10112341891913
 31
0.0
  0
LINE
  5
239
  8
TEXT_LAYER$TXT_08
 10
-1.818169413993272
 20
19.10112341891913
 30
0.0
 11
-1.828192628131711
 21
19.07796086915668
 31
0.0
  0
LINE
  5
23A
  8
TEXT_LAYER$TXT_08
 10
-1.828192628131711
 20
19.07796086915668
 30
0.0
 11
-1.837674042468038
 21
19.05425652348109
 31
0.0
  0
LINE
  5
23B
  8
TEXT_LAYER$TXT_08
 10
-1.837674042468038
 20
19.05425652348109
 30
0.0
 11
-1.846613657510188
 21
19.03001038045579
 31
0.0
  0
LINE
  5
23C
  8
TEXT_LAYER$TXT_08
 10
-1.846613657510188
 20
19.03001038045579
 30
0.0
 11
-1.855011473766093
 21
19.00522243864425
 31
0.0
  0
LINE
  5
23D
  8
TEXT_LAYER$TXT_08
 10
-1.855011473766093
 20
19.00522243864425
 30
0.0
 11
-1.862867491743689
 21
18.97989269660992
 31
0.0
  0
LINE
  5
23E
  8
TEXT_LAYER$TXT_08
 10
-1.862867491743689
 20
18.97989269660992
 30
0.0
 11
-1.870181711950909
 21
18.95402115291625
 31
0.0
  0
LINE
  5
23F
  8
TEXT_LAYER$TXT_08
 10
-1.870181711950909
 20
18.95402115291625
 30
0.0
 11
-1.876954134895686
 21
18.92760780612669
 31
0.0
  0
LINE
  5
240
  8
TEXT_LAYER$TXT_08
 10
-1.876954134895686
 20
18.92760780612669
 30
0.0
 11
-1.883184761085954
 21
18.90065265480468
 31
0.0
  0
LINE
  5
241
  8
TEXT_LAYER$TXT_08
 10
-1.883184761085954
 20
18.90065265480468
 30
0.0
 11
-1.888873591029648
 21
18.87315569751369
 31
0.0
  0
LINE
  5
242
  8
TEXT_LAYER$TXT_08
 10
-1.888873591029648
 20
18.87315569751369
 30
0.0
 11
-1.894020625234701
 21
18.84511693281716
 31
0.0
  0
LINE
  5
243
  8
TEXT_LAYER$TXT_08
 10
-1.894020625234701
 20
18.84511693281716
 30
0.0
 11
-1.898625864209047
 21
18.81653635927854
 31
0.0
  0
LINE
  5
244
  8
TEXT_LAYER$TXT_08
 10
-1.898625864209047
 20
18.81653635927854
 30
0.0
 11
-1.90268930846062
 21
18.78741397546129
 31
0.0
  0
LINE
  5
245
  8
TEXT_LAYER$TXT_08
 10
-1.90268930846062
 20
18.78741397546129
 30
0.0
 11
-1.906210958497353
 21
18.75774977992885
 31
0.0
  0
LINE
  5
246
  8
TEXT_LAYER$TXT_08
 10
-1.906210958497353
 20
18.75774977992885
 30
0.0
 11
-1.909190814827181
 21
18.72754377124468
 31
0.0
  0
LINE
  5
247
  8
TEXT_LAYER$TXT_08
 10
-1.909190814827181
 20
18.72754377124468
 30
0.0
 11
-1.911628877958037
 21
18.69679594797222
 31
0.0
  0
LINE
  5
248
  8
TEXT_LAYER$TXT_08
 10
-1.911628877958037
 20
18.69679594797222
 30
0.0
 11
-1.913525148397854
 21
18.66550630867493
 31
0.0
  0
LINE
  5
249
  8
TEXT_LAYER$TXT_08
 10
-1.913525148397854
 20
18.66550630867493
 30
0.0
 11
-1.914879626654568
 21
18.63367485191626
 31
0.0
  0
LINE
  5
24A
  8
TEXT_LAYER$TXT_08
 10
-1.914879626654568
 20
18.63367485191626
 30
0.0
 11
-1.915963208650419
 21
18.56838648026859
 31
0.0
  0
LINE
  5
24B
  8
TEXT_LAYER$TXT_08
 10
-1.915963208650419
 20
18.56838648026859
 30
0.0
 11
-1.915065763439132
 21
18.5157688832015
 31
0.0
  0
LINE
  5
24C
  8
TEXT_LAYER$TXT_08
 10
-1.915065763439132
 20
18.5157688832015
 30
0.0
 11
-1.913943956294001
 21
18.48988391213597
 31
0.0
  0
LINE
  5
24D
  8
TEXT_LAYER$TXT_08
 10
-1.913943956294001
 20
18.48988391213597
 30
0.0
 11
-1.912373425561636
 21
18.4642814909915
 31
0.0
  0
LINE
  5
24E
  8
TEXT_LAYER$TXT_08
 10
-1.912373425561636
 20
18.4642814909915
 30
0.0
 11
-1.910354170821357
 21
18.43896161847489
 31
0.0
  0
LINE
  5
24F
  8
TEXT_LAYER$TXT_08
 10
-1.910354170821357
 20
18.43896161847489
 30
0.0
 11
-1.907886191652481
 21
18.41392429329293
 31
0.0
  0
LINE
  5
250
  8
TEXT_LAYER$TXT_08
 10
-1.907886191652481
 20
18.41392429329293
 30
0.0
 11
-1.904969487634328
 21
18.38916951415243
 31
0.0
  0
LINE
  5
251
  8
TEXT_LAYER$TXT_08
 10
-1.904969487634328
 20
18.38916951415243
 30
0.0
 11
-1.901604058346215
 21
18.36469727976016
 31
0.0
  0
LINE
  5
252
  8
TEXT_LAYER$TXT_08
 10
-1.901604058346215
 20
18.36469727976016
 30
0.0
 11
-1.897789903367463
 21
18.34050758882293
 31
0.0
  0
LINE
  5
253
  8
TEXT_LAYER$TXT_08
 10
-1.897789903367463
 20
18.34050758882293
 30
0.0
 11
-1.893527022277388
 21
18.31660044004754
 31
0.0
  0
LINE
  5
254
  8
TEXT_LAYER$TXT_08
 10
-1.893527022277388
 20
18.31660044004754
 30
0.0
 11
-1.88881541465531
 21
18.29297583214077
 31
0.0
  0
LINE
  5
255
  8
TEXT_LAYER$TXT_08
 10
-1.88881541465531
 20
18.29297583214077
 30
0.0
 11
-1.883655080080548
 21
18.26963376380942
 31
0.0
  0
LINE
  5
256
  8
TEXT_LAYER$TXT_08
 10
-1.883655080080548
 20
18.26963376380942
 30
0.0
 11
-1.878046018132419
 21
18.24657423376028
 31
0.0
  0
LINE
  5
257
  8
TEXT_LAYER$TXT_08
 10
-1.878046018132419
 20
18.24657423376028
 30
0.0
 11
-1.871988228390244
 21
18.22379724070016
 31
0.0
  0
LINE
  5
258
  8
TEXT_LAYER$TXT_08
 10
-1.871988228390244
 20
18.22379724070016
 30
0.0
 11
-1.865481710433339
 21
18.20130278333583
 31
0.0
  0
LINE
  5
259
  8
TEXT_LAYER$TXT_08
 10
-1.865481710433339
 20
18.20130278333583
 30
0.0
 11
-1.858526463841025
 21
18.1790908603741
 31
0.0
  0
LINE
  5
25A
  8
TEXT_LAYER$TXT_08
 10
-1.858526463841025
 20
18.1790908603741
 30
0.0
 11
-1.851122488192618
 21
18.15716147052176
 31
0.0
  0
LINE
  5
25B
  8
TEXT_LAYER$TXT_08
 10
-1.851122488192618
 20
18.15716147052176
 30
0.0
 11
-1.84326978306744
 21
18.13551461248561
 31
0.0
  0
LINE
  5
25C
  8
TEXT_LAYER$TXT_08
 10
-1.84326978306744
 20
18.13551461248561
 30
0.0
 11
-1.834968348044806
 21
18.11415028497244
 31
0.0
  0
LINE
  5
25D
  8
TEXT_LAYER$TXT_08
 10
-1.834968348044806
 20
18.11415028497244
 30
0.0
 11
-1.826218182704038
 21
18.09306848668904
 31
0.0
  0
LINE
  5
25E
  8
TEXT_LAYER$TXT_08
 10
-1.826218182704038
 20
18.09306848668904
 30
0.0
 11
-1.817019286624451
 21
18.07226921634221
 31
0.0
  0
LINE
  5
25F
  8
TEXT_LAYER$TXT_08
 10
-1.817019286624451
 20
18.07226921634221
 30
0.0
 11
-1.807371659385367
 21
18.05175247263874
 31
0.0
  0
LINE
  5
260
  8
TEXT_LAYER$TXT_08
 10
-1.807371659385367
 20
18.05175247263874
 30
0.0
 11
-1.797275300566103
 21
18.03151825428543
 31
0.0
  0
LINE
  5
261
  8
TEXT_LAYER$TXT_08
 10
-1.797275300566103
 20
18.03151825428543
 30
0.0
 11
-1.786730209745977
 21
18.01156655998906
 31
0.0
  0
LINE
  5
262
  8
TEXT_LAYER$TXT_08
 10
-1.786730209745977
 20
18.01156655998906
 30
0.0
 11
-1.775736386504309
 21
17.99189738845644
 31
0.0
  0
LINE
  5
263
  8
TEXT_LAYER$TXT_08
 10
-1.775736386504309
 20
17.99189738845644
 30
0.0
 11
-1.764293830420417
 21
17.97251073839437
 31
0.0
  0
LINE
  5
264
  8
TEXT_LAYER$TXT_08
 10
-1.764293830420417
 20
17.97251073839437
 30
0.0
 11
-1.75240254107362
 21
17.95340660850962
 31
0.0
  0
LINE
  5
265
  8
TEXT_LAYER$TXT_08
 10
-1.75240254107362
 20
17.95340660850962
 30
0.0
 11
-1.740062518043235
 21
17.93458499750901
 31
0.0
  0
LINE
  5
266
  8
TEXT_LAYER$TXT_08
 10
-1.740062518043235
 20
17.93458499750901
 30
0.0
 11
-1.727273760908583
 21
17.91604590409931
 31
0.0
  0
LINE
  5
267
  8
TEXT_LAYER$TXT_08
 10
-1.727273760908583
 20
17.91604590409931
 30
0.0
 11
-1.714036269248981
 21
17.89778932698733
 31
0.0
  0
LINE
  5
268
  8
TEXT_LAYER$TXT_08
 10
-1.714036269248981
 20
17.89778932698733
 30
0.0
 11
-1.700350042643748
 21
17.87981526487986
 31
0.0
  0
LINE
  5
269
  8
TEXT_LAYER$TXT_08
 10
-1.700350042643748
 20
17.87981526487986
 30
0.0
 11
-1.686215080672203
 21
17.8621237164837
 31
0.0
  0
LINE
  5
26A
  8
TEXT_LAYER$TXT_08
 10
0.5176651099336513
 20
19.83795761709636
 30
0.0
 11
0.5348431128301001
 21
19.85450075777417
 31
0.0
  0
LINE
  5
26B
  8
TEXT_LAYER$TXT_08
 10
0.5348431128301001
 20
19.85450075777417
 30
0.0
 11
0.5523401924993853
 21
19.87051871187511
 31
0.0
  0
LINE
  5
26C
  8
TEXT_LAYER$TXT_08
 10
0.5523401924993853
 20
19.87051871187511
 30
0.0
 11
0.5701563502378288
 21
19.88601147989154
 31
0.0
  0
LINE
  5
26D
  8
TEXT_LAYER$TXT_08
 10
0.5701563502378288
 20
19.88601147989154
 30
0.0
 11
0.5882915873417528
 21
19.90097906231579
 31
0.0
  0
LINE
  5
26E
  8
TEXT_LAYER$TXT_08
 10
0.5882915873417528
 20
19.90097906231579
 30
0.0
 11
0.6067459051074789
 21
19.91542145964024
 31
0.0
  0
LINE
  5
26F
  8
TEXT_LAYER$TXT_08
 10
0.6067459051074789
 20
19.91542145964024
 30
0.0
 11
0.6255193048313292
 21
19.92933867235724
 31
0.0
  0
LINE
  5
270
  8
TEXT_LAYER$TXT_08
 10
0.6255193048313292
 20
19.92933867235724
 30
0.0
 11
0.6446117878096256
 21
19.94273070095912
 31
0.0
  0
LINE
  5
271
  8
TEXT_LAYER$TXT_08
 10
0.6446117878096256
 20
19.94273070095912
 30
0.0
 11
0.6640233553386898
 21
19.95559754593826
 31
0.0
  0
LINE
  5
272
  8
TEXT_LAYER$TXT_08
 10
0.6640233553386898
 20
19.95559754593826
 30
0.0
 11
0.6837540087148439
 21
19.967939207787
 31
0.0
  0
LINE
  5
273
  8
TEXT_LAYER$TXT_08
 10
0.6837540087148439
 20
19.967939207787
 30
0.0
 11
0.7038037492344097
 21
19.9797556869977
 31
0.0
  0
LINE
  5
274
  8
TEXT_LAYER$TXT_08
 10
0.7038037492344097
 20
19.9797556869977
 30
0.0
 11
0.7241725781937092
 21
19.9910469840627
 31
0.0
  0
LINE
  5
275
  8
TEXT_LAYER$TXT_08
 10
0.7241725781937092
 20
19.9910469840627
 30
0.0
 11
0.7448604968890642
 21
20.00181309947436
 31
0.0
  0
LINE
  5
276
  8
TEXT_LAYER$TXT_08
 10
0.7448604968890642
 20
20.00181309947436
 30
0.0
 11
0.7658675066167968
 21
20.01205403372504
 31
0.0
  0
LINE
  5
277
  8
TEXT_LAYER$TXT_08
 10
0.7658675066167968
 20
20.01205403372504
 30
0.0
 11
0.7871936086732287
 21
20.02176978730709
 31
0.0
  0
LINE
  5
278
  8
TEXT_LAYER$TXT_08
 10
0.7871936086732287
 20
20.02176978730709
 30
0.0
 11
0.8088388043546819
 21
20.03096036071285
 31
0.0
  0
LINE
  5
279
  8
TEXT_LAYER$TXT_08
 10
0.8088388043546819
 20
20.03096036071285
 30
0.0
 11
0.8308030949574781
 21
20.03962575443469
 31
0.0
  0
LINE
  5
27A
  8
TEXT_LAYER$TXT_08
 10
0.8308030949574781
 20
20.03962575443469
 30
0.0
 11
0.8530864817779393
 21
20.04776596896495
 31
0.0
  0
LINE
  5
27B
  8
TEXT_LAYER$TXT_08
 10
0.8530864817779393
 20
20.04776596896495
 30
0.0
 11
0.8756889661123877
 21
20.055381004796
 31
0.0
  0
LINE
  5
27C
  8
TEXT_LAYER$TXT_08
 10
0.8756889661123877
 20
20.055381004796
 30
0.0
 11
0.8986105492571448
 21
20.06247086242017
 31
0.0
  0
LINE
  5
27D
  8
TEXT_LAYER$TXT_08
 10
0.8986105492571448
 20
20.06247086242017
 30
0.0
 11
0.921851232508533
 21
20.06903554232983
 31
0.0
  0
LINE
  5
27E
  8
TEXT_LAYER$TXT_08
 10
0.921851232508533
 20
20.06903554232983
 30
0.0
 11
0.9454110171628738
 21
20.07507504501734
 31
0.0
  0
LINE
  5
27F
  8
TEXT_LAYER$TXT_08
 10
0.9454110171628738
 20
20.07507504501734
 30
0.0
 11
0.969289904516489
 21
20.08058937097503
 31
0.0
  0
LINE
  5
280
  8
TEXT_LAYER$TXT_08
 10
0.969289904516489
 20
20.08058937097503
 30
0.0
 11
0.9934878958657009
 21
20.08557852069526
 31
0.0
  0
LINE
  5
281
  8
TEXT_LAYER$TXT_08
 10
0.9934878958657009
 20
20.08557852069526
 30
0.0
 11
1.018004992506831
 21
20.09004249467039
 31
0.0
  0
LINE
  5
282
  8
TEXT_LAYER$TXT_08
 10
1.018004992506831
 20
20.09004249467039
 30
0.0
 11
1.042841195736202
 21
20.09398129339277
 31
0.0
  0
LINE
  5
283
  8
TEXT_LAYER$TXT_08
 10
1.042841195736202
 20
20.09398129339277
 30
0.0
 11
1.067996506850134
 21
20.09739491735476
 31
0.0
  0
LINE
  5
284
  8
TEXT_LAYER$TXT_08
 10
1.067996506850134
 20
20.09739491735476
 30
0.0
 11
1.093470927144951
 21
20.1002833670487
 31
0.0
  0
LINE
  5
285
  8
TEXT_LAYER$TXT_08
 10
1.093470927144951
 20
20.1002833670487
 30
0.0
 11
1.119264457916974
 21
20.10264664296696
 31
0.0
  0
LINE
  5
286
  8
TEXT_LAYER$TXT_08
 10
1.119264457916974
 20
20.10264664296696
 30
0.0
 11
1.145377100462525
 21
20.10448474560188
 31
0.0
  0
LINE
  5
287
  8
TEXT_LAYER$TXT_08
 10
1.145377100462525
 20
20.10448474560188
 30
0.0
 11
1.171808856077925
 21
20.10579767544581
 31
0.0
  0
LINE
  5
288
  8
TEXT_LAYER$TXT_08
 10
1.171808856077925
 20
20.10579767544581
 30
0.0
 11
1.198559726059498
 21
20.1065854329911
 31
0.0
  0
LINE
  5
289
  8
TEXT_LAYER$TXT_08
 10
1.198559726059498
 20
20.1065854329911
 30
0.0
 11
1.225629711703564
 21
20.10684801873013
 31
0.0
  0
LINE
  5
28A
  8
TEXT_LAYER$TXT_08
 10
1.225629711703564
 20
20.10684801873013
 30
0.0
 11
1.259517051810359
 21
20.10646244979688
 31
0.0
  0
LINE
  5
28B
  8
TEXT_LAYER$TXT_08
 10
1.259517051810359
 20
20.10646244979688
 30
0.0
 11
1.293105213504786
 21
20.10530574251517
 31
0.0
  0
LINE
  5
28C
  8
TEXT_LAYER$TXT_08
 10
1.293105213504786
 20
20.10530574251517
 30
0.0
 11
1.326394198500732
 21
20.10337789616206
 31
0.0
  0
LINE
  5
28D
  8
TEXT_LAYER$TXT_08
 10
1.326394198500732
 20
20.10337789616206
 30
0.0
 11
1.359384008512085
 21
20.10067891001459
 31
0.0
  0
LINE
  5
28E
  8
TEXT_LAYER$TXT_08
 10
1.359384008512085
 20
20.10067891001459
 30
0.0
 11
1.392074645252731
 21
20.09720878334981
 31
0.0
  0
LINE
  5
28F
  8
TEXT_LAYER$TXT_08
 10
1.392074645252731
 20
20.09720878334981
 30
0.0
 11
1.424466110436558
 21
20.09296751544478
 31
0.0
  0
LINE
  5
290
  8
TEXT_LAYER$TXT_08
 10
1.424466110436558
 20
20.09296751544478
 30
0.0
 11
1.456558405777453
 21
20.08795510557655
 31
0.0
  0
LINE
  5
291
  8
TEXT_LAYER$TXT_08
 10
1.456558405777453
 20
20.08795510557655
 30
0.0
 11
1.488351532989302
 21
20.08217155302216
 31
0.0
  0
LINE
  5
292
  8
TEXT_LAYER$TXT_08
 10
1.488351532989302
 20
20.08217155302216
 30
0.0
 11
1.519845493785993
 21
20.07561685705868
 31
0.0
  0
LINE
  5
293
  8
TEXT_LAYER$TXT_08
 10
1.519845493785993
 20
20.07561685705868
 30
0.0
 11
1.551040289881413
 21
20.06829101696314
 31
0.0
  0
LINE
  5
294
  8
TEXT_LAYER$TXT_08
 10
1.551040289881413
 20
20.06829101696314
 30
0.0
 11
1.58193592298945
 21
20.06019403201261
 31
0.0
  0
LINE
  5
295
  8
TEXT_LAYER$TXT_08
 10
1.58193592298945
 20
20.06019403201261
 30
0.0
 11
1.612532394823989
 21
20.05132590148413
 31
0.0
  0
LINE
  5
296
  8
TEXT_LAYER$TXT_08
 10
1.612532394823989
 20
20.05132590148413
 30
0.0
 11
1.64282970709892
 21
20.04168662465475
 31
0.0
  0
LINE
  5
297
  8
TEXT_LAYER$TXT_08
 10
1.64282970709892
 20
20.04168662465475
 30
0.0
 11
1.672827861528127
 21
20.03127620080153
 31
0.0
  0
LINE
  5
298
  8
TEXT_LAYER$TXT_08
 10
1.672827861528127
 20
20.03127620080153
 30
0.0
 11
1.7025268598255
 21
20.02009462920152
 31
0.0
  0
LINE
  5
299
  8
TEXT_LAYER$TXT_08
 10
1.7025268598255
 20
20.02009462920152
 30
0.0
 11
1.731926703704924
 21
20.00814190913176
 31
0.0
  0
LINE
  5
29A
  8
TEXT_LAYER$TXT_08
 10
1.731926703704924
 20
20.00814190913176
 30
0.0
 11
1.761027394880287
 21
19.99541803986931
 31
0.0
  0
LINE
  5
29B
  8
TEXT_LAYER$TXT_08
 10
1.761027394880287
 20
19.99541803986931
 30
0.0
 11
1.789828935065477
 21
19.98192302069123
 31
0.0
  0
LINE
  5
29C
  8
TEXT_LAYER$TXT_08
 10
1.789828935065477
 20
19.98192302069123
 30
0.0
 11
1.81833132597438
 21
19.96765685087456
 31
0.0
  0
LINE
  5
29D
  8
TEXT_LAYER$TXT_08
 10
1.81833132597438
 20
19.96765685087456
 30
0.0
 11
1.846534569320883
 21
19.95261952969635
 31
0.0
  0
LINE
  5
29E
  8
TEXT_LAYER$TXT_08
 10
1.846534569320883
 20
19.95261952969635
 30
0.0
 11
1.874438666818874
 21
19.93681105643365
 31
0.0
  0
LINE
  5
29F
  8
TEXT_LAYER$TXT_08
 10
1.874438666818874
 20
19.93681105643365
 30
0.0
 11
1.902043620182239
 21
19.92023143036352
 31
0.0
  0
LINE
  5
2A0
  8
TEXT_LAYER$TXT_08
 10
1.902043620182239
 20
19.92023143036352
 30
0.0
 11
1.929349431124866
 21
19.90288065076301
 31
0.0
  0
LINE
  5
2A1
  8
TEXT_LAYER$TXT_08
 10
1.929349431124866
 20
19.90288065076301
 30
0.0
 11
1.956356101360643
 21
19.88475871690916
 31
0.0
  0
LINE
  5
2A2
  8
TEXT_LAYER$TXT_08
 10
1.956356101360643
 20
19.88475871690916
 30
0.0
 11
1.983063632603455
 21
19.86586562807903
 31
0.0
  0
LINE
  5
2A3
  8
TEXT_LAYER$TXT_08
 10
1.983063632603455
 20
19.86586562807903
 30
0.0
 11
2.00947202656719
 21
19.84620138354968
 31
0.0
  0
LINE
  5
2A4
  8
TEXT_LAYER$TXT_08
 10
2.00947202656719
 20
19.84620138354968
 30
0.0
 11
2.035581284965736
 21
19.82576598259814
 31
0.0
  0
LINE
  5
2A5
  8
TEXT_LAYER$TXT_08
 10
2.035581284965736
 20
19.82576598259814
 30
0.0
 11
2.061391409512979
 21
19.80455942450148
 31
0.0
  0
LINE
  5
2A6
  8
TEXT_LAYER$TXT_08
 10
2.061391409512979
 20
19.80455942450148
 30
0.0
 11
2.086902401922806
 21
19.78258170853675
 31
0.0
  0
LINE
  5
2A7
  8
TEXT_LAYER$TXT_08
 10
2.086902401922806
 20
19.78258170853675
 30
0.0
 11
2.112114263909105
 21
19.75983283398099
 31
0.0
  0
LINE
  5
2A8
  8
TEXT_LAYER$TXT_08
 10
2.112114263909105
 20
19.75983283398099
 30
0.0
 11
2.137026997185763
 21
19.73631280011125
 31
0.0
  0
LINE
  5
2A9
  8
TEXT_LAYER$TXT_08
 10
2.137026997185763
 20
19.73631280011125
 30
0.0
 11
2.161640603466668
 21
19.7120216062046
 31
0.0
  0
LINE
  5
2AA
  8
TEXT_LAYER$TXT_08
 10
2.161640603466668
 20
19.7120216062046
 30
0.0
 11
2.1857223905293
 21
19.68702242796362
 31
0.0
  0
LINE
  5
2AB
  8
TEXT_LAYER$TXT_08
 10
2.1857223905293
 20
19.68702242796362
 30
0.0
 11
2.209039665486363
 21
19.66137844020592
 31
0.0
  0
LINE
  5
2AC
  8
TEXT_LAYER$TXT_08
 10
2.209039665486363
 20
19.66137844020592
 30
0.0
 11
2.231592429054574
 21
19.63508964088108
 31
0.0
  0
LINE
  5
2AD
  8
TEXT_LAYER$TXT_08
 10
2.231592429054574
 20
19.63508964088108
 30
0.0
 11
2.253380681950648
 21
19.60815602793866
 31
0.0
  0
LINE
  5
2AE
  8
TEXT_LAYER$TXT_08
 10
2.253380681950648
 20
19.60815602793866
 30
0.0
 11
2.274404424891303
 21
19.58057759932823
 31
0.0
  0
LINE
  5
2AF
  8
TEXT_LAYER$TXT_08
 10
2.274404424891303
 20
19.58057759932823
 30
0.0
 11
2.294663658593254
 21
19.55235435299936
 31
0.0
  0
LINE
  5
2B0
  8
TEXT_LAYER$TXT_08
 10
2.294663658593254
 20
19.55235435299936
 30
0.0
 11
2.314158383773218
 21
19.52348628690161
 31
0.0
  0
LINE
  5
2B1
  8
TEXT_LAYER$TXT_08
 10
2.314158383773218
 20
19.52348628690161
 30
0.0
 11
2.332888601147912
 21
19.49397339898455
 31
0.0
  0
LINE
  5
2B2
  8
TEXT_LAYER$TXT_08
 10
2.332888601147912
 20
19.49397339898455
 30
0.0
 11
2.350854311434052
 21
19.46381568719775
 31
0.0
  0
LINE
  5
2B3
  8
TEXT_LAYER$TXT_08
 10
2.350854311434052
 20
19.46381568719775
 30
0.0
 11
2.368055515348354
 21
19.43301314949078
 31
0.0
  0
LINE
  5
2B4
  8
TEXT_LAYER$TXT_08
 10
2.368055515348354
 20
19.43301314949078
 30
0.0
 11
2.384492213607535
 21
19.4015657838132
 31
0.0
  0
LINE
  5
2B5
  8
TEXT_LAYER$TXT_08
 10
2.384492213607535
 20
19.4015657838132
 30
0.0
 11
2.400164406928311
 21
19.36947358811459
 31
0.0
  0
LINE
  5
2B6
  8
TEXT_LAYER$TXT_08
 10
2.400164406928311
 20
19.36947358811459
 30
0.0
 11
2.415072096027399
 21
19.33673656034451
 31
0.0
  0
LINE
  5
2B7
  8
TEXT_LAYER$TXT_08
 10
2.415072096027399
 20
19.33673656034451
 30
0.0
 11
2.429215281621515
 21
19.30335469845252
 31
0.0
  0
LINE
  5
2B8
  8
TEXT_LAYER$TXT_08
 10
2.429215281621515
 20
19.30335469845252
 30
0.0
 11
2.442593964427376
 21
19.26932800038821
 31
0.0
  0
LINE
  5
2B9
  8
TEXT_LAYER$TXT_08
 10
2.442593964427376
 20
19.26932800038821
 30
0.0
 11
2.455208145161697
 21
19.23465646410112
 31
0.0
  0
LINE
  5
2BA
  8
TEXT_LAYER$TXT_08
 10
2.455208145161697
 20
19.23465646410112
 30
0.0
 11
2.467057824541196
 21
19.19934008754084
 31
0.0
  0
LINE
  5
2BB
  8
TEXT_LAYER$TXT_08
 10
2.467057824541196
 20
19.19934008754084
 30
0.0
 11
2.478143003282589
 21
19.16337886865693
 31
0.0
  0
LINE
  5
2BC
  8
TEXT_LAYER$TXT_08
 10
2.478143003282589
 20
19.16337886865693
 30
0.0
 11
2.488463682102593
 21
19.12677280539896
 31
0.0
  0
LINE
  5
2BD
  8
TEXT_LAYER$TXT_08
 10
2.488463682102593
 20
19.12677280539896
 30
0.0
 11
2.498019861717922
 21
19.08952189571649
 31
0.0
  0
LINE
  5
2BE
  8
TEXT_LAYER$TXT_08
 10
2.498019861717922
 20
19.08952189571649
 30
0.0
 11
2.506811542845295
 21
19.05162613755909
 31
0.0
  0
LINE
  5
2BF
  8
TEXT_LAYER$TXT_08
 10
2.506811542845295
 20
19.05162613755909
 30
0.0
 11
2.514838726201428
 21
19.01308552887633
 31
0.0
  0
LINE
  5
2C0
  8
TEXT_LAYER$TXT_08
 10
2.514838726201428
 20
19.01308552887633
 30
0.0
 11
2.522101412503036
 21
18.97390006761779
 31
0.0
  0
LINE
  5
2C1
  8
TEXT_LAYER$TXT_08
 10
2.522101412503036
 20
18.97390006761779
 30
0.0
 11
2.528599602466838
 21
18.93406975173302
 31
0.0
  0
LINE
  5
2C2
  8
TEXT_LAYER$TXT_08
 10
2.528599602466838
 20
18.93406975173302
 30
0.0
 11
2.534333296809548
 21
18.89359457917159
 31
0.0
  0
LINE
  5
2C3
  8
TEXT_LAYER$TXT_08
 10
2.534333296809548
 20
18.89359457917159
 30
0.0
 11
2.539302496247883
 21
18.85247454788308
 31
0.0
  0
LINE
  5
2C4
  8
TEXT_LAYER$TXT_08
 10
2.539302496247883
 20
18.85247454788308
 30
0.0
 11
2.54350720149856
 21
18.81070965581704
 31
0.0
  0
LINE
  5
2C5
  8
TEXT_LAYER$TXT_08
 10
2.54350720149856
 20
18.81070965581704
 30
0.0
 11
2.546947413278295
 21
18.76829990092305
 31
0.0
  0
LINE
  5
2C6
  8
TEXT_LAYER$TXT_08
 10
2.546947413278295
 20
18.76829990092305
 30
0.0
 11
2.549623132303805
 21
18.72524528115068
 31
0.0
  0
LINE
  5
2C7
  8
TEXT_LAYER$TXT_08
 10
2.549623132303805
 20
18.72524528115068
 30
0.0
 11
2.551534359291806
 21
18.68154579444948
 31
0.0
  0
LINE
  5
2C8
  8
TEXT_LAYER$TXT_08
 10
2.551534359291806
 20
18.68154579444948
 30
0.0
 11
2.553063340022148
 21
18.59221221205892
 31
0.0
  0
LINE
  5
2C9
  8
TEXT_LAYER$TXT_08
 10
2.553063340022148
 20
18.59221221205892
 30
0.0
 11
2.551620779941782
 21
18.50575049448059
 31
0.0
  0
LINE
  5
2CA
  8
TEXT_LAYER$TXT_08
 10
2.551620779941782
 20
18.50575049448059
 30
0.0
 11
2.549817578827016
 21
18.46340716532714
 31
0.0
  0
LINE
  5
2CB
  8
TEXT_LAYER$TXT_08
 10
2.549817578827016
 20
18.46340716532714
 30
0.0
 11
2.547293096094251
 21
18.42165551991344
 31
0.0
  0
LINE
  5
2CC
  8
TEXT_LAYER$TXT_08
 10
2.547293096094251
 20
18.42165551991344
 30
0.0
 11
2.544047331067284
 21
18.38049555622644
 31
0.0
  0
LINE
  5
2CD
  8
TEXT_LAYER$TXT_08
 10
2.544047331067284
 20
18.38049555622644
 30
0.0
 11
2.540080283069906
 21
18.33992727225313
 31
0.0
  0
LINE
  5
2CE
  8
TEXT_LAYER$TXT_08
 10
2.540080283069906
 20
18.33992727225313
 30
0.0
 11
2.53539195142591
 21
18.29995066598045
 31
0.0
  0
LINE
  5
2CF
  8
TEXT_LAYER$TXT_08
 10
2.53539195142591
 20
18.29995066598045
 30
0.0
 11
2.529982335459093
 21
18.26056573539537
 31
0.0
  0
LINE
  5
2D0
  8
TEXT_LAYER$TXT_08
 10
2.529982335459093
 20
18.26056573539537
 30
0.0
 11
2.523851434493246
 21
18.22177247848486
 31
0.0
  0
LINE
  5
2D1
  8
TEXT_LAYER$TXT_08
 10
2.523851434493246
 20
18.22177247848486
 30
0.0
 11
2.516999247852163
 21
18.18357089323587
 31
0.0
  0
LINE
  5
2D2
  8
TEXT_LAYER$TXT_08
 10
2.516999247852163
 20
18.18357089323587
 30
0.0
 11
2.509425774859638
 21
18.14596097763535
 31
0.0
  0
LINE
  5
2D3
  8
TEXT_LAYER$TXT_08
 10
2.509425774859638
 20
18.14596097763535
 30
0.0
 11
2.501131014839464
 21
18.10894272967029
 31
0.0
  0
LINE
  5
2D4
  8
TEXT_LAYER$TXT_08
 10
2.501131014839464
 20
18.10894272967029
 30
0.0
 11
2.492114967115436
 21
18.07251614732763
 31
0.0
  0
LINE
  5
2D5
  8
TEXT_LAYER$TXT_08
 10
2.492114967115436
 20
18.07251614732763
 30
0.0
 11
2.482377631011346
 21
18.03668122859434
 31
0.0
  0
LINE
  5
2D6
  8
TEXT_LAYER$TXT_08
 10
2.482377631011346
 20
18.03668122859434
 30
0.0
 11
2.471919005850988
 21
18.00143797145738
 31
0.0
  0
LINE
  5
2D7
  8
TEXT_LAYER$TXT_08
 10
2.471919005850988
 20
18.00143797145738
 30
0.0
 11
2.460739090958157
 21
17.96678637390372
 31
0.0
  0
LINE
  5
2D8
  8
TEXT_LAYER$TXT_08
 10
2.460739090958157
 20
17.96678637390372
 30
0.0
 11
2.448837885656645
 21
17.9327264339203
 31
0.0
  0
LINE
  5
2D9
  8
TEXT_LAYER$TXT_08
 10
2.448837885656645
 20
17.9327264339203
 30
0.0
 11
2.436215389270246
 21
17.89925814949411
 31
0.0
  0
LINE
  5
2DA
  8
TEXT_LAYER$TXT_08
 10
2.436215389270246
 20
17.89925814949411
 30
0.0
 11
2.422871601122754
 21
17.86638151861209
 31
0.0
  0
LINE
  5
2DB
  8
TEXT_LAYER$TXT_08
 10
2.422871601122754
 20
17.86638151861209
 30
0.0
 11
2.408806520537962
 21
17.83409653926121
 31
0.0
  0
LINE
  5
2DC
  8
TEXT_LAYER$TXT_08
 10
2.408806520537962
 20
17.83409653926121
 30
0.0
 11
2.394020146839665
 21
17.80240320942843
 31
0.0
  0
LINE
  5
2DD
  8
TEXT_LAYER$TXT_08
 10
2.394020146839665
 20
17.80240320942843
 30
0.0
 11
2.378512479351655
 21
17.77130152710071
 31
0.0
  0
LINE
  5
2DE
  8
TEXT_LAYER$TXT_08
 10
2.378512479351655
 20
17.77130152710071
 30
0.0
 11
2.362283517397726
 21
17.74079149026502
 31
0.0
  0
LINE
  5
2DF
  8
TEXT_LAYER$TXT_08
 10
2.362283517397726
 20
17.74079149026502
 30
0.0
 11
2.345333260301673
 21
17.71087309690831
 31
0.0
  0
LINE
  5
2E0
  8
TEXT_LAYER$TXT_08
 10
2.345333260301673
 20
17.71087309690831
 30
0.0
 11
2.327661707387287
 21
17.68154634501755
 31
0.0
  0
LINE
  5
2E1
  8
TEXT_LAYER$TXT_08
 10
2.327661707387287
 20
17.68154634501755
 30
0.0
 11
2.309268857978365
 21
17.65281123257969
 31
0.0
  0
LINE
  5
2E2
  8
TEXT_LAYER$TXT_08
 10
2.309268857978365
 20
17.65281123257969
 30
0.0
 11
2.290154711398698
 21
17.62466775758172
 31
0.0
  0
LINE
  5
2E3
  8
TEXT_LAYER$TXT_08
 10
2.290154711398698
 20
17.62466775758172
 30
0.0
 11
2.27031926697208
 21
17.59711591801057
 31
0.0
  0
LINE
  5
2E4
  8
TEXT_LAYER$TXT_08
 10
2.27031926697208
 20
17.59711591801057
 30
0.0
 11
2.249762524022305
 21
17.57015571185321
 31
0.0
  0
LINE
  5
2E5
  8
TEXT_LAYER$TXT_08
 10
2.249762524022305
 20
17.57015571185321
 30
0.0
 11
2.228484481873167
 21
17.54378713709661
 31
0.0
  0
LINE
  5
2E6
  8
TEXT_LAYER$TXT_08
 10
2.228484481873167
 20
17.54378713709661
 30
0.0
 11
2.206485139848459
 21
17.51801019172773
 31
0.0
  0
LINE
  5
2E7
  8
TEXT_LAYER$TXT_08
 10
2.206485139848459
 20
17.51801019172773
 30
0.0
 11
2.183764497271975
 21
17.49282487373353
 31
0.0
  0
LINE
  5
2E8
  8
TEXT_LAYER$TXT_08
 10
2.183764497271975
 20
17.49282487373353
 30
0.0
 11
2.160561893528933
 21
17.46832427298285
 31
0.0
  0
LINE
  5
2E9
  8
TEXT_LAYER$TXT_08
 10
2.160561893528933
 20
17.46832427298285
 30
0.0
 11
2.137116667402092
 21
17.44460148020045
 31
0.0
  0
LINE
  5
2EA
  8
TEXT_LAYER$TXT_08
 10
2.137116667402092
 20
17.44460148020045
 30
0.0
 11
2.113428817311561
 21
17.42165649465714
 31
0.0
  0
LINE
  5
2EB
  8
TEXT_LAYER$TXT_08
 10
2.113428817311561
 20
17.42165649465714
 30
0.0
 11
2.089498341677448
 21
17.39948931562374
 31
0.0
  0
LINE
  5
2EC
  8
TEXT_LAYER$TXT_08
 10
2.089498341677448
 20
17.39948931562374
 30
0.0
 11
2.06532523891986
 21
17.37809994237107
 31
0.0
  0
LINE
  5
2ED
  8
TEXT_LAYER$TXT_08
 10
2.06532523891986
 20
17.37809994237107
 30
0.0
 11
2.040909507458904
 21
17.35748837416995
 31
0.0
  0
LINE
  5
2EE
  8
TEXT_LAYER$TXT_08
 10
2.040909507458904
 20
17.35748837416995
 30
0.0
 11
2.016251145714689
 21
17.33765461029121
 31
0.0
  0
LINE
  5
2EF
  8
TEXT_LAYER$TXT_08
 10
2.016251145714689
 20
17.33765461029121
 30
0.0
 11
1.991350152107322
 21
17.31859865000565
 31
0.0
  0
LINE
  5
2F0
  8
TEXT_LAYER$TXT_08
 10
1.991350152107322
 20
17.31859865000565
 30
0.0
 11
1.966206525056911
 21
17.3003204925841
 31
0.0
  0
LINE
  5
2F1
  8
TEXT_LAYER$TXT_08
 10
1.966206525056911
 20
17.3003204925841
 30
0.0
 11
1.940820262983563
 21
17.28282013729737
 31
0.0
  0
LINE
  5
2F2
  8
TEXT_LAYER$TXT_08
 10
1.940820262983563
 20
17.28282013729737
 30
0.0
 11
1.915191364307386
 21
17.26609758341629
 31
0.0
  0
LINE
  5
2F3
  8
TEXT_LAYER$TXT_08
 10
1.915191364307386
 20
17.26609758341629
 30
0.0
 11
1.889319827448488
 21
17.25015283021168
 31
0.0
  0
LINE
  5
2F4
  8
TEXT_LAYER$TXT_08
 10
1.889319827448488
 20
17.25015283021168
 30
0.0
 11
1.863205650826977
 21
17.23498587695435
 31
0.0
  0
LINE
  5
2F5
  8
TEXT_LAYER$TXT_08
 10
1.863205650826977
 20
17.23498587695435
 30
0.0
 11
1.836848832862959
 21
17.22059672291512
 31
0.0
  0
LINE
  5
2F6
  8
TEXT_LAYER$TXT_08
 10
1.836848832862959
 20
17.22059672291512
 30
0.0
 11
1.810249371976543
 21
17.2069853673648
 31
0.0
  0
LINE
  5
2F7
  8
TEXT_LAYER$TXT_08
 10
1.810249371976543
 20
17.2069853673648
 30
0.0
 11
1.783407266587837
 21
17.19415180957424
 31
0.0
  0
LINE
  5
2F8
  8
TEXT_LAYER$TXT_08
 10
1.783407266587837
 20
17.19415180957424
 30
0.0
 11
1.756322515116948
 21
17.18209604881423
 31
0.0
  0
LINE
  5
2F9
  8
TEXT_LAYER$TXT_08
 10
1.756322515116948
 20
17.18209604881423
 30
0.0
 11
1.728995115983984
 21
17.17081808435559
 31
0.0
  0
LINE
  5
2FA
  8
TEXT_LAYER$TXT_08
 10
1.728995115983984
 20
17.17081808435559
 30
0.0
 11
1.701425067609053
 21
17.16031791546915
 31
0.0
  0
LINE
  5
2FB
  8
TEXT_LAYER$TXT_08
 10
1.701425067609053
 20
17.16031791546915
 30
0.0
 11
1.673612368412261
 21
17.15059554142573
 31
0.0
  0
LINE
  5
2FC
  8
TEXT_LAYER$TXT_08
 10
1.673612368412261
 20
17.15059554142573
 30
0.0
 11
1.645557016813718
 21
17.14165096149614
 31
0.0
  0
LINE
  5
2FD
  8
TEXT_LAYER$TXT_08
 10
1.645557016813718
 20
17.14165096149614
 30
0.0
 11
1.61725901123353
 21
17.13348417495121
 31
0.0
  0
LINE
  5
2FE
  8
TEXT_LAYER$TXT_08
 10
1.61725901123353
 20
17.13348417495121
 30
0.0
 11
1.588718350091806
 21
17.12609518106175
 31
0.0
  0
LINE
  5
2FF
  8
TEXT_LAYER$TXT_08
 10
1.588718350091806
 20
17.12609518106175
 30
0.0
 11
1.559935031808652
 21
17.11948397909858
 31
0.0
  0
LINE
  5
300
  8
TEXT_LAYER$TXT_08
 10
1.559935031808652
 20
17.11948397909858
 30
0.0
 11
1.530909054804177
 21
17.11365056833252
 31
0.0
  0
LINE
  5
301
  8
TEXT_LAYER$TXT_08
 10
1.530909054804177
 20
17.11365056833252
 30
0.0
 11
1.501640417498488
 21
17.10859494803438
 31
0.0
  0
LINE
  5
302
  8
TEXT_LAYER$TXT_08
 10
1.501640417498488
 20
17.10859494803438
 30
0.0
 11
1.472129118311694
 21
17.104317117475
 31
0.0
  0
LINE
  5
303
  8
TEXT_LAYER$TXT_08
 10
1.472129118311694
 20
17.104317117475
 30
0.0
 11
1.442375155663901
 21
17.10081707592518
 31
0.0
  0
LINE
  5
304
  8
TEXT_LAYER$TXT_08
 10
1.442375155663901
 20
17.10081707592518
 30
0.0
 11
1.412378527975217
 21
17.09809482265575
 31
0.0
  0
LINE
  5
305
  8
TEXT_LAYER$TXT_08
 10
1.412378527975217
 20
17.09809482265575
 30
0.0
 11
1.38213923366575
 21
17.09615035693752
 31
0.0
  0
LINE
  5
306
  8
TEXT_LAYER$TXT_08
 10
1.38213923366575
 20
17.09615035693752
 30
0.0
 11
1.351657271155608
 21
17.09498367804132
 31
0.0
  0
LINE
  5
307
  8
TEXT_LAYER$TXT_08
 10
1.351657271155608
 20
17.09498367804132
 30
0.0
 11
1.320932638864899
 21
17.09459478523796
 31
0.0
  0
LINE
  5
308
  8
TEXT_LAYER$TXT_08
 10
1.320932638864899
 20
17.09459478523796
 30
0.0
 11
1.264598902245266
 21
17.09549887819155
 31
0.0
  0
LINE
  5
309
  8
TEXT_LAYER$TXT_08
 10
1.264598902245266
 20
17.09549887819155
 30
0.0
 11
1.209621400285826
 21
17.09821115931258
 31
0.0
  0
LINE
  5
30A
  8
TEXT_LAYER$TXT_08
 10
1.209621400285826
 20
17.09821115931258
 30
0.0
 11
1.182641233922645
 21
17.10024537149538
 31
0.0
  0
LINE
  5
30B
  8
TEXT_LAYER$TXT_08
 10
1.182641233922645
 20
17.10024537149538
 30
0.0
 11
1.156000122167274
 21
17.10273163199143
 31
0.0
  0
LINE
  5
30C
  8
TEXT_LAYER$TXT_08
 10
1.156000122167274
 20
17.10273163199143
 30
0.0
 11
1.129698063667299
 21
17.10566994122453
 31
0.0
  0
LINE
  5
30D
  8
TEXT_LAYER$TXT_08
 10
1.129698063667299
 20
17.10566994122453
 30
0.0
 11
1.103735057070309
 21
17.10906029961848
 31
0.0
  0
LINE
  5
30E
  8
TEXT_LAYER$TXT_08
 10
1.103735057070309
 20
17.10906029961848
 30
0.0
 11
1.078111101023889
 21
17.11290270759708
 31
0.0
  0
LINE
  5
30F
  8
TEXT_LAYER$TXT_08
 10
1.078111101023889
 20
17.11290270759708
 30
0.0
 11
1.052826194175629
 21
17.11719716558412
 31
0.0
  0
LINE
  5
310
  8
TEXT_LAYER$TXT_08
 10
1.052826194175629
 20
17.11719716558412
 30
0.0
 11
1.027880335173113
 21
17.12194367400339
 31
0.0
  0
LINE
  5
311
  8
TEXT_LAYER$TXT_08
 10
1.027880335173113
 20
17.12194367400339
 30
0.0
 11
1.003273522663931
 21
17.12714223327871
 31
0.0
  0
LINE
  5
312
  8
TEXT_LAYER$TXT_08
 10
1.003273522663931
 20
17.12714223327871
 30
0.0
 11
0.9790057552956687
 21
17.13279284383386
 31
0.0
  0
LINE
  5
313
  8
TEXT_LAYER$TXT_08
 10
0.9790057552956687
 20
17.13279284383386
 30
0.0
 11
0.9550770317159141
 21
17.13889550609264
 31
0.0
  0
LINE
  5
314
  8
TEXT_LAYER$TXT_08
 10
0.9550770317159141
 20
17.13889550609264
 30
0.0
 11
0.9314873505722541
 21
17.14545022047886
 31
0.0
  0
LINE
  5
315
  8
TEXT_LAYER$TXT_08
 10
0.9314873505722541
 20
17.14545022047886
 30
0.0
 11
0.908236710512276
 21
17.1524569874163
 31
0.0
  0
LINE
  5
316
  8
TEXT_LAYER$TXT_08
 10
0.908236710512276
 20
17.1524569874163
 30
0.0
 11
0.885325110183567
 21
17.15991580732877
 31
0.0
  0
LINE
  5
317
  8
TEXT_LAYER$TXT_08
 10
0.885325110183567
 20
17.15991580732877
 30
0.0
 11
0.8627525482337144
 21
17.16782668064006
 31
0.0
  0
LINE
  5
318
  8
TEXT_LAYER$TXT_08
 10
0.8627525482337144
 20
17.16782668064006
 30
0.0
 11
0.8405190233103056
 21
17.17618960777398
 31
0.0
  0
LINE
  5
319
  8
TEXT_LAYER$TXT_08
 10
0.8405190233103056
 20
17.17618960777398
 30
0.0
 11
0.8186245340609275
 21
17.18500458915431
 31
0.0
  0
LINE
  5
31A
  8
TEXT_LAYER$TXT_08
 10
0.8186245340609275
 20
17.18500458915431
 30
0.0
 11
0.7970690791331676
 21
17.19427162520486
 31
0.0
  0
LINE
  5
31B
  8
TEXT_LAYER$TXT_08
 10
0.7970690791331676
 20
17.19427162520486
 30
0.0
 11
0.7758526571746132
 21
17.20399071634941
 31
0.0
  0
LINE
  5
31C
  8
TEXT_LAYER$TXT_08
 10
0.7758526571746132
 20
17.20399071634941
 30
0.0
 11
0.7549752668328511
 21
17.21416186301178
 31
0.0
  0
LINE
  5
31D
  8
TEXT_LAYER$TXT_08
 10
0.7549752668328511
 20
17.21416186301178
 30
0.0
 11
0.7344369067554691
 21
17.22478506561576
 31
0.0
  0
LINE
  5
31E
  8
TEXT_LAYER$TXT_08
 10
0.7344369067554691
 20
17.22478506561576
 30
0.0
 11
0.7142375755900542
 21
17.23586032458515
 31
0.0
  0
LINE
  5
31F
  8
TEXT_LAYER$TXT_08
 10
0.7142375755900542
 20
17.23586032458515
 30
0.0
 11
0.6943772719841936
 21
17.24738764034374
 31
0.0
  0
LINE
  5
320
  8
TEXT_LAYER$TXT_08
 10
0.6943772719841936
 20
17.24738764034374
 30
0.0
 11
0.6748559945854746
 21
17.25936701331532
 31
0.0
  0
LINE
  5
321
  8
TEXT_LAYER$TXT_08
 10
0.6748559945854746
 20
17.25936701331532
 30
0.0
 11
0.6556737420414844
 21
17.27179844392371
 31
0.0
  0
LINE
  5
322
  8
TEXT_LAYER$TXT_08
 10
0.6556737420414844
 20
17.27179844392371
 30
0.0
 11
0.6368305129998104
 21
17.28468193259269
 31
0.0
  0
LINE
  5
323
  8
TEXT_LAYER$TXT_08
 10
0.6368305129998104
 20
17.28468193259269
 30
0.0
 11
0.6183263061080397
 21
17.29801747974607
 31
0.0
  0
LINE
  5
324
  8
TEXT_LAYER$TXT_08
 10
0.6183263061080397
 20
17.29801747974607
 30
0.0
 11
0.6001611200137595
 21
17.31180508580764
 31
0.0
  0
LINE
  5
325
  8
TEXT_LAYER$TXT_08
 10
0.6001611200137595
 20
17.31180508580764
 30
0.0
 11
0.5823349533645572
 21
17.3260447512012
 31
0.0
  0
LINE
  5
326
  8
TEXT_LAYER$TXT_08
 10
0.5823349533645572
 20
17.3260447512012
 30
0.0
 11
0.5623648659924607
 21
17.34277068872446
 31
0.0
  0
LINE
  5
327
  8
TEXT_LAYER$TXT_08
 10
0.5623648659924607
 20
17.34277068872446
 30
0.0
 11
0.5424479934322046
 21
17.36061342182641
 31
0.0
  0
LINE
  5
328
  8
TEXT_LAYER$TXT_08
 10
0.5424479934322046
 20
17.36061342182641
 30
0.0
 11
0.5225843310968039
 21
17.37957295639034
 31
0.0
  0
LINE
  5
329
  8
TEXT_LAYER$TXT_08
 10
0.5225843310968039
 20
17.37957295639034
 30
0.0
 11
0.5027738743992736
 21
17.39964929829956
 31
0.0
  0
LINE
  5
32A
  8
TEXT_LAYER$TXT_08
 10
0.5027738743992736
 20
17.39964929829956
 30
0.0
 11
0.4830166187526281
 21
17.42084245343739
 31
0.0
  0
LINE
  5
32B
  8
TEXT_LAYER$TXT_08
 10
0.4830166187526281
 20
17.42084245343739
 30
0.0
 11
0.4633125595698824
 21
17.44315242768712
 31
0.0
  0
LINE
  5
32C
  8
TEXT_LAYER$TXT_08
 10
0.4633125595698824
 20
17.44315242768712
 30
0.0
 11
0.4436616922640514
 21
17.46657922693206
 31
0.0
  0
LINE
  5
32D
  8
TEXT_LAYER$TXT_08
 10
0.4436616922640514
 20
17.46657922693206
 30
0.0
 11
0.4240640122481498
 21
17.49112285705552
 31
0.0
  0
LINE
  5
32E
  8
TEXT_LAYER$TXT_08
 10
0.4240640122481498
 20
17.49112285705552
 30
0.0
 11
0.4045195149351924
 21
17.51678332394081
 31
0.0
  0
LINE
  5
32F
  8
TEXT_LAYER$TXT_08
 10
0.4045195149351924
 20
17.51678332394081
 30
0.0
 11
0.3850281957381941
 21
17.54356063347123
 31
0.0
  0
LINE
  5
330
  8
TEXT_LAYER$TXT_08
 10
0.3850281957381941
 20
17.54356063347123
 30
0.0
 11
0.3655900500701696
 21
17.5714547915301
 31
0.0
  0
LINE
  5
331
  8
TEXT_LAYER$TXT_08
 10
0.3655900500701696
 20
17.5714547915301
 30
0.0
 11
0.3462050733441338
 21
17.60046580400072
 31
0.0
  0
LINE
  5
332
  8
TEXT_LAYER$TXT_08
 10
0.3462050733441338
 20
17.60046580400072
 30
0.0
 11
0.3268732609731014
 21
17.63059367676639
 31
0.0
  0
LINE
  5
333
  8
TEXT_LAYER$TXT_08
 10
0.3268732609731014
 20
17.63059367676639
 30
0.0
 11
0.3075946083700873
 21
17.66183841571043
 31
0.0
  0
LINE
  5
334
  8
TEXT_LAYER$TXT_08
 10
0.3075946083700873
 20
17.66183841571043
 30
0.0
 11
0.2691967641201731
 21
17.72767851566682
 31
0.0
  0
LINE
  5
335
  8
TEXT_LAYER$TXT_08
 10
0.2691967641201731
 20
17.72767851566682
 30
0.0
 11
0.2515933074113417
 21
17.69031769360594
 31
0.0
  0
LINE
  5
336
  8
TEXT_LAYER$TXT_08
 10
0.2515933074113417
 20
17.69031769360594
 30
0.0
 11
0.2336707872917609
 21
17.65396739176238
 31
0.0
  0
LINE
  5
337
  8
TEXT_LAYER$TXT_08
 10
0.2336707872917609
 20
17.65396739176238
 30
0.0
 11
0.2154291990747287
 21
17.61862760315591
 31
0.0
  0
LINE
  5
338
  8
TEXT_LAYER$TXT_08
 10
0.2154291990747287
 20
17.61862760315591
 30
0.0
 11
0.1968685380735426
 21
17.58429832080637
 31
0.0
  0
LINE
  5
339
  8
TEXT_LAYER$TXT_08
 10
0.1968685380735426
 20
17.58429832080637
 30
0.0
 11
0.1779887996015005
 21
17.55097953773354
 31
0.0
  0
LINE
  5
33A
  8
TEXT_LAYER$TXT_08
 10
0.1779887996015005
 20
17.55097953773354
 30
0.0
 11
0.1587899789719001
 21
17.51867124695724
 31
0.0
  0
LINE
  5
33B
  8
TEXT_LAYER$TXT_08
 10
0.1587899789719001
 20
17.51867124695724
 30
0.0
 11
0.1392720714980392
 21
17.48737344149727
 31
0.0
  0
LINE
  5
33C
  8
TEXT_LAYER$TXT_08
 10
0.1392720714980392
 20
17.48737344149727
 30
0.0
 11
0.1194350724932154
 21
17.45708611437342
 31
0.0
  0
LINE
  5
33D
  8
TEXT_LAYER$TXT_08
 10
0.1194350724932154
 20
17.45708611437342
 30
0.0
 11
0.0992789772707265
 21
17.42780925860552
 31
0.0
  0
LINE
  5
33E
  8
TEXT_LAYER$TXT_08
 10
0.0992789772707265
 20
17.42780925860552
 30
0.0
 11
0.0788037811438703
 21
17.39954286721336
 31
0.0
  0
LINE
  5
33F
  8
TEXT_LAYER$TXT_08
 10
0.0788037811438703
 20
17.39954286721336
 30
0.0
 11
0.0580094794259445
 21
17.37228693321676
 31
0.0
  0
LINE
  5
340
  8
TEXT_LAYER$TXT_08
 10
0.0580094794259445
 20
17.37228693321676
 30
0.0
 11
0.0368960674302468
 21
17.3460414496355
 31
0.0
  0
LINE
  5
341
  8
TEXT_LAYER$TXT_08
 10
0.0368960674302468
 20
17.3460414496355
 30
0.0
 11
0.015463540470075
 21
17.32080640948941
 31
0.0
  0
LINE
  5
342
  8
TEXT_LAYER$TXT_08
 10
0.015463540470075
 20
17.32080640948941
 30
0.0
 11
-0.0062881061412732
 21
17.29658180579828
 31
0.0
  0
LINE
  5
343
  8
TEXT_LAYER$TXT_08
 10
-0.0062881061412732
 20
17.29658180579828
 30
0.0
 11
-0.0283588770905
 21
17.27336763158193
 31
0.0
  0
LINE
  5
344
  8
TEXT_LAYER$TXT_08
 10
-0.0283588770905
 20
17.27336763158193
 30
0.0
 11
-0.0507487770643078
 21
17.25116387986014
 31
0.0
  0
LINE
  5
345
  8
TEXT_LAYER$TXT_08
 10
-0.0507487770643078
 20
17.25116387986014
 30
0.0
 11
-0.0722212806848683
 21
17.23127022967797
 31
0.0
  0
LINE
  5
346
  8
TEXT_LAYER$TXT_08
 10
-0.0722212806848683
 20
17.23127022967797
 30
0.0
 11
-0.0940926302714745
 21
17.21200813297431
 31
0.0
  0
LINE
  5
347
  8
TEXT_LAYER$TXT_08
 10
-0.0940926302714745
 20
17.21200813297431
 30
0.0
 11
-0.1163628274445288
 21
17.19337758915709
 31
0.0
  0
LINE
  5
348
  8
TEXT_LAYER$TXT_08
 10
-0.1163628274445288
 20
17.19337758915709
 30
0.0
 11
-0.1390318738244335
 21
17.17537859763425
 31
0.0
  0
LINE
  5
349
  8
TEXT_LAYER$TXT_08
 10
-0.1390318738244335
 20
17.17537859763425
 30
0.0
 11
-0.162099771031591
 21
17.15801115781371
 31
0.0
  0
LINE
  5
34A
  8
TEXT_LAYER$TXT_08
 10
-0.162099771031591
 20
17.15801115781371
 30
0.0
 11
-0.1855665206864037
 21
17.1412752691034
 31
0.0
  0
LINE
  5
34B
  8
TEXT_LAYER$TXT_08
 10
-0.1855665206864037
 20
17.1412752691034
 30
0.0
 11
-0.209432124409274
 21
17.12517093091125
 31
0.0
  0
LINE
  5
34C
  8
TEXT_LAYER$TXT_08
 10
-0.209432124409274
 20
17.12517093091125
 30
0.0
 11
-0.2336965838206042
 21
17.1096981426452
 31
0.0
  0
LINE
  5
34D
  8
TEXT_LAYER$TXT_08
 10
-0.2336965838206042
 20
17.1096981426452
 30
0.0
 11
-0.2583599005407967
 21
17.09485690371317
 31
0.0
  0
LINE
  5
34E
  8
TEXT_LAYER$TXT_08
 10
-0.2583599005407967
 20
17.09485690371317
 30
0.0
 11
-0.2834220761902541
 21
17.0806472135231
 31
0.0
  0
LINE
  5
34F
  8
TEXT_LAYER$TXT_08
 10
-0.2834220761902541
 20
17.0806472135231
 30
0.0
 11
-0.3088831123893784
 21
17.0670690714829
 31
0.0
  0
LINE
  5
350
  8
TEXT_LAYER$TXT_08
 10
-0.3088831123893784
 20
17.0670690714829
 30
0.0
 11
-0.3347430107585722
 21
17.05412247700053
 31
0.0
  0
LINE
  5
351
  8
TEXT_LAYER$TXT_08
 10
-0.3347430107585722
 20
17.05412247700053
 30
0.0
 11
-0.3610017729182378
 21
17.04180742948389
 31
0.0
  0
LINE
  5
352
  8
TEXT_LAYER$TXT_08
 10
-0.3610017729182378
 20
17.04180742948389
 30
0.0
 11
-0.3876594004887777
 21
17.03012392834092
 31
0.0
  0
LINE
  5
353
  8
TEXT_LAYER$TXT_08
 10
-0.3876594004887777
 20
17.03012392834092
 30
0.0
 11
-0.4147158950905941
 21
17.01907197297956
 31
0.0
  0
LINE
  5
354
  8
TEXT_LAYER$TXT_08
 10
-0.4147158950905941
 20
17.01907197297956
 30
0.0
 11
-0.4421712583440895
 21
17.00865156280773
 31
0.0
  0
LINE
  5
355
  8
TEXT_LAYER$TXT_08
 10
-0.4421712583440895
 20
17.00865156280773
 30
0.0
 11
-0.4700254918696664
 21
16.99886269723336
 31
0.0
  0
LINE
  5
356
  8
TEXT_LAYER$TXT_08
 10
-0.4700254918696664
 20
16.99886269723336
 30
0.0
 11
-0.4982785972877268
 21
16.98970537566439
 31
0.0
  0
LINE
  5
357
  8
TEXT_LAYER$TXT_08
 10
-0.4982785972877268
 20
16.98970537566439
 30
0.0
 11
-0.5269305762186733
 21
16.98117959750873
 31
0.0
  0
LINE
  5
358
  8
TEXT_LAYER$TXT_08
 10
-0.5269305762186733
 20
16.98117959750873
 30
0.0
 11
-0.5559814302829085
 21
16.97328536217433
 31
0.0
  0
LINE
  5
359
  8
TEXT_LAYER$TXT_08
 10
-0.5559814302829085
 20
16.97328536217433
 30
0.0
 11
-0.5854311611008344
 21
16.9660226690691
 31
0.0
  0
LINE
  5
35A
  8
TEXT_LAYER$TXT_08
 10
-0.5854311611008344
 20
16.9660226690691
 30
0.0
 11
-0.6152797702928535
 21
16.959391517601
 31
0.0
  0
LINE
  5
35B
  8
TEXT_LAYER$TXT_08
 10
-0.6152797702928535
 20
16.959391517601
 30
0.0
 11
-0.6455272594793683
 21
16.95339190717793
 31
0.0
  0
LINE
  5
35C
  8
TEXT_LAYER$TXT_08
 10
-0.6455272594793683
 20
16.95339190717793
 30
0.0
 11
-0.676173630280781
 21
16.94802383720783
 31
0.0
  0
LINE
  5
35D
  8
TEXT_LAYER$TXT_08
 10
-0.676173630280781
 20
16.94802383720783
 30
0.0
 11
-0.7072188843174942
 21
16.94328730709864
 31
0.0
  0
LINE
  5
35E
  8
TEXT_LAYER$TXT_08
 10
-0.7072188843174942
 20
16.94328730709864
 30
0.0
 11
-0.7386630232099101
 21
16.93918231625828
 31
0.0
  0
LINE
  5
35F
  8
TEXT_LAYER$TXT_08
 10
-0.7386630232099101
 20
16.93918231625828
 30
0.0
 11
-0.770506048578431
 21
16.93570886409467
 31
0.0
  0
LINE
  5
360
  8
TEXT_LAYER$TXT_08
 10
-0.770506048578431
 20
16.93570886409467
 30
0.0
 11
-0.8027479620434594
 21
16.93286695001576
 31
0.0
  0
LINE
  5
361
  8
TEXT_LAYER$TXT_08
 10
-0.8027479620434594
 20
16.93286695001576
 30
0.0
 11
-0.8353887652253978
 21
16.93065657342947
 31
0.0
  0
LINE
  5
362
  8
TEXT_LAYER$TXT_08
 10
-0.8353887652253978
 20
16.93065657342947
 30
0.0
 11
-0.8684284597446484
 21
16.92907773374373
 31
0.0
  0
LINE
  5
363
  8
TEXT_LAYER$TXT_08
 10
-0.8684284597446484
 20
16.92907773374373
 30
0.0
 11
-0.9018670472216136
 21
16.92813043036647
 31
0.0
  0
LINE
  5
364
  8
TEXT_LAYER$TXT_08
 10
-0.9018670472216136
 20
16.92813043036647
 30
0.0
 11
-0.9357045292766959
 21
16.92781466270562
 31
0.0
  0
LINE
  5
365
  8
TEXT_LAYER$TXT_08
 10
-0.9357045292766959
 20
16.92781466270562
 30
0.0
 11
-0.9757195117170394
 21
16.92823679421013
 31
0.0
  0
LINE
  5
366
  8
TEXT_LAYER$TXT_08
 10
-0.9757195117170394
 20
16.92823679421013
 30
0.0
 11
-1.015352213518109
 21
16.9295031892513
 31
0.0
  0
LINE
  5
367
  8
TEXT_LAYER$TXT_08
 10
-1.015352213518109
 20
16.9295031892513
 30
0.0
 11
-1.054602636677361
 21
16.93161384862066
 31
0.0
  0
LINE
  5
368
  8
TEXT_LAYER$TXT_08
 10
-1.054602636677361
 20
16.93161384862066
 30
0.0
 11
-1.093470783192253
 21
16.9345687731097
 31
0.0
  0
LINE
  5
369
  8
TEXT_LAYER$TXT_08
 10
-1.093470783192253
 20
16.9345687731097
 30
0.0
 11
-1.131956655060244
 21
16.93836796350993
 31
0.0
  0
LINE
  5
36A
  8
TEXT_LAYER$TXT_08
 10
-1.131956655060244
 20
16.93836796350993
 30
0.0
 11
-1.17006025427879
 21
16.94301142061285
 31
0.0
  0
LINE
  5
36B
  8
TEXT_LAYER$TXT_08
 10
-1.17006025427879
 20
16.94301142061285
 30
0.0
 11
-1.20778158284535
 21
16.94849914520997
 31
0.0
  0
LINE
  5
36C
  8
TEXT_LAYER$TXT_08
 10
-1.20778158284535
 20
16.94849914520997
 30
0.0
 11
-1.245120642757381
 21
16.95483113809279
 31
0.0
  0
LINE
  5
36D
  8
TEXT_LAYER$TXT_08
 10
-1.245120642757381
 20
16.95483113809279
 30
0.0
 11
-1.282077436012339
 21
16.96200740005281
 31
0.0
  0
LINE
  5
36E
  8
TEXT_LAYER$TXT_08
 10
-1.282077436012339
 20
16.96200740005281
 30
0.0
 11
-1.318651964607684
 21
16.97002793188155
 31
0.0
  0
LINE
  5
36F
  8
TEXT_LAYER$TXT_08
 10
-1.318651964607684
 20
16.97002793188155
 30
0.0
 11
-1.354844230540872
 21
16.97889273437049
 31
0.0
  0
LINE
  5
370
  8
TEXT_LAYER$TXT_08
 10
-1.354844230540872
 20
16.97889273437049
 30
0.0
 11
-1.390654235809361
 21
16.98860180831116
 31
0.0
  0
LINE
  5
371
  8
TEXT_LAYER$TXT_08
 10
-1.390654235809361
 20
16.98860180831116
 30
0.0
 11
-1.426081982410609
 21
16.99915515449504
 31
0.0
  0
LINE
  5
372
  8
TEXT_LAYER$TXT_08
 10
-1.426081982410609
 20
16.99915515449504
 30
0.0
 11
-1.461127472342072
 21
17.01055277371366
 31
0.0
  0
LINE
  5
373
  8
TEXT_LAYER$TXT_08
 10
-1.461127472342072
 20
17.01055277371366
 30
0.0
 11
-1.49579070760121
 21
17.0227946667585
 31
0.0
  0
LINE
  5
374
  8
TEXT_LAYER$TXT_08
 10
-1.49579070760121
 20
17.0227946667585
 30
0.0
 11
-1.530071690185478
 21
17.03588083442107
 31
0.0
  0
LINE
  5
375
  8
TEXT_LAYER$TXT_08
 10
-1.530071690185478
 20
17.03588083442107
 30
0.0
 11
-1.563970422092335
 21
17.04981127749289
 31
0.0
  0
LINE
  5
376
  8
TEXT_LAYER$TXT_08
 10
-1.563970422092335
 20
17.04981127749289
 30
0.0
 11
-1.597486905319238
 21
17.06458599676545
 31
0.0
  0
LINE
  5
377
  8
TEXT_LAYER$TXT_08
 10
-1.597486905319238
 20
17.06458599676545
 30
0.0
 11
-1.630621141863646
 21
17.08020499303025
 31
0.0
  0
LINE
  5
378
  8
TEXT_LAYER$TXT_08
 10
-1.630621141863646
 20
17.08020499303025
 30
0.0
 11
-1.663373133723014
 21
17.09666826707881
 31
0.0
  0
LINE
  5
379
  8
TEXT_LAYER$TXT_08
 10
-1.663373133723014
 20
17.09666826707881
 30
0.0
 11
-1.695742882894801
 21
17.11397581970262
 31
0.0
  0
LINE
  5
37A
  8
TEXT_LAYER$TXT_08
 10
-1.695742882894801
 20
17.11397581970262
 30
0.0
 11
-1.727730391376465
 21
17.1321276516932
 31
0.0
  0
LINE
  5
37B
  8
TEXT_LAYER$TXT_08
 10
-1.727730391376465
 20
17.1321276516932
 30
0.0
 11
-1.759335661165463
 21
17.15112376384204
 31
0.0
  0
LINE
  5
37C
  8
TEXT_LAYER$TXT_08
 10
-1.759335661165463
 20
17.15112376384204
 30
0.0
 11
-1.790558694259252
 21
17.17096415694064
 31
0.0
  0
LINE
  5
37D
  8
TEXT_LAYER$TXT_08
 10
-1.790558694259252
 20
17.17096415694064
 30
0.0
 11
-1.821399492655291
 21
17.19164883178052
 31
0.0
  0
LINE
  5
37E
  8
TEXT_LAYER$TXT_08
 10
-1.821399492655291
 20
17.19164883178052
 30
0.0
 11
-1.851858058351036
 21
17.21317778915318
 31
0.0
  0
LINE
  5
37F
  8
TEXT_LAYER$TXT_08
 10
-1.851858058351036
 20
17.21317778915318
 30
0.0
 11
-1.881934393343945
 21
17.23555102985012
 31
0.0
  0
LINE
  5
380
  8
TEXT_LAYER$TXT_08
 10
-1.881934393343945
 20
17.23555102985012
 30
0.0
 11
-1.911628499631476
 21
17.25876855466284
 31
0.0
  0
LINE
  5
381
  8
TEXT_LAYER$TXT_08
 10
-1.911628499631476
 20
17.25876855466284
 30
0.0
 11
-1.940940379211086
 21
17.28283036438285
 31
0.0
  0
LINE
  5
382
  8
TEXT_LAYER$TXT_08
 10
-1.940940379211086
 20
17.28283036438285
 30
0.0
 11
-1.969870034080233
 21
17.30773645980166
 31
0.0
  0
LINE
  5
383
  8
TEXT_LAYER$TXT_08
 10
-1.969870034080233
 20
17.30773645980166
 30
0.0
 11
-1.998417466236375
 21
17.33348684171077
 31
0.0
  0
LINE
  5
384
  8
TEXT_LAYER$TXT_08
 10
-1.998417466236375
 20
17.33348684171077
 30
0.0
 11
-2.026582677676968
 21
17.36008151090167
 31
0.0
  0
LINE
  5
385
  8
TEXT_LAYER$TXT_08
 10
-2.026582677676968
 20
17.36008151090167
 30
0.0
 11
-2.054119677665978
 21
17.38744731795907
 31
0.0
  0
LINE
  5
386
  8
TEXT_LAYER$TXT_08
 10
-2.054119677665978
 20
17.38744731795907
 30
0.0
 11
-2.080782474682099
 21
17.41551111443159
 31
0.0
  0
LINE
  5
387
  8
TEXT_LAYER$TXT_08
 10
-2.080782474682099
 20
17.41551111443159
 30
0.0
 11
-2.106571069544879
 21
17.44427290255663
 31
0.0
  0
LINE
  5
388
  8
TEXT_LAYER$TXT_08
 10
-2.106571069544879
 20
17.44427290255663
 30
0.0
 11
-2.131485463073869
 21
17.47373268457158
 31
0.0
  0
LINE
  5
389
  8
TEXT_LAYER$TXT_08
 10
-2.131485463073869
 20
17.47373268457158
 30
0.0
 11
-2.155525656088618
 21
17.50389046271386
 31
0.0
  0
LINE
  5
38A
  8
TEXT_LAYER$TXT_08
 10
-2.155525656088618
 20
17.50389046271386
 30
0.0
 11
-2.178691649408676
 21
17.53474623922085
 31
0.0
  0
LINE
  5
38B
  8
TEXT_LAYER$TXT_08
 10
-2.178691649408676
 20
17.53474623922085
 30
0.0
 11
-2.200983443853591
 21
17.56630001632998
 31
0.0
  0
LINE
  5
38C
  8
TEXT_LAYER$TXT_08
 10
-2.200983443853591
 20
17.56630001632998
 30
0.0
 11
-2.222401040242915
 21
17.59855179627863
 31
0.0
  0
LINE
  5
38D
  8
TEXT_LAYER$TXT_08
 10
-2.222401040242915
 20
17.59855179627863
 30
0.0
 11
-2.242944439396197
 21
17.63150158130421
 31
0.0
  0
LINE
  5
38E
  8
TEXT_LAYER$TXT_08
 10
-2.242944439396197
 20
17.63150158130421
 30
0.0
 11
-2.262613642132986
 21
17.66514937364412
 31
0.0
  0
LINE
  5
38F
  8
TEXT_LAYER$TXT_08
 10
-2.262613642132986
 20
17.66514937364412
 30
0.0
 11
-2.281408649272832
 21
17.69949517553576
 31
0.0
  0
LINE
  5
390
  8
TEXT_LAYER$TXT_08
 10
-2.281408649272832
 20
17.69949517553576
 30
0.0
 11
-2.299329461635285
 21
17.73453898921653
 31
0.0
  0
LINE
  5
391
  8
TEXT_LAYER$TXT_08
 10
-2.299329461635285
 20
17.73453898921653
 30
0.0
 11
-2.316376080039894
 21
17.77028081692384
 31
0.0
  0
LINE
  5
392
  8
TEXT_LAYER$TXT_08
 10
-2.316376080039894
 20
17.77028081692384
 30
0.0
 11
-2.332548505306209
 21
17.80672066089509
 31
0.0
  0
LINE
  5
393
  8
TEXT_LAYER$TXT_08
 10
-2.332548505306209
 20
17.80672066089509
 30
0.0
 11
-2.34784673825378
 21
17.84385852336767
 31
0.0
  0
LINE
  5
394
  8
TEXT_LAYER$TXT_08
 10
-2.34784673825378
 20
17.84385852336767
 30
0.0
 11
-2.362270779702157
 21
17.881694406579
 31
0.0
  0
LINE
  5
395
  8
TEXT_LAYER$TXT_08
 10
-2.362270779702157
 20
17.881694406579
 30
0.0
 11
-2.375820630470889
 21
17.92022831276647
 31
0.0
  0
LINE
  5
396
  8
TEXT_LAYER$TXT_08
 10
-2.375820630470889
 20
17.92022831276647
 30
0.0
 11
-2.388496291379525
 21
17.95946024416748
 31
0.0
  0
LINE
  5
397
  8
TEXT_LAYER$TXT_08
 10
-2.388496291379525
 20
17.95946024416748
 30
0.0
 11
-2.400297763247615
 21
17.99939020301944
 31
0.0
  0
LINE
  5
398
  8
TEXT_LAYER$TXT_08
 10
-2.400297763247615
 20
17.99939020301944
 30
0.0
 11
-2.411225046894709
 21
18.04001819155975
 31
0.0
  0
LINE
  5
399
  8
TEXT_LAYER$TXT_08
 10
-2.411225046894709
 20
18.04001819155975
 30
0.0
 11
-2.421278143140358
 21
18.08134421202581
 31
0.0
  0
LINE
  5
39A
  8
TEXT_LAYER$TXT_08
 10
-2.421278143140358
 20
18.08134421202581
 30
0.0
 11
-2.43045705280411
 21
18.12336826665501
 31
0.0
  0
LINE
  5
39B
  8
TEXT_LAYER$TXT_08
 10
-2.43045705280411
 20
18.12336826665501
 30
0.0
 11
-2.438761776705514
 21
18.16609035768477
 31
0.0
  0
LINE
  5
39C
  8
TEXT_LAYER$TXT_08
 10
-2.438761776705514
 20
18.16609035768477
 30
0.0
 11
-2.446192315664121
 21
18.20951048735249
 31
0.0
  0
LINE
  5
39D
  8
TEXT_LAYER$TXT_08
 10
-2.446192315664121
 20
18.20951048735249
 30
0.0
 11
-2.452748670499481
 21
18.25362865789556
 31
0.0
  0
LINE
  5
39E
  8
TEXT_LAYER$TXT_08
 10
-2.452748670499481
 20
18.25362865789556
 30
0.0
 11
-2.458430842031142
 21
18.29844487155139
 31
0.0
  0
LINE
  5
39F
  8
TEXT_LAYER$TXT_08
 10
-2.458430842031142
 20
18.29844487155139
 30
0.0
 11
-2.463238831078655
 21
18.34395913055738
 31
0.0
  0
LINE
  5
3A0
  8
TEXT_LAYER$TXT_08
 10
-2.463238831078655
 20
18.34395913055738
 30
0.0
 11
-2.46717263846157
 21
18.39017143715093
 31
0.0
  0
LINE
  5
3A1
  8
TEXT_LAYER$TXT_08
 10
-2.46717263846157
 20
18.39017143715093
 30
0.0
 11
-2.470232264999436
 21
18.43708179356944
 31
0.0
  0
LINE
  5
3A2
  8
TEXT_LAYER$TXT_08
 10
-2.470232264999436
 20
18.43708179356944
 30
0.0
 11
-2.472417711511802
 21
18.48469020205032
 31
0.0
  0
LINE
  5
3A3
  8
TEXT_LAYER$TXT_08
 10
-2.472417711511802
 20
18.48469020205032
 30
0.0
 11
-2.47372897881822
 21
18.53299666483096
 31
0.0
  0
LINE
  5
3A4
  8
TEXT_LAYER$TXT_08
 10
-2.47372897881822
 20
18.53299666483096
 30
0.0
 11
-2.474166067738236
 21
18.58200118414878
 31
0.0
  0
LINE
  5
3A5
  8
TEXT_LAYER$TXT_08
 10
-2.474166067738236
 20
18.58200118414878
 30
0.0
 11
-2.472657030234813
 21
18.670065024824
 31
0.0
  0
LINE
  5
3A6
  8
TEXT_LAYER$TXT_08
 10
-2.472657030234813
 20
18.670065024824
 30
0.0
 11
-2.470770732294481
 21
18.71345371948071
 31
0.0
  0
LINE
  5
3A7
  8
TEXT_LAYER$TXT_08
 10
-2.470770732294481
 20
18.71345371948071
 30
0.0
 11
-2.468129913951913
 21
18.75641359995433
 31
0.0
  0
LINE
  5
3A8
  8
TEXT_LAYER$TXT_08
 10
-2.468129913951913
 20
18.75641359995433
 30
0.0
 11
-2.464734574499739
 21
18.79894466844797
 31
0.0
  0
LINE
  5
3A9
  8
TEXT_LAYER$TXT_08
 10
-2.464734574499739
 20
18.79894466844797
 30
0.0
 11
-2.460584713230593
 21
18.84104692716476
 31
0.0
  0
LINE
  5
3AA
  8
TEXT_LAYER$TXT_08
 10
-2.460584713230593
 20
18.84104692716476
 30
0.0
 11
-2.455680329437105
 21
18.88272037830782
 31
0.0
  0
LINE
  5
3AB
  8
TEXT_LAYER$TXT_08
 10
-2.455680329437105
 20
18.88272037830782
 30
0.0
 11
-2.450021422411909
 21
18.92396502408028
 31
0.0
  0
LINE
  5
3AC
  8
TEXT_LAYER$TXT_08
 10
-2.450021422411909
 20
18.92396502408028
 30
0.0
 11
-2.443607991447635
 21
18.96478086668526
 31
0.0
  0
LINE
  5
3AD
  8
TEXT_LAYER$TXT_08
 10
-2.443607991447635
 20
18.96478086668526
 30
0.0
 11
-2.436440035836917
 21
19.00516790832588
 31
0.0
  0
LINE
  5
3AE
  8
TEXT_LAYER$TXT_08
 10
-2.436440035836917
 20
19.00516790832588
 30
0.0
 11
-2.428517554872386
 21
19.04512615120527
 31
0.0
  0
LINE
  5
3AF
  8
TEXT_LAYER$TXT_08
 10
-2.428517554872386
 20
19.04512615120527
 30
0.0
 11
-2.419840547846674
 21
19.08465559752656
 31
0.0
  0
LINE
  5
3B0
  8
TEXT_LAYER$TXT_08
 10
-2.419840547846674
 20
19.08465559752656
 30
0.0
 11
-2.410409014052414
 21
19.12375624949286
 31
0.0
  0
LINE
  5
3B1
  8
TEXT_LAYER$TXT_08
 10
-2.410409014052414
 20
19.12375624949286
 30
0.0
 11
-2.400222952782237
 21
19.1624281093073
 31
0.0
  0
LINE
  5
3B2
  8
TEXT_LAYER$TXT_08
 10
-2.400222952782237
 20
19.1624281093073
 30
0.0
 11
-2.389282363328776
 21
19.200671179173
 31
0.0
  0
LINE
  5
3B3
  8
TEXT_LAYER$TXT_08
 10
-2.389282363328776
 20
19.200671179173
 30
0.0
 11
-2.377587244984661
 21
19.2384854612931
 31
0.0
  0
LINE
  5
3B4
  8
TEXT_LAYER$TXT_08
 10
-2.377587244984661
 20
19.2384854612931
 30
0.0
 11
-2.365137597042526
 21
19.2758709578707
 31
0.0
  0
LINE
  5
3B5
  8
TEXT_LAYER$TXT_08
 10
-2.365137597042526
 20
19.2758709578707
 30
0.0
 11
-2.351933418795003
 21
19.31282767110894
 31
0.0
  0
LINE
  5
3B6
  8
TEXT_LAYER$TXT_08
 10
-2.351933418795003
 20
19.31282767110894
 30
0.0
 11
-2.337974709534723
 21
19.34935560321094
 31
0.0
  0
LINE
  5
3B7
  8
TEXT_LAYER$TXT_08
 10
-2.337974709534723
 20
19.34935560321094
 30
0.0
 11
-2.323261468554319
 21
19.38545475637983
 31
0.0
  0
LINE
  5
3B8
  8
TEXT_LAYER$TXT_08
 10
-2.323261468554319
 20
19.38545475637983
 30
0.0
 11
-2.307793695146422
 21
19.42112513281873
 31
0.0
  0
LINE
  5
3B9
  8
TEXT_LAYER$TXT_08
 10
-2.307793695146422
 20
19.42112513281873
 30
0.0
 11
-2.291571388603666
 21
19.45636673473076
 31
0.0
  0
LINE
  5
3BA
  8
TEXT_LAYER$TXT_08
 10
-2.291571388603666
 20
19.45636673473076
 30
0.0
 11
-2.274594548218681
 21
19.49117956431904
 31
0.0
  0
LINE
  5
3BB
  8
TEXT_LAYER$TXT_08
 10
-2.274594548218681
 20
19.49117956431904
 30
0.0
 11
-2.256863173284099
 21
19.52556362378671
 31
0.0
  0
LINE
  5
3BC
  8
TEXT_LAYER$TXT_08
 10
-2.256863173284099
 20
19.52556362378671
 30
0.0
 11
-2.238377263092553
 21
19.55951891533688
 31
0.0
  0
LINE
  5
3BD
  8
TEXT_LAYER$TXT_08
 10
-2.238377263092553
 20
19.55951891533688
 30
0.0
 11
-2.219136816936675
 21
19.59304544117268
 31
0.0
  0
LINE
  5
3BE
  8
TEXT_LAYER$TXT_08
 10
-2.219136816936675
 20
19.59304544117268
 30
0.0
 11
-2.199141834109096
 21
19.62614320349724
 31
0.0
  0
LINE
  5
3BF
  8
TEXT_LAYER$TXT_08
 10
-2.199141834109096
 20
19.62614320349724
 30
0.0
 11
-2.17839231390245
 21
19.65881220451366
 31
0.0
  0
LINE
  5
3C0
  8
TEXT_LAYER$TXT_08
 10
-2.17839231390245
 20
19.65881220451366
 30
0.0
 11
-2.156888255609368
 21
19.69105244642509
 31
0.0
  0
LINE
  5
3C1
  8
TEXT_LAYER$TXT_08
 10
-2.156888255609368
 20
19.69105244642509
 30
0.0
 11
-2.134629658522482
 21
19.72286393143465
 31
0.0
  0
LINE
  5
3C2
  8
TEXT_LAYER$TXT_08
 10
-2.134629658522482
 20
19.72286393143465
 30
0.0
 11
-2.111616521934424
 21
19.75424666174545
 31
0.0
  0
LINE
  5
3C3
  8
TEXT_LAYER$TXT_08
 10
-2.111616521934424
 20
19.75424666174545
 30
0.0
 11
-2.087848845137825
 21
19.78520063956062
 31
0.0
  0
LINE
  5
3C4
  8
TEXT_LAYER$TXT_08
 10
-2.087848845137825
 20
19.78520063956062
 30
0.0
 11
-2.063363212396561
 21
19.81545992852192
 31
0.0
  0
LINE
  5
3C5
  8
TEXT_LAYER$TXT_08
 10
-2.063363212396561
 20
19.81545992852192
 30
0.0
 11
-2.038196207077049
 21
19.84475859140276
 31
0.0
  0
LINE
  5
3C6
  8
TEXT_LAYER$TXT_08
 10
-2.038196207077049
 20
19.84475859140276
 30
0.0
 11
-2.012347827125744
 21
19.87309662910369
 31
0.0
  0
LINE
  5
3C7
  8
TEXT_LAYER$TXT_08
 10
-2.012347827125744
 20
19.87309662910369
 30
0.0
 11
-1.985818070489095
 21
19.90047404252527
 31
0.0
  0
LINE
  5
3C8
  8
TEXT_LAYER$TXT_08
 10
-1.985818070489095
 20
19.90047404252527
 30
0.0
 11
-1.958606935113555
 21
19.9268908325681
 31
0.0
  0
LINE
  5
3C9
  8
TEXT_LAYER$TXT_08
 10
-1.958606935113555
 20
19.9268908325681
 30
0.0
 11
-1.930714418945575
 21
19.95234700013273
 31
0.0
  0
LINE
  5
3CA
  8
TEXT_LAYER$TXT_08
 10
-1.930714418945575
 20
19.95234700013273
 30
0.0
 11
-1.902140519931606
 21
19.97684254611973
 31
0.0
  0
LINE
  5
3CB
  8
TEXT_LAYER$TXT_08
 10
-1.902140519931606
 20
19.97684254611973
 30
0.0
 11
-1.872885236018101
 21
20.00037747142967
 31
0.0
  0
LINE
  5
3CC
  8
TEXT_LAYER$TXT_08
 10
-1.872885236018101
 20
20.00037747142967
 30
0.0
 11
-1.842948565151511
 21
20.02295177696312
 31
0.0
  0
LINE
  5
3CD
  8
TEXT_LAYER$TXT_08
 10
-1.842948565151511
 20
20.02295177696312
 30
0.0
 11
-1.812330505278287
 21
20.04456546362066
 31
0.0
  0
LINE
  5
3CE
  8
TEXT_LAYER$TXT_08
 10
-1.812330505278287
 20
20.04456546362066
 30
0.0
 11
-1.781031054344881
 21
20.06521853230284
 31
0.0
  0
LINE
  5
3CF
  8
TEXT_LAYER$TXT_08
 10
-1.781031054344881
 20
20.06521853230284
 30
0.0
 11
-1.749050210297745
 21
20.08491098391026
 31
0.0
  0
LINE
  5
3D0
  8
TEXT_LAYER$TXT_08
 10
-1.749050210297745
 20
20.08491098391026
 30
0.0
 11
-1.71638797108333
 21
20.10364281934346
 31
0.0
  0
LINE
  5
3D1
  8
TEXT_LAYER$TXT_08
 10
-1.71638797108333
 20
20.10364281934346
 30
0.0
 11
-1.683044334648088
 21
20.12141403950302
 31
0.0
  0
LINE
  5
3D2
  8
TEXT_LAYER$TXT_08
 10
-1.683044334648088
 20
20.12141403950302
 30
0.0
 11
-1.649019298938471
 21
20.13822464528951
 31
0.0
  0
LINE
  5
3D3
  8
TEXT_LAYER$TXT_08
 10
-1.649019298938471
 20
20.13822464528951
 30
0.0
 11
-1.61431286190093
 21
20.15407463760351
 31
0.0
  0
LINE
  5
3D4
  8
TEXT_LAYER$TXT_08
 10
-1.61431286190093
 20
20.15407463760351
 30
0.0
 11
-1.578925021481916
 21
20.16896401734557
 31
0.0
  0
LINE
  5
3D5
  8
TEXT_LAYER$TXT_08
 10
-1.578925021481916
 20
20.16896401734557
 30
0.0
 11
-1.542855775627882
 21
20.18289278541628
 31
0.0
  0
LINE
  5
3D6
  8
TEXT_LAYER$TXT_08
 10
-1.542855775627882
 20
20.18289278541628
 30
0.0
 11
-1.506105122285278
 21
20.19586094271619
 31
0.0
  0
LINE
  5
3D7
  8
TEXT_LAYER$TXT_08
 10
-1.506105122285278
 20
20.19586094271619
 30
0.0
 11
-1.468673059400557
 21
20.20786849014589
 31
0.0
  0
LINE
  5
3D8
  8
TEXT_LAYER$TXT_08
 10
-1.468673059400557
 20
20.20786849014589
 30
0.0
 11
-1.430559584920171
 21
20.21891542860594
 31
0.0
  0
LINE
  5
3D9
  8
TEXT_LAYER$TXT_08
 10
-1.430559584920171
 20
20.21891542860594
 30
0.0
 11
-1.391764696790569
 21
20.2290017589969
 31
0.0
  0
LINE
  5
3DA
  8
TEXT_LAYER$TXT_08
 10
-1.391764696790569
 20
20.2290017589969
 30
0.0
 11
-1.352288392958206
 21
20.23812748221936
 31
0.0
  0
LINE
  5
3DB
  8
TEXT_LAYER$TXT_08
 10
-1.352288392958206
 20
20.23812748221936
 30
0.0
 11
-1.312130671369531
 21
20.24629259917388
 31
0.0
  0
LINE
  5
3DC
  8
TEXT_LAYER$TXT_08
 10
-1.312130671369531
 20
20.24629259917388
 30
0.0
 11
-1.271291529970997
 21
20.25349711076102
 31
0.0
  0
LINE
  5
3DD
  8
TEXT_LAYER$TXT_08
 10
-1.271291529970997
 20
20.25349711076102
 30
0.0
 11
-1.229770966709054
 21
20.25974101788136
 31
0.0
  0
LINE
  5
3DE
  8
TEXT_LAYER$TXT_08
 10
-1.229770966709054
 20
20.25974101788136
 30
0.0
 11
-1.187568979530156
 21
20.26502432143548
 31
0.0
  0
LINE
  5
3DF
  8
TEXT_LAYER$TXT_08
 10
-1.187568979530156
 20
20.26502432143548
 30
0.0
 11
-1.144685566380752
 21
20.26934702232392
 31
0.0
  0
LINE
  5
3E0
  8
TEXT_LAYER$TXT_08
 10
-1.144685566380752
 20
20.26934702232392
 30
0.0
 11
-1.101120725207296
 21
20.27270912144728
 31
0.0
  0
LINE
  5
3E1
  8
TEXT_LAYER$TXT_08
 10
-1.101120725207296
 20
20.27270912144728
 30
0.0
 11
-1.056874453956238
 21
20.27511061970612
 31
0.0
  0
LINE
  5
3E2
  8
TEXT_LAYER$TXT_08
 10
-1.056874453956238
 20
20.27511061970612
 30
0.0
 11
-1.011946750574031
 21
20.276551518001
 31
0.0
  0
LINE
  5
3E3
  8
TEXT_LAYER$TXT_08
 10
-1.011946750574031
 20
20.276551518001
 30
0.0
 11
-0.9663376130071248
 21
20.27703181723251
 31
0.0
  0
LINE
  5
3E4
  8
TEXT_LAYER$TXT_08
 10
-0.9663376130071248
 20
20.27703181723251
 30
0.0
 11
-0.9127627295805336
 21
20.27620749718658
 31
0.0
  0
LINE
  5
3E5
  8
TEXT_LAYER$TXT_08
 10
-0.9127627295805336
 20
20.27620749718658
 30
0.0
 11
-0.8601053243873682
 21
20.273734534988
 31
0.0
  0
LINE
  5
3E6
  8
TEXT_LAYER$TXT_08
 10
-0.8601053243873682
 20
20.273734534988
 30
0.0
 11
-0.8083653864836802
 21
20.26961292754552
 31
0.0
  0
LINE
  5
3E7
  8
TEXT_LAYER$TXT_08
 10
-0.8083653864836802
 20
20.26961292754552
 30
0.0
 11
-0.7575429049255211
 21
20.26384267176791
 31
0.0
  0
LINE
  5
3E8
  8
TEXT_LAYER$TXT_08
 10
-0.7575429049255211
 20
20.26384267176791
 30
0.0
 11
-0.7324757068560311
 21
20.26033929978743
 31
0.0
  0
LINE
  5
3E9
  8
TEXT_LAYER$TXT_08
 10
-0.7324757068560311
 20
20.26033929978743
 30
0.0
 11
-0.7076378687689427
 21
20.25642376456395
 31
0.0
  0
LINE
  5
3EA
  8
TEXT_LAYER$TXT_08
 10
-0.7076378687689427
 20
20.25642376456395
 30
0.0
 11
-0.6830293892962624
 21
20.25209606571108
 31
0.0
  0
LINE
  5
3EB
  8
TEXT_LAYER$TXT_08
 10
-0.6830293892962624
 20
20.25209606571108
 30
0.0
 11
-0.6586502670699966
 21
20.2473562028424
 31
0.0
  0
LINE
  5
3EC
  8
TEXT_LAYER$TXT_08
 10
-0.6586502670699966
 20
20.2473562028424
 30
0.0
 11
-0.6345005007221518
 21
20.24220417557153
 31
0.0
  0
LINE
  5
3ED
  8
TEXT_LAYER$TXT_08
 10
-0.6345005007221518
 20
20.24220417557153
 30
0.0
 11
-0.6105800888847344
 21
20.23663998351205
 31
0.0
  0
LINE
  5
3EE
  8
TEXT_LAYER$TXT_08
 10
-0.6105800888847344
 20
20.23663998351205
 30
0.0
 11
-0.5868890301897507
 21
20.23066362627756
 31
0.0
  0
LINE
  5
3EF
  8
TEXT_LAYER$TXT_08
 10
-0.5868890301897507
 20
20.23066362627756
 30
0.0
 11
-0.5634273232692075
 21
20.22427510348166
 31
0.0
  0
LINE
  5
3F0
  8
TEXT_LAYER$TXT_08
 10
-0.5634273232692075
 20
20.22427510348166
 30
0.0
 11
-0.5401949667551111
 21
20.21747441473794
 31
0.0
  0
LINE
  5
3F1
  8
TEXT_LAYER$TXT_08
 10
-0.5401949667551111
 20
20.21747441473794
 30
0.0
 11
-0.5171919592794678
 21
20.21026155965999
 31
0.0
  0
LINE
  5
3F2
  8
TEXT_LAYER$TXT_08
 10
-0.5171919592794678
 20
20.21026155965999
 30
0.0
 11
-0.4944182994742843
 21
20.20263653786143
 31
0.0
  0
LINE
  5
3F3
  8
TEXT_LAYER$TXT_08
 10
-0.4944182994742843
 20
20.20263653786143
 30
0.0
 11
-0.4718739859715669
 21
20.19459934895583
 31
0.0
  0
LINE
  5
3F4
  8
TEXT_LAYER$TXT_08
 10
-0.4718739859715669
 20
20.19459934895583
 30
0.0
 11
-0.4495590174033221
 21
20.1861499925568
 31
0.0
  0
LINE
  5
3F5
  8
TEXT_LAYER$TXT_08
 10
-0.4495590174033221
 20
20.1861499925568
 30
0.0
 11
-0.4274733924015564
 21
20.17728846827794
 31
0.0
  0
LINE
  5
3F6
  8
TEXT_LAYER$TXT_08
 10
-0.4274733924015564
 20
20.17728846827794
 30
0.0
 11
-0.4056171095982761
 21
20.16801477573284
 31
0.0
  0
LINE
  5
3F7
  8
TEXT_LAYER$TXT_08
 10
-0.4056171095982761
 20
20.16801477573284
 30
0.0
 11
-0.3839901676254878
 21
20.15832891453509
 31
0.0
  0
LINE
  5
3F8
  8
TEXT_LAYER$TXT_08
 10
-0.3839901676254878
 20
20.15832891453509
 30
0.0
 11
-0.3625925651151979
 21
20.1482308842983
 31
0.0
  0
LINE
  5
3F9
  8
TEXT_LAYER$TXT_08
 10
-0.3625925651151979
 20
20.1482308842983
 30
0.0
 11
-0.3414243006994128
 21
20.13772068463606
 31
0.0
  0
LINE
  5
3FA
  8
TEXT_LAYER$TXT_08
 10
-0.3414243006994128
 20
20.13772068463606
 30
0.0
 11
-0.320485373010139
 21
20.12679831516196
 31
0.0
  0
LINE
  5
3FB
  8
TEXT_LAYER$TXT_08
 10
-0.320485373010139
 20
20.12679831516196
 30
0.0
 11
-0.2997757806793831
 21
20.11546377548961
 31
0.0
  0
LINE
  5
3FC
  8
TEXT_LAYER$TXT_08
 10
-0.2997757806793831
 20
20.11546377548961
 30
0.0
 11
-0.2792955223391513
 21
20.1037170652326
 31
0.0
  0
LINE
  5
3FD
  8
TEXT_LAYER$TXT_08
 10
-0.2792955223391513
 20
20.1037170652326
 30
0.0
 11
-0.2590445966214502
 21
20.09155818400452
 31
0.0
  0
LINE
  5
3FE
  8
TEXT_LAYER$TXT_08
 10
-0.2590445966214502
 20
20.09155818400452
 30
0.0
 11
-0.2390230021582862
 21
20.07898713141897
 31
0.0
  0
LINE
  5
3FF
  8
TEXT_LAYER$TXT_08
 10
-0.2390230021582862
 20
20.07898713141897
 30
0.0
 11
-0.2192307375816658
 21
20.06600390708955
 31
0.0
  0
LINE
  5
400
  8
TEXT_LAYER$TXT_08
 10
-0.2192307375816658
 20
20.06600390708955
 30
0.0
 11
-0.1996977348739526
 21
20.0526151706062
 31
0.0
  0
LINE
  5
401
  8
TEXT_LAYER$TXT_08
 10
-0.1996977348739526
 20
20.0526151706062
 30
0.0
 11
-0.180453926341591
 21
20.03882758105196
 31
0.0
  0
LINE
  5
402
  8
TEXT_LAYER$TXT_08
 10
-0.180453926341591
 20
20.03882758105196
 30
0.0
 11
-0.1614993111027079
 21
20.02464113728009
 31
0.0
  0
LINE
  5
403
  8
TEXT_LAYER$TXT_08
 10
-0.1614993111027079
 20
20.02464113728009
 30
0.0
 11
-0.1428338882754307
 21
20.01005583814384
 31
0.0
  0
LINE
  5
404
  8
TEXT_LAYER$TXT_08
 10
-0.1428338882754307
 20
20.01005583814384
 30
0.0
 11
-0.1244576569778864
 21
19.99507168249647
 31
0.0
  0
LINE
  5
405
  8
TEXT_LAYER$TXT_08
 10
-0.1244576569778864
 20
19.99507168249647
 30
0.0
 11
-0.1063706163282022
 21
19.97968866919121
 31
0.0
  0
LINE
  5
406
  8
TEXT_LAYER$TXT_08
 10
-0.1063706163282022
 20
19.97968866919121
 30
0.0
 11
-0.0885727654445054
 21
19.96390679708135
 31
0.0
  0
LINE
  5
407
  8
TEXT_LAYER$TXT_08
 10
-0.0885727654445054
 20
19.96390679708135
 30
0.0
 11
-0.071064103444923
 21
19.94772606502012
 31
0.0
  0
LINE
  5
408
  8
TEXT_LAYER$TXT_08
 10
-0.071064103444923
 20
19.94772606502012
 30
0.0
 11
-0.0538446294475823
 21
19.93114647186077
 31
0.0
  0
LINE
  5
409
  8
TEXT_LAYER$TXT_08
 10
-0.0538446294475823
 20
19.93114647186077
 30
0.0
 11
-0.0369143425706104
 21
19.91416801645657
 31
0.0
  0
LINE
  5
40A
  8
TEXT_LAYER$TXT_08
 10
-0.0369143425706104
 20
19.91416801645657
 30
0.0
 11
-0.0202732419321344
 21
19.89679069766077
 31
0.0
  0
LINE
  5
40B
  8
TEXT_LAYER$TXT_08
 10
-0.0202732419321344
 20
19.89679069766077
 30
0.0
 11
-0.0039213266502816
 21
19.87901451432662
 31
0.0
  0
LINE
  5
40C
  8
TEXT_LAYER$TXT_08
 10
-0.0039213266502816
 20
19.87901451432662
 30
0.0
 11
0.012141404156821
 21
19.86083946530737
 31
0.0
  0
LINE
  5
40D
  8
TEXT_LAYER$TXT_08
 10
0.012141404156821
 20
19.86083946530737
 30
0.0
 11
0.027914951371046
 21
19.84226554945628
 31
0.0
  0
LINE
  5
40E
  8
TEXT_LAYER$TXT_08
 10
0.027914951371046
 20
19.84226554945628
 30
0.0
 11
0.0433993158742665
 21
19.8232927656266
 31
0.0
  0
LINE
  5
40F
  8
TEXT_LAYER$TXT_08
 10
0.0433993158742665
 20
19.8232927656266
 30
0.0
 11
0.0585944985483551
 21
19.80392111267158
 31
0.0
  0
LINE
  5
410
  8
TEXT_LAYER$TXT_08
 10
0.0585944985483551
 20
19.80392111267158
 30
0.0
 11
0.0735005002751847
 21
19.78415058944448
 31
0.0
  0
LINE
  5
411
  8
TEXT_LAYER$TXT_08
 10
0.0735005002751847
 20
19.78415058944448
 30
0.0
 11
0.0881173219366282
 21
19.76398119479856
 31
0.0
  0
LINE
  5
412
  8
TEXT_LAYER$TXT_08
 10
0.0881173219366282
 20
19.76398119479856
 30
0.0
 11
0.1024449644145585
 21
19.74341292758706
 31
0.0
  0
LINE
  5
413
  8
TEXT_LAYER$TXT_08
 10
0.1024449644145585
 20
19.74341292758706
 30
0.0
 11
0.1164834285908482
 21
19.72244578666324
 31
0.0
  0
LINE
  5
414
  8
TEXT_LAYER$TXT_08
 10
0.1164834285908482
 20
19.72244578666324
 30
0.0
 11
0.1302327153473704
 21
19.70107977088036
 31
0.0
  0
LINE
  5
415
  8
TEXT_LAYER$TXT_08
 10
0.1302327153473704
 20
19.70107977088036
 30
0.0
 11
0.1436928255659976
 21
19.67931487909166
 31
0.0
  0
LINE
  5
416
  8
TEXT_LAYER$TXT_08
 10
0.1436928255659976
 20
19.67931487909166
 30
0.0
 11
0.1697455199170592
 21
19.63458846290984
 31
0.0
  0
LINE
  5
417
  8
TEXT_LAYER$TXT_08
 10
0.1697455199170592
 20
19.63458846290984
 30
0.0
 11
0.1946415186990155
 21
19.58826652894381
 31
0.0
  0
LINE
  5
418
  8
TEXT_LAYER$TXT_08
 10
0.1946415186990155
 20
19.58826652894381
 30
0.0
 11
0.2183808289668493
 21
19.54034906801961
 31
0.0
  0
LINE
  5
419
  8
TEXT_LAYER$TXT_08
 10
0.2183808289668493
 20
19.54034906801961
 30
0.0
 11
0.2409634577755431
 21
19.49083607096325
 31
0.0
  0
LINE
  5
41A
  8
TEXT_LAYER$TXT_08
 10
0.2409634577755431
 20
19.49083607096325
 30
0.0
 11
0.2623894121800798
 21
19.43972752860078
 31
0.0
  0
LINE
  5
41B
  8
TEXT_LAYER$TXT_08
 10
0.2623894121800798
 20
19.43972752860078
 30
0.0
 11
0.5176651099336513
 21
19.83795761709636
 31
0.0
  0
CIRCLE
  5
41D
  8
ENGRAVE-SCREWS
 10
33.33
 20
399.96
 30
0.0
 40
2.1
  0
CIRCLE
  5
41E
  8
ENGRAVE-SCREWS
 10
0.0
 20
399.96
 30
0.0
 40
2.1
  0
CIRCLE
  5
41F
  8
ENGRAVE-SCREWS
 10
33.33
 20
299.97
 30
0.0
 40
2.1
  0
CIRCLE
  5
420
  8
ENGRAVE-SCREWS
 10
0.0
 20
299.97
 30
0.0
 40
2.1
  0
CIRCLE
  5
421
  8
ENGRAVE-SCREWS
 10
0.0
 20
199.98
 30
0.0
 40
2.1
  0
CIRCLE
  5
422
  8
ENGRAVE-SCREWS
 10
33.33
 20
199.98
 30
0.0
 40
2.1
  0
CIRCLE
  5
423
  8
ENGRAVE-SCREWS
 10
33.33
 20
99.99000000000001
 30
0.0
 40
2.1
  0
CIRCLE
  5
424
  8
ENGRAVE-SCREWS
 10
0.0
 20
99.99000000000001
 30
0.0
 40
2.1
  0
CIRCLE
  5
425
  8
ENGRAVE-SCREWS
 10
0.0
 20
0.0
 30
0.0
 40
2.1
  0
CIRCLE
  5
426
  8
ENGRAVE-SCREWS
 10
33.33
 20
0.0
 30
0.0
 40
2.1
  0
CIRCLE
  5
428
  8
SCREWS-BORDER
 10
0.0
 20
99.99000000000001
 30
0.0
 40
0.95
  0
CIRCLE
  5
429
  8
SCREWS-BORDER
 10
33.33
 20
99.99000000000001
 30
0.0
 40
0.95
  0
CIRCLE
  5
42A
  8
SCREWS-BORDER
 10
0.0
 20
299.97
 30
0.0
 40
0.95
  0
CIRCLE
  5
42B
  8
SCREWS-BORDER
 10
33.33
 20
299.97
 30
0.0
 40
0.95
  0
CIRCLE
  5
42C
  8
SCREWS-BORDER
 10
0.0
 20
199.98
 30
0.0
 40
0.95
  0
CIRCLE
  5
42D
  8
SCREWS-BORDER
 10
33.33
 20
199.98
 30
0.0
 40
0.95
  0
CIRCLE
  5
42E
  8
SCREWS-BORDER
 10
0.0
 20
0.0
 30
0.0
 40
0.95
  0
CIRCLE
  5
42F
  8
SCREWS-BORDER
 10
33.33
 20
0.0
 30
0.0
 40
0.95
  0
CIRCLE
  5
430
  8
SCREWS-BORDER
 10
0.0
 20
399.96
 30
0.0
 40
0.95
  0
CIRCLE
  5
431
  8
SCREWS-BORDER
 10
33.33
 20
399.96
 30
0.0
 40
0.95
  0
LINE
  5
433
  8
BORDER
 10
-3.5
 20
-3.5
 30
0.0
 11
36.83
 21
-3.5
 31
0.0
  0
LINE
  5
434
  8
BORDER
 10
36.83
 20
-3.5
 30
0.0
 11
36.83
 21
403.46
 31
0.0
  0
LINE
  5
435
  8
BORDER
 10
36.83
 20
403.46
 30
0.0
 11
-3.5
 21
403.46
 31
0.0
  0
LINE
  5
436
  8
BORDER
 10
-3.5
 20
403.46
 30
0.0
 11
-3.5
 21
-3.5
 31
0.0
  0
LINE
  5
438
  8
GRID_LED
 10
3.5
 20
370.1300000000001
 30
0.0
 11
29.83
 21
370.1300000000001
 31
0.0
  0
LINE
  5
439
  8
GRID_LED
 10
29.83
 20
370.1300000000001
 30
0.0
 11
29.83
 21
396.46
 31
0.0
  0
LINE
  5
43A
  8
GRID_LED
 10
29.83
 20
396.46
 30
0.0
 11
3.5
 21
396.46
 31
0.0
  0
LINE
  5
43B
  8
GRID_LED
 10
3.5
 20
396.46
 30
0.0
 11
3.5
 21
370.1300000000001
 31
0.0
  0
LINE
  5
43C
  8
GRID_LED
 10
3.5
 20
336.8
 30
0.0
 11
29.83
 21
336.8
 31
0.0
  0
LINE
  5
43D
  8
GRID_LED
 10
29.83
 20
336.8
 30
0.0
 11
29.83
 21
363.1300000000001
 31
0.0
  0
LINE
  5
43E
  8
GRID_LED
 10
29.83
 20
363.1300000000001
 30
0.0
 11
3.5
 21
363.1300000000001
 31
0.0
  0
LINE
  5
43F
  8
GRID_LED
 10
3.5
 20
363.1300000000001
 30
0.0
 11
3.5
 21
336.8
 31
0.0
  0
LINE
  5
440
  8
GRID_LED
 10
3.5
 20
303.47
 30
0.0
 11
29.83
 21
303.47
 31
0.0
  0
LINE
  5
441
  8
GRID_LED
 10
29.83
 20
303.47
 30
0.0
 11
29.83
 21
329.8
 31
0.0
  0
LINE
  5
442
  8
GRID_LED
 10
29.83
 20
329.8
 30
0.0
 11
3.5
 21
329.8
 31
0.0
  0
LINE
  5
443
  8
GRID_LED
 10
3.5
 20
329.8
 30
0.0
 11
3.5
 21
303.47
 31
0.0
  0
LINE
  5
444
  8
GRID_LED
 10
3.5
 20
270.14
 30
0.0
 11
29.83
 21
270.14
 31
0.0
  0
LINE
  5
445
  8
GRID_LED
 10
29.83
 20
270.14
 30
0.0
 11
29.83
 21
296.47
 31
0.0
  0
LINE
  5
446
  8
GRID_LED
 10
29.83
 20
296.47
 30
0.0
 11
3.5
 21
296.47
 31
0.0
  0
LINE
  5
447
  8
GRID_LED
 10
3.5
 20
296.47
 30
0.0
 11
3.5
 21
270.14
 31
0.0
  0
LINE
  5
448
  8
GRID_LED
 10
3.5
 20
236.81
 30
0.0
 11
29.83
 21
236.81
 31
0.0
  0
LINE
  5
449
  8
GRID_LED
 10
29.83
 20
236.81
 30
0.0
 11
29.83
 21
263.14
 31
0.0
  0
LINE
  5
44A
  8
GRID_LED
 10
29.83
 20
263.14
 30
0.0
 11
3.5
 21
263.14
 31
0.0
  0
LINE
  5
44B
  8
GRID_LED
 10
3.5
 20
263.14
 30
0.0
 11
3.5
 21
236.81
 31
0.0
  0
LINE
  5
44C
  8
GRID_LED
 10
3.5
 20
203.48
 30
0.0
 11
29.83
 21
203.48
 31
0.0
  0
LINE
  5
44D
  8
GRID_LED
 10
29.83
 20
203.48
 30
0.0
 11
29.83
 21
229.81
 31
0.0
  0
LINE
  5
44E
  8
GRID_LED
 10
29.83
 20
229.81
 30
0.0
 11
3.5
 21
229.81
 31
0.0
  0
LINE
  5
44F
  8
GRID_LED
 10
3.5
 20
229.81
 30
0.0
 11
3.5
 21
203.48
 31
0.0
  0
LINE
  5
450
  8
GRID_LED
 10
3.5
 20
170.15
 30
0.0
 11
29.83
 21
170.15
 31
0.0
  0
LINE
  5
451
  8
GRID_LED
 10
29.83
 20
170.15
 30
0.0
 11
29.83
 21
196.48
 31
0.0
  0
LINE
  5
452
  8
GRID_LED
 10
29.83
 20
196.48
 30
0.0
 11
3.5
 21
196.48
 31
0.0
  0
LINE
  5
453
  8
GRID_LED
 10
3.5
 20
196.48
 30
0.0
 11
3.5
 21
170.15
 31
0.0
  0
LINE
  5
454
  8
GRID_LED
 10
3.5
 20
136.82
 30
0.0
 11
29.83
 21
136.82
 31
0.0
  0
LINE
  5
455
  8
GRID_LED
 10
29.83
 20
136.82
 30
0.0
 11
29.83
 21
163.15
 31
0.0
  0
LINE
  5
456
  8
GRID_LED
 10
29.83
 20
163.15
 30
0.0
 11
3.5
 21
163.15
 31
0.0
  0
LINE
  5
457
  8
GRID_LED
 10
3.5
 20
163.15
 30
0.0
 11
3.5
 21
136.82
 31
0.0
  0
LINE
  5
459
  8
GRID_PCB
 10
3.5
 20
3.5
 30
0.0
 11
29.83
 21
3.5
 31
0.0
  0
LINE
  5
45A
  8
GRID_PCB
 10
29.83
 20
3.5
 30
0.0
 11
29.83
 21
96.49000000000001
 31
0.0
  0
LINE
  5
45B
  8
GRID_PCB
 10
29.83
 20
96.49000000000001
 30
0.0
 11
3.5
 21
96.49000000000001
 31
0.0
  0
LINE
  5
45C
  8
GRID_PCB
 10
3.5
 20
96.49000000000001
 30
0.0
 11
3.5
 21
3.5
 31
0.0
  0
LINE
  5
45D
  8
GRID_LED
 10
3.5
 20
103.49
 30
0.0
 11
29.83
 21
103.49
 31
0.0
  0
LINE
  5
45E
  8
GRID_LED
 10
29.83
 20
103.49
 30
0.0
 11
29.83
 21
129.82
 31
0.0
  0
LINE
  5
45F
  8
GRID_LED
 10
29.83
 20
129.82
 30
0.0
 11
3.5
 21
129.82
 31
0.0
  0
LINE
  5
460
  8
GRID_LED
 10
3.5
 20
129.82
 30
0.0
 11
3.5
 21
103.49
 31
0.0
  0
ENDSEC
  0
EOF
