  0
SECTION
  2
HEADER
  9
$ACADVER
  1
AC1009
  9
$DWGCODEPAGE
  3
mac-roman
  9
$INSBASE
 10
0.0
 20
0.0
 30
0.0
  9
$EXTMIN
 10
-44.47251023192361
 20
-58.96
 30
0.0
  9
$EXTMAX
 10
118.35
 20
666.6
 30
0.0
  9
$LIMMIN
 10
0.0
 20
0.0
  9
$LIMMAX
 10
12.0
 20
9.0
  9
$ORTHOMODE
 70
     0
  9
$REGENMODE
 70
     1
  9
$FILLMODE
 70
     1
  9
$QTEXTMODE
 70
     0
  9
$MIRRTEXT
 70
     1
  9
$DRAGMODE
 70
     2
  9
$LTSCALE
 40
1.0
  9
$OSMODE
 70
    37
  9
$ATTMODE
 70
     1
  9
$TEXTSIZE
 40
0.2
  9
$TRACEWID
 40
0.05
  9
$TEXTSTYLE
  7
STANDARD
  9
$CLAYER
  8
_MEASURES
  9
$CELTYPE
  6
BYLAYER
  9
$CECOLOR
 62
   256
  9
$DIMSCALE
 40
1.0
  9
$DIMASZ
 40
0.18
  9
$DIMEXO
 40
0.0625
  9
$DIMDLI
 40
0.38
  9
$DIMRND
 40
0.0
  9
$DIMDLE
 40
0.0
  9
$DIMEXE
 40
0.18
  9
$DIMTP
 40
0.0
  9
$DIMTM
 40
0.0
  9
$DIMTXT
 40
0.18
  9
$DIMCEN
 40
0.09
  9
$DIMTSZ
 40
0.0
  9
$DIMTOL
 70
     0
  9
$DIMLIM
 70
     0
  9
$DIMTIH
 70
     1
  9
$DIMTOH
 70
     1
  9
$DIMSE1
 70
     0
  9
$DIMSE2
 70
     0
  9
$DIMTAD
 70
     0
  9
$DIMZIN
 70
     0
  9
$DIMBLK
  1

  9
$DIMASO
 70
     1
  9
$DIMSHO
 70
     1
  9
$DIMPOST
  1

  9
$DIMAPOST
  1

  9
$DIMALT
 70
     0
  9
$DIMALTD
 70
     2
  9
$DIMALTF
 40
25.4
  9
$DIMLFAC
 40
1.0
  9
$DIMTOFL
 70
     0
  9
$DIMTVP
 40
0.0
  9
$DIMTIX
 70
     0
  9
$DIMSOXD
 70
     0
  9
$DIMSAH
 70
     0
  9
$DIMBLK1
  1

  9
$DIMBLK2
  1

  9
$DIMSTYLE
  2
STANDARD
  9
$DIMCLRD
 70
     0
  9
$DIMCLRE
 70
     0
  9
$DIMCLRT
 70
     0
  9
$DIMTFAC
 40
1.0
  9
$DIMGAP
 40
0.09
  9
$LUNITS
 70
     2
  9
$LUPREC
 70
     2
  9
$SKETCHINC
 40
0.1
  9
$FILLETRAD
 40
0.5
  9
$AUNITS
 70
     0
  9
$AUPREC
 70
     0
  9
$MENU
  1
.
  9
$ELEVATION
 40
0.0
  9
$PELEVATION
 40
0.0
  9
$THICKNESS
 40
0.0
  9
$LIMCHECK
 70
     0
  9
$CHAMFERA
 40
0.0
  9
$CHAMFERB
 40
0.0
  9
$SKPOLY
 70
     0
  9
$TDCREATE
 40
2457480.701273148
  9
$TDUPDATE
 40
2457480.701273148
  9
$TDINDWG
 40
0.0000000116
  9
$TDUSRTIMER
 40
0.0000000116
  9
$USRTIMER
 70
     1
  9
$ANGBASE
 50
0.0
  9
$ANGDIR
 70
     0
  9
$PDMODE
 70
     0
  9
$PDSIZE
 40
0.0
  9
$PLINEWID
 40
0.0
  9
$COORDS
 70
     1
  9
$SPLFRAME
 70
     0
  9
$SPLINETYPE
 70
     6
  9
$SPLINESEGS
 70
     8
  9
$ATTDIA
 70
     0
  9
$ATTREQ
 70
     1
  9
$HANDLING
 70
     1
  9
$HANDSEED
  5
317
  9
$SURFTAB1
 70
     6
  9
$SURFTAB2
 70
     6
  9
$SURFTYPE
 70
     6
  9
$SURFU
 70
     6
  9
$SURFV
 70
     6
  9
$UCSNAME
  2

  9
$UCSORG
 10
0.0
 20
0.0
 30
0.0
  9
$UCSXDIR
 10
1.0
 20
0.0
 30
0.0
  9
$UCSYDIR
 10
0.0
 20
1.0
 30
0.0
  9
$PUCSNAME
  2

  9
$PUCSORG
 10
0.0
 20
0.0
 30
0.0
  9
$PUCSXDIR
 10
1.0
 20
0.0
 30
0.0
  9
$PUCSYDIR
 10
0.0
 20
1.0
 30
0.0
  9
$USERI1
 70
     0
  9
$USERI2
 70
     0
  9
$USERI3
 70
     0
  9
$USERI4
 70
     0
  9
$USERI5
 70
     0
  9
$USERR1
 40
0.0
  9
$USERR2
 40
0.0
  9
$USERR3
 40
0.0
  9
$USERR4
 40
0.0
  9
$USERR5
 40
0.0
  9
$WORLDVIEW
 70
     1
  9
$SHADEDGE
 70
     3
  9
$SHADEDIF
 70
    70
  9
$TILEMODE
 70
     1
  9
$MAXACTVP
 70
    64
  9
$PLIMCHECK
 70
     0
  9
$PEXTMIN
 10
1.000000000000000E+20
 20
1.000000000000000E+20
 30
1.000000000000000E+20
  9
$PEXTMAX
 10
-1.000000000000000E+20
 20
-1.000000000000000E+20
 30
-1.000000000000000E+20
  9
$PLIMMIN
 10
0.0
 20
0.0
  9
$PLIMMAX
 10
12.0
 20
9.0
  9
$UNITMODE
 70
     0
  9
$VISRETAIN
 70
     1
  9
$PLINEGEN
 70
     0
  9
$PSLTSCALE
 70
     1
  0
ENDSEC
  0
SECTION
  2
TABLES
  0
TABLE
  2
VPORT
 70
     1
  0
VPORT
  2
*ACTIVE
 70
     0
 10
0.0
 20
0.0
 11
1.0
 21
1.0
 12
36.80845839017735
 22
303.8200000000001
 13
0.0
 23
0.0
 14
0.5
 24
0.5
 15
0.5
 25
0.5
 16
0.0
 26
0.0
 36
1.0
 17
0.0
 27
0.0
 37
0.0
 40
740.0712000000002
 41
0.224768569407968
 42
50.0
 43
0.0
 44
0.0
 50
0.0
 51
0.0
 71
     0
 72
   100
 73
     1
 74
     3
 75
     0
 76
     0
 77
     0
 78
     0
  0
ENDTAB
  0
TABLE
  2
LTYPE
 70
     1
  0
LTYPE
  2
CONTINUOUS
 70
     0
  3
Solid line
 72
    65
 73
     0
 40
0.0
  0
ENDTAB
  0
TABLE
  2
LAYER
 70
    22
  0
LAYER
  2
0
 70
     0
 62
     7
  6
CONTINUOUS
  0
LAYER
  2
_MEASURES
 70
     0
 62
     7
  6
CONTINUOUS
  0
LAYER
  2
DEFPOINTS
 70
     0
 62
     7
  6
CONTINUOUS
  0
LAYER
  2
FIXING
 70
     0
 62
     3
  6
CONTINUOUS
  0
LAYER
  2
_CONSTRUCTIONS
 70
     0
 62
   173
  6
CONTINUOUS
  0
LAYER
  2
ENGRAVE-SCREWS
 70
     0
 62
    -1
  6
CONTINUOUS
  0
LAYER
  2
_POINTS
 70
     0
 62
  -242
  6
CONTINUOUS
  0
LAYER
  2
FIXING_BORDER
 70
     0
 62
     6
  6
CONTINUOUS
  0
LAYER
  2
USB_OPENING
 70
     0
 62
    -3
  6
CONTINUOUS
  0
LAYER
  2
GRID_PCB_EX
 70
     0
 62
    -6
  6
CONTINUOUS
  0
LAYER
  2
SCREWS-PIR
 70
     0
 62
     3
  6
CONTINUOUS
  0
LAYER
  2
LED_STRIP10
 70
     0
 62
     4
  6
CONTINUOUS
  0
LAYER
  2
PIR
 70
     0
 62
     3
  6
CONTINUOUS
  0
LAYER
  2
SCREWS-PCB
 70
     0
 62
    -3
  6
CONTINUOUS
  0
LAYER
  2
OLD-PIR_SMALL
 70
     0
 62
    -7
  6
CONTINUOUS
  0
LAYER
  2
STRIP_CUTS
 70
     0
 62
    -3
  6
CONTINUOUS
  0
LAYER
  2
OLD_EGRAVE_STRIP_TOP
 70
     0
 62
  -100
  6
CONTINUOUS
  0
LAYER
  2
LED_STRIP12
 70
     0
 62
     4
  6
CONTINUOUS
  0
LAYER
  2
SCREWS-BORDER
 70
     0
 62
    -3
  6
CONTINUOUS
  0
LAYER
  2
BORDER
 70
     0
 62
     7
  6
CONTINUOUS
  0
LAYER
  2
GRID_LED
 70
     0
 62
     6
  6
CONTINUOUS
  0
LAYER
  2
GRID_PCB
 70
     0
 62
     6
  6
CONTINUOUS
  0
ENDTAB
  0
TABLE
  2
STYLE
 70
     2
  0
STYLE
  2
STANDARD
 70
     0
 40
0.0
 41
1.0
 50
0.0
 71
     0
 42
0.2
  3
txt
  4

  0
STYLE
  2
ARIAL
 70
     0
 40
0.0
 41
1.0
 50
0.0
 71
     0
 42
0.2
  3
Arial.ttf
  4

  0
ENDTAB
  0
TABLE
  2
VIEW
 70
     0
  0
ENDTAB
  0
TABLE
  2
UCS
 70
     0
  0
ENDTAB
  0
TABLE
  2
APPID
 70
     1
  0
APPID
  2
ACAD
 70
     0
  0
ENDTAB
  0
TABLE
  2
DIMSTYLE
 70
     2
  0
DIMSTYLE
  2
STANDARD
 70
     0
  3

  4

  5

  6

  7

 40
1.0
 41
0.18
 42
0.0625
 43
0.38
 44
0.18
 45
0.0
 46
0.0
 47
0.0
 48
0.0
140
0.18
141
0.09
142
0.0
143
25.4
144
1.0
145
0.0
146
1.0
147
0.09
 71
     0
 72
     0
 73
     1
 74
     1
 75
     0
 76
     0
 77
     0
 78
     0
170
     0
171
     2
172
     0
173
     0
174
     0
175
     0
176
     0
177
     0
178
     0
  0
DIMSTYLE
  2
DEFAULT
 70
     0
  3

  4

  5

  6

  7

 40
1.0
 41
1.0
 42
0.5
 43
0.38
 44
0.5
 45
0.0
 46
0.0
 47
0.0
 48
0.0
140
1.0
141
0.5
142
0.0
143
0.03937
144
1.0
145
0.0
146
1.0
147
0.25
 71
     0
 72
     0
 73
     0
 74
     1
 75
     0
 76
     0
 77
     1
 78
     1
170
     0
171
     2
172
     1
173
     0
174
     1
175
     0
176
     0
177
     0
178
     0
  0
ENDTAB
  0
ENDSEC
  0
SECTION
  2
BLOCKS
  0
BLOCK
  8
0
  2
$MODEL_SPACE
 70
     0
 10
0.0
 20
0.0
 30
0.0
  3
$MODEL_SPACE
  1

  0
ENDBLK
  5
21
  8
0
  0
BLOCK
 67
     1
  8
0
  2
$PAPER_SPACE
 70
     0
 10
0.0
 20
0.0
 30
0.0
  3
$PAPER_SPACE
  1

  0
ENDBLK
  5
1D
 67
     1
  8
0
  0
BLOCK
  8
0
  2
*D1
 70
     1
 10
0.0
 20
0.0
 30
0.0
  3
*D1
  1

  0
LINE
  5
76
  8
_MEASURES
 62
     0
 10
17.165
 20
1.539999999999999
 30
0.0
 11
21.165
 21
1.539999999999999
 31
0.0
  0
LINE
  5
77
  8
_MEASURES
 62
     0
 10
17.165
 20
-3.499999999999996
 30
0.0
 11
21.165
 21
-3.499999999999997
 31
0.0
  0
LINE
  5
78
  8
_MEASURES
 62
     0
 10
20.665
 20
0.5399999999999987
 30
0.0
 11
20.665
 21
-2.499999999999997
 31
0.0
  0
SOLID
  5
79
  8
_MEASURES
 62
     0
 10
20.83166666666667
 20
0.5399999999999987
 30
0.0
 11
20.49833333333333
 21
0.5399999999999987
 31
0.0
 12
20.665
 22
1.539999999999999
 32
0.0
 13
20.665
 23
1.539999999999999
 33
0.0
  0
SOLID
  5
7A
  8
_MEASURES
 62
     0
 10
20.49833333333333
 20
-2.499999999999997
 30
0.0
 11
20.83166666666667
 21
-2.499999999999997
 31
0.0
 12
20.665
 22
-3.499999999999997
 32
0.0
 13
20.665
 23
-3.499999999999997
 33
0.0
  0
TEXT
  5
7B
  8
_MEASURES
  6
CONTINUOUS
 62
     0
 10
20.39658253751705
 20
-2.349713506139157
 30
0.0
 40
1.0
  1
5.04
 50
90.0
  7
ARIAL
  0
POINT
  5
7C
  8
DEFPOINTS
 62
     0
 10
16.665
 20
1.539999999999999
 30
0.0
  0
POINT
  5
7D
  8
DEFPOINTS
 62
     0
 10
16.665
 20
-3.499999999999996
 30
0.0
  0
POINT
  5
7E
  8
DEFPOINTS
 62
     0
 10
20.665
 20
-3.499999999999997
 30
0.0
  0
ENDBLK
  5
75
  8
0
  0
BLOCK
  8
0
  2
*D2
 70
     1
 10
0.0
 20
0.0
 30
0.0
  3
*D2
  1

  0
LINE
  5
83
  8
_MEASURES
 62
     0
 10
8.372865421217861
 20
17.78006703345731
 30
0.0
 11
14.22286542121786
 21
17.78006703345731
 31
0.0
  0
LINE
  5
84
  8
_MEASURES
 62
     0
 10
8.372865421217861
 20
22.83000000000001
 30
0.0
 11
14.22286542121786
 21
22.83000000000001
 31
0.0
  0
LINE
  5
85
  8
_MEASURES
 62
     0
 10
13.72286542121786
 20
18.78006703345731
 30
0.0
 11
13.72286542121786
 21
21.83000000000001
 31
0.0
  0
SOLID
  5
86
  8
_MEASURES
 62
     0
 10
13.5561987545512
 20
18.78006703345731
 30
0.0
 11
13.88953208788453
 21
18.78006703345731
 31
0.0
 12
13.72286542121786
 22
17.78006703345731
 32
0.0
 13
13.72286542121786
 23
17.78006703345731
 33
0.0
  0
SOLID
  5
87
  8
_MEASURES
 62
     0
 10
13.88953208788453
 20
21.83000000000001
 30
0.0
 11
13.5561987545512
 21
21.83000000000001
 31
0.0
 12
13.72286542121786
 22
22.83000000000001
 32
0.0
 13
13.72286542121786
 23
22.83000000000001
 33
0.0
  0
TEXT
  5
88
  8
_MEASURES
  6
CONTINUOUS
 62
     0
 10
13.45444795873491
 20
18.92918085642852
 30
0.0
 40
1.0
  1
5.05
 50
90.0
  7
ARIAL
  0
POINT
  5
89
  8
DEFPOINTS
 62
     0
 10
7.872865421217861
 20
17.78006703345731
 30
0.0
  0
POINT
  5
8A
  8
DEFPOINTS
 62
     0
 10
7.872865421217861
 20
22.83000000000001
 30
0.0
  0
POINT
  5
8B
  8
DEFPOINTS
 62
     0
 10
13.72286542121786
 20
22.83000000000001
 30
0.0
  0
ENDBLK
  5
82
  8
0
  0
BLOCK
  8
0
  2
*D3
 70
     1
 10
0.0
 20
0.0
 30
0.0
  3
*D3
  1

  0
LINE
  5
9F
  8
_MEASURES
 62
     0
 10
3.5
 20
23.33
 30
0.0
 11
3.5
 21
41.15282682716951
 31
0.0
  0
LINE
  5
A0
  8
_MEASURES
 62
     0
 10
29.83
 20
23.33
 30
0.0
 11
29.83
 21
41.15282682716951
 31
0.0
  0
LINE
  5
A1
  8
_MEASURES
 62
     0
 10
4.5
 20
40.65282682716951
 30
0.0
 11
28.83
 21
40.65282682716951
 31
0.0
  0
SOLID
  5
A2
  8
_MEASURES
 62
     0
 10
4.5
 20
40.81949349383617
 30
0.0
 11
4.5
 21
40.48616016050284
 31
0.0
 12
3.5
 22
40.65282682716951
 32
0.0
 13
3.5
 23
40.65282682716951
 33
0.0
  0
SOLID
  5
A3
  8
_MEASURES
 62
     0
 10
28.83
 20
40.48616016050284
 30
0.0
 11
28.83
 21
40.81949349383617
 31
0.0
 12
29.83
 22
40.65282682716951
 32
0.0
 13
29.83
 23
40.65282682716951
 33
0.0
  0
TEXT
  5
A4
  8
_MEASURES
  6
CONTINUOUS
 62
     0
 10
14.91397680763983
 20
40.92124428965246
 30
0.0
 40
1.0
  1
26.33
  7
ARIAL
  0
POINT
  5
A5
  8
DEFPOINTS
 62
     0
 10
3.5
 20
22.83
 30
0.0
  0
POINT
  5
A6
  8
DEFPOINTS
 62
     0
 10
29.83
 20
22.83
 30
0.0
  0
POINT
  5
A7
  8
DEFPOINTS
 62
     0
 10
29.83
 20
40.65282682716951
 30
0.0
  0
ENDBLK
  5
9E
  8
0
  0
BLOCK
  8
0
  2
*D4
 70
     1
 10
0.0
 20
0.0
 30
0.0
  3
*D4
  1

  0
LINE
  5
AC
  8
_MEASURES
 62
     0
 10
-4.0
 20
22.83
 30
0.0
 11
-10.2
 21
22.83
 31
0.0
  0
LINE
  5
AD
  8
_MEASURES
 62
     0
 10
-4.0
 20
-3.5
 30
0.0
 11
-10.2
 21
-3.5
 31
0.0
  0
LINE
  5
AE
  8
_MEASURES
 62
     0
 10
-9.699999999999998
 20
21.83
 30
0.0
 11
-9.7
 21
-2.5
 31
0.0
  0
SOLID
  5
AF
  8
_MEASURES
 62
     0
 10
-9.533333333333331
 20
21.83
 30
0.0
 11
-9.866666666666664
 21
21.83
 31
0.0
 12
-9.699999999999998
 22
22.83
 32
0.0
 13
-9.699999999999998
 23
22.83
 33
0.0
  0
SOLID
  5
B0
  8
_MEASURES
 62
     0
 10
-9.866666666666665
 20
-2.5
 30
0.0
 11
-9.533333333333333
 21
-2.5
 31
0.0
 12
-9.7
 22
-3.5
 32
0.0
 13
-9.7
 23
-3.5
 33
0.0
  0
TEXT
  5
B1
  8
_MEASURES
  6
CONTINUOUS
 62
     0
 10
-9.968417462482945
 20
7.913976807639834
 30
0.0
 40
1.0
  1
26.33
 50
90.0
  7
ARIAL
  0
POINT
  5
B2
  8
DEFPOINTS
 62
     0
 10
-3.5
 20
22.83
 30
0.0
  0
POINT
  5
B3
  8
DEFPOINTS
 62
     0
 10
-3.5
 20
-3.5
 30
0.0
  0
POINT
  5
B4
  8
DEFPOINTS
 62
     0
 10
-9.7
 20
-3.5
 30
0.0
  0
ENDBLK
  5
AB
  8
0
  0
BLOCK
  8
0
  2
*D5
 70
     1
 10
0.0
 20
0.0
 30
0.0
  3
*D5
  1

  0
LINE
  5
BC
  8
_MEASURES
 62
     0
 10
3.0
 20
-1.999999999999978
 30
0.0
 11
-5.49
 21
-1.999999999999977
 31
0.0
  0
LINE
  5
BD
  8
_MEASURES
 62
     0
 10
3.0
 20
-3.500000000000002
 30
0.0
 11
-5.49
 21
-3.500000000000001
 31
0.0
  0
LINE
  5
BE
  8
_MEASURES
 62
     0
 10
-4.99
 20
-1.999999999999977
 30
0.0
 11
-4.99
 21
-3.500000000000001
 31
0.0
  0
LINE
  5
BF
  8
_MEASURES
 62
     0
 10
-4.99
 20
-0.9999999999999769
 30
0.0
 11
-4.99
 21
0.0000000000000231
 31
0.0
  0
LINE
  5
C0
  8
_MEASURES
 62
     0
 10
-4.99
 20
-4.500000000000002
 30
0.0
 11
-4.99
 21
-5.500000000000002
 31
0.0
  0
SOLID
  5
C1
  8
_MEASURES
 62
     0
 10
-5.156666666666667
 20
-0.9999999999999769
 30
0.0
 11
-4.823333333333333
 21
-0.9999999999999769
 31
0.0
 12
-4.99
 22
-1.999999999999977
 32
0.0
 13
-4.99
 23
-1.999999999999977
 33
0.0
  0
SOLID
  5
C2
  8
_MEASURES
 62
     0
 10
-4.823333333333333
 20
-4.500000000000002
 30
0.0
 11
-5.156666666666667
 21
-4.500000000000002
 31
0.0
 12
-4.99
 22
-3.500000000000001
 32
0.0
 13
-4.99
 23
-3.500000000000001
 33
0.0
  0
TEXT
  5
C3
  8
_MEASURES
  6
CONTINUOUS
 62
     0
 10
-5.258417462482947
 20
-4.167462482946783
 30
0.0
 40
1.0
  1
1.50
 50
90.0
  7
ARIAL
  0
POINT
  5
C4
  8
DEFPOINTS
 62
     0
 10
3.5
 20
-1.999999999999978
 30
0.0
  0
POINT
  5
C5
  8
DEFPOINTS
 62
     0
 10
3.5
 20
-3.500000000000002
 30
0.0
  0
POINT
  5
C6
  8
DEFPOINTS
 62
     0
 10
-4.99
 20
-3.500000000000001
 30
0.0
  0
ENDBLK
  5
BB
  8
0
  0
BLOCK
  8
0
  2
*D6
 70
     1
 10
0.0
 20
0.0
 30
0.0
  3
*D6
  1

  0
LINE
  5
DB
  8
_MEASURES
 62
     0
 10
33.33
 20
-0.5
 30
0.0
 11
33.33
 21
-3.55
 31
0.0
  0
LINE
  5
DC
  8
_MEASURES
 62
     0
 10
35.23
 20
-0.5
 30
0.0
 11
35.23
 21
-3.55
 31
0.0
  0
LINE
  5
DD
  8
_MEASURES
 62
     0
 10
33.33
 20
-3.05
 30
0.0
 11
35.23
 21
-3.05
 31
0.0
  0
LINE
  5
DE
  8
_MEASURES
 62
     0
 10
32.33
 20
-3.05
 30
0.0
 11
31.33
 21
-3.05
 31
0.0
  0
LINE
  5
DF
  8
_MEASURES
 62
     0
 10
36.23
 20
-3.05
 30
0.0
 11
37.23
 21
-3.05
 31
0.0
  0
SOLID
  5
E0
  8
_MEASURES
 62
     0
 10
32.33
 20
-3.216666666666667
 30
0.0
 11
32.33
 21
-2.883333333333334
 31
0.0
 12
33.33
 22
-3.05
 32
0.0
 13
33.33
 23
-3.05
 33
0.0
  0
SOLID
  5
E1
  8
_MEASURES
 62
     0
 10
36.23
 20
-2.883333333333334
 30
0.0
 11
36.23
 21
-3.216666666666667
 31
0.0
 12
35.23
 22
-3.05
 32
0.0
 13
35.23
 23
-3.05
 33
0.0
  0
TEXT
  5
E2
  8
_MEASURES
  6
CONTINUOUS
 62
     0
 10
32.86253751705321
 20
-2.781582537517053
 30
0.0
 40
1.0
  1
1.90
  7
ARIAL
  0
POINT
  5
E3
  8
DEFPOINTS
 62
     0
 10
33.33
 20
0.0
 30
0.0
  0
POINT
  5
E4
  8
DEFPOINTS
 62
     0
 10
35.23
 20
0.0
 30
0.0
  0
POINT
  5
E5
  8
DEFPOINTS
 62
     0
 10
35.23
 20
-3.05
 30
0.0
  0
ENDBLK
  5
DA
  8
0
  0
BLOCK
  8
0
  2
*D7
 70
     1
 10
0.0
 20
0.0
 30
0.0
  3
*D7
  1

  0
LINE
  5
10B
  8
_MEASURES
 62
     0
 10
28.01597463097043
 20
78.99000000000001
 30
0.0
 11
28.01597463097043
 21
65.64102120507684
 31
0.0
  0
LINE
  5
10C
  8
_MEASURES
 62
     0
 10
5.31597463097043
 20
78.99000000000001
 30
0.0
 11
5.31597463097043
 21
65.64102120507684
 31
0.0
  0
LINE
  5
10D
  8
_MEASURES
 62
     0
 10
27.01597463097043
 20
66.14102120507684
 30
0.0
 11
6.31597463097043
 21
66.14102120507684
 31
0.0
  0
SOLID
  5
10E
  8
_MEASURES
 62
     0
 10
27.01597463097043
 20
65.97435453841017
 30
0.0
 11
27.01597463097043
 21
66.30768787174351
 31
0.0
 12
28.01597463097043
 22
66.14102120507684
 32
0.0
 13
28.01597463097043
 23
66.14102120507684
 33
0.0
  0
SOLID
  5
10F
  8
_MEASURES
 62
     0
 10
6.31597463097043
 20
66.30768787174351
 30
0.0
 11
6.31597463097043
 21
65.97435453841017
 31
0.0
 12
5.31597463097043
 22
66.14102120507684
 32
0.0
 13
5.31597463097043
 23
66.14102120507684
 33
0.0
  0
TEXT
  5
110
  8
_MEASURES
  6
CONTINUOUS
 62
     0
 10
14.91631569509048
 20
66.40943866755978
 30
0.0
 40
1.0
  1
22.70
  7
ARIAL
  0
POINT
  5
111
  8
DEFPOINTS
 62
     0
 10
28.01597463097043
 20
79.49000000000001
 30
0.0
  0
POINT
  5
112
  8
DEFPOINTS
 62
     0
 10
5.31597463097043
 20
79.49000000000001
 30
0.0
  0
POINT
  5
113
  8
DEFPOINTS
 62
     0
 10
5.31597463097043
 20
66.14102120507684
 30
0.0
  0
ENDBLK
  5
10A
  8
0
  0
BLOCK
  8
0
  2
*D8
 70
     1
 10
0.0
 20
0.0
 30
0.0
  3
*D8
  1

  0
LINE
  5
11A
  8
_MEASURES
 62
     0
 10
30.33
 20
-2.0
 30
0.0
 11
43.05585210373152
 21
-2.000000000000001
 31
0.0
  0
LINE
  5
11B
  8
_MEASURES
 62
     0
 10
30.33
 20
-3.500000000000001
 30
0.0
 11
43.05585210373152
 21
-3.500000000000002
 31
0.0
  0
LINE
  5
11C
  8
_MEASURES
 62
     0
 10
42.55585210373152
 20
-2.000000000000001
 30
0.0
 11
42.55585210373152
 21
-3.500000000000002
 31
0.0
  0
LINE
  5
11D
  8
_MEASURES
 62
     0
 10
42.55585210373152
 20
-1.000000000000001
 30
0.0
 11
42.55585210373152
 21
-0.0000000000000009
 31
0.0
  0
LINE
  5
11E
  8
_MEASURES
 62
     0
 10
42.55585210373152
 20
-4.500000000000002
 30
0.0
 11
42.55585210373152
 21
-5.500000000000002
 31
0.0
  0
SOLID
  5
11F
  8
_MEASURES
 62
     0
 10
42.38918543706486
 20
-1.000000000000001
 30
0.0
 11
42.72251877039819
 21
-1.000000000000001
 31
0.0
 12
42.55585210373152
 22
-2.000000000000001
 32
0.0
 13
42.55585210373152
 23
-2.000000000000001
 33
0.0
  0
SOLID
  5
120
  8
_MEASURES
 62
     0
 10
42.72251877039819
 20
-4.500000000000002
 30
0.0
 11
42.38918543706486
 21
-4.500000000000002
 31
0.0
 12
42.55585210373152
 22
-3.500000000000002
 32
0.0
 13
42.55585210373152
 23
-3.500000000000002
 33
0.0
  0
TEXT
  5
121
  8
_MEASURES
  6
CONTINUOUS
 62
     0
 10
42.28743464124858
 20
-4.167462482946796
 30
0.0
 40
1.0
  1
1.50
 50
90.0
  7
ARIAL
  0
POINT
  5
122
  8
DEFPOINTS
 62
     0
 10
29.83
 20
-2.0
 30
0.0
  0
POINT
  5
123
  8
DEFPOINTS
 62
     0
 10
29.83
 20
-3.500000000000001
 30
0.0
  0
POINT
  5
124
  8
DEFPOINTS
 62
     0
 10
42.55585210373152
 20
-3.500000000000002
 30
0.0
  0
ENDBLK
  5
119
  8
0
  0
BLOCK
  8
0
  2
*D9
 70
     1
 10
0.0
 20
0.0
 30
0.0
  3
*D9
  1

  0
LINE
  5
12A
  8
_MEASURES
 62
     0
 10
12.665
 20
-4.0
 30
0.0
 11
12.665
 21
-6.321580033943651
 31
0.0
  0
LINE
  5
12B
  8
_MEASURES
 62
     0
 10
20.665
 20
-4.0
 30
0.0
 11
20.665
 21
-6.321580033943651
 31
0.0
  0
LINE
  5
12C
  8
_MEASURES
 62
     0
 10
13.665
 20
-5.821580033943651
 30
0.0
 11
19.665
 21
-5.821580033943651
 31
0.0
  0
SOLID
  5
12D
  8
_MEASURES
 62
     0
 10
13.665
 20
-5.654913367276984
 30
0.0
 11
13.665
 21
-5.988246700610318
 31
0.0
 12
12.665
 22
-5.821580033943651
 32
0.0
 13
12.665
 23
-5.821580033943651
 33
0.0
  0
SOLID
  5
12E
  8
_MEASURES
 62
     0
 10
19.665
 20
-5.988246700610318
 30
0.0
 11
19.665
 21
-5.654913367276984
 31
0.0
 12
20.665
 22
-5.821580033943651
 32
0.0
 13
20.665
 23
-5.821580033943651
 33
0.0
  0
TEXT
  5
12F
  8
_MEASURES
  6
CONTINUOUS
 62
     0
 10
15.29528649386085
 20
-5.553162571460705
 30
0.0
 40
1.0
  1
8.00
  7
ARIAL
  0
POINT
  5
130
  8
DEFPOINTS
 62
     0
 10
12.665
 20
-3.5
 30
0.0
  0
POINT
  5
131
  8
DEFPOINTS
 62
     0
 10
20.665
 20
-3.5
 30
0.0
  0
POINT
  5
132
  8
DEFPOINTS
 62
     0
 10
20.665
 20
-5.821580033943651
 30
0.0
  0
ENDBLK
  5
129
  8
0
  0
BLOCK
  8
0
  2
*D10
 70
     1
 10
0.0
 20
0.0
 30
0.0
  3
*D10
  1

  0
LINE
  5
13C
  8
_MEASURES
 62
     0
 10
6.664999999999996
 20
-0.5
 30
0.0
 11
6.664999999999996
 21
-12.30515707008571
 31
0.0
  0
LINE
  5
13D
  8
_MEASURES
 62
     0
 10
16.665
 20
-0.5
 30
0.0
 11
16.665
 21
-12.30515707008571
 31
0.0
  0
LINE
  5
13E
  8
_MEASURES
 62
     0
 10
7.664999999999996
 20
-11.80515707008571
 30
0.0
 11
15.665
 21
-11.80515707008571
 31
0.0
  0
SOLID
  5
13F
  8
_MEASURES
 62
     0
 10
7.664999999999996
 20
-11.63849040341904
 30
0.0
 11
7.664999999999996
 21
-11.97182373675238
 31
0.0
 12
6.664999999999996
 22
-11.80515707008571
 32
0.0
 13
6.664999999999996
 23
-11.80515707008571
 33
0.0
  0
SOLID
  5
140
  8
_MEASURES
 62
     0
 10
15.665
 20
-11.97182373675238
 30
0.0
 11
15.665
 21
-11.63849040341904
 31
0.0
 12
16.665
 22
-11.80515707008571
 32
0.0
 13
16.665
 23
-11.80515707008571
 33
0.0
  0
TEXT
  5
141
  8
_MEASURES
  6
CONTINUOUS
 62
     0
 10
9.858724420190992
 20
-11.53673960760277
 30
0.0
 40
1.0
  1
10.00
  7
ARIAL
  0
POINT
  5
142
  8
DEFPOINTS
 62
     0
 10
6.664999999999996
 20
0.0
 30
0.0
  0
POINT
  5
143
  8
DEFPOINTS
 62
     0
 10
16.665
 20
0.0
 30
0.0
  0
POINT
  5
144
  8
DEFPOINTS
 62
     0
 10
16.665
 20
-11.80515707008571
 30
0.0
  0
ENDBLK
  5
13B
  8
0
  0
BLOCK
  8
0
  2
*D11
 70
     1
 10
0.0
 20
0.0
 30
0.0
  3
*D11
  1

  0
LINE
  5
14D
  8
_MEASURES
 62
     0
 10
11.466
 20
4.0
 30
0.0
 11
11.466
 21
5.000293837417843
 31
0.0
  0
LINE
  5
14E
  8
_MEASURES
 62
     0
 10
21.866
 20
4.0
 30
0.0
 11
21.866
 21
5.000293837417843
 31
0.0
  0
LINE
  5
14F
  8
_MEASURES
 62
     0
 10
12.466
 20
4.500293837417843
 30
0.0
 11
20.866
 21
4.500293837417843
 31
0.0
  0
SOLID
  5
150
  8
_MEASURES
 62
     0
 10
12.466
 20
4.66696050408451
 30
0.0
 11
12.466
 21
4.333627170751176
 31
0.0
 12
11.466
 22
4.500293837417843
 32
0.0
 13
11.466
 23
4.500293837417843
 33
0.0
  0
SOLID
  5
151
  8
_MEASURES
 62
     0
 10
20.866
 20
4.333627170751176
 30
0.0
 11
20.866
 21
4.66696050408451
 31
0.0
 12
21.866
 22
4.500293837417843
 32
0.0
 13
21.866
 23
4.500293837417843
 33
0.0
  0
TEXT
  5
152
  8
_MEASURES
  6
CONTINUOUS
 62
     0
 10
14.859724420191
 20
4.768711299900789
 30
0.0
 40
1.0
  1
10.40
  7
ARIAL
  0
POINT
  5
153
  8
DEFPOINTS
 62
     0
 10
11.466
 20
3.5
 30
0.0
  0
POINT
  5
154
  8
DEFPOINTS
 62
     0
 10
21.866
 20
3.5
 30
0.0
  0
POINT
  5
155
  8
DEFPOINTS
 62
     0
 10
21.866
 20
4.500293837417843
 30
0.0
  0
ENDBLK
  5
14C
  8
0
  0
BLOCK
  8
0
  2
*D12
 70
     1
 10
0.0
 20
0.0
 30
0.0
  3
*D12
  1

  0
LINE
  5
15A
  8
_MEASURES
 62
     0
 10
10.665
 20
10.165
 30
0.0
 11
10.665
 21
12.055924037037
 31
0.0
  0
LINE
  5
15B
  8
_MEASURES
 62
     0
 10
22.665
 20
10.165
 30
0.0
 11
22.665
 21
12.055924037037
 31
0.0
  0
LINE
  5
15C
  8
_MEASURES
 62
     0
 10
11.665
 20
11.555924037037
 30
0.0
 11
21.665
 21
11.555924037037
 31
0.0
  0
SOLID
  5
15D
  8
_MEASURES
 62
     0
 10
11.665
 20
11.72259070370366
 30
0.0
 11
11.665
 21
11.38925737037033
 31
0.0
 12
10.665
 22
11.555924037037
 32
0.0
 13
10.665
 23
11.555924037037
 33
0.0
  0
SOLID
  5
15E
  8
_MEASURES
 62
     0
 10
21.665
 20
11.38925737037033
 30
0.0
 11
21.665
 21
11.72259070370366
 31
0.0
 12
22.665
 22
11.555924037037
 32
0.0
 13
22.665
 23
11.555924037037
 33
0.0
  0
TEXT
  5
15F
  8
_MEASURES
  6
CONTINUOUS
 62
     0
 10
14.85872442019099
 20
11.82434149951994
 30
0.0
 40
1.0
  1
12.00
  7
ARIAL
  0
POINT
  5
160
  8
DEFPOINTS
 62
     0
 10
10.665
 20
9.665000000000001
 30
0.0
  0
POINT
  5
161
  8
DEFPOINTS
 62
     0
 10
22.665
 20
9.665000000000001
 30
0.0
  0
POINT
  5
162
  8
DEFPOINTS
 62
     0
 10
22.665
 20
11.555924037037
 30
0.0
  0
ENDBLK
  5
159
  8
0
  0
BLOCK
  8
0
  2
*D13
 70
     1
 10
0.0
 20
0.0
 30
0.0
  3
*D13
  1

  0
LINE
  5
184
  8
_MEASURES
 62
     0
 10
30.33
 20
96.49000000000001
 30
0.0
 11
118.19
 21
96.49000000000001
 31
0.0
  0
LINE
  5
185
  8
_MEASURES
 62
     0
 10
30.33
 20
3.5
 30
0.0
 11
118.19
 21
3.499999999999995
 31
0.0
  0
LINE
  5
186
  8
_MEASURES
 62
     0
 10
117.69
 20
95.49000000000001
 30
0.0
 11
117.69
 21
4.499999999999995
 31
0.0
  0
SOLID
  5
187
  8
_MEASURES
 62
     0
 10
117.8566666666667
 20
95.49000000000001
 30
0.0
 11
117.5233333333333
 21
95.49000000000001
 31
0.0
 12
117.69
 22
96.49000000000001
 32
0.0
 13
117.69
 23
96.49000000000001
 33
0.0
  0
SOLID
  5
188
  8
_MEASURES
 62
     0
 10
117.5233333333333
 20
4.499999999999995
 30
0.0
 11
117.8566666666667
 21
4.499999999999995
 31
0.0
 12
117.69
 22
3.499999999999995
 32
0.0
 13
117.69
 23
3.499999999999995
 33
0.0
  0
TEXT
  5
189
  8
_MEASURES
  6
CONTINUOUS
 62
     0
 10
117.4215825375171
 20
48.23306275579809
 30
0.0
 40
1.0
  1
92.99
 50
90.0
  7
ARIAL
  0
POINT
  5
18A
  8
DEFPOINTS
 62
     0
 10
29.83
 20
96.49000000000001
 30
0.0
  0
POINT
  5
18B
  8
DEFPOINTS
 62
     0
 10
29.83
 20
3.5
 30
0.0
  0
POINT
  5
18C
  8
DEFPOINTS
 62
     0
 10
117.69
 20
3.499999999999995
 30
0.0
  0
ENDBLK
  5
183
  8
0
  0
BLOCK
  8
0
  2
*D14
 70
     1
 10
0.0
 20
0.0
 30
0.0
  3
*D14
  1

  0
LINE
  5
192
  8
_MEASURES
 62
     0
 10
33.33
 20
100.49
 30
0.0
 11
33.33
 21
102.73
 31
0.0
  0
LINE
  5
193
  8
_MEASURES
 62
     0
 10
36.83
 20
100.49
 30
0.0
 11
36.83
 21
102.73
 31
0.0
  0
LINE
  5
194
  8
_MEASURES
 62
     0
 10
34.33
 20
102.23
 30
0.0
 11
35.83
 21
102.23
 31
0.0
  0
SOLID
  5
195
  8
_MEASURES
 62
     0
 10
34.33
 20
102.3966666666667
 30
0.0
 11
34.33
 21
102.0633333333333
 31
0.0
 12
33.33
 22
102.23
 32
0.0
 13
33.33
 23
102.23
 33
0.0
  0
SOLID
  5
196
  8
_MEASURES
 62
     0
 10
35.83
 20
102.0633333333333
 30
0.0
 11
35.83
 21
102.3966666666667
 31
0.0
 12
36.83
 22
102.23
 32
0.0
 13
36.83
 23
102.23
 33
0.0
  0
TEXT
  5
197
  8
_MEASURES
  6
CONTINUOUS
 62
     0
 10
33.70960436562073
 20
102.4984174624829
 30
0.0
 40
1.0
  1
3.50
  7
ARIAL
  0
POINT
  5
198
  8
DEFPOINTS
 62
     0
 10
33.33
 20
99.99000000000001
 30
0.0
  0
POINT
  5
199
  8
DEFPOINTS
 62
     0
 10
36.83
 20
99.99000000000001
 30
0.0
  0
POINT
  5
19A
  8
DEFPOINTS
 62
     0
 10
36.83
 20
102.23
 30
0.0
  0
ENDBLK
  5
191
  8
0
  0
BLOCK
  8
0
  2
*D15
 70
     1
 10
0.0
 20
0.0
 30
0.0
  3
*D15
  1

  0
LINE
  5
19F
  8
_MEASURES
 62
     0
 10
37.33
 20
403.46
 30
0.0
 11
118.35
 21
403.46
 31
0.0
  0
LINE
  5
1A0
  8
_MEASURES
 62
     0
 10
37.33
 20
133.32
 30
0.0
 11
118.35
 21
133.32
 31
0.0
  0
LINE
  5
1A1
  8
_MEASURES
 62
     0
 10
117.85
 20
402.46
 30
0.0
 11
117.85
 21
134.32
 31
0.0
  0
SOLID
  5
1A2
  8
_MEASURES
 62
     0
 10
118.0166666666667
 20
402.46
 30
0.0
 11
117.6833333333333
 21
402.46
 31
0.0
 12
117.85
 22
403.46
 32
0.0
 13
117.85
 23
403.46
 33
0.0
  0
SOLID
  5
1A3
  8
_MEASURES
 62
     0
 10
117.6833333333333
 20
134.32
 30
0.0
 11
118.0166666666667
 21
134.32
 31
0.0
 12
117.85
 22
133.32
 32
0.0
 13
117.85
 23
133.32
 33
0.0
  0
TEXT
  5
1A4
  8
_MEASURES
  6
CONTINUOUS
 62
     0
 10
117.5815825375171
 20
266.252210095498
 30
0.0
 40
1.0
  1
270.14
 50
90.0
  7
ARIAL
  0
POINT
  5
1A5
  8
DEFPOINTS
 62
     0
 10
36.83
 20
403.46
 30
0.0
  0
POINT
  5
1A6
  8
DEFPOINTS
 62
     0
 10
36.83
 20
133.32
 30
0.0
  0
POINT
  5
1A7
  8
DEFPOINTS
 62
     0
 10
117.85
 20
133.32
 30
0.0
  0
ENDBLK
  5
19E
  8
0
  0
BLOCK
  8
0
  2
*D16
 70
     1
 10
0.0
 20
0.0
 30
0.0
  3
*D16
  1

  0
LINE
  5
1BA
  8
_MEASURES
 62
     0
 10
11.466
 20
363.6300000000001
 30
0.0
 11
11.466
 21
366.8800000000001
 31
0.0
  0
LINE
  5
1BB
  8
_MEASURES
 62
     0
 10
21.866
 20
363.6300000000001
 30
0.0
 11
21.866
 21
366.8800000000001
 31
0.0
  0
LINE
  5
1BC
  8
_MEASURES
 62
     0
 10
12.466
 20
366.3800000000001
 30
0.0
 11
20.866
 21
366.3800000000001
 31
0.0
  0
SOLID
  5
1BD
  8
_MEASURES
 62
     0
 10
12.466
 20
366.5466666666667
 30
0.0
 11
12.466
 21
366.2133333333334
 31
0.0
 12
11.466
 22
366.3800000000001
 32
0.0
 13
11.466
 23
366.3800000000001
 33
0.0
  0
SOLID
  5
1BE
  8
_MEASURES
 62
     0
 10
20.866
 20
366.2133333333334
 30
0.0
 11
20.866
 21
366.5466666666667
 31
0.0
 12
21.866
 22
366.3800000000001
 32
0.0
 13
21.866
 23
366.3800000000001
 33
0.0
  0
TEXT
  5
1BF
  8
_MEASURES
  6
CONTINUOUS
 62
     0
 10
14.859724420191
 20
366.6484174624829
 30
0.0
 40
1.0
  1
10.40
  7
ARIAL
  0
POINT
  5
1C0
  8
DEFPOINTS
 62
     0
 10
11.466
 20
363.1300000000001
 30
0.0
  0
POINT
  5
1C1
  8
DEFPOINTS
 62
     0
 10
21.866
 20
363.1300000000001
 30
0.0
  0
POINT
  5
1C2
  8
DEFPOINTS
 62
     0
 10
21.866
 20
366.3800000000001
 30
0.0
  0
ENDBLK
  5
1B9
  8
0
  0
BLOCK
  8
0
  2
*D17
 70
     1
 10
0.0
 20
0.0
 30
0.0
  3
*D17
  1

  0
LINE
  5
1D7
  8
_MEASURES
 62
     0
 10
-0.5
 20
399.96
 30
0.0
 11
-43.69999999999998
 21
399.96
 31
0.0
  0
LINE
  5
1D8
  8
_MEASURES
 62
     0
 10
-0.5
 20
99.99000000000001
 30
0.0
 11
-43.7
 21
99.99000000000001
 31
0.0
  0
LINE
  5
1D9
  8
_MEASURES
 62
     0
 10
-43.19999999999998
 20
398.96
 30
0.0
 11
-43.2
 21
100.99
 31
0.0
  0
SOLID
  5
1DA
  8
_MEASURES
 62
     0
 10
-43.03333333333332
 20
398.96
 30
0.0
 11
-43.36666666666665
 21
398.96
 31
0.0
 12
-43.19999999999998
 22
399.96
 32
0.0
 13
-43.19999999999998
 23
399.96
 33
0.0
  0
SOLID
  5
1DB
  8
_MEASURES
 62
     0
 10
-43.36666666666667
 20
100.99
 30
0.0
 11
-43.03333333333334
 21
100.99
 31
0.0
 12
-43.2
 22
99.99000000000001
 32
0.0
 13
-43.2
 23
99.99000000000001
 33
0.0
  0
TEXT
  5
1DC
  8
_MEASURES
  6
CONTINUOUS
 62
     0
 10
-43.46841746248296
 20
247.8351637107776
 30
0.0
 40
1.0
  1
299.97
 50
90.0
  7
ARIAL
  0
POINT
  5
1DD
  8
DEFPOINTS
 62
     0
 10
0.0
 20
399.96
 30
0.0
  0
POINT
  5
1DE
  8
DEFPOINTS
 62
     0
 10
0.0
 20
99.99000000000001
 30
0.0
  0
POINT
  5
1DF
  8
DEFPOINTS
 62
     0
 10
-43.2
 20
99.99000000000001
 30
0.0
  0
ENDBLK
  5
1D6
  8
0
  0
BLOCK
  8
0
  2
*D18
 70
     1
 10
0.0
 20
0.0
 30
0.0
  3
*D18
  1

  0
LINE
  5
20F
  8
_MEASURES
 62
     0
 10
22.866
 20
367.8
 30
0.0
 11
22.866
 21
376.52
 31
0.0
  0
LINE
  5
210
  8
_MEASURES
 62
     0
 10
10.466
 20
367.8
 30
0.0
 11
10.466
 21
376.52
 31
0.0
  0
LINE
  5
211
  8
_MEASURES
 62
     0
 10
21.866
 20
376.02
 30
0.0
 11
11.466
 21
376.02
 31
0.0
  0
SOLID
  5
212
  8
_MEASURES
 62
     0
 10
21.866
 20
375.8533333333333
 30
0.0
 11
21.866
 21
376.1866666666667
 31
0.0
 12
22.866
 22
376.02
 32
0.0
 13
22.866
 23
376.02
 33
0.0
  0
SOLID
  5
213
  8
_MEASURES
 62
     0
 10
11.466
 20
376.1866666666667
 30
0.0
 11
11.466
 21
375.8533333333333
 31
0.0
 12
10.466
 22
376.02
 32
0.0
 13
10.466
 23
376.02
 33
0.0
  0
TEXT
  5
214
  8
_MEASURES
  6
CONTINUOUS
 62
     0
 10
14.859724420191
 20
376.2884174624829
 30
0.0
 40
1.0
  1
12.40
  7
ARIAL
  0
POINT
  5
215
  8
DEFPOINTS
 62
     0
 10
22.866
 20
367.3
 30
0.0
  0
POINT
  5
216
  8
DEFPOINTS
 62
     0
 10
10.466
 20
367.3
 30
0.0
  0
POINT
  5
217
  8
DEFPOINTS
 62
     0
 10
10.466
 20
376.02
 30
0.0
  0
ENDBLK
  5
20E
  8
0
  0
BLOCK
  8
0
  2
*D19
 70
     1
 10
0.0
 20
0.0
 30
0.0
  3
*D19
  1

  0
LINE
  5
230
  8
_MEASURES
 62
     0
 10
30.33
 20
129.82
 30
0.0
 11
48.48
 21
129.82
 31
0.0
  0
LINE
  5
231
  8
_MEASURES
 62
     0
 10
30.33
 20
103.49
 30
0.0
 11
48.48
 21
103.49
 31
0.0
  0
LINE
  5
232
  8
_MEASURES
 62
     0
 10
47.98
 20
128.82
 30
0.0
 11
47.98
 21
104.49
 31
0.0
  0
SOLID
  5
233
  8
_MEASURES
 62
     0
 10
48.14666666666667
 20
128.82
 30
0.0
 11
47.81333333333334
 21
128.82
 31
0.0
 12
47.98
 22
129.82
 32
0.0
 13
47.98
 23
129.82
 33
0.0
  0
SOLID
  5
234
  8
_MEASURES
 62
     0
 10
47.81333333333334
 20
104.49
 30
0.0
 11
48.14666666666667
 21
104.49
 31
0.0
 12
47.98
 22
103.49
 32
0.0
 13
47.98
 23
103.49
 33
0.0
  0
TEXT
  5
235
  8
_MEASURES
  6
CONTINUOUS
 62
     0
 10
47.71158253751705
 20
114.9039768076399
 30
0.0
 40
1.0
  1
26.33
 50
90.0
  7
ARIAL
  0
POINT
  5
236
  8
DEFPOINTS
 62
     0
 10
29.83
 20
129.82
 30
0.0
  0
POINT
  5
237
  8
DEFPOINTS
 62
     0
 10
29.83
 20
103.49
 30
0.0
  0
POINT
  5
238
  8
DEFPOINTS
 62
     0
 10
47.98
 20
103.49
 30
0.0
  0
ENDBLK
  5
22F
  8
0
  0
BLOCK
  8
0
  2
*D20
 70
     1
 10
0.0
 20
0.0
 30
0.0
  3
*D20
  1

  0
LINE
  5
23D
  8
_MEASURES
 62
     0
 10
30.33
 20
103.49
 30
0.0
 11
48.48
 21
103.49
 31
0.0
  0
LINE
  5
23E
  8
_MEASURES
 62
     0
 10
30.33
 20
96.49000000000001
 30
0.0
 11
48.48
 21
96.49000000000001
 31
0.0
  0
LINE
  5
23F
  8
_MEASURES
 62
     0
 10
47.98
 20
102.49
 30
0.0
 11
47.98
 21
97.49000000000001
 31
0.0
  0
SOLID
  5
240
  8
_MEASURES
 62
     0
 10
48.14666666666667
 20
102.49
 30
0.0
 11
47.81333333333334
 21
102.49
 31
0.0
 12
47.98
 22
103.49
 32
0.0
 13
47.98
 23
103.49
 33
0.0
  0
SOLID
  5
241
  8
_MEASURES
 62
     0
 10
47.81333333333334
 20
97.49000000000001
 30
0.0
 11
48.14666666666667
 21
97.49000000000001
 31
0.0
 12
47.98
 22
96.49000000000001
 32
0.0
 13
47.98
 23
96.49000000000001
 33
0.0
  0
TEXT
  5
242
  8
_MEASURES
  6
CONTINUOUS
 62
     0
 10
47.71158253751706
 20
98.6161937244202
 30
0.0
 40
1.0
  1
7.00
 50
90.0
  7
ARIAL
  0
POINT
  5
243
  8
DEFPOINTS
 62
     0
 10
29.83
 20
103.49
 30
0.0
  0
POINT
  5
244
  8
DEFPOINTS
 62
     0
 10
29.83
 20
96.49000000000001
 30
0.0
  0
POINT
  5
245
  8
DEFPOINTS
 62
     0
 10
47.98
 20
96.49000000000001
 30
0.0
  0
ENDBLK
  5
23C
  8
0
  0
BLOCK
  8
0
  2
*D21
 70
     1
 10
0.0
 20
0.0
 30
0.0
  3
*D21
  1

  0
LINE
  5
24A
  8
_MEASURES
 62
     0
 10
29.83
 20
3.0
 30
0.0
 11
29.83
 21
-34.01
 31
0.0
  0
LINE
  5
24B
  8
_MEASURES
 62
     0
 10
36.83
 20
3.0
 30
0.0
 11
36.83
 21
-34.01
 31
0.0
  0
LINE
  5
24C
  8
_MEASURES
 62
     0
 10
30.83
 20
-33.51
 30
0.0
 11
35.83
 21
-33.51
 31
0.0
  0
SOLID
  5
24D
  8
_MEASURES
 62
     0
 10
30.83
 20
-33.34333333333333
 30
0.0
 11
30.83
 21
-33.67666666666666
 31
0.0
 12
29.83
 22
-33.51
 32
0.0
 13
29.83
 23
-33.51
 33
0.0
  0
SOLID
  5
24E
  8
_MEASURES
 62
     0
 10
35.83
 20
-33.67666666666666
 30
0.0
 11
35.83
 21
-33.34333333333333
 31
0.0
 12
36.83
 22
-33.51
 32
0.0
 13
36.83
 23
-33.51
 33
0.0
  0
TEXT
  5
24F
  8
_MEASURES
  6
CONTINUOUS
 62
     0
 10
31.95619372442019
 20
-33.24158253751705
 30
0.0
 40
1.0
  1
7.00
  7
ARIAL
  0
POINT
  5
250
  8
DEFPOINTS
 62
     0
 10
29.83
 20
3.5
 30
0.0
  0
POINT
  5
251
  8
DEFPOINTS
 62
     0
 10
36.83
 20
3.5
 30
0.0
  0
POINT
  5
252
  8
DEFPOINTS
 62
     0
 10
36.83
 20
-33.51
 30
0.0
  0
ENDBLK
  5
249
  8
0
  0
BLOCK
  8
0
  2
*D22
 70
     1
 10
0.0
 20
0.0
 30
0.0
  3
*D22
  1

  0
LINE
  5
257
  8
_MEASURES
 62
     0
 10
-3.5
 20
-4.0
 30
0.0
 11
-3.5
 21
-58.96
 31
0.0
  0
LINE
  5
258
  8
_MEASURES
 62
     0
 10
36.83
 20
-4.0
 30
0.0
 11
36.83
 21
-58.96
 31
0.0
  0
LINE
  5
259
  8
_MEASURES
 62
     0
 10
-2.5
 20
-58.46
 30
0.0
 11
35.83
 21
-58.46
 31
0.0
  0
SOLID
  5
25A
  8
_MEASURES
 62
     0
 10
-2.5
 20
-58.29333333333334
 30
0.0
 11
-2.5
 21
-58.62666666666667
 31
0.0
 12
-3.5
 22
-58.46
 32
0.0
 13
-3.5
 23
-58.46
 33
0.0
  0
SOLID
  5
25B
  8
_MEASURES
 62
     0
 10
35.83
 20
-58.62666666666667
 30
0.0
 11
35.83
 21
-58.29333333333334
 31
0.0
 12
36.83
 22
-58.46
 32
0.0
 13
36.83
 23
-58.46
 33
0.0
  0
TEXT
  5
25C
  8
_MEASURES
  6
CONTINUOUS
 62
     0
 10
14.92557298772169
 20
-58.19158253751705
 30
0.0
 40
1.0
  1
40.33
  7
ARIAL
  0
POINT
  5
25D
  8
DEFPOINTS
 62
     0
 10
-3.5
 20
-3.5
 30
0.0
  0
POINT
  5
25E
  8
DEFPOINTS
 62
     0
 10
36.83
 20
-3.5
 30
0.0
  0
POINT
  5
25F
  8
DEFPOINTS
 62
     0
 10
36.83
 20
-58.46
 30
0.0
  0
ENDBLK
  5
256
  8
0
  0
BLOCK
  8
0
  2
*D23
 70
     1
 10
0.0
 20
0.0
 30
0.0
  3
*D23
  1

  0
LINE
  5
264
  8
_MEASURES
 62
     0
 10
37.33
 20
-3.5
 30
0.0
 11
68.84999999999997
 21
-3.5
 31
0.0
  0
LINE
  5
265
  8
_MEASURES
 62
     0
 10
37.33
 20
403.46
 30
0.0
 11
68.85
 21
403.46
 31
0.0
  0
LINE
  5
266
  8
_MEASURES
 62
     0
 10
68.34999999999997
 20
-2.5
 30
0.0
 11
68.35
 21
402.46
 31
0.0
  0
SOLID
  5
267
  8
_MEASURES
 62
     0
 10
68.1833333333333
 20
-2.5
 30
0.0
 11
68.51666666666664
 21
-2.5
 31
0.0
 12
68.34999999999997
 22
-3.5
 32
0.0
 13
68.34999999999997
 23
-3.5
 33
0.0
  0
SOLID
  5
268
  8
_MEASURES
 62
     0
 10
68.51666666666667
 20
402.46
 30
0.0
 11
68.18333333333332
 21
402.46
 31
0.0
 12
68.35
 22
403.46
 32
0.0
 13
68.35
 23
403.46
 33
0.0
  0
TEXT
  5
269
  8
_MEASURES
  6
CONTINUOUS
 62
     0
 10
68.08158253751702
 20
197.8517598908595
 30
0.0
 40
1.0
  1
406.96
 50
90.0
  7
ARIAL
  0
POINT
  5
26A
  8
DEFPOINTS
 62
     0
 10
36.83
 20
-3.5
 30
0.0
  0
POINT
  5
26B
  8
DEFPOINTS
 62
     0
 10
36.83
 20
403.46
 30
0.0
  0
POINT
  5
26C
  8
DEFPOINTS
 62
     0
 10
68.35
 20
403.46
 30
0.0
  0
ENDBLK
  5
263
  8
0
  0
BLOCK
  8
0
  2
*D24
 70
     1
 10
0.0
 20
0.0
 30
0.0
  3
*D24
  1

  0
LINE
  5
297
  8
_MEASURES
 62
     0
 10
3.5
 20
3.0
 30
0.0
 11
3.5
 21
-25.34
 31
0.0
  0
LINE
  5
298
  8
_MEASURES
 62
     0
 10
29.83
 20
3.0
 30
0.0
 11
29.83
 21
-25.34
 31
0.0
  0
LINE
  5
299
  8
_MEASURES
 62
     0
 10
4.5
 20
-24.84
 30
0.0
 11
28.83
 21
-24.84
 31
0.0
  0
SOLID
  5
29A
  8
_MEASURES
 62
     0
 10
4.5
 20
-24.67333333333333
 30
0.0
 11
4.5
 21
-25.00666666666667
 31
0.0
 12
3.5
 22
-24.84
 32
0.0
 13
3.5
 23
-24.84
 33
0.0
  0
SOLID
  5
29B
  8
_MEASURES
 62
     0
 10
28.83
 20
-25.00666666666667
 30
0.0
 11
28.83
 21
-24.67333333333333
 31
0.0
 12
29.83
 22
-24.84
 32
0.0
 13
29.83
 23
-24.84
 33
0.0
  0
TEXT
  5
29C
  8
_MEASURES
  6
CONTINUOUS
 62
     0
 10
14.91397680763983
 20
-24.57158253751705
 30
0.0
 40
1.0
  1
26.33
  7
ARIAL
  0
POINT
  5
29D
  8
DEFPOINTS
 62
     0
 10
3.5
 20
3.5
 30
0.0
  0
POINT
  5
29E
  8
DEFPOINTS
 62
     0
 10
29.83
 20
3.5
 30
0.0
  0
POINT
  5
29F
  8
DEFPOINTS
 62
     0
 10
29.83
 20
-24.84
 30
0.0
  0
ENDBLK
  5
296
  8
0
  0
ENDSEC
  0
SECTION
  2
ENTITIES
  0
DIMENSION
  5
71
  8
_MEASURES
  2
*D1
 10
20.665
 20
-3.499999999999997
 30
0.0
 11
19.90476807639836
 21
-0.9799999999999991
 31
0.0
 70
    32
  1
<>
  3
DEFAULT
 13
16.665
 23
1.539999999999999
 33
0.0
 14
16.665
 24
-3.499999999999996
 34
0.0
 50
90.0
  0
DIMENSION
  5
7F
  8
_MEASURES
  2
*D2
 10
13.72286542121786
 20
22.83000000000001
 30
0.0
 11
12.96263349761622
 21
20.30503351672866
 31
0.0
 70
    32
  1
<>
  3
DEFAULT
 13
7.872865421217861
 23
17.78006703345731
 33
0.0
 14
7.872865421217861
 24
22.83000000000001
 34
0.0
 50
90.0
  0
ARC
  5
8D
  8
FIXING
 10
16.665
 20
12.04
 30
0.0
 40
10.5
 50
146.8609316222599
 51
33.13906837774017
  0
LINE
  5
8E
  8
FIXING
 10
7.872865421217861
 20
17.78006703345732
 30
0.0
 11
25.45713457878215
 21
17.78006703345732
 31
0.0
  0
ARC
  5
8F
  8
FIXING
 10
16.665
 20
6.040000000000001
 30
0.0
 40
1.5
 50
180.0
 51
0.0
  0
LINE
  5
90
  8
FIXING
 10
18.165
 20
6.040000000000001
 30
0.0
 11
18.165
 21
9.441923788646136
 31
0.0
  0
ARC
  5
91
  8
FIXING
 10
16.665
 20
12.04
 30
0.0
 40
3.0
 50
300.0000000000025
 51
330.0000000000047
  0
LINE
  5
92
  8
FIXING
 10
19.26307621135344
 20
10.54000000000021
 30
0.0
 11
22.665
 21
10.54
 31
0.0
  0
ARC
  5
93
  8
FIXING
 10
22.665
 20
12.04
 30
0.0
 40
1.5
 50
270.0
 51
90.0
  0
LINE
  5
94
  8
FIXING
 10
22.665
 20
13.54
 30
0.0
 11
19.26307621135343
 21
13.53999999999979
 31
0.0
  0
ARC
  5
95
  8
FIXING
 10
16.665
 20
12.04
 30
0.0
 40
3.0
 50
29.9999999999955
 51
150.000000000004
  0
LINE
  5
96
  8
FIXING
 10
14.06692378864658
 20
13.53999999999982
 30
0.0
 11
10.665
 21
13.54
 31
0.0
  0
ARC
  5
97
  8
FIXING
 10
10.665
 20
12.04
 30
0.0
 40
1.5
 50
90.0
 51
270.0
  0
LINE
  5
98
  8
FIXING
 10
10.665
 20
10.54
 30
0.0
 11
14.06692378864658
 21
10.54000000000018
 31
0.0
  0
ARC
  5
99
  8
FIXING
 10
16.665
 20
12.04
 30
0.0
 40
3.0
 50
209.9999999999959
 51
239.9999999999981
  0
LINE
  5
9A
  8
FIXING
 10
15.16499999999991
 20
9.441923788646733
 30
0.0
 11
15.165
 21
6.040000000000001
 31
0.0
  0
DIMENSION
  5
9B
  8
_MEASURES
  2
*D3
 10
29.83
 20
40.65282682716951
 30
0.0
 11
16.665
 21
41.41305875077114
 31
0.0
 70
    32
  1
<>
  3
DEFAULT
 13
3.5
 23
22.83
 33
0.0
 14
29.83
 24
22.83
 34
0.0
  0
DIMENSION
  5
A8
  8
_MEASURES
  2
*D4
 10
-9.7
 20
-3.5
 30
0.0
 11
-10.46023192360164
 21
9.665
 31
0.0
 70
    32
  1
<>
  3
DEFAULT
 13
-3.5
 23
22.83
 33
0.0
 14
-3.5
 24
-3.5
 34
0.0
 50
90.0
  0
LINE
  5
B6
  8
_CONSTRUCTIONS
 10
-3.5
 20
22.83
 30
0.0
 11
-3.5
 21
27.83
 31
0.0
  0
LINE
  5
B7
  8
_CONSTRUCTIONS
 10
24.165
 20
9.665000000000001
 30
0.0
 11
27.165
 21
9.665000000000001
 31
0.0
  0
DIMENSION
  5
B8
  8
_MEASURES
  2
*D5
 10
-4.99
 20
-3.500000000000001
 30
0.0
 11
-5.750231923601637
 21
-2.749999999999989
 31
0.0
 70
    32
  1
<>
  3
DEFAULT
 13
3.5
 23
-1.999999999999978
 33
0.0
 14
3.5
 24
-3.500000000000002
 34
0.0
 50
90.0
  0
CIRCLE
  5
C8
  8
ENGRAVE-SCREWS
 10
33.33
 20
399.96
 30
0.0
 40
2.1
  0
CIRCLE
  5
C9
  8
ENGRAVE-SCREWS
 10
0.0
 20
399.96
 30
0.0
 40
2.1
  0
CIRCLE
  5
CA
  8
ENGRAVE-SCREWS
 10
33.33
 20
299.97
 30
0.0
 40
2.1
  0
CIRCLE
  5
CB
  8
ENGRAVE-SCREWS
 10
0.0
 20
299.97
 30
0.0
 40
2.1
  0
CIRCLE
  5
CC
  8
ENGRAVE-SCREWS
 10
0.0
 20
199.98
 30
0.0
 40
2.1
  0
CIRCLE
  5
CD
  8
ENGRAVE-SCREWS
 10
33.33
 20
199.98
 30
0.0
 40
2.1
  0
CIRCLE
  5
CE
  8
ENGRAVE-SCREWS
 10
33.33
 20
99.99000000000001
 30
0.0
 40
2.1
  0
CIRCLE
  5
CF
  8
ENGRAVE-SCREWS
 10
0.0
 20
99.99000000000001
 30
0.0
 40
2.1
  0
CIRCLE
  5
D0
  8
ENGRAVE-SCREWS
 10
26.665
 20
0.0
 30
0.0
 40
2.1
  0
CIRCLE
  5
D1
  8
ENGRAVE-SCREWS
 10
6.664999999999996
 20
0.0
 30
0.0
 40
2.1
  0
POINT
  5
D3
  8
_POINTS
 10
26.665
 20
0.0
 30
0.0
  0
POINT
  5
D4
  8
_POINTS
 10
6.664999999999996
 20
0.0
 30
0.0
  0
CIRCLE
  5
D5
  8
ENGRAVE-SCREWS
 10
0.0
 20
0.0
 30
0.0
 40
2.1
  0
CIRCLE
  5
D6
  8
ENGRAVE-SCREWS
 10
33.33
 20
0.0
 30
0.0
 40
2.1
  0
DIMENSION
  5
D7
  8
_MEASURES
  2
*D6
 10
35.23
 20
-3.05
 30
0.0
 11
34.28
 21
-2.289768076398363
 31
0.0
 70
    32
  1
<>
  3
DEFAULT
 13
33.33
 23
0.0
 33
0.0
 14
35.23
 24
0.0
 34
0.0
  0
LINE
  5
E7
  8
FIXING_BORDER
 10
-3.5
 20
-3.5
 30
0.0
 11
36.83
 21
-3.5
 31
0.0
  0
LINE
  5
E8
  8
FIXING_BORDER
 10
36.83
 20
-3.5
 30
0.0
 11
36.83
 21
22.83
 31
0.0
  0
LINE
  5
E9
  8
FIXING_BORDER
 10
36.83
 20
22.83
 30
0.0
 11
-3.5
 21
22.83
 31
0.0
  0
LINE
  5
EA
  8
FIXING_BORDER
 10
-3.5
 20
22.83
 30
0.0
 11
-3.5
 21
-3.5
 31
0.0
  0
LINE
  5
EC
  8
USB_OPENING
 10
20.665
 20
-2.0
 30
0.0
 11
20.665
 21
-3.5
 31
0.0
  0
LINE
  5
ED
  8
USB_OPENING
 10
12.665
 20
-2.0
 30
0.0
 11
12.665
 21
-3.5
 31
0.0
  0
LINE
  5
EF
  8
GRID_PCB_EX
 10
3.5
 20
-1.999999999999978
 30
0.0
 11
29.82999999999999
 21
-1.999999999999978
 31
0.0
  0
LINE
  5
F0
  8
GRID_PCB_EX
 10
29.82999999999999
 20
-1.999999999999978
 30
0.0
 11
29.82999999999999
 21
96.49000000000001
 31
0.0
  0
LINE
  5
F1
  8
GRID_PCB_EX
 10
29.82999999999999
 20
96.49000000000001
 30
0.0
 11
3.5
 21
96.49000000000001
 31
0.0
  0
LINE
  5
F2
  8
GRID_PCB_EX
 10
3.5
 20
96.49000000000001
 30
0.0
 11
3.5
 21
-1.999999999999978
 31
0.0
  0
LINE
  5
F3
  8
_CONSTRUCTIONS
 10
0.0
 20
66.66
 30
0.0
 11
48.93086104326527
 21
66.66
 31
0.0
  0
LINE
  5
F4
  8
_CONSTRUCTIONS
 10
48.93086104326527
 20
66.66
 30
0.0
 11
-17.3601948605051
 21
66.66
 31
0.0
  0
LINE
  5
F5
  8
_CONSTRUCTIONS
 10
0.0
 20
33.33
 30
0.0
 11
0.0
 21
-10.0
 31
0.0
  0
LINE
  5
F6
  8
_CONSTRUCTIONS
 10
0.0
 20
33.33
 30
0.0
 11
57.95705735161881
 21
33.33
 31
0.0
  0
LINE
  5
F7
  8
_CONSTRUCTIONS
 10
57.95705735161881
 20
33.33
 30
0.0
 11
-17.48348164840441
 21
33.33
 31
0.0
  0
CIRCLE
  5
F9
  8
SCREWS-PIR
 10
16.66597463097043
 20
93.49000000000001
 30
0.0
 40
1.0
  0
CIRCLE
  5
FA
  8
SCREWS-PIR
 10
16.66597463097043
 20
65.49000000000001
 30
0.0
 40
1.0
  0
POINT
  5
FB
  8
_POINTS
 10
16.66597463097043
 20
93.49000000000001
 30
0.0
  0
POINT
  5
FC
  8
_POINTS
 10
16.66597463097043
 20
65.49000000000001
 30
0.0
  0
LINE
  5
FE
  8
LED_STRIP10
 10
3.5
 20
116.655
 30
0.0
 11
29.83
 21
116.655
 31
0.0
  0
LINE
  5
FF
  8
LED_STRIP10
 10
3.5
 20
149.985
 30
0.0
 11
29.83
 21
149.985
 31
0.0
  0
LINE
  5
100
  8
LED_STRIP10
 10
3.5
 20
183.315
 30
0.0
 11
29.83
 21
183.315
 31
0.0
  0
LINE
  5
101
  8
LED_STRIP10
 10
3.5
 20
216.645
 30
0.0
 11
29.83
 21
216.645
 31
0.0
  0
LINE
  5
102
  8
LED_STRIP10
 10
3.5
 20
249.975
 30
0.0
 11
29.83
 21
249.975
 31
0.0
  0
LINE
  5
103
  8
LED_STRIP10
 10
3.5
 20
283.3050000000001
 30
0.0
 11
29.83
 21
283.3050000000001
 31
0.0
  0
LINE
  5
104
  8
LED_STRIP10
 10
3.5
 20
316.635
 30
0.0
 11
29.83
 21
316.635
 31
0.0
  0
LINE
  5
105
  8
LED_STRIP10
 10
3.5
 20
349.965
 30
0.0
 11
29.83
 21
349.965
 31
0.0
  0
LINE
  5
106
  8
LED_STRIP10
 10
3.5
 20
383.2950000000001
 30
0.0
 11
29.83
 21
383.2950000000001
 31
0.0
  0
DIMENSION
  5
107
  8
_MEASURES
  2
*D7
 10
5.31597463097043
 20
66.14102120507684
 30
0.0
 11
16.66597463097043
 21
66.90125312867848
 31
0.0
 70
    32
  1
<>
  3
DEFAULT
 13
28.01597463097043
 23
79.49000000000001
 33
0.0
 14
5.31597463097043
 24
79.49000000000001
 34
0.0
  0
CIRCLE
  5
115
  8
PIR
 10
16.66597463097043
 20
79.49000000000001
 30
0.0
 40
11.35
  0
DIMENSION
  5
116
  8
_MEASURES
  2
*D8
 10
42.55585210373152
 20
-3.500000000000002
 30
0.0
 11
41.79562018012989
 21
-2.750000000000001
 31
0.0
 70
    32
  1
<>
  3
DEFAULT
 13
29.83
 23
-2.0
 33
0.0
 14
29.83
 24
-3.500000000000001
 34
0.0
 50
90.0
  0
LINE
  5
125
  8
_CONSTRUCTIONS
 10
26.665
 20
0.0
 30
0.0
 11
26.665
 21
-2.0
 31
0.0
  0
DIMENSION
  5
126
  8
_MEASURES
  2
*D9
 10
20.665
 20
-5.821580033943651
 30
0.0
 11
16.665
 21
-5.061348110342014
 31
0.0
 70
    32
  1
<>
  3
DEFAULT
 13
12.665
 23
-3.5
 33
0.0
 14
20.665
 24
-3.5
 34
0.0
  0
LINE
  5
133
  8
_CONSTRUCTIONS
 10
16.665
 20
-3.5
 30
0.0
 11
12.665
 21
-3.5
 31
0.0
  0
LINE
  5
134
  8
_CONSTRUCTIONS
 10
16.665
 20
-3.5
 30
0.0
 11
20.665
 21
-3.5
 31
0.0
  0
CIRCLE
  5
136
  8
SCREWS-PCB
 10
26.665
 20
0.0
 30
0.0
 40
1.0
  0
CIRCLE
  5
137
  8
SCREWS-PCB
 10
6.664999999999996
 20
0.0
 30
0.0
 40
1.0
  0
DIMENSION
  5
138
  8
_MEASURES
  2
*D10
 10
16.665
 20
-11.80515707008571
 30
0.0
 11
11.665
 21
-11.04492514648407
 31
0.0
 70
    32
  1
<>
  3
DEFAULT
 13
6.664999999999996
 23
0.0
 33
0.0
 14
16.665
 24
0.0
 34
0.0
  0
LINE
  5
145
  8
_CONSTRUCTIONS
 10
16.665
 20
0.0
 30
0.0
 11
6.664999999999996
 21
0.0
 31
0.0
  0
LINE
  5
146
  8
_CONSTRUCTIONS
 10
16.665
 20
0.0
 30
0.0
 11
26.665
 21
0.0
 31
0.0
  0
LINE
  5
147
  8
_CONSTRUCTIONS
 10
29.83
 20
3.5
 30
0.0
 11
29.83
 21
-6.178991147636008
 31
0.0
  0
LINE
  5
148
  8
_CONSTRUCTIONS
 10
0.0
 20
0.0
 30
0.0
 11
33.33
 21
0.0
 31
0.0
  0
DIMENSION
  5
149
  8
_MEASURES
  2
*D11
 10
21.866
 20
4.500293837417843
 30
0.0
 11
16.666
 21
5.26052576101948
 31
0.0
 70
    32
  1
<>
  3
DEFAULT
 13
11.466
 23
3.5
 33
0.0
 14
21.866
 24
3.5
 34
0.0
  0
DIMENSION
  5
156
  8
_MEASURES
  2
*D12
 10
22.665
 20
11.555924037037
 30
0.0
 11
16.665
 21
12.31615596063864
 31
0.0
 70
    32
  1
<>
  3
DEFAULT
 13
10.665
 23
9.665000000000001
 33
0.0
 14
22.665
 24
9.665000000000001
 34
0.0
  0
LINE
  5
163
  8
_MEASURES
 10
10.665
 20
9.665000000000001
 30
0.0
 11
22.665
 21
9.665000000000001
 31
0.0
  0
LINE
  5
164
  8
_MEASURES
 10
10.665
 20
9.665000000000001
 30
0.0
 11
22.665
 21
9.665000000000001
 31
0.0
  0
LINE
  5
165
  8
_CONSTRUCTIONS
 10
16.665
 20
9.665000000000001
 30
0.0
 11
16.665
 21
-8.414301730280632
 31
0.0
  0
POINT
  5
166
  8
_POINTS
 10
16.66597463097043
 20
79.49000000000001
 30
0.0
  0
POINT
  5
167
  8
_POINTS
 10
16.665
 20
83.325
 30
0.0
  0
CIRCLE
  5
169
  8
OLD-PIR_SMALL
 10
16.66597463097043
 20
83.32402536902957
 30
0.0
 40
5.0
  0
LINE
  5
16A
  8
_CONSTRUCTIONS
 10
0.0
 20
66.66
 30
0.0
 11
33.33
 21
99.99000000000001
 31
0.0
  0
LINE
  5
16B
  8
_CONSTRUCTIONS
 10
0.0
 20
99.99000000000001
 30
0.0
 11
33.33
 21
66.66
 31
0.0
  0
LINE
  5
16C
  8
_CONSTRUCTIONS
 10
11.466
 20
98.75
 30
0.0
 11
11.466
 21
407.86
 31
0.0
  0
LINE
  5
16D
  8
_CONSTRUCTIONS
 10
33.33
 20
99.99000000000001
 30
0.0
 11
-16.78
 21
99.99000000000001
 31
0.0
  0
LINE
  5
16E
  8
_CONSTRUCTIONS
 10
0.0
 20
199.98
 30
0.0
 11
50.67
 21
199.98
 31
0.0
  0
LINE
  5
16F
  8
_CONSTRUCTIONS
 10
16.66597463097043
 20
96.49000000000001
 30
0.0
 11
16.66597463097043
 21
79.49000000000001
 31
0.0
  0
LINE
  5
170
  8
_CONSTRUCTIONS
 10
16.666
 20
98.75
 30
0.0
 11
16.665
 21
9.665000000000001
 31
0.0
  0
LINE
  5
171
  8
_CONSTRUCTIONS
 10
10.665
 20
9.665000000000001
 30
0.0
 11
10.665
 21
7.52
 31
0.0
  0
LINE
  5
172
  8
_CONSTRUCTIONS
 10
10.665
 20
9.665000000000001
 30
0.0
 11
10.665
 21
11.8
 31
0.0
  0
LINE
  5
173
  8
_CONSTRUCTIONS
 10
22.665
 20
9.665000000000001
 30
0.0
 11
22.665
 21
7.63
 31
0.0
  0
LINE
  5
174
  8
_CONSTRUCTIONS
 10
22.665
 20
9.665000000000001
 30
0.0
 11
22.665
 21
12.15
 31
0.0
  0
LINE
  5
175
  8
_CONSTRUCTIONS
 10
16.665
 20
9.665000000000001
 30
0.0
 11
10.665
 21
9.665000000000001
 31
0.0
  0
LINE
  5
176
  8
_CONSTRUCTIONS
 10
16.665
 20
9.665000000000001
 30
0.0
 11
22.665
 21
9.665000000000001
 31
0.0
  0
LINE
  5
177
  8
_CONSTRUCTIONS
 10
16.665
 20
9.665000000000001
 30
0.0
 11
16.665
 21
15.665
 31
0.0
  0
LINE
  5
178
  8
_CONSTRUCTIONS
 10
16.665
 20
9.665000000000001
 30
0.0
 11
-11.44
 21
9.665000000000001
 31
0.0
  0
LINE
  5
179
  8
_CONSTRUCTIONS
 10
16.665
 20
9.665000000000001
 30
0.0
 11
16.665
 21
30.33
 31
0.0
  0
LINE
  5
17A
  8
_CONSTRUCTIONS
 10
16.665
 20
9.665000000000001
 30
0.0
 11
40.74
 21
9.665000000000001
 31
0.0
  0
LINE
  5
17B
  8
_CONSTRUCTIONS
 10
36.83
 20
22.83
 30
0.0
 11
-3.5
 21
-3.5
 31
0.0
  0
LINE
  5
17C
  8
_CONSTRUCTIONS
 10
-3.5
 20
22.83
 30
0.0
 11
36.83
 21
-3.5
 31
0.0
  0
LINE
  5
17D
  8
FIXING_BORDER
 10
-3.5
 20
-3.5
 30
0.0
 11
36.83
 21
-3.5
 31
0.0
  0
LINE
  5
17E
  8
FIXING_BORDER
 10
36.83
 20
-3.5
 30
0.0
 11
36.83
 21
22.83
 31
0.0
  0
LINE
  5
17F
  8
FIXING_BORDER
 10
-3.5
 20
-3.5
 30
0.0
 11
-3.5
 21
22.83
 31
0.0
  0
DIMENSION
  5
180
  8
_MEASURES
  2
*D13
 10
117.69
 20
3.499999999999995
 30
0.0
 11
116.9297680763984
 21
49.995
 31
0.0
 70
    32
  1
<>
  3
DEFAULT
 13
29.83
 23
96.49000000000001
 33
0.0
 14
29.83
 24
3.5
 34
0.0
 50
90.0
  0
LINE
  5
18D
  8
_CONSTRUCTIONS
 10
33.33
 20
99.99000000000001
 30
0.0
 11
36.33
 21
99.99000000000001
 31
0.0
  0
DIMENSION
  5
18E
  8
_MEASURES
  2
*D14
 10
36.83
 20
102.23
 30
0.0
 11
35.08
 21
102.9902319236016
 31
0.0
 70
    32
  1
<>
  3
DEFAULT
 13
33.33
 23
99.99000000000001
 33
0.0
 14
36.83
 24
99.99000000000001
 34
0.0
  0
DIMENSION
  5
19B
  8
_MEASURES
  2
*D15
 10
117.85
 20
133.32
 30
0.0
 11
117.0897680763984
 21
268.39
 31
0.0
 70
    32
  1
<>
  3
DEFAULT
 13
36.83
 23
403.46
 33
0.0
 14
36.83
 24
133.32
 34
0.0
 50
90.0
  0
LINE
  5
1A8
  8
_CONSTRUCTIONS
 10
0.0
 20
133.32
 30
0.0
 11
57.0
 21
133.32
 31
0.0
  0
LINE
  5
1AA
  8
STRIP_CUTS
 10
10.466
 20
396.46
 30
0.0
 11
10.466
 21
399.96
 31
0.0
  0
LINE
  5
1AB
  8
STRIP_CUTS
 10
10.466
 20
399.96
 30
0.0
 11
22.866
 21
399.96
 31
0.0
  0
LINE
  5
1AC
  8
STRIP_CUTS
 10
22.866
 20
399.96
 30
0.0
 11
22.866
 21
396.46
 31
0.0
  0
LINE
  5
1AE
  8
OLD_EGRAVE_STRIP_TOP
 10
10.466
 20
363.1300000000001
 30
0.0
 11
22.866
 21
363.1300000000001
 31
0.0
  0
LINE
  5
1AF
  8
OLD_EGRAVE_STRIP_TOP
 10
22.866
 20
363.1300000000001
 30
0.0
 11
22.866
 21
370.1300000000001
 31
0.0
  0
LINE
  5
1B0
  8
OLD_EGRAVE_STRIP_TOP
 10
22.866
 20
370.1300000000001
 30
0.0
 11
10.466
 21
370.1300000000001
 31
0.0
  0
LINE
  5
1B1
  8
OLD_EGRAVE_STRIP_TOP
 10
10.466
 20
370.1300000000001
 30
0.0
 11
10.466
 21
363.1300000000001
 31
0.0
  0
LINE
  5
1B2
  8
OLD_EGRAVE_STRIP_TOP
 10
10.466
 20
396.46
 30
0.0
 11
22.866
 21
396.46
 31
0.0
  0
LINE
  5
1B3
  8
OLD_EGRAVE_STRIP_TOP
 10
22.866
 20
396.46
 30
0.0
 11
22.866
 21
399.96
 31
0.0
  0
LINE
  5
1B4
  8
OLD_EGRAVE_STRIP_TOP
 10
22.866
 20
399.96
 30
0.0
 11
10.466
 21
399.96
 31
0.0
  0
LINE
  5
1B5
  8
OLD_EGRAVE_STRIP_TOP
 10
10.466
 20
399.96
 30
0.0
 11
10.466
 21
396.46
 31
0.0
  0
DIMENSION
  5
1B6
  8
_MEASURES
  2
*D16
 10
21.866
 20
366.3800000000001
 30
0.0
 11
16.666
 21
367.1402319236017
 31
0.0
 70
    32
  1
<>
  3
DEFAULT
 13
11.466
 23
363.1300000000001
 33
0.0
 14
21.866
 24
363.1300000000001
 34
0.0
  0
LINE
  5
1C3
  8
LED_STRIP10
 10
11.466
 20
99.99000000000001
 30
0.0
 11
21.866
 21
99.99000000000001
 31
0.0
  0
LINE
  5
1C4
  8
LED_STRIP10
 10
21.866
 20
99.99000000000001
 30
0.0
 11
21.866
 21
399.96
 31
0.0
  0
LINE
  5
1C5
  8
LED_STRIP10
 10
21.866
 20
399.96
 30
0.0
 11
11.466
 21
399.96
 31
0.0
  0
LINE
  5
1C6
  8
LED_STRIP10
 10
11.466
 20
399.96
 30
0.0
 11
11.466
 21
99.99000000000001
 31
0.0
  0
LINE
  5
1C7
  8
_CONSTRUCTIONS
 10
21.866
 20
98.75
 30
0.0
 11
21.866
 21
412.49
 31
0.0
  0
LINE
  5
1C8
  8
_CONSTRUCTIONS
 10
16.666
 20
98.75
 30
0.0
 11
11.466
 21
98.75
 31
0.0
  0
LINE
  5
1C9
  8
_CONSTRUCTIONS
 10
16.666
 20
98.75
 30
0.0
 11
21.866
 21
98.75
 31
0.0
  0
LINE
  5
1CB
  8
LED_STRIP12
 10
10.466
 20
99.99000000000001
 30
0.0
 11
22.866
 21
99.99000000000001
 31
0.0
  0
LINE
  5
1CC
  8
LED_STRIP12
 10
22.866
 20
99.99000000000001
 30
0.0
 11
22.866
 21
399.96
 31
0.0
  0
LINE
  5
1CD
  8
LED_STRIP12
 10
22.866
 20
399.96
 30
0.0
 11
10.466
 21
399.96
 31
0.0
  0
LINE
  5
1CE
  8
LED_STRIP12
 10
10.466
 20
399.96
 30
0.0
 11
10.466
 21
99.99000000000001
 31
0.0
  0
LINE
  5
1CF
  8
_CONSTRUCTIONS
 10
16.666
 20
99.36999999999999
 30
0.0
 11
10.466
 21
99.36999999999999
 31
0.0
  0
LINE
  5
1D0
  8
_CONSTRUCTIONS
 10
16.666
 20
99.46
 30
0.0
 11
22.866
 21
99.46
 31
0.0
  0
LINE
  5
1D1
  8
_CONSTRUCTIONS
 10
0.0
 20
99.99000000000001
 30
0.0
 11
33.33
 21
99.99000000000001
 31
0.0
  0
LINE
  5
1D2
  8
_CONSTRUCTIONS
 10
0.0
 20
399.96
 30
0.0
 11
33.33
 21
399.96
 31
0.0
  0
DIMENSION
  5
1D3
  8
_MEASURES
  2
*D17
 10
-43.2
 20
99.99000000000001
 30
0.0
 11
-43.96023192360164
 21
249.975
 31
0.0
 70
    32
  1
<>
  3
DEFAULT
 13
0.0
 23
399.96
 33
0.0
 14
0.0
 24
99.99000000000001
 34
0.0
 50
90.0
  0
LINE
  5
1E0
  8
OLD_EGRAVE_STRIP_TOP
 10
10.466
 20
163.15
 30
0.0
 11
22.866
 21
163.15
 31
0.0
  0
LINE
  5
1E1
  8
OLD_EGRAVE_STRIP_TOP
 10
22.866
 20
163.15
 30
0.0
 11
22.866
 21
170.15
 31
0.0
  0
LINE
  5
1E2
  8
OLD_EGRAVE_STRIP_TOP
 10
22.866
 20
170.15
 30
0.0
 11
10.466
 21
170.15
 31
0.0
  0
LINE
  5
1E3
  8
OLD_EGRAVE_STRIP_TOP
 10
10.466
 20
170.15
 30
0.0
 11
10.466
 21
163.15
 31
0.0
  0
LINE
  5
1E4
  8
OLD_EGRAVE_STRIP_TOP
 10
10.466
 20
129.82
 30
0.0
 11
22.866
 21
129.82
 31
0.0
  0
LINE
  5
1E5
  8
OLD_EGRAVE_STRIP_TOP
 10
22.866
 20
129.82
 30
0.0
 11
22.866
 21
136.82
 31
0.0
  0
LINE
  5
1E6
  8
OLD_EGRAVE_STRIP_TOP
 10
22.866
 20
136.82
 30
0.0
 11
10.466
 21
136.82
 31
0.0
  0
LINE
  5
1E7
  8
OLD_EGRAVE_STRIP_TOP
 10
10.466
 20
136.82
 30
0.0
 11
10.466
 21
129.82
 31
0.0
  0
LINE
  5
1E8
  8
OLD_EGRAVE_STRIP_TOP
 10
10.466
 20
96.49000000000001
 30
0.0
 11
22.866
 21
96.49000000000001
 31
0.0
  0
LINE
  5
1E9
  8
OLD_EGRAVE_STRIP_TOP
 10
22.866
 20
96.49000000000001
 30
0.0
 11
22.866
 21
103.49
 31
0.0
  0
LINE
  5
1EA
  8
OLD_EGRAVE_STRIP_TOP
 10
22.866
 20
103.49
 30
0.0
 11
10.466
 21
103.49
 31
0.0
  0
LINE
  5
1EB
  8
OLD_EGRAVE_STRIP_TOP
 10
10.466
 20
103.49
 30
0.0
 11
10.466
 21
96.49000000000001
 31
0.0
  0
LINE
  5
1EC
  8
OLD_EGRAVE_STRIP_TOP
 10
10.466
 20
196.48
 30
0.0
 11
22.866
 21
196.48
 31
0.0
  0
LINE
  5
1ED
  8
OLD_EGRAVE_STRIP_TOP
 10
22.866
 20
196.48
 30
0.0
 11
22.866
 21
203.48
 31
0.0
  0
LINE
  5
1EE
  8
OLD_EGRAVE_STRIP_TOP
 10
22.866
 20
203.48
 30
0.0
 11
10.466
 21
203.48
 31
0.0
  0
LINE
  5
1EF
  8
OLD_EGRAVE_STRIP_TOP
 10
10.466
 20
203.48
 30
0.0
 11
10.466
 21
196.48
 31
0.0
  0
LINE
  5
1F0
  8
OLD_EGRAVE_STRIP_TOP
 10
10.466
 20
229.81
 30
0.0
 11
22.866
 21
229.81
 31
0.0
  0
LINE
  5
1F1
  8
OLD_EGRAVE_STRIP_TOP
 10
22.866
 20
229.81
 30
0.0
 11
22.866
 21
236.8100000000001
 31
0.0
  0
LINE
  5
1F2
  8
OLD_EGRAVE_STRIP_TOP
 10
22.866
 20
236.8100000000001
 30
0.0
 11
10.466
 21
236.8100000000001
 31
0.0
  0
LINE
  5
1F3
  8
OLD_EGRAVE_STRIP_TOP
 10
10.466
 20
236.8100000000001
 30
0.0
 11
10.466
 21
229.81
 31
0.0
  0
LINE
  5
1F4
  8
OLD_EGRAVE_STRIP_TOP
 10
10.466
 20
263.14
 30
0.0
 11
22.866
 21
263.14
 31
0.0
  0
LINE
  5
1F5
  8
OLD_EGRAVE_STRIP_TOP
 10
22.866
 20
263.14
 30
0.0
 11
22.866
 21
270.14
 31
0.0
  0
LINE
  5
1F6
  8
OLD_EGRAVE_STRIP_TOP
 10
22.866
 20
270.14
 30
0.0
 11
10.466
 21
270.14
 31
0.0
  0
LINE
  5
1F7
  8
OLD_EGRAVE_STRIP_TOP
 10
10.466
 20
270.14
 30
0.0
 11
10.466
 21
263.14
 31
0.0
  0
LINE
  5
1F8
  8
OLD_EGRAVE_STRIP_TOP
 10
10.466
 20
296.47
 30
0.0
 11
22.866
 21
296.47
 31
0.0
  0
LINE
  5
1F9
  8
OLD_EGRAVE_STRIP_TOP
 10
22.866
 20
296.47
 30
0.0
 11
22.866
 21
303.47
 31
0.0
  0
LINE
  5
1FA
  8
OLD_EGRAVE_STRIP_TOP
 10
22.866
 20
303.47
 30
0.0
 11
10.466
 21
303.47
 31
0.0
  0
LINE
  5
1FB
  8
OLD_EGRAVE_STRIP_TOP
 10
10.466
 20
303.47
 30
0.0
 11
10.466
 21
296.47
 31
0.0
  0
LINE
  5
1FC
  8
OLD_EGRAVE_STRIP_TOP
 10
10.466
 20
329.8
 30
0.0
 11
22.866
 21
329.8
 31
0.0
  0
LINE
  5
1FD
  8
OLD_EGRAVE_STRIP_TOP
 10
22.866
 20
329.8
 30
0.0
 11
22.866
 21
336.8
 31
0.0
  0
LINE
  5
1FE
  8
OLD_EGRAVE_STRIP_TOP
 10
22.866
 20
336.8
 30
0.0
 11
10.466
 21
336.8
 31
0.0
  0
LINE
  5
1FF
  8
OLD_EGRAVE_STRIP_TOP
 10
10.466
 20
336.8
 30
0.0
 11
10.466
 21
329.8
 31
0.0
  0
CIRCLE
  5
201
  8
SCREWS-BORDER
 10
0.0
 20
99.99000000000001
 30
0.0
 40
0.95
  0
CIRCLE
  5
202
  8
SCREWS-BORDER
 10
33.33
 20
99.99000000000001
 30
0.0
 40
0.95
  0
CIRCLE
  5
203
  8
SCREWS-BORDER
 10
0.0
 20
299.97
 30
0.0
 40
0.95
  0
CIRCLE
  5
204
  8
SCREWS-BORDER
 10
33.33
 20
299.97
 30
0.0
 40
0.95
  0
CIRCLE
  5
205
  8
SCREWS-BORDER
 10
0.0
 20
199.98
 30
0.0
 40
0.95
  0
CIRCLE
  5
206
  8
SCREWS-BORDER
 10
33.33
 20
199.98
 30
0.0
 40
0.95
  0
CIRCLE
  5
207
  8
SCREWS-BORDER
 10
0.0
 20
0.0
 30
0.0
 40
0.95
  0
CIRCLE
  5
208
  8
SCREWS-BORDER
 10
33.33
 20
0.0
 30
0.0
 40
0.95
  0
CIRCLE
  5
209
  8
SCREWS-BORDER
 10
0.0
 20
399.96
 30
0.0
 40
0.95
  0
CIRCLE
  5
20A
  8
SCREWS-BORDER
 10
33.33
 20
399.96
 30
0.0
 40
0.95
  0
DIMENSION
  5
20B
  8
_MEASURES
  2
*D18
 10
10.466
 20
376.02
 30
0.0
 11
16.666
 21
376.7802319236016
 31
0.0
 70
    32
  1
<>
  3
DEFAULT
 13
22.866
 23
367.3
 33
0.0
 14
10.466
 24
367.3
 34
0.0
  0
LINE
  5
218
  8
STRIP_CUTS
 10
10.466
 20
363.1300000000001
 30
0.0
 11
10.466
 21
370.1300000000001
 31
0.0
  0
LINE
  5
219
  8
STRIP_CUTS
 10
22.866
 20
363.1300000000001
 30
0.0
 11
22.866
 21
370.1300000000001
 31
0.0
  0
LINE
  5
21A
  8
STRIP_CUTS
 10
10.466
 20
329.8
 30
0.0
 11
10.466
 21
336.8
 31
0.0
  0
LINE
  5
21B
  8
STRIP_CUTS
 10
22.866
 20
329.8
 30
0.0
 11
22.866
 21
336.8
 31
0.0
  0
LINE
  5
21C
  8
STRIP_CUTS
 10
10.466
 20
296.47
 30
0.0
 11
10.466
 21
303.47
 31
0.0
  0
LINE
  5
21D
  8
STRIP_CUTS
 10
22.866
 20
296.47
 30
0.0
 11
22.866
 21
303.47
 31
0.0
  0
LINE
  5
21E
  8
STRIP_CUTS
 10
10.466
 20
263.14
 30
0.0
 11
10.466
 21
270.14
 31
0.0
  0
LINE
  5
21F
  8
STRIP_CUTS
 10
22.866
 20
263.14
 30
0.0
 11
22.866
 21
270.14
 31
0.0
  0
LINE
  5
220
  8
STRIP_CUTS
 10
10.466
 20
229.81
 30
0.0
 11
10.466
 21
236.8100000000001
 31
0.0
  0
LINE
  5
221
  8
STRIP_CUTS
 10
22.866
 20
229.81
 30
0.0
 11
22.866
 21
236.81
 31
0.0
  0
LINE
  5
222
  8
STRIP_CUTS
 10
10.466
 20
196.4800000000001
 30
0.0
 11
10.466
 21
203.48
 31
0.0
  0
LINE
  5
223
  8
STRIP_CUTS
 10
22.866
 20
196.48
 30
0.0
 11
22.866
 21
203.48
 31
0.0
  0
LINE
  5
224
  8
STRIP_CUTS
 10
22.866
 20
163.15
 30
0.0
 11
22.866
 21
170.15
 31
0.0
  0
LINE
  5
225
  8
STRIP_CUTS
 10
10.466
 20
163.15
 30
0.0
 11
10.466
 21
170.15
 31
0.0
  0
LINE
  5
226
  8
STRIP_CUTS
 10
22.866
 20
129.82
 30
0.0
 11
22.866
 21
136.8200000000001
 31
0.0
  0
LINE
  5
227
  8
STRIP_CUTS
 10
10.466
 20
129.82
 30
0.0
 11
10.466
 21
136.82
 31
0.0
  0
LINE
  5
228
  8
STRIP_CUTS
 10
22.866
 20
103.49
 30
0.0
 11
22.866
 21
96.49000000000001
 31
0.0
  0
LINE
  5
229
  8
STRIP_CUTS
 10
10.466
 20
103.49
 30
0.0
 11
10.466
 21
96.49000000000001
 31
0.0
  0
LINE
  5
22A
  8
_CONSTRUCTIONS
 10
10.466
 20
100.98
 30
0.0
 11
10.466
 21
415.52
 31
0.0
  0
LINE
  5
22B
  8
_CONSTRUCTIONS
 10
22.866
 20
415.52
 30
0.0
 11
22.866
 21
100.98
 31
0.0
  0
DIMENSION
  5
22C
  8
_MEASURES
  2
*D19
 10
47.98
 20
103.49
 30
0.0
 11
47.21976807639837
 21
116.655
 31
0.0
 70
    32
  1
<>
  3
DEFAULT
 13
29.83
 23
129.82
 33
0.0
 14
29.83
 24
103.49
 34
0.0
 50
90.0
  0
DIMENSION
  5
239
  8
_MEASURES
  2
*D20
 10
47.98
 20
96.49000000000001
 30
0.0
 11
47.21976807639837
 21
99.99000000000001
 31
0.0
 70
    32
  1
<>
  3
DEFAULT
 13
29.83
 23
103.49
 33
0.0
 14
29.83
 24
96.49000000000001
 34
0.0
 50
90.0
  0
DIMENSION
  5
246
  8
_MEASURES
  2
*D21
 10
36.83
 20
-33.51
 30
0.0
 11
33.33
 21
-32.74976807639836
 31
0.0
 70
    32
  1
<>
  3
DEFAULT
 13
29.83
 23
3.5
 33
0.0
 14
36.83
 24
3.5
 34
0.0
  0
DIMENSION
  5
253
  8
_MEASURES
  2
*D22
 10
36.83
 20
-58.46
 30
0.0
 11
16.665
 21
-57.69976807639836
 31
0.0
 70
    32
  1
<>
  3
DEFAULT
 13
-3.5
 23
-3.5
 33
0.0
 14
36.83
 24
-3.5
 34
0.0
  0
DIMENSION
  5
260
  8
_MEASURES
  2
*D23
 10
68.35
 20
403.46
 30
0.0
 11
67.58976807639833
 21
199.98
 31
0.0
 70
    32
  1
<>
  3
DEFAULT
 13
36.83
 23
-3.5
 33
0.0
 14
36.83
 24
403.46
 34
0.0
 50
90.0
  0
LINE
  5
26E
  8
BORDER
 10
-3.5
 20
-3.5
 30
0.0
 11
36.83
 21
-3.5
 31
0.0
  0
LINE
  5
26F
  8
BORDER
 10
36.83
 20
-3.5
 30
0.0
 11
36.83
 21
403.46
 31
0.0
  0
LINE
  5
270
  8
BORDER
 10
36.83
 20
403.46
 30
0.0
 11
-3.5
 21
403.46
 31
0.0
  0
LINE
  5
271
  8
BORDER
 10
-3.5
 20
403.46
 30
0.0
 11
-3.5
 21
-3.5
 31
0.0
  0
LINE
  5
273
  8
GRID_LED
 10
3.5
 20
370.1300000000001
 30
0.0
 11
29.83
 21
370.1300000000001
 31
0.0
  0
LINE
  5
274
  8
GRID_LED
 10
29.83
 20
370.1300000000001
 30
0.0
 11
29.83
 21
396.46
 31
0.0
  0
LINE
  5
275
  8
GRID_LED
 10
29.83
 20
396.46
 30
0.0
 11
3.5
 21
396.46
 31
0.0
  0
LINE
  5
276
  8
GRID_LED
 10
3.5
 20
396.46
 30
0.0
 11
3.5
 21
370.1300000000001
 31
0.0
  0
LINE
  5
277
  8
GRID_LED
 10
3.5
 20
336.8
 30
0.0
 11
29.83
 21
336.8
 31
0.0
  0
LINE
  5
278
  8
GRID_LED
 10
29.83
 20
336.8
 30
0.0
 11
29.83
 21
363.1300000000001
 31
0.0
  0
LINE
  5
279
  8
GRID_LED
 10
29.83
 20
363.1300000000001
 30
0.0
 11
3.5
 21
363.1300000000001
 31
0.0
  0
LINE
  5
27A
  8
GRID_LED
 10
3.5
 20
363.1300000000001
 30
0.0
 11
3.5
 21
336.8
 31
0.0
  0
LINE
  5
27B
  8
GRID_LED
 10
3.5
 20
303.47
 30
0.0
 11
29.83
 21
303.47
 31
0.0
  0
LINE
  5
27C
  8
GRID_LED
 10
29.83
 20
303.47
 30
0.0
 11
29.83
 21
329.8
 31
0.0
  0
LINE
  5
27D
  8
GRID_LED
 10
29.83
 20
329.8
 30
0.0
 11
3.5
 21
329.8
 31
0.0
  0
LINE
  5
27E
  8
GRID_LED
 10
3.5
 20
329.8
 30
0.0
 11
3.5
 21
303.47
 31
0.0
  0
LINE
  5
27F
  8
GRID_LED
 10
3.5
 20
270.14
 30
0.0
 11
29.83
 21
270.14
 31
0.0
  0
LINE
  5
280
  8
GRID_LED
 10
29.83
 20
270.14
 30
0.0
 11
29.83
 21
296.47
 31
0.0
  0
LINE
  5
281
  8
GRID_LED
 10
29.83
 20
296.47
 30
0.0
 11
3.5
 21
296.47
 31
0.0
  0
LINE
  5
282
  8
GRID_LED
 10
3.5
 20
296.47
 30
0.0
 11
3.5
 21
270.14
 31
0.0
  0
LINE
  5
283
  8
GRID_LED
 10
3.5
 20
236.81
 30
0.0
 11
29.83
 21
236.81
 31
0.0
  0
LINE
  5
284
  8
GRID_LED
 10
29.83
 20
236.81
 30
0.0
 11
29.83
 21
263.14
 31
0.0
  0
LINE
  5
285
  8
GRID_LED
 10
29.83
 20
263.14
 30
0.0
 11
3.5
 21
263.14
 31
0.0
  0
LINE
  5
286
  8
GRID_LED
 10
3.5
 20
263.14
 30
0.0
 11
3.5
 21
236.81
 31
0.0
  0
LINE
  5
287
  8
GRID_LED
 10
3.5
 20
203.48
 30
0.0
 11
29.83
 21
203.48
 31
0.0
  0
LINE
  5
288
  8
GRID_LED
 10
29.83
 20
203.48
 30
0.0
 11
29.83
 21
229.81
 31
0.0
  0
LINE
  5
289
  8
GRID_LED
 10
29.83
 20
229.81
 30
0.0
 11
3.5
 21
229.81
 31
0.0
  0
LINE
  5
28A
  8
GRID_LED
 10
3.5
 20
229.81
 30
0.0
 11
3.5
 21
203.48
 31
0.0
  0
LINE
  5
28B
  8
GRID_LED
 10
3.5
 20
170.15
 30
0.0
 11
29.83
 21
170.15
 31
0.0
  0
LINE
  5
28C
  8
GRID_LED
 10
29.83
 20
170.15
 30
0.0
 11
29.83
 21
196.48
 31
0.0
  0
LINE
  5
28D
  8
GRID_LED
 10
29.83
 20
196.48
 30
0.0
 11
3.5
 21
196.48
 31
0.0
  0
LINE
  5
28E
  8
GRID_LED
 10
3.5
 20
196.48
 30
0.0
 11
3.5
 21
170.15
 31
0.0
  0
LINE
  5
28F
  8
GRID_LED
 10
3.5
 20
136.82
 30
0.0
 11
29.83
 21
136.82
 31
0.0
  0
LINE
  5
290
  8
GRID_LED
 10
29.83
 20
136.82
 30
0.0
 11
29.83
 21
163.15
 31
0.0
  0
LINE
  5
291
  8
GRID_LED
 10
29.83
 20
163.15
 30
0.0
 11
3.5
 21
163.15
 31
0.0
  0
LINE
  5
292
  8
GRID_LED
 10
3.5
 20
163.15
 30
0.0
 11
3.5
 21
136.82
 31
0.0
  0
DIMENSION
  5
293
  8
_MEASURES
  2
*D24
 10
29.83
 20
-24.84
 30
0.0
 11
16.665
 21
-24.07976807639836
 31
0.0
 70
    32
  1
<>
  3
DEFAULT
 13
3.5
 23
3.5
 33
0.0
 14
29.83
 24
3.5
 34
0.0
  0
LINE
  5
2A1
  8
GRID_PCB
 10
3.5
 20
3.5
 30
0.0
 11
29.83
 21
3.5
 31
0.0
  0
LINE
  5
2A2
  8
GRID_PCB
 10
29.83
 20
3.5
 30
0.0
 11
29.83
 21
96.49000000000001
 31
0.0
  0
LINE
  5
2A3
  8
GRID_PCB
 10
29.83
 20
96.49000000000001
 30
0.0
 11
3.5
 21
96.49000000000001
 31
0.0
  0
LINE
  5
2A4
  8
GRID_PCB
 10
3.5
 20
96.49000000000001
 30
0.0
 11
3.5
 21
3.5
 31
0.0
  0
LINE
  5
2A5
  8
GRID_LED
 10
3.5
 20
103.49
 30
0.0
 11
29.83
 21
103.49
 31
0.0
  0
LINE
  5
2A6
  8
GRID_LED
 10
29.83
 20
103.49
 30
0.0
 11
29.83
 21
129.82
 31
0.0
  0
LINE
  5
2A7
  8
GRID_LED
 10
29.83
 20
129.82
 30
0.0
 11
3.5
 21
129.82
 31
0.0
  0
LINE
  5
2A8
  8
GRID_LED
 10
3.5
 20
129.82
 30
0.0
 11
3.5
 21
103.49
 31
0.0
  0
POINT
  5
2A9
  8
_POINTS
 10
-3.5
 20
-3.5
 30
0.0
  0
POINT
  5
2AA
  8
_POINTS
 10
29.83
 20
-3.5
 30
0.0
  0
POINT
  5
2AB
  8
_POINTS
 10
-3.5
 20
29.83000000000001
 30
0.0
  0
POINT
  5
2AC
  8
_POINTS
 10
29.83
 20
29.83000000000001
 30
0.0
  0
POINT
  5
2AD
  8
_POINTS
 10
-3.5
 20
63.16000000000001
 30
0.0
  0
POINT
  5
2AE
  8
_POINTS
 10
29.83
 20
63.16000000000001
 30
0.0
  0
POINT
  5
2AF
  8
_POINTS
 10
-3.5
 20
96.49000000000001
 30
0.0
  0
POINT
  5
2B0
  8
_POINTS
 10
29.83
 20
96.49000000000001
 30
0.0
  0
POINT
  5
2B1
  8
_POINTS
 10
-3.5
 20
129.82
 30
0.0
  0
POINT
  5
2B2
  8
_POINTS
 10
29.83
 20
129.82
 30
0.0
  0
POINT
  5
2B3
  8
_POINTS
 10
-3.5
 20
163.15
 30
0.0
  0
POINT
  5
2B4
  8
_POINTS
 10
29.83
 20
163.15
 30
0.0
  0
POINT
  5
2B5
  8
_POINTS
 10
-3.5
 20
196.48
 30
0.0
  0
POINT
  5
2B6
  8
_POINTS
 10
29.83
 20
196.48
 30
0.0
  0
POINT
  5
2B7
  8
_POINTS
 10
-3.5
 20
229.81
 30
0.0
  0
POINT
  5
2B8
  8
_POINTS
 10
29.83
 20
229.81
 30
0.0
  0
POINT
  5
2B9
  8
_POINTS
 10
-3.5
 20
263.14
 30
0.0
  0
POINT
  5
2BA
  8
_POINTS
 10
29.83
 20
263.14
 30
0.0
  0
POINT
  5
2BB
  8
_POINTS
 10
-3.5
 20
296.47
 30
0.0
  0
POINT
  5
2BC
  8
_POINTS
 10
29.83
 20
296.47
 30
0.0
  0
POINT
  5
2BD
  8
_POINTS
 10
-3.5
 20
329.8
 30
0.0
  0
POINT
  5
2BE
  8
_POINTS
 10
29.83
 20
329.8
 30
0.0
  0
POINT
  5
2BF
  8
_POINTS
 10
-3.5
 20
363.1300000000001
 30
0.0
  0
POINT
  5
2C0
  8
_POINTS
 10
29.83
 20
363.1300000000001
 30
0.0
  0
POINT
  5
2C1
  8
_POINTS
 10
-3.5
 20
396.46
 30
0.0
  0
POINT
  5
2C2
  8
_POINTS
 10
29.83
 20
396.46
 30
0.0
  0
POINT
  5
2C3
  8
_POINTS
 10
3.5
 20
3.5
 30
0.0
  0
POINT
  5
2C4
  8
_POINTS
 10
36.83
 20
3.5
 30
0.0
  0
POINT
  5
2C5
  8
_POINTS
 10
3.5
 20
36.83000000000001
 30
0.0
  0
POINT
  5
2C6
  8
_POINTS
 10
36.83
 20
36.83000000000001
 30
0.0
  0
POINT
  5
2C7
  8
_POINTS
 10
3.5
 20
70.16000000000001
 30
0.0
  0
POINT
  5
2C8
  8
_POINTS
 10
36.83
 20
70.16000000000001
 30
0.0
  0
POINT
  5
2C9
  8
_POINTS
 10
3.5
 20
103.49
 30
0.0
  0
POINT
  5
2CA
  8
_POINTS
 10
36.83
 20
103.49
 30
0.0
  0
POINT
  5
2CB
  8
_POINTS
 10
3.5
 20
136.82
 30
0.0
  0
POINT
  5
2CC
  8
_POINTS
 10
36.83
 20
136.82
 30
0.0
  0
POINT
  5
2CD
  8
_POINTS
 10
3.5
 20
170.15
 30
0.0
  0
POINT
  5
2CE
  8
_POINTS
 10
36.83
 20
170.15
 30
0.0
  0
POINT
  5
2CF
  8
_POINTS
 10
3.5
 20
203.48
 30
0.0
  0
POINT
  5
2D0
  8
_POINTS
 10
36.83
 20
203.48
 30
0.0
  0
POINT
  5
2D1
  8
_POINTS
 10
3.5
 20
236.81
 30
0.0
  0
POINT
  5
2D2
  8
_POINTS
 10
36.83
 20
236.81
 30
0.0
  0
POINT
  5
2D3
  8
_POINTS
 10
3.5
 20
270.14
 30
0.0
  0
POINT
  5
2D4
  8
_POINTS
 10
36.83
 20
270.14
 30
0.0
  0
POINT
  5
2D5
  8
_POINTS
 10
3.5
 20
303.47
 30
0.0
  0
POINT
  5
2D6
  8
_POINTS
 10
36.83
 20
303.47
 30
0.0
  0
POINT
  5
2D7
  8
_POINTS
 10
3.5
 20
336.8
 30
0.0
  0
POINT
  5
2D8
  8
_POINTS
 10
36.83
 20
336.8
 30
0.0
  0
POINT
  5
2D9
  8
_POINTS
 10
3.5
 20
370.1300000000001
 30
0.0
  0
POINT
  5
2DA
  8
_POINTS
 10
36.83
 20
370.1300000000001
 30
0.0
  0
POINT
  5
2DB
  8
_POINTS
 10
3.5
 20
403.46
 30
0.0
  0
POINT
  5
2DC
  8
_POINTS
 10
36.83
 20
403.46
 30
0.0
  0
LINE
  5
2DD
  8
_CONSTRUCTIONS
 10
0.0
 20
0.0
 30
0.0
 11
-3.5
 21
-3.5
 31
0.0
  0
LINE
  5
2DE
  8
_CONSTRUCTIONS
 10
0.0
 20
0.0
 30
0.0
 11
3.5
 21
3.5
 31
0.0
  0
LINE
  5
2DF
  8
_CONSTRUCTIONS
 10
33.33
 20
399.96
 30
0.0
 11
29.83
 21
396.46
 31
0.0
  0
LINE
  5
2E0
  8
_CONSTRUCTIONS
 10
33.33
 20
399.96
 30
0.0
 11
36.83
 21
403.46
 31
0.0
  0
LINE
  5
2E1
  8
_CONSTRUCTIONS
 10
16.666
 20
98.75
 30
0.0
 11
16.666
 21
449.11
 31
0.0
  0
POINT
  5
2E2
  8
_POINTS
 10
0.0
 20
0.0
 30
0.0
  0
POINT
  5
2E3
  8
_POINTS
 10
33.33
 20
0.0
 30
0.0
  0
POINT
  5
2E4
  8
_POINTS
 10
0.0
 20
33.33
 30
0.0
  0
POINT
  5
2E5
  8
_POINTS
 10
33.33
 20
33.33
 30
0.0
  0
POINT
  5
2E6
  8
_POINTS
 10
0.0
 20
66.66
 30
0.0
  0
POINT
  5
2E7
  8
_POINTS
 10
33.33
 20
66.66
 30
0.0
  0
POINT
  5
2E8
  8
_POINTS
 10
0.0
 20
99.99000000000001
 30
0.0
  0
POINT
  5
2E9
  8
_POINTS
 10
33.33
 20
99.99000000000001
 30
0.0
  0
POINT
  5
2EA
  8
_POINTS
 10
0.0
 20
133.32
 30
0.0
  0
POINT
  5
2EB
  8
_POINTS
 10
33.33
 20
133.32
 30
0.0
  0
POINT
  5
2EC
  8
_POINTS
 10
0.0
 20
166.65
 30
0.0
  0
POINT
  5
2ED
  8
_POINTS
 10
33.33
 20
166.65
 30
0.0
  0
POINT
  5
2EE
  8
_POINTS
 10
0.0
 20
199.98
 30
0.0
  0
POINT
  5
2EF
  8
_POINTS
 10
33.33
 20
199.98
 30
0.0
  0
POINT
  5
2F0
  8
_POINTS
 10
0.0
 20
233.31
 30
0.0
  0
POINT
  5
2F1
  8
_POINTS
 10
33.33
 20
233.31
 30
0.0
  0
POINT
  5
2F2
  8
_POINTS
 10
0.0
 20
266.64
 30
0.0
  0
POINT
  5
2F3
  8
_POINTS
 10
33.33
 20
266.64
 30
0.0
  0
POINT
  5
2F4
  8
_POINTS
 10
0.0
 20
299.97
 30
0.0
  0
POINT
  5
2F5
  8
_POINTS
 10
33.33
 20
299.97
 30
0.0
  0
POINT
  5
2F6
  8
_POINTS
 10
0.0
 20
333.3
 30
0.0
  0
POINT
  5
2F7
  8
_POINTS
 10
33.33
 20
333.3
 30
0.0
  0
POINT
  5
2F8
  8
_POINTS
 10
0.0
 20
366.63
 30
0.0
  0
POINT
  5
2F9
  8
_POINTS
 10
33.33
 20
366.63
 30
0.0
  0
POINT
  5
2FA
  8
_POINTS
 10
0.0
 20
399.96
 30
0.0
  0
POINT
  5
2FB
  8
_POINTS
 10
33.33
 20
399.96
 30
0.0
  0
POINT
  5
2FC
  8
_POINTS
 10
0.0
 20
433.2900000000001
 30
0.0
  0
POINT
  5
2FD
  8
_POINTS
 10
33.33
 20
433.2900000000001
 30
0.0
  0
POINT
  5
2FE
  8
_POINTS
 10
0.0
 20
466.62
 30
0.0
  0
POINT
  5
2FF
  8
_POINTS
 10
33.33
 20
466.62
 30
0.0
  0
POINT
  5
300
  8
_POINTS
 10
0.0
 20
499.95
 30
0.0
  0
POINT
  5
301
  8
_POINTS
 10
33.33
 20
499.95
 30
0.0
  0
POINT
  5
302
  8
_POINTS
 10
0.0
 20
533.28
 30
0.0
  0
POINT
  5
303
  8
_POINTS
 10
33.33
 20
533.28
 30
0.0
  0
POINT
  5
304
  8
_POINTS
 10
0.0
 20
566.61
 30
0.0
  0
POINT
  5
305
  8
_POINTS
 10
33.33
 20
566.61
 30
0.0
  0
POINT
  5
306
  8
_POINTS
 10
0.0
 20
599.94
 30
0.0
  0
POINT
  5
307
  8
_POINTS
 10
33.33
 20
599.94
 30
0.0
  0
POINT
  5
308
  8
_POINTS
 10
0.0
 20
633.27
 30
0.0
  0
POINT
  5
309
  8
_POINTS
 10
33.33
 20
633.27
 30
0.0
  0
POINT
  5
30A
  8
_POINTS
 10
0.0
 20
666.6
 30
0.0
  0
POINT
  5
30B
  8
_POINTS
 10
33.33
 20
666.6
 30
0.0
  0
LINE
  5
30C
  8
_CONSTRUCTIONS
 10
16.666
 20
415.52
 30
0.0
 11
10.466
 21
415.52
 31
0.0
  0
LINE
  5
30D
  8
_CONSTRUCTIONS
 10
16.666
 20
415.52
 30
0.0
 11
22.866
 21
415.52
 31
0.0
  0
POINT
  5
30E
  8
_POINTS
 10
0.0
 20
0.0
 30
0.0
  0
POINT
  5
30F
  8
_POINTS
 10
0.0
 20
166.66
 30
0.0
  0
ENDSEC
  0
EOF
